<svg id="coeur2" xmlns="http://www.w3.org/2000/svg" xmlns:xlink="http://www.w3.org/1999/xlink" width="106.535" height="118.747" viewBox="0 0 106.535 118.747">
  <defs>
    <style>
      .cls-1 {
        fill: url(#radial-gradient);
      }
    </style>
    <radialGradient id="radial-gradient" cx="0.5" cy="0.5" r="0.849" gradientTransform="matrix(1, 0, 0, 0.673, 0, 0.163)" gradientUnits="objectBoundingBox">
      <stop offset="0" stop-color="#fff"/>
      <stop offset="1" stop-color="#919191" stop-opacity="0.725"/>
    </radialGradient>
  </defs>
  <path id="path79" class="cls-1" d="M88.533,144.323c-.139-.177-.166-.391-.059-.475.289-.228.6.107.448.476-.109.259-.185.258-.389,0Zm1.1-.034c0-.14.154-.254.342-.254s.252.115.142.254a.643.643,0,0,1-.342.254C89.7,144.544,89.637,144.429,89.637,144.289Zm.969-.015c0-.148.145-.2.323-.112s.323.208.323.269-.145.112-.323.112A.3.3,0,0,1,90.606,144.274Zm-4.367-1.009c-.4-.349-.664-.422-.817-.227s-.3.2-.426.033c-.356-.454.827-.594,1.242-.147a.723.723,0,0,0,.713.27c.175-.085.318.012.318.216,0,.51-.331.464-1.03-.144Zm20.011-.221a17.544,17.544,0,0,0-2.476-.146c-2.367-.047-4.126-.307-4.126-.608a29.261,29.261,0,0,0-4.349-.138,19.079,19.079,0,0,1-4.179-.191c.093-.119.016-.216-.172-.216a.313.313,0,0,0-.342.267c0,.161-.64.237-1.615.191a5.359,5.359,0,0,1-1.615-.2c0-.07-.4-.142-.888-.161a6.969,6.969,0,0,1-3.113-.579.976.976,0,0,0-1.069-.051c-.533.244-.535.267-.027.275.582.008.459.771-.124.771-.169,0-.227-.1-.129-.228s-.048-.3-.326-.38c-.341-.1-.436-.323-.293-.679.195-.483.154-.5-.5-.192-.567.265-.747.268-.862.016a.673.673,0,0,0-.577-.318.716.716,0,0,1-.593-.318c-.115-.225-.17-.23-.188-.018s-.3.233-1.075.044c-.577-.141-1.268-.279-1.534-.307a30.87,30.87,0,0,1-5.109-1.467,12.635,12.635,0,0,0-2.826-.733c-.432,0-.785-.121-.785-.269s-.146-.2-.325-.111a.408.408,0,0,1-.518-.238.4.4,0,0,0-.484-.254.4.4,0,0,1-.484-.254c-.106-.218-.323-.333-.482-.256s-.289.033-.289-.1-.545-.443-1.211-.691a7.157,7.157,0,0,1-1.937-1.11c-.4-.363-.726-.566-.727-.452s-.436-.036-.969-.335-.969-.638-.969-.754a3.8,3.8,0,0,0-.971-1.029,8.314,8.314,0,0,1-1.517-1.744,3.5,3.5,0,0,0-.97-1.13,3.207,3.207,0,0,1-.923-1.018c-1.067-1.737-1.283-1.947-2.151-2.1-.493-.085-.9-.244-.9-.353,0-.7-5.333-4.325-6.385-4.336-.693-.008-3.734-2.643-4.707-4.078a14.38,14.38,0,0,1-2.151-4.928,25.27,25.27,0,0,0-1.453-4.823c-.207-.387-.119-.453.514-.382,1.348.151,1.061-.674-.778-2.239a11.1,11.1,0,0,1-1.766-1.7.616.616,0,0,0-.253-.382c-.132-.093-.136-.026-.008.148.362.5-.079.379-1.4-.369-1.044-.591-2.6-2.55-2.607-3.292a7.444,7.444,0,0,0-1.288-1.49,5.849,5.849,0,0,1-1.288-1.59.322.322,0,0,0-.319-.318c-.574,0-1.421-1.314-1.527-2.369a3.6,3.6,0,0,0-.613-1.65,1.382,1.382,0,0,1-.349-1.1c.088-.266.029-.419-.132-.341-.429.209-.357-.244.095-.6.235-.185.256-.305.052-.305-.333,0-.346-3.3-.02-5.47a1.9,1.9,0,0,0-.214-1.375c-.2-.2-.33-.4-.286-.445a2.091,2.091,0,0,0,.081-.724c0-.919-.836-.794-1.272.191-.405.916-.465.883-1.676-.925-.522-.779-.574-1.032-.245-1.192a.925.925,0,0,1,.671-.079c.14.068.158-.073.041-.313-.13-.267-.084-.374.117-.276.573.279.294-.918-.481-2.066-1-1.484-1.123-2.3-1.036-7.043.041-2.239.065-5.146.053-6.459a8.663,8.663,0,0,1,.3-2.862c.18-.265.193-.474.03-.474-.359,0-.107-1.869.327-2.417a4.405,4.405,0,0,0,.4-1.253,3.391,3.391,0,0,1,.473-1.272,3.388,3.388,0,0,0,.444-1.34,5.983,5.983,0,0,1,.689-1.884,3.807,3.807,0,0,0,.518-1.718c0-.781.053-.843.4-.467s.407.313.429-.482a1.424,1.424,0,0,1,.445-1.119c.231-.112.32-.332.2-.487s-.087-.283.078-.283.382-.484.483-1.076.322-1.112.493-1.157.229-.323.131-.618c-.121-.366-.059-.479.2-.354.352.171.548-.567.435-1.629a2.9,2.9,0,0,1,.255-1.081c.245-.58.2-.7-.252-.7-.339,0-.414-.075-.2-.191,1.116-.592,1.742-5.887.8-6.78-.274-.26-.327-.814-.173-1.789.176-1.11.129-1.414-.217-1.417s-.334-.058.044-.251.387-.247.043-.251c-.3,0-.39-.213-.287-.64.085-.35.011-.636-.163-.636-.2,0-.205-.119-.018-.318a1.634,1.634,0,0,0,.267-1.022c-.018-.387.115-.665.3-.617s.352.434.379.859a4.485,4.485,0,0,0,1.435,3.017c.67.478,1.333.314.712-.176-.267-.21-.24-.381.1-.65.588-.463.584-.707-.021-1.183-.266-.21-.484-.455-.484-.544,0-.315,1.813.894,5.259,3.506,2.476,1.877,3.425,2.759,3.283,3.049a.571.571,0,0,1-.66.269c-.322-.1-.4-.015-.262.27a.785.785,0,0,0,.639.41c.273,0,.371.169.258.445-.141.345-.11.366.135.095a.6.6,0,0,1,.623-.2c.641.312,2.079,2.189,1.876,2.448-.117.149,0,.442.269.651.606.477.735.475.974-.015.11-.226.056-.329-.127-.239s-.319-.091-.319-.393c0-.633-.966-2.026-1.4-2.026a4.3,4.3,0,0,1-1.824-1.621c0-.646,4.83,3.3,4.895,4,.028.3.092,1.178.141,1.948s.115,1.686.145,2.035l.055.636.351-.7c.193-.385.448-.7.567-.7a8.841,8.841,0,0,1,.146,2.735,26.371,26.371,0,0,1-.142,2.735,1.162,1.162,0,0,0-.19.509c-.065.28-.2.878-.311,1.329a1.729,1.729,0,0,1-.745,1.074c-.4.183-.426.256-.1.261.375.006.368.085-.04.453a7.447,7.447,0,0,0-1.064,1.413c-.374.634-.728.92-1.027.83-.251-.076-.369-.027-.263.108.211.269-.331,1.191-1.018,1.733A.779.779,0,0,0,40,56.3c.492.4.654,2.419.211,2.635-.168.082-.305-.144-.305-.5s-.141-.651-.313-.651-.236.157-.143.348-.089.4-.445.475c-.506.1-.684-.087-1.008-1.085a3.64,3.64,0,0,1,.784-3.666c.658-.678.6-1.232-.167-1.61-.355-.175-.646-.451-.646-.614a1.525,1.525,0,0,0-.536-.763c-.295-.257-.444-.539-.332-.628.311-.245,2.41,1.109,2.653,1.713l.214.531.615-.52a1.674,1.674,0,0,0,.615-.913c0-.216.11-.392.244-.392.4,0,1-1.777.647-1.946-.171-.083-.232-.457-.137-.832.167-.658-.125-1.359-.548-1.315-.648.068-.852-.018-.852-.36a.357.357,0,0,0-.323-.382.367.367,0,0,1-.323-.4c0-.218-.129-.334-.286-.257-.341.166-2.821-1.563-2.549-1.777a13.549,13.549,0,0,1,3.75,1.983c.268.482.7.12.7-.586,0-.665-.1-.756-.646-.619-.441.11-.646.046-.646-.2,0-.2-.654-.561-1.453-.8-1.422-.428-1.932-.9-.969-.9.266,0,.484.137.484.305,0,.21.1.223.333.043s.227-.47.021-.878c-.172-.339-.322-.481-.333-.317s-.371.053-.811-.254l-.79-.553.83-.177a1.518,1.518,0,0,1,1.313.2,3.761,3.761,0,0,0,1.439.531,2.459,2.459,0,0,1,1.331.624,1.219,1.219,0,0,0,.755.473.618.618,0,0,1,.524.318.274.274,0,0,0,.43.106c.161-.119-.1-.431-.586-.712-.518-.3-.8-.65-.691-.87.1-.2.031-.37-.151-.37s-.477-.315-.655-.7-.336-.557-.35-.382-.239.318-.5.318-.41-.143-.332-.318c.155-.347-.254-.81-1.4-1.58-.632-.425-.785-.444-1.039-.127s-.3.3-.3-.065c0-.24-.3-.559-.651-.709s-.646-.383-.646-.518c0-.324,1.2-.317,1.453.009a.783.783,0,0,0,.547.254c.191,0-.072-.254-.584-.564a7.611,7.611,0,0,1-1.141-.8.812.812,0,0,0-.741-.076c-.423.128-.46.265-.183.673.294.432.25.513-.282.513a.972.972,0,0,0-.793.318c-.1.19-.173.139-.188-.127a.4.4,0,0,1,.378-.449c.313,0,.31-.051-.013-.212-.283-.141-.362-.568-.247-1.332.126-.842.1-.964-.117-.488-.325.725-.441.5-.358-.7.034-.493-.1-.827-.325-.827-.21,0-.3-.163-.205-.363.2-.406-.447-1.667-.853-1.67-.144,0-.171-.116-.062-.256s-.027-.254-.3-.254-.515.086-.528.191-.073.391-.133.636,0,.445.135.445c.432,0,1.017,1.994.792,2.7-.148.464-.1.629.134.512s.343.316.324,1.362c-.026,1.452-.051,1.5-.465.87-.24-.365-.359-.763-.263-.885s-.028-.525-.274-.9c-.349-.525-.491-.588-.64-.282-.112.231.021.457.322.548.451.136.438.2-.1.53-.6.368-.6.381.012.756.348.212.447.382.223.382s-.314.114-.2.254.058.254-.116.254a.608.608,0,0,1-.478-.318c-.1-.187-.173-.131-.188.135-.014.249-.352.557-.752.684-.557.176-.594.234-.161.246.59.017.737.3.323.631a8.037,8.037,0,0,0-.257,2.561,7.064,7.064,0,0,1-.359,2.714,3.266,3.266,0,0,0-.539,1.34,2.134,2.134,0,0,1-.61,1.233c-.3.169-.256.2.15.092.724-.183.775.557.054.775-.281.085-.39.225-.242.31a1.553,1.553,0,0,1,.75,1.682A19.179,19.179,0,0,0,27.838,52.7a7.7,7.7,0,0,1-.53,1.4,5.661,5.661,0,0,0-.474,1.365,1.177,1.177,0,0,1-.519.81,1.293,1.293,0,0,0-.4,1.116c.022.611-.112.908-.41.908-.246,0-.365-.158-.269-.356a.389.389,0,0,0-.168-.522c-.2-.1-.269-.017-.165.2a.659.659,0,0,1-.246.713,3.876,3.876,0,0,0-.517,2c-.074,1.294.039,1.81.521,2.37l.616.716.2-.78c.381-1.5.787-.759.789,1.447,0,2.275.247,3.371.755,3.371a.329.329,0,0,1,.285.358c0,.233.226.311.646.225.372-.077.646-.008.646.162s-.254.262-.565.22c-.477-.063-.566.131-.572,1.245a3.524,3.524,0,0,1-.2,1.475c-.323.255.5,1.4,1,1.4.364,0,.382-.066.081-.3-.617-.486-.491-1.233.178-1.052.455.124.439.076-.08-.242-.817-.5-.455-.793.979-.793.7,0,1.12-.123,1.12-.331,0-.182-.291-.331-.646-.331s-.646-.112-.646-.248c0-.152.281-.164.727-.03a5.968,5.968,0,0,0,1.037.229c.171.006.4.218.514.47.187.421.235.413.578-.092a2.464,2.464,0,0,0,.374-1.171,6.971,6.971,0,0,1,.2-1.4c.153-.6.287-.713.6-.485a.83.83,0,0,1,.269.81c-.072.284.1.131.372-.34.555-.946.66-1.388.192-.805-.165.206-.4.3-.512.208-.348-.274.169-.709.841-.709.654,0,.864.618.3.891-.416.2-.417,1.935,0,2.8.214.443.214.615,0,.51-.177-.086-.322-.036-.322.113a.277.277,0,0,0,.282.269c.155,0,.377.487.493,1.081s.3,1.453.4,1.908c.148.647.078.827-.321.827-.347,0-.446-.142-.309-.445s-.013-.257-.495.166a2.1,2.1,0,0,0-.691.89c0,.157.125.13.278-.06.215-.267.327-.24.527.127.446.819.313,2.375-.2,2.375-.2,0-.286-.223-.195-.5a.728.728,0,0,0-.282-.792c-.246-.161-.354-.412-.24-.558s.053-.189-.146-.093c-.252.123-.256.393-.013.943.188.424.27.827.183.895a7.1,7.1,0,0,1-1.209-2.7c0-.425-.9-1.058-1.112-.785a.19.19,0,0,0,.111.32c.162.047.386.543.5,1.1s.274,1.361.364,1.781a3.736,3.736,0,0,0,.8,1.453,2.52,2.52,0,0,1,.635.972,1.233,1.233,0,0,0,.487.667c.268.211.414.477.325.591s.035.267.277.34c.432.131.948,1.455.561,1.439a2.845,2.845,0,0,1-.78-.356c-.436-.26-.476-.381-.161-.481.272-.086.221-.14-.144-.153-.311-.011-.565-.178-.565-.372s-.305-.415-.678-.492-.583-.262-.465-.411.019-.272-.217-.272c-.458,0-1.44-1.317-1.612-2.163-.065-.321-.37-.519-.826-.538-.852-.034-.862,0-.261.88.8,1.168,1.1,2.209.778,2.666-.2.279-.186.426.036.426a.345.345,0,0,0,.35-.318c.007-.175.219-.032.473.318.525.724.614,1.111.209.913-.362-.176-1.016.973-1.016,1.787a2.437,2.437,0,0,1-.355,1.164c-.27.4-.263.478.031.335.259-.126.343-.032.255.287a.513.513,0,0,1-.519.411c-.294-.049-.289.067.019.479.327.436.327.566,0,.659-.223.064-.324.22-.223.348s-.05.233-.335.233-.483.143-.44.318a1.871,1.871,0,0,1-.174.9.829.829,0,0,0,.11.927c.2.188.339.441.311.56a.8.8,0,0,0,.029.408,3.885,3.885,0,0,1,.13.382,4.263,4.263,0,0,0,.455.763c.253.359.279.572.069.572-.184,0-.044.229.312.509a2.41,2.41,0,0,0,.929.509c.545,0,1.136.816,1.19,1.643.048.75.783,2.221,2.342,4.689a2.363,2.363,0,0,0,1.087.979c.3.066.467.273.37.473a.388.388,0,0,1-.512.19c-.711-.346.143.421,1.011.908l.907.509.043-.942c.031-.688-.041-.839-.266-.561-.255.315-.31.293-.314-.13a1.132,1.132,0,0,0-.649-.828c-.631-.31-.715-.894-.219-1.52.144-.182-.1-.781-.574-1.422a4.836,4.836,0,0,1-.824-1.421,1.221,1.221,0,0,0-.484-.7,1.092,1.092,0,0,1-.459-.681c.018-.211.074-.206.188.018.1.2.462.258.992.154.617-.122.765-.082.579.155s-.066.273.436.147c.6-.149.686-.071.686.594,0,.9.479,1.221,1.158.778.418-.273.465-.187.351.633s-.025.981.652,1.184c.432.129.691.355.575.5-.146.186-.335.185-.624,0-.655-.428-.933,1.146-.33,1.871.265.318.4.639.311.713s.062.286.346.472c.431.282.563.279.793-.013a.726.726,0,0,0-.04-.816c-.381-.56-.188-.857.673-1.034.562-.116.6-.066.295.383-.331.487.016.943.728.956.112,0,.284.244.382.538.109.327.324.463.557.35.269-.131.318-.008.168.42-.185.53-.166.547.156.14.2-.255.283-.531.18-.613s-.008-.324.213-.539c.324-.315.319-.352-.024-.189-.286.136-.484.027-.6-.333a.756.756,0,0,0-.614-.534c-.278,0-.36-.157-.226-.432s.259-.318.34-.127a.7.7,0,0,0,1.153-.013c.13-.254.168-.254.188,0a.368.368,0,0,0,.37.318c.2,0,.257-.217.14-.509-.162-.4-.058-.509.5-.509s.636.068.326.362-.262.337.283.225c.83-.171.839-.46.034-1.141a5.53,5.53,0,0,1-1.133-1.7c-.429-.992-.437-1.214-.053-1.516.312-.246.516-.269.668-.075.12.153.065.279-.123.279a.313.313,0,0,0-.342.269c0,.148.129.206.288.129s.384.265.5.761c.178.746.323.874.843.744s.628-.034.628.623c0,.429.145.78.323.78s.326-.2.33-.445c.006-.361.127-.325.641.191a4.648,4.648,0,0,1,.832,1.106,4.155,4.155,0,0,0,2.027,1.673c.875.369,1.015.347,1.015-.159,0-.31.1-.355.349-.157.368.29-.237,1.353-.769,1.353-.145,0-.175-.114-.065-.254.253-.322-.175-.322-.807,0-.4.2-.4.247-.027.251.252,0,.384.062.294.133-.323.254-2.194-.191-2.012-.478.1-.158-.182.024-.627.405-.528.451-.865.584-.969.382-.088-.171-.171-.065-.185.235a.826.826,0,0,1-.543.7c-.285.086-.439.318-.343.515.186.382-.614.753-1.106.514-.162-.079-.294-.034-.294.1,0,.276-1.316.6-2.745.675-1.6.084-1.659.107-2.032.752-.282.488-.249.8.156,1.435a15.6,15.6,0,0,1,1.391,5.147c0,.911,2.065,4.267,3.093,5.028.43.318.782.718.782.889s.391.387.869.482a3.619,3.619,0,0,1,1.477.727c2.012,1.839,2.77,2.419,2.962,2.268.119-.094.126.015.016.241a.427.427,0,0,0,.144.58c.19.092.345-.011.345-.231,0-.335.1-.348.646-.081a1.106,1.106,0,0,1,.646.793c0,.318.16.426.484.328s.484.012.484.339a.751.751,0,0,0,.306.635c.169.082.247-.092.174-.389-.11-.451-.054-.488.348-.225.264.172.412.366.33.431s.207.378.643.7c.527.385.726.738.6,1.055-.159.384-.132.4.139.1.422-.47.672-.283.762.572.054.511.166.6.485.394.525-.343.549.093.028.5-.3.237-.261.305.181.305.351,0,.479.113.335.3s-.064.247.25.151c.288-.087.484,0,.484.211a.4.4,0,0,1-.431.357c-.5,0-.574.409-.108.636.178.086.323.036.323-.112a.313.313,0,0,1,.342-.269c.188,0,.258.107.156.237s-.016.32.192.421c.236.115.292.074.148-.11-.347-.442.312-.353.8.107.35.332.343.444-.041.653-.347.188-.285.212.243.1a.861.861,0,0,1,1.038.332c.182.268.227.578.1.689s-.024.107.228-.008c.345-.158.406-.1.246.227q-.213.437.156.257a.685.685,0,0,1,.723.193,2.546,2.546,0,0,0,.953.55c.361.107.525.328.414.557-.222.456.316.517.551.061.12-.233.235-.241.431-.029A8.971,8.971,0,0,0,68.18,135.7c.434.028.788.153.788.278s.218.16.484.08.484-.048.484.072.338.286.751.367a5.591,5.591,0,0,1,1.763.91c.557.419,1.1.653,1.2.52s.429-.124.8.059c.335.165.544.384.464.486s-.009.253.159.334.4-.082.511-.364c.206-.511.809-.721.809-.282a4.666,4.666,0,0,0,1.857.65l3.552.8c.933.209,1.7.518,1.7.685,0,.194.111.172.3-.06.213-.265.411-.291.722-.1.559.35,3.7.574,10.278.731a51.678,51.678,0,0,1,6.943.491,32.121,32.121,0,0,0,4.166.51,22.029,22.029,0,0,1,2.8.266.262.262,0,0,0,.356-.112,4.143,4.143,0,0,1,1.723-.378c2.512-.227,5.016-.838,5.8-1.416.391-.289.778-.473.861-.407s.172-.1.2-.368c.071-.747,1.592-2.4,1.834-1.991.11.185.142.088.072-.215a2.5,2.5,0,0,1,.632-1.527c.7-.9.761-1.245.77-4.618s-.028-3.614-.521-3.225a2.392,2.392,0,0,0-.662,1.354,2.308,2.308,0,0,1-.437,1.177,1.12,1.12,0,0,0-.317.763c-.012.609-.765,1.48-1.071,1.238a.986.986,0,0,1-.21-.663c0-.41.084-.443.477-.186.41.268.458.165.345-.731a1.8,1.8,0,0,1,.25-1.37,19.288,19.288,0,0,0,2.335-3.237c1.566-2.616,1.865-3.03,2.279-3.155a.633.633,0,0,0,.451-.541c0-.223.135-.339.3-.258s.293-.228.284-.685a14.7,14.7,0,0,1,.153-1.976c.159-1.074.63-5.064.631-5.343,0-.737-.153-1.018-.561-1.018-.266,0-.484-.121-.484-.269s.126-.208.28-.133.226-.233.161-.685-.186-1.272-.269-1.823c-.14-.93.277-1.8.753-1.564.113.055.224-.662.247-1.593a10.223,10.223,0,0,1,.371-2.584l.33-.891.033,1.177c.047,1.687.375,2.787.773,2.594.213-.1.258,0,.122.279a2.528,2.528,0,0,0-.216.551c0,.059-.145.106-.323.106s-.325-.2-.328-.445a1.469,1.469,0,0,0-.27-.774c-.148-.184-.2.28-.12,1.049.09.856.009,1.444-.214,1.553a.608.608,0,0,0-.359.429c0,.14.153.18.34.089.225-.109.315.274.265,1.13-.041.713-.231,1.3-.421,1.3s-.147.1.1.224c.295.147.4.568.314,1.268-.091.75,0,1.048.3,1.048s.391-.33.286-1.272c-.078-.7-.012-1.272.146-1.272.3,0,.429.535.34,1.351-.028.253.058.407.191.343.289-.14.468,4.437.221,5.628-.1.459-.311.767-.48.685s-.307.118-.307.445a3.41,3.41,0,0,1-1.281,1.98,19.32,19.32,0,0,0-2.7,2.958,6.551,6.551,0,0,0-.609,2.608,3.832,3.832,0,0,1-.327,1.812c-.129,0-.092.294.081.653.391.81.394.943.019.76-.163-.079-.129.2.074.627.309.644.407.7.6.32.216-.431.227-.431.249,0a.622.622,0,0,1-.426.589.456.456,0,0,0-.3.582,3.2,3.2,0,0,1-.708,1.7,23.863,23.863,0,0,0-1.484,2.56c-.641,1.332-1.482,2.131-3.776,3.586-1.142.725-1.32.769-1.524.382-.159-.3-.278-.339-.382-.119a.338.338,0,0,1-.447.176c-.162-.079-.3-.01-.3.153s-.219.23-.487.149a2.983,2.983,0,0,0-1.372.129,19.506,19.506,0,0,1-5.1.246Zm12.784-4.367a1.1,1.1,0,0,0,.225-.827c-.072-.167-.376.068-.675.523s-.4.827-.225.827A1.139,1.139,0,0,0,119.034,138.678Zm-58.462-6.489c0-.218-.148-.325-.328-.237s-.245.266-.142.4c.277.353.471.287.471-.16Zm64.585-11.209c-.029-.093.115-.25.318-.349.541-.264,1.091-3.709.68-4.265-.274-.37-.331-.305-.34.381,0,.455,0,.9.018.989s-.166.259-.4.378c-.354.177-.355.216,0,.219.525,0,.416,1.188-.175,1.905a1.77,1.77,0,0,0-.388,1.018c.014.284.1.376.186.2a.837.837,0,0,0,.108-.48Zm-83.741-5.743c-.1-.2-.18-.143-.2.154-.014.268.062.418.17.334a.42.42,0,0,0,.026-.488Zm84.068-4.135c0-.062-.145-.183-.323-.269s-.323-.036-.323.112a.3.3,0,0,0,.323.269C125.338,111.214,125.484,111.163,125.484,111.1Zm-80.978-6.661a.741.741,0,0,0,.565-.707c0-.709-.245-.923-.847-.741-.331.1-.366.23-.123.46.323.307-.085.532-2.259,1.243C41.309,104.869,43.6,104.651,44.506,104.441Zm-4.279-.239c0-.218-.123-.337-.274-.263s-.6-.1-.99-.392-.8-.457-.91-.373-.133.189-.059.233l1.066.636c1.11.663,1.167.671,1.167.16Zm1.5-1.087c-.294-.256-.43-.549-.3-.65s-.017-.108-.322-.016c-.7.211-.7.354.01.777.833.5,1.232.426.615-.112Zm2.373-.806a.332.332,0,1,0-.323.254A.3.3,0,0,0,44.1,102.309Zm3.456-.529.065-.616-.254.636c-.222.558-.274.495-.418-.509a2.288,2.288,0,0,1,.189-1.524c.313-.335.267-.335-.4,0-.824.417-.832.462-.355,1.858.363,1.062,1.062,1.154,1.168.154Zm1.26-.674c-.328-.259-.6.131-.33.474.2.259.28.26.389,0a.43.43,0,0,0-.059-.475Zm-14.728.089a1.853,1.853,0,0,0-.565-.445c-.512-.316-.524-.307-.122.1.422.424.687.559.687.349Zm2.677-1.176c.093-.28.037-.573-.124-.651s-.293.15-.293.509c0,.78.184.843.416.142ZM32.8,98.552c-.305-.383-.326-.369-.161.11.1.3.039.625-.146.715-.2.1-.336-.14-.336-.615,0-.428-.123-.778-.274-.778-.422,0-.38,1.541.052,1.911.574.492,1.358-.725.865-1.343Zm3.124-1.713c0-.21-.121-.382-.269-.382-.323,0-.355.356-.054.594S35.921,97.271,35.921,96.839ZM29.57,95.408c0-.191.168-.176.509.047.422.276.559.27.8-.032.371-.462.368-.536-.046-1-.268-.3-.3-.267-.143.169.108.3.045.625-.14.715-.2.1-.336-.14-.336-.615,0-.428-.152-.778-.337-.778a.264.264,0,0,0-.242.365.286.286,0,0,1-.228.39c-.178.013-.369-.265-.425-.619s-.226-.644-.377-.644-.421-.315-.6-.7c-.251-.541-.33-.586-.35-.2-.032.629,1.291,3.185,1.649,3.185a.276.276,0,0,0,.264-.286ZM27.989,87.7c.176.353.252.206.274-.529a9.731,9.731,0,0,1,.33-2.035c.195-.663.186-1.106-.027-1.272s-.26-.117-.124.165a.434.434,0,0,1-.142.587c-.19.092-.345,0-.345-.2,0-.48-1.3-2.794-1.491-2.647A2.616,2.616,0,0,0,26.62,83a6.739,6.739,0,0,1,.092,2.387,9.367,9.367,0,0,0-.106,2.129l.1.857.518-.583c.495-.557.529-.561.761-.094Zm2.226-4.218c0-.14-.154-.254-.342-.254s-.252.114-.142.254a.643.643,0,0,0,.342.254C30.151,83.736,30.215,83.621,30.215,83.481Zm-.554-.943c-.088-.181,0-.33.2-.33s.357-.115.357-.254-.227-.254-.5-.254-.437-.086-.357-.191-.08-.356-.357-.558c-.45-.328-.481-.28-.294.458.118.466.083.763-.08.684-.221-.107-.252.406-.048.8a2.235,2.235,0,0,0,.635.012c.357-.021.544-.173.45-.366ZM32.8,79.41c0-.14-.154-.254-.342-.254s-.252.115-.142.254a.643.643,0,0,0,.342.254C32.735,79.665,32.8,79.55,32.8,79.41Zm-3.552-.331a.977.977,0,0,0-.375-.626,2.168,2.168,0,0,1-.172-2.287c.175-.184.179-.318.01-.318s-.325-.593-.365-1.319a2.134,2.134,0,0,0-.716-1.791c-.612-.449-.643-.45-.643-.015a5.262,5.262,0,0,0,.319,1.333c.236.648.215.928-.081,1.076s-.25.2.132.2c.442,0,.487.156.271.912a3.2,3.2,0,0,0,.019,1.675c.239.656.211.723-.19.46-.34-.222-.47-.227-.47-.017,0,.187-.3.23-.856.121s-.784-.078-.644.1a1.445,1.445,0,0,0,1.017.2c.443-.038.806.041.806.177s.213.182.474.1a.679.679,0,0,1,.665.1c.278.355.8.3.8-.087Zm-4.351-.92c-.157-.389-.07-.462.43-.359s.618.005.578-.534c-.036-.491-.132-.58-.372-.341a1.752,1.752,0,0,1-.8.4c-.385.067-.374-.005.058-.382.5-.438.481-.466-.385-.49l-.917-.026.683,1.107c.714,1.157,1.06,1.454.724.62Zm2.333-1.925c0-.352-.121-.641-.27-.641s-.239.332-.2.738c.082.89.471.809.471-.1Zm-1.1-.749a.58.58,0,0,0-.288-.667,1.2,1.2,0,0,1-.465-.909c0-.333-.128-.6-.283-.6-.349,0-.3,1.788.06,2.226C25.495,75.952,25.907,75.933,26.125,75.485Zm-1.884-.146c.11-.14.046-.254-.142-.254s-.342.114-.342.254.064.254.142.254A.643.643,0,0,0,24.241,75.34Zm-.565-.8c-.952-.274-1.229-1.144-.439-1.382.274-.083.38-.343.272-.668-.12-.362-.057-.474.2-.35.392.191.524-.154.167-.435a5.067,5.067,0,0,1-.288-1.8c-.072-1.446,0-1.666.611-1.919.647-.267.634-.28-.2-.188a1.685,1.685,0,0,1-1.069-.122c-.1-.121.142-.22.527-.22.489,0,.644-.115.514-.382-.12-.247.01-.383.369-.386s.425-.069.181-.191c-.211-.106-.3-.492-.205-.884s.3-.633.455-.557.286-.164.286-.536a.728.728,0,0,0-.646-.808c-.355-.073-.646-.287-.646-.476s-.291-.466-.646-.615c-.438-.185-.646-.188-.646-.009a.3.3,0,0,0,.323.263.3.3,0,0,1,.323.269.155.155,0,0,1-.242.152c-.133-.065-.247.186-.253.557s-.116,1.976-.244,3.565c-.2,2.474-.165,2.87.237,2.748.476-.144.381.409-.167.978-.135.14-.04.477.212.748.614.661.589,1.136-.026.508-.445-.454-.468-.4-.285.651.2,1.168.817,1.8,1.718,1.761.277-.011.1-.135-.385-.276Zm10.508-1.486c-.232-.7-.416-.637-.416.142,0,.358.132.587.293.509s.217-.371.124-.651Zm-5-.643c-.1-.078-.28.063-.4.314-.175.363-.138.392.181.142.221-.173.32-.378.221-.456Zm-2.975.095c.143-.182.089-.225-.142-.112s-.373.01-.373-.258c0-.242-.091-.368-.2-.28-.209.165.066.944.334.944a.749.749,0,0,0,.383-.294Zm4.975-.512c0-.117-.145-.212-.323-.212s-.323-.229-.323-.509a.5.5,0,0,0-.484-.509c-.568,0-.576.032-.19.832.272.564,1.32.88,1.32.4Zm-4.906-.74a.463.463,0,0,0-.845,0c-.064.15.126.274.423.274S26.342,71.4,26.278,71.25Zm8.135-.348c0-.062-.145-.183-.323-.269s-.323-.036-.323.112a.3.3,0,0,0,.323.269C34.268,71.014,34.414,70.964,34.414,70.9ZM25.93,69.588a.8.8,0,0,0-.619-.02c-.258.081-.181.142.2.154.34.011.531-.049.424-.134ZM25.371,67.2a.332.332,0,1,0-.323.254A.3.3,0,0,0,25.371,67.2ZM23.088,60.5c.013-.253-.123-.389-.3-.3s-.313.523-.3.969c.019.684.066.732.3.3A2.741,2.741,0,0,0,23.088,60.5Zm.063-2.534c-.319-.249-.356-.22-.181.142.121.251.3.392.4.314s0-.284-.22-.456ZM39.621,56.7c-.319-.249-.356-.22-.181.142.121.251.3.392.4.314s0-.284-.22-.456Zm-14.739-1.7a5.065,5.065,0,0,0,.813-1.893c0-.826.558-1.085.746-.345.094.371.136.289.118-.233-.016-.445-.15-.75-.3-.678s-.179-.152-.068-.5.05-.7-.133-.792-.489.293-.7.926a5.148,5.148,0,0,1-.624,1.343c-.409.41-1.117,3.435-.8,3.435a5.874,5.874,0,0,0,.953-1.264Zm2.874-3.456c.11-.226.056-.329-.127-.239a.545.545,0,0,0-.319.395c0,.366.231.285.446-.155ZM26.663,49.9c0-.14-.064-.254-.142-.254a.643.643,0,0,0-.342.254c-.11.14-.046.254.142.254S26.663,50.037,26.663,49.9Zm1.453-1.018c.11-.14-.035-.254-.323-.254s-.433.115-.323.254.255.254.323.254S28.007,49.019,28.116,48.879ZM42.276,46.2c-.105-.216-.26-.338-.345-.271s-.058.243.059.393C42.308,46.724,42.494,46.645,42.276,46.2Zm1.247-1.375c.091-.488.019-.693-.206-.587-.19.089-.146-.031.1-.268.381-.37.372-.43-.062-.43-.758,0-.887.347-.462,1.235a4.53,4.53,0,0,0,.438.8,2.937,2.937,0,0,0,.194-.75Zm-2.257-2.35c-.21-.166-.461-.239-.557-.164s-.079.333.037.573c.15.308.312.356.557.164S41.536,42.685,41.265,42.472Zm-1.039-.305c0-.194-.291-.412-.646-.485-.8-.164-.83.035-.081.483.713.426.727.426.727,0Zm3.229-1.175c0-.14-.064-.254-.142-.254a.643.643,0,0,0-.342.254c-.11.14-.046.254.142.254S43.456,41.132,43.456,40.992ZM37,34.362c0-.148.145-.2.323-.112s.323.036.323-.112a.313.313,0,0,0-.342-.269c-.188,0-.252-.114-.142-.254s.046-.254-.142-.254a.391.391,0,0,0-.342.424c0,.506-.34.3-.446-.268a4.056,4.056,0,0,0-1.837-1.683c-.128,0-.309.158-.4.35-.105.217.035.338.369.318a.608.608,0,0,1,.646.561,2.321,2.321,0,0,0,.637,1.081c.574.528,1.356.654,1.356.218Zm-6.912-.788c.143-.182.089-.225-.142-.112s-.381-.029-.4-.406a2.966,2.966,0,0,0-.3-1.1c-.209-.383-.283-.21-.3.7-.017.891.1,1.209.443,1.209a.99.99,0,0,0,.7-.294Zm1.584-.215c.11-.14.046-.254-.142-.254s-.342.114-.342.254.064.254.142.254A.643.643,0,0,0,31.669,33.359Zm2.945-.412c.041-.219-.016-.327-.126-.24a1.071,1.071,0,0,0-.274.555c-.041.219.016.327.126.24A1.072,1.072,0,0,0,34.614,32.947Zm48.5,109.373c-.374-.36-.329-.388.383-.24a8.413,8.413,0,0,0,1.265.171c.628,0,.263.251-.554.375A1.46,1.46,0,0,1,83.118,142.319Zm18.629-2.351a15.909,15.909,0,0,1-2.808-.721,9.605,9.605,0,0,0-2-.555c-.652,0-.947-.423-.408-.586a4.642,4.642,0,0,1,1.807.354A4.122,4.122,0,0,0,100,138.8c.16-.078.29-.024.29.12s.218.2.484.115.484-.039.484.093.182.25.4.264a13.987,13.987,0,0,1,3.025.387,4.445,4.445,0,0,0,2.465-.686c.165-.188.344-.154.56.105.272.327.319.318.323-.064,0-.245.146-.445.318-.445s.229.173.126.385c-.136.279-.04.34.352.222.3-.09.472-.3.391-.466-.159-.327,1.022-1.033,1.326-.793.1.08.014.145-.193.145a.379.379,0,0,0-.377.38c0,.334.149.332,1.248-.014a7.08,7.08,0,0,1,2.584-.267c1.334.127,1.336.126,1.336-.734,0-1.121.511-1.36.765-.358.343,1.35-.134,1.668-2.6,1.731a7.068,7.068,0,0,0-2.384.3,2.149,2.149,0,0,1-1.048.37,13.449,13.449,0,0,0-1.589.34,28.288,28.288,0,0,1-6.548.033ZM74.62,137.674a.643.643,0,0,1,.342-.254c.078,0,.142.114.142.254s-.154.254-.342.254S74.51,137.814,74.62,137.674Zm-1.453-.254c0-.14.154-.254.342-.254s.252.115.142.254a.643.643,0,0,1-.342.254C73.231,137.674,73.167,137.56,73.167,137.42Zm40.7-1.105c.008-.493.478-.914.811-.726.559.315.469.755-.182.89-.362.074-.632,0-.629-.164Zm1.353-1.428c.217-.274.439-.462.495-.418.191.151-.308.915-.6.915C114.952,135.384,115,135.161,115.215,134.887Zm1.087-.775c.253-.739.738-1.272,1.158-1.272.331,0-.044.617-.851,1.4-.513.5-.52.494-.307-.127Zm-44.869-.461a4.183,4.183,0,0,1-1.5-.545,1.92,1.92,0,0,0-.468-.663c-.452-.476-.462-.474-.284.082.146.456.075.543-.339.418-.288-.087-.523-.26-.523-.385s-.291-.227-.646-.227-.646-.121-.646-.269-.133-.2-.3-.126a.354.354,0,0,1-.459-.176c-.09-.176-.175-.081-.189.21a.985.985,0,0,0,.2.706,1.265,1.265,0,0,1,.314.643c.064.329-.1.459-.559.439a1.437,1.437,0,0,1-.879-.3,1.97,1.97,0,0,0-.8-.439c-.747-.217-1.088-.938-.564-1.193.226-.11.312-.328.189-.483-.331-.422-.838-.342-.624.1.1.21.03.382-.161.382s-.264.172-.161.382c.263.539-.323.474-1-.111-.626-.545-.427-1.093.315-.868.293.089.474-.01.474-.258,0-.226-.184-.345-.424-.273a1.359,1.359,0,0,1-1.019-.39c-.366-.318-.444-.518-.2-.518.216,0,.318-.095.226-.211s.155-.183.546-.148.893.072,1.115.084a.42.42,0,0,1,.4.4.357.357,0,0,0,.323.382c.178,0,.306-.086.285-.191-.109-.545.073-1.094.323-.973a1.29,1.29,0,0,1,.249,1.659c-.237.187-.231.268.021.268a.559.559,0,0,0,.485-.293c.087-.206.359-.176.915.1a7.916,7.916,0,0,0,1.868.573,16,16,0,0,1,2.749.87,19.094,19.094,0,0,0,2.395.842c.779.161,1.01.875.282.875a13.306,13.306,0,0,1-1.938-.376Zm2.707-.111a1.326,1.326,0,0,1,.283-.663c.355-.441.822.071.559.612-.22.452-.848.491-.841.051Zm-7.274-.195c-.064-.081.009-.306.161-.5.229-.292.365-.3.786-.02.28.183.509.426.509.54,0,.23-1.274.213-1.456-.02Zm-7.853-4.124c-.541-.426-.469-.787.122-.609.276.083.431.061.344-.049s-.029-.363.127-.562c.238-.3.318-.294.492.064.3.61-.585,1.55-1.086,1.156Zm53.229-.021a1.654,1.654,0,0,1,.474-.827,1.754,1.754,0,0,0,.484-.93.917.917,0,0,1,.576-.675A2.932,2.932,0,0,0,114.8,125.3c.5-1.349,1.109-2.206,1.409-1.97.105.083.111-.091.013-.387-.143-.431-.068-.5.382-.368.483.146.511.1.2-.362-.238-.35-.251-.586-.037-.69.178-.087.324-.036.324.112,0,.505.483.268,1.05-.516a3.424,3.424,0,0,0,.565-1.7c0-1.528-.856-.369-.945,1.28a.438.438,0,0,1-.382.445c-.213,0-.264-.18-.127-.445a8.9,8.9,0,0,0,.629-2.932c.015-.626.112-.689.858-.56.806.14.85.089,1.047-1.2.441-2.893.31-3.49-1.078-4.907-1.256-1.283-2.031-2.929-1.378-2.929a5.875,5.875,0,0,1,2.021,2.284.3.3,0,0,0,.323.26.357.357,0,0,1,.323.382.371.371,0,0,0,.357.382c.2,0,.271.178.165.395s-.056.329.127.239.338.109.36.432.079.874.126,1.224a1.335,1.335,0,0,1-.146.891,3.523,3.523,0,0,0-.317,1.4,3.049,3.049,0,0,1-.366,1.413.888.888,0,0,0-.094.827c.111.334.038.559-.181.559-.235,0-.29.241-.152.674.164.516.116.626-.205.47-.266-.129-.341-.1-.206.069.118.15.02.427-.218.614a.675.675,0,0,0-.284.692c.088.208,0,.281-.207.178s-.44.091-.561.472c-.113.355-.335.581-.494.5s-.289.032-.289.242-.3.545-.656.744c-1.062.586-1.777,3.108-.8,2.812.266-.081.484-.306.484-.5a.334.334,0,0,1,.306-.354c.188,0,.181.283-.02.735-.243.549-.482.7-.943.608-.646-.133-1,.309-1.472,1.837-.165.534-.276.629-.369.318-.073-.245-.255-.445-.4-.445s-.193.229-.1.509c.13.39.01.509-.515.509-.376,0-.684-.15-.684-.333Zm10.227-.345a.628.628,0,0,1-.215-.433c0-.159.15-.144.382.038.21.166.307.36.215.433A.332.332,0,0,1,122.469,128.854Zm-59.637-.394c0-.11.133-.2.3-.2a3.657,3.657,0,0,0,.811-.156c.353-.107.46-.044.341.2-.18.37-1.449.506-1.449.156Zm-4.683-.454c-.527-.178-.545-.222-.1-.237a1.039,1.039,0,0,1,.746.237C59.025,128.3,59.014,128.3,58.15,128.006Zm4.683-.739c0-.123.218-.29.484-.371.825-.249.55-.694-.323-.521-.816.161-1.007-.109-.817-1.154.037-.2-.185-.514-.494-.692-.432-.249-.476-.4-.193-.673.423-.4.175-.692-.568-.666-.381.013-.352.067.113.211.414.128.5.253.254.373-.224.109-.82-.3-1.5-1.037-1.14-1.224-1.414-1.95-.841-2.229a.405.405,0,0,0,.214-.46c-.052-.17-.033-.223.042-.117a.365.365,0,0,0,.439.045c.4-.2.218.473-.2.713-.178.1.04.19.484.195.641.006.707.059.323.254-.416.212-.406.247.069.251a1.255,1.255,0,0,1,.9.513,1.174,1.174,0,0,0,.819.509.436.436,0,0,1,.473.382.348.348,0,0,0,.3.382c.337,0,1.217,1.969,1.482,3.315.161.818.1.9-.64.951-.449.029-.816-.048-.816-.171Zm.117-3.2a.672.672,0,0,0-.514-.382c-.189,0-.158.162.074.382a1.714,1.714,0,0,0,.514.382C63.085,124.444,63.052,124.272,62.949,124.062Zm-.763-1.145c0-.14-.254-.253-.565-.251-.483,0-.495.04-.081.251.609.31.646.31.646,0Zm-1.5-.89c-.1-.21-.243-.382-.313-.382s-.127.172-.127.382a.353.353,0,0,0,.313.382c.172,0,.229-.172.127-.382Zm-.9,3.518a.582.582,0,0,1,.175-.7c.282-.2.316-.185.131.071a.345.345,0,0,0,.149.541c.251.122.279.253.075.352a.428.428,0,0,1-.529-.265ZM58,124.872a1.809,1.809,0,0,1-.389-.618,4.814,4.814,0,0,0-.942-.811,2.113,2.113,0,0,0-1.5-.594c-.4.12-.469.031-.326-.4.106-.318.053-.489-.124-.4-.426.207-1.959-.622-1.718-.93.108-.137,0-.218-.232-.18-.272.044-.393-.131-.331-.48a.692.692,0,0,0-.242-.715c-.186-.091-.338-.054-.338.081s-.291.186-.646.113-.646-.3-.646-.5.144-.3.319-.212.241-.006.144-.2a2.022,2.022,0,0,0-.972-.646c-.657-.236-.759-.4-.581-.963.136-.428.1-.619-.109-.519-.355.173-1.287-1.321-1.518-2.432a3.016,3.016,0,0,0-.329-.931,1,1,0,0,1,.107-.831c.279-.571.3-.575.528-.087.13.28.726,1.382,1.324,2.449a14.961,14.961,0,0,1,1.088,2.178,2.011,2.011,0,0,0,.658.795c.362.306.58.557.484.557-.268,0,1.085,1.017,1.36,1.022.47.008,1.743,1.256,1.542,1.512-.124.158.013.193.351.091.406-.123.483-.077.29.169-.168.214-.139.276.079.17.454-.221,1.417.078,1.188.37a.441.441,0,0,0,.042.509c.161.2.282.2.446,0,.142-.181.385-.051.66.354.239.352.592.643.784.645s.131.127-.135.277c-.393.221-.352.25.214.153.749-.128,1.135.411.785,1.1-.29.57-.82.536-1.311-.085Zm62.6-2.591c-.022-.07-.061-.213-.086-.318a1.54,1.54,0,0,0-.238-.445c-.267-.353.051-2.163.38-2.163a.769.769,0,0,1,.5.294c.143.182.089.225-.142.112-.527-.257-.447.386.122.978a1.581,1.581,0,0,1,.463.763c-.007.148-.219-.017-.473-.367-.446-.615-.462-.617-.473-.079a.826.826,0,0,0,.312.715.55.55,0,0,1,.323.4c0,.244-.613.344-.686.112ZM57.349,120c-.35-.332-.276-.387.519-.384.51,0,.782.089.6.194a3.2,3.2,0,0,0-.519.384C57.846,120.3,57.574,120.211,57.349,120Zm60.463-3.823c.085-.35.032-.636-.118-.636s-.365-.315-.478-.7-.423-1.244-.689-1.909a3.549,3.549,0,0,1-.328-1.679,1.324,1.324,0,0,0-.44-1.081,2.16,2.16,0,0,1-.6-.929.33.33,0,0,0-.33-.318c-.178,0-.323-.277-.323-.615a.839.839,0,0,0-.331-.744c-.182-.071-.146-.1.081-.065.629.1,2.579,3.235,2.42,3.891-.076.314-.037.521.088.46s.447.515.718,1.28.365,1.39.211,1.39a.276.276,0,0,0-.28.269c0,.148.129.207.286.13s.373.117.48.43c.3.883.238,1.46-.158,1.46-.21,0-.3-.265-.206-.636Zm-70.2-4.283c-.022-.093-.077-.284-.121-.424a4.019,4.019,0,0,1-.121-.54c-.028-.2-.186-.191-.525.031-.4.26-.484.24-.484-.111,0-.235.145-.357.323-.271s.33-.106.338-.43c.011-.4.169-.242.507.518.27.608.409,1.171.308,1.251s-.2.069-.224-.025Zm65.921-5.131c0-.21.057-.382.127-.382s.211.172.313.382.045.382-.127.382A.353.353,0,0,1,113.535,106.761Zm.464-1.755a2.269,2.269,0,0,1-.046-1.175c.106-.321.041-.443-.18-.336s-.27.01-.131-.275a2.285,2.285,0,0,0,.216-.82c0-.207.144-.306.319-.22s.235-.018.115-.263a5.449,5.449,0,0,1,.21-2.146c.49-2.048.342-2.652-.972-3.954-.543-.539-.912-1.136-.818-1.328s.026-.278-.149-.193c-.308.15-2.576-1.586-2.579-1.973,0-.1-.266-.191-.59-.191a5.915,5.915,0,0,1-2.1-1.145c-1.8-1.361-3.791-1.669-2.28-.353.285.248.447.6.361.783-.107.227-.241.17-.419-.176a2.29,2.29,0,0,0-1.669-1.252c-.382-.1-.625-.318-.539-.495s-.139-.532-.5-.79c-.64-.456-.657-.455-.657.029a1.158,1.158,0,0,0,.388.8c.3.237.27.305-.14.305-.71,0-1.018-.869-.551-1.556.375-.552.389-.549,1.491.372,1.148.958,2.687,1.279,2.687.56,0-.309.158-.3.967.064.532.238.968.573.969.743s.22.244.524.152c.425-.129.478-.045.283.453-.131.336-.123.524.02.418s.56.017.928.273a7.79,7.79,0,0,0,2.059.811,4.856,4.856,0,0,1,1.587.6c.117.149-.022.186-.339.09-.938-.284-.616.67.409,1.211.52.274.876.586.793.693s.137.389.491.628.569.528.479.643-.01.209.178.209.342.286.342.636.182.638.4.64c.3,0,.286.063-.037.224-.365.182-.366.239-.008.333s.326.467-.145,2.041a20.827,20.827,0,0,0-.7,3.638c-.142,1.9-.341,2.295-.661,1.292ZM47.654,104.6c.632-.322,1.06-.322.807,0a1.076,1.076,0,0,1-.746.251C47.245,104.846,47.237,104.811,47.654,104.6Zm2.584-.763c0-.14.154-.254.342-.254s.252.115.142.254a.643.643,0,0,1-.342.254C50.3,104.09,50.238,103.975,50.238,103.835Zm74.886-.58a2.567,2.567,0,0,0-.276-1.2,6.439,6.439,0,0,1-.141-1.324,2.963,2.963,0,0,0-.283-1.378.8.8,0,0,1-.218-.585c.027-.829.939.965,1.426,2.8.274,1.035.5,1.9.5,1.917a2.014,2.014,0,0,1-.484.183c-.336.1-.5-.027-.522-.418ZM27.859,99.1c-.319-.336-.433-.611-.254-.611.327,0,1.142.99.941,1.142-.059.044-.368-.195-.687-.531Zm94.512-.085c-.109-.429-.325-.78-.481-.78s-.283-.18-.283-.4a1.311,1.311,0,0,0-.514-.8,1.021,1.021,0,0,1-.317-1.182c.155-.611.113-.711-.2-.467-.53.418-.91.391-.91-.064,0-.245.186-.317.54-.21.409.124.49.06.333-.262-.114-.234-.067-.426.105-.426a.334.334,0,0,1,.313.35,1.028,1.028,0,0,0,.484.667c.582.381.653-.02.083-.469-.284-.224-.3-.369-.048-.5a1.177,1.177,0,0,0,.11-1.9c-.533-.262-.541-.347-.094-1.028.268-.408.33-.665.137-.572s-.35-.007-.35-.226a.374.374,0,0,0-.342-.4c-.188,0-.251-.116-.139-.259a.43.43,0,0,1,.5-.112c.165.081.3-.02.3-.222s-.254-.352-.565-.333a.6.6,0,0,1-.673-.565c-.073-.4.014-.541.264-.42a.427.427,0,0,1,.181.573c-.152.312-.1.331.263.095s.51-.2.716.155a2.6,2.6,0,0,1,.295.706,2.882,2.882,0,0,0,.433.827c.22.315.267.572.1.572s-.375.236-.47.523c-.135.408-.081.463.246.249s.461-.148.59.24c.1.311.041.451-.157.355s-.243.05-.1.412a1.355,1.355,0,0,1-.158,1.143c-.331.487-.267.723.438,1.6a6.384,6.384,0,0,1,1.022,1.752c.189.693.177.7-.317.219-.282-.276-.453-.626-.378-.779s-.133-.557-.46-.9c-.427-.446-.694-.543-.946-.345-.466.366-.075,1.119.593,1.142.448.015.439.046-.055.2-.556.173-.552.216.081.849.723.724.856,1.355.339,1.607-.182.088-.415-.187-.525-.621ZM41.841,98.6c0-.218-.145-.326-.323-.239s-.323.049-.323-.083-.291-.3-.646-.373-.646-.3-.646-.512a2.807,2.807,0,0,0-.952-1.182c-.533-.449-.873-.966-.773-1.172s.019-.369-.178-.369a.362.362,0,0,1-.357-.363,1.1,1.1,0,0,0-.427-.7A9.372,9.372,0,0,1,35.705,90.6c0-.1.333-.124.741-.062.813.122,1.052.862.528,1.634-.257.378-.215.433.23.3s.507-.053.364.378a.74.74,0,0,0,.29.85c.4.263.446.149.3-.8-.122-.8-.071-1.026.183-.826a2.157,2.157,0,0,1,.386,1.309c.02.609.212,1.086.469,1.163s.383.4.3.831c-.075.385-.075.55,0,.368.214-.513.895-.192.868.409-.013.294.079.484.205.422.222-.108.732.831.661,1.218-.066.363.632.189.824-.205.156-.321.266-.285.58.191a1.227,1.227,0,0,1,.247.905c-.2.456-1.04.393-1.04-.079Zm.544-.414c-.1-.2-.18-.143-.2.154-.014.268.062.418.17.334a.42.42,0,0,0,.026-.488Zm-3.612-.207a.643.643,0,0,1,.342-.254c.078,0,.142.115.142.254s-.154.254-.342.254S38.664,98.123,38.773,97.984Zm79.833-1.463a14.048,14.048,0,0,1-.872-1.791c-.3-.743-.579-1.049-.882-.957-.245.074-.362.029-.261-.1a1.3,1.3,0,0,1,1.712.3.733.733,0,0,0,.661.452c.4,0,.425.068.124.305-.467.368-.525,1.573-.065,1.348.183-.089.323.125.323.494,0,.836-.2.823-.742-.049Zm-11.3-.763a1.326,1.326,0,0,1,.11-.827c.224-.595.242-.582.272.191C107.72,95.919,107.578,96.156,107.307,95.757ZM34.414,94.676c0-.14.154-.254.342-.254s.252.115.142.254a.643.643,0,0,1-.342.254C34.478,94.93,34.414,94.816,34.414,94.676ZM56.674,93.9c-.7-.416-.729-.505-.283-.8.94-.62,3.212-3.175,3.212-3.613,0-.24.145-.366.323-.28s.332.007.342-.176.132-.872.27-1.531.129-1.138-.019-1.066-.27-.038-.27-.245a2.285,2.285,0,0,0-.216-.82c-.138-.283-.091-.383.128-.277.394.192.833-.516.546-.881-.1-.133-.041-.385.143-.559.37-.352.325-3.684-.057-4.168-.187-.237-.433-.24-1.062-.014s-.875.222-1.078-.037c-.161-.206-.335-.234-.46-.076s-.64.177-1.332.054c-.743-.132-1.132-.108-1.132.069,0,.148-.1.195-.212.1s-.419-.032-.672.133c-.66.431-3.493.336-4.432-.148a3.658,3.658,0,0,0-1.253-.411,1.471,1.471,0,0,1-.855-.379c-.22-.208-.513-.324-.652-.256s-.336-.048-.438-.257c-.256-.526.287-.47,2.54.261,1.952.634,4.252.857,3.875.377a2.024,2.024,0,0,0-1.167-.254,13.11,13.11,0,0,1-4.437-1.355,16.6,16.6,0,0,0-5.214-1.518c-.355.073-.646.02-.646-.119s-.373-.252-.829-.252A1.89,1.89,0,0,1,40,74.837c-.4-.446-.563-.493-.78-.223-.2.246-.285.164-.307-.292-.017-.35-.1-.494-.192-.32-.266.519-1.069-.291-.873-.88a1.913,1.913,0,0,0-.485-1.348,1.832,1.832,0,0,1-.471-1.558,2.919,2.919,0,0,0-.3-1.675,1.719,1.719,0,0,1,.657-2.508c.47-.271.542-.688.466-2.695-.11-2.871.138-4.3.714-4.127s1.328,2.966,1.46,5.354c.009.169.3.237.675.159.362-.075.588-.191.5-.259-.208-.164,1.578-1.339,2.034-1.339.5,0,.445-.58-.168-1.786-.6-1.185-.47-1.443.493-.969a1.2,1.2,0,0,1,.682,1.226c0,.6.1.779.284.546a2.1,2.1,0,0,0,.206-1.209c-.04-.474.05-.861.2-.861s.279.429.286.954.064,1.527.126,2.226c.1,1.139.019,1.332-.788,1.843-1.259.8-2,1-1.743.475.129-.266.028-.41-.289-.41s-.434.166-.32.509c.094.285.01.509-.192.509s-.361-.115-.361-.254-.254-.245-.565-.234c-.338.012-.4.072-.161.148.222.071.4.23.4.354s-.208.162-.463.085c-.711-.215-1.493,1.24-1.588,2.957a4.8,4.8,0,0,1-.27,1.657c-.238.187.459,1.389.806,1.392.144,0,.171.116.062.256s-.046.254.142.254a.365.365,0,0,1,.342.382.426.426,0,0,0,.458.382.7.7,0,0,1,.565.214,14.815,14.815,0,0,0,3.983,1.567.716.716,0,0,1,.594.318c.09.175.174.1.188-.17s.113-.419.22-.334a1.9,1.9,0,0,0,1.05-.08l.855-.234-.727.409-.727.409,1.465.732a9.063,9.063,0,0,0,1.75.732.519.519,0,0,1,.418.316c.1.231.273.206.657-.1.288-.227.452-.469.364-.539s.08-.2.374-.288c.437-.132.5-.045.332.474-.193.6-.162.621.633.335.661-.237.89-.231,1.1.032s.293.268.436-.014c.116-.23.184-.187.2.128s.206.438.6.357a1.311,1.311,0,0,1,.982.225,5.751,5.751,0,0,0,2.655.343c2.109,0,2.249-.035,2.272-.572.084-2.039.261-2.46,1.395-3.328.641-.49,1.165-1.03,1.165-1.2,0-.228-.112-.234-.433-.023-.485.317-.858.135-.858-.418,0-.228.191-.309.506-.214.37.112.459.034.334-.291s.128-.56.867-.848c.571-.223,1.039-.528,1.039-.678a.683.683,0,0,1,.242-.464c.133-.1.242.019.242.276,0,.509.329.383.44-.167.1-.509.83-1.409.842-1.041.017.538.656.352.656-.191a1.521,1.521,0,0,1,.585-.97c.322-.254.521-.613.443-.8s0-.266.217-.162.621-.162.973-.619c.337-.437.666-.767.732-.733.293.151,1.572-.588,1.572-.909a.581.581,0,0,1,.269-.489c.148-.072.269.213.269.634,0,.55-.258.91-.915,1.278-.5.282-.915.624-.915.758A4.6,4.6,0,0,1,69.292,68.4c-.71.515-1.292,1.071-1.292,1.237,0,.448-1.036.678-1.356.3-.169-.2-.2-.057-.075.362.172.585.081.713-.606.848a1.362,1.362,0,0,0-.979.673c-.094.282-.325.437-.515.345s-.345.011-.345.229a.449.449,0,0,0,.484.4c.266,0,.484-.134.484-.3s.092-.224.2-.135c.246.194-.5,1.7-.846,1.7s-1.99,2.964-1.956,3.5c.015.243.093,2.7.173,5.453.117,4.033.051,5.224-.339,6.1a4.27,4.27,0,0,1-.721,1.221,11.046,11.046,0,0,0-2.114,2.7c0,.153-.458.515-1.018.8-.993.513-1.037.514-1.8.057ZM41.518,74.831c0-.14-.227-.254-.5-.254s-.414.115-.3.254a.732.732,0,0,0,.5.254A.283.283,0,0,0,41.518,74.831Zm-2.18-1.441a1.566,1.566,0,0,0-.807,0c-.222.071-.04.128.4.128S39.561,73.461,39.339,73.39Zm30.6-5.938c0-.14-.154-.254-.342-.254s-.252.114-.142.254a.643.643,0,0,0,.342.254C69.873,67.707,69.937,67.592,69.937,67.452Zm-26.158-2.64a1.551,1.551,0,0,0-.492-.418c-.411-.269-.458-.253-.288.1s.78.607.78.322Zm.954-.526c.317-.3.266-.36-.283-.327-.684.041-.84.222-.455.525.287.226.294.225.738-.2ZM106.79,94.252a3.47,3.47,0,0,0-.246-.763c-.162-.362-.119-.4.192-.175a.728.728,0,0,1,.246.763C106.9,94.336,106.811,94.415,106.79,94.252Zm12.638-.522a.56.56,0,0,1-.4-.492c0-.321.079-.316.523.033.568.448.519.638-.119.459Zm-87.437-.58c-.121-.3-.148-.6-.059-.674s.261.119.382.42.148.6.059.674S32.113,93.45,31.992,93.149Zm83.481.008c0-.136-.218-.181-.484-.1s-.484.02-.484-.135.291-.282.646-.282.646.121.646.269.145.2.323.112.323-.036.323.112-.218.269-.484.269-.484-.111-.484-.246Zm2.584-.353a.586.586,0,0,0-.4-.5c-.254-.081-.268-.136-.04-.148.56-.031,1.19.664.782.863A.217.217,0,0,1,118.056,92.8Zm-4.521-.8c-.278-.264-.29-.382-.04-.382.2,0,.362.106.362.236s.254.288.565.352c.477.1.483.121.04.146a1.437,1.437,0,0,1-.928-.352Zm2.906.1c0-.172-.09-.241-.2-.154s-.725-.123-1.367-.466a5.336,5.336,0,0,0-1.656-.625,4.993,4.993,0,0,1-1.517-.494,8.441,8.441,0,0,0-2.584-.589c-1.493-.092-1.477-.1.39-.142a6.506,6.506,0,0,1,2.584.3,10.252,10.252,0,0,0,1.848.656c.666.171,1.211.416,1.211.545s.182.238.4.243c.666.013,1.614.686,1.23.873-.188.092-.342.026-.342-.145Zm-4.2-.509c0-.155-.223-.214-.5-.132a.565.565,0,0,1-.68-.227c-.112-.231-.609-.377-1.28-.377-.6,0-1.1-.117-1.1-.259,0-.332,1.43-.132,2.987.418,1.137.4,1.61.859.888.859a.305.305,0,0,1-.323-.282Zm-82.35-1.227c0-.13-.238-.424-.528-.652-.394-.311-.435-.489-.161-.705s.367-.187.367.112a1.051,1.051,0,0,0,.484.718c.554.362.639.763.161.763C30.038,90.605,29.892,90.5,29.892,90.369Zm6.569-.226a3.885,3.885,0,0,1-1.4-2.578c0-.615.139-.776.669-.776.576,0,.606.05.213.359-.535.421-.514,1.476.031,1.62.208.055.378-.025.378-.176,0-.386.532-.346.566.042a5.928,5.928,0,0,0,.2.885c.183.618-.11.9-.651.625ZM104.25,88.91a.582.582,0,0,1-.4-.5c0-.291.138-.311.646-.1,1.031.435.828.935-.242.595Zm15.446-.489c.016-.3.092-.357.2-.154a.419.419,0,0,1-.026.488c-.107.085-.184-.066-.17-.334Zm-1.963-.31a1.113,1.113,0,0,0-.388-.763c-.213-.168-.292-.305-.176-.305s.007-.458-.244-1.018-.38-1.018-.287-1.018-.141-.343-.519-.762-.6-.877-.487-1.018.057-.256-.119-.256-.413-.231-.527-.513-.335-.45-.492-.373-.195.326-.083.554c.135.278.077.354-.177.231a.638.638,0,0,1-.2-.76.761.761,0,0,0-.322-.906c-.564-.369-.681-1.031-.182-1.031a.3.3,0,0,1,.323.269c0,.148.148.2.329.109s.518.193.748.625.519.707.64.612c.2-.159.352.272.259.738-.021.1.1.191.262.191s.35.258.411.572.3.541.531.5c.286-.048.354.095.213.445-.125.311-.062.515.159.515s.293.232.186.572c-.1.315-.1.429,0,.254a.694.694,0,0,1,.535-.318c.192,0,.258.072.146.161s-.064.367.107.618c.221.326.176.564-.157.827-.258.2-.375.443-.26.533.357.281.419,1.169.082,1.169-.177,0-.321-.206-.321-.458Zm-81.522-.38c.121-.251.3-.392.4-.314s0,.284-.221.456c-.319.249-.356.22-.181-.142Zm65.7-.928a.55.55,0,0,1,.323-.4c.178-.086.323.021.323.239a.367.367,0,0,1-.323.4c-.178,0-.323-.108-.323-.239Zm-2.843-.924c-.924-.51-1.541-1.386-.963-1.366.445.015,2.036,1.465,1.806,1.646-.076.06-.455-.066-.843-.28Zm1.874-.475a.618.618,0,0,1,.3-.514c.167-.081.281.084.254.367-.056.581-.558.714-.558.148Zm4.351-.662a.457.457,0,0,1,.1-.572,3.979,3.979,0,0,0,.513-2.948c-.3-1.189-2.266-2.725-3.754-2.935-.666-.094-1.211-.261-1.211-.372,0-.377-.959-.2-1.1.2a19.337,19.337,0,0,0-.672,2.438.363.363,0,0,1-.258.313c-.6.144-1.088.73-.951,1.143.1.315-.032.452-.453.449-.435,0-.488-.062-.188-.211a.474.474,0,0,0,.206-.635.791.791,0,0,1,.222-.837,3.471,3.471,0,0,0,.44-2.019,3.232,3.232,0,0,1,.413-1.929,1.29,1.29,0,0,0,.4-.9c0-.322.122-.585.271-.585s.549-.457.888-1.015.813-1.016,1.052-1.018c.771-.005,2.328-.872,2.165-1.206-.087-.178-.017-.324.155-.324a.353.353,0,0,1,.313.382c0,.537.527.474,1.06-.126.248-.279.547-.432.664-.339s.213.051.213-.092a2.886,2.886,0,0,1,.872-1,2.292,2.292,0,0,0,.929-1.95c.031-.667-.071-1.275-.226-1.351s-.283-.024-.283.115a3.437,3.437,0,0,1-.373.969,6.976,6.976,0,0,0-.462,1.068,1.29,1.29,0,0,1-.392.589c-.354.279-.31-.462.067-1.12a.911.911,0,0,0-.265-1.011c-.282-.317-.513-.442-.513-.278s-.362.585-.8.933-.666.7-.484.79a.553.553,0,0,1,.32.41c0,.14-.168.173-.373.073-.236-.115-.285-.07-.134.123a.925.925,0,0,0,.857.149c.426-.107.619-.033.619.236,0,.23-.186.335-.452.254a.664.664,0,0,0-.665.135c-.363.463-.657.3-.708-.39a1.488,1.488,0,0,0-.386-.927c-.234-.184-.292-.079-.19.344.081.335.061.466-.045.291-.278-.461-.581-.4-1.583.335a2.428,2.428,0,0,0-.964,1.358c-.122,1.219-1.143,1.9-1.143.759,0-.537,1.974-2.888,2.89-3.443.388-.235.41-.41.111-.891a10.958,10.958,0,0,1-1.527-6.068c-.025-3.089.578-4.683,2.106-5.574.517-.3.938-.687.935-.858,0-.2-.119-.171-.318.071-.252.308-.314.269-.318-.2,0-.511.077-.547.669-.3.37.156.59.35.487.431s-.063.272.087.425c.3.3.7,1.423.511,1.423a3.047,3.047,0,0,1-.713-.5c-.586-.5-.6-.488-.62.445-.019.722.037.827.236.439.224-.435.269-.4.31.254.028.442.127.6.237.382.351-.712,1.93-1.4,1.6-.7a.5.5,0,0,1-.511.254c-.2-.035-.352.194-.338.509s.1.429.188.254a.608.608,0,0,1,.478-.318c.173,0,.233.1.133.233s-.073.271.062.318a3.479,3.479,0,0,1,.825.909c.491.7.5.8.081.672-.275-.083-.5-.3-.5-.475,0-.371-.9-1.031-1.147-.839-.34.268.537,1.526,1.151,1.652.353.073.642.241.642.374s-.291.169-.646.08c-.371-.093-.646-.046-.646.11a.289.289,0,0,0,.3.272c.276,0,.2.956-.135,1.709a.336.336,0,0,0,.133.442c.149.072.279.607.289,1.188a2.206,2.206,0,0,0,.333,1.3c.357.281,1.114.012.864-.307-.235-.3.914-.188,1.2.116.414.443.262,2.516-.239,3.273-.557.842-.624,1.278-.159,1.052.735-.358.251.564-.646,1.231-.533.4-.969.825-.969.953s-.291.233-.646.233-.646.128-.646.284-.285.225-.646.151-.646-.037-.646.081-.509.359-1.13.536q-1.129.322-.807.576a.81.81,0,0,1,.318.521c0,.147-.141.1-.308-.11-.239-.3-.408-.179-.8.564-.82,1.547-.766,1.61,1.6,1.862a21.4,21.4,0,0,1,2.844.522,10.709,10.709,0,0,0,2.355.355c1.056,0,3.417.7,3.63,1.081a1.059,1.059,0,0,0,.727.191c.349,0,.619.175.619.4s-.109.364-.242.317-.969-.384-1.857-.748c-1.893-.776-3.391-1.106-3.391-.748,0,.335,1.148.805,1.428.585.122-.1.12.032,0,.285s-.312.363-.421.247a1.449,1.449,0,0,0-.681-.3c-.752-.132-1.307-.582-1.078-.874.119-.152.052-.189-.158-.087a1.515,1.515,0,0,1-1.019-.1c-.947-.4-.789-.008.423,1.052a3.336,3.336,0,0,1,.67,4.342c-.564.985-.9,1.17-1.27.7ZM102.566,66.18c-.148-.49-.294-.776-.326-.636s-.106.454-.166.7a.531.531,0,0,0,.191.59.289.289,0,0,1,.085.446c-.146.205-.1.22.135.046S102.74,66.756,102.566,66.18Zm-.819-1.018c.11-.14.046-.254-.142-.254s-.342.115-.342.254.064.254.142.254A.643.643,0,0,0,101.747,65.162Zm-.121-1.34c-.319-.249-.356-.22-.181.142.121.251.3.392.4.314s0-.284-.221-.456Zm2.866-3.2a.63.63,0,0,0-.242-.4.839.839,0,0,1-.283-.424c-.133-.771-.191-.821-.417-.365-.329.663-.067,1.4.495,1.4.246,0,.447-.1.447-.212Zm-2.261-2.587a.332.332,0,1,0-.323.254A.3.3,0,0,0,102.232,58.038Zm9.091,26.238a1.5,1.5,0,0,0-.338-1.145c-.376-.357-.351-.413.185-.413a1.242,1.242,0,0,1,1.4,1.145,1.229,1.229,0,0,1-1.058,1.145c-.155,0-.239-.329-.185-.731Zm-14.258-.569c0-.249-.323-.63-.718-.848q-.719-.4-.242-.4c.281,0,.343-.08.153-.191-.451-.261-.584-1.077-.176-1.077.185,0,.316.086.291.191-.1.412.772,1.836,1.043,1.7.158-.077.2.038.1.255s-.031.395.165.395.357.1.357.212-.218.212-.484.212a.47.47,0,0,1-.484-.452Zm15.5-2.135a1.465,1.465,0,0,0-.847-.382c-.245,0-.445-.1-.445-.231s-.291-.171-.646-.1-.646.008-.646-.151-.213-.284-.474-.284c-.314,0-.4-.146-.264-.432s.258-.319.34-.126a.311.311,0,0,0,.425.163c.162-.079.3-.016.3.141s.129.222.286.145a.733.733,0,0,1,.682.237c.218.207.516.318.663.246a.487.487,0,0,1,.529.216,2.776,2.776,0,0,0,.908.634c.514.229.538.289.12.3a1.532,1.532,0,0,1-.928-.374ZM96.208,80.6a2.48,2.48,0,0,0,.211-.827.4.4,0,0,1,.431-.361c.629,0,.525.56-.212,1.145-.579.46-.621.464-.43.043Zm.857-1.682a.55.55,0,0,1,.323-.4c.178-.086.323.021.323.239a.367.367,0,0,1-.323.4C97.21,79.156,97.065,79.048,97.065,78.916Zm-.525-1.128.828-1.113-.636-1.037a3.192,3.192,0,0,1,.36-4.271C98,70.467,99,69.8,99,70.089A6.8,6.8,0,0,1,97.9,71.1c-1.321,1.072-1.643,2.712-.733,3.736a2.335,2.335,0,0,1,.546,1.313c0,.795-1.193,2.75-1.678,2.75C95.856,78.9,96.084,78.4,96.54,77.788Zm-10.051-.421c-.4-.127-.727-.291-.727-.366,0-.267.857-.128,1.472.238.7.418.356.476-.746.127Zm-27.628-.408a.426.426,0,0,1-.017-.481c.09-.186-.182-.517-.6-.735a1.475,1.475,0,0,1-.842-1.482l-.073-1.085.805.763a3.771,3.771,0,0,1,.817.954c.017.284-.555.231-.745-.07-.09-.143-.127-.115-.081.064s.414.338.819.355c.742.03,1.3.473,1.305,1.042.006.351-1.106.893-1.384.675ZM51.53,74.831a.332.332,0,1,1,.323.254A.3.3,0,0,1,51.53,74.831Zm8.719-.03c0-.484,1.205-1.4,1.519-1.148.123.1-.169.485-.648.862-.638.5-.871.579-.871.286Zm42.951.045a.545.545,0,0,1,.319-.395c.183-.089.237.013.127.239-.215.441-.446.521-.446.155ZM35.935,70.251c.093-.28.225-.509.293-.509s.124.229.124.509-.132.509-.293.509S35.842,70.531,35.935,70.251Zm-5.719-1.527c-.256-.125-.358-.311-.227-.414a.56.56,0,0,1,.615.109C31.091,68.8,30.819,69.018,30.215,68.724Zm35.113-2.29a3.449,3.449,0,0,0-1.158-.509.956.956,0,0,1-.628-.411c-.2-.277-.965-.468-2.357-.585-2.094-.177-3.519-.6-3.519-1.049,0-.325.853-.312,1.653.025a6.8,6.8,0,0,0,2,.28,5.926,5.926,0,0,1,2.783.747,8.84,8.84,0,0,0,1.7.738c.147,0,.268.172.268.382a.444.444,0,0,0,.484.382c.266,0,.484.114.484.254,0,.414-.822.291-1.7-.254ZM29.57,65.918c0-.275-.145-.5-.323-.5-.421,0-.42-.941,0-1.145.213-.1.2-.336-.032-.682s-.234-.464-.023-.362a.455.455,0,0,0,.536-.1c.112-.142-.026-.259-.307-.259-.392,0-.461-.162-.3-.7a2.942,2.942,0,0,1,.61-1.081.723.723,0,0,0,.253-.7c-.088-.192.152-.33.607-.348.6-.023.63-.055.156-.151s-.558-.276-.391-.925c.592-2.3.75-2.816.791-2.584.025.14.174.095.331-.1.389-.484,1.295-.169,1.157.4a1.327,1.327,0,0,1-.161.461,6.862,6.862,0,0,0-.208,1.128,9.02,9.02,0,0,1-.648,2.163,11.5,11.5,0,0,0-1.3,4.878c.1.556-.006.877-.3.967s-.446-.044-.446-.366Zm39.5-.753a2.128,2.128,0,0,0-1.13-.99c-.871-.261-1.166-1.3-.369-1.3.326,0,.43.142.3.41-.143.293-.061.368.286.263.579-.175,1.866.824,1.645,1.277-.093.192.029.259.315.173.567-.171.615.2.08.625-.569.449-.724.386-1.127-.456Zm37.617.078c.113-.467.227-.546.429-.295.384.477.351.648-.149.8C106.651,65.843,106.574,65.7,106.685,65.243Zm-34-.081a.643.643,0,0,1,.342-.254c.078,0,.142.114.142.254s-.154.254-.342.254S72.573,65.3,72.682,65.162Zm1.491.064c.095-.473-.1-1.178-.252-.89-.282.551-1.034.368-.844-.205a.5.5,0,0,1,.612-.391c.241.073.4.048.361-.054s.309-.515.781-.917c.826-.7.841-.768.406-1.739-.249-.555-.358-1.129-.243-1.276s.054-.191-.164-.085c-.239.116-.373-.02-.373-.378,0-.616-.827-1.231-1.672-1.243a2.071,2.071,0,0,1-1.05-.408c-.279-.22-.507-.32-.507-.223s-.212.038-.47-.131a.968.968,0,0,0-.822-.136.872.872,0,0,1-.741-.066c-1-.605-1.358-.513-1.382.351a1.92,1.92,0,0,1-.227,1.015c-.342.27-1.2-.591-1.408-1.413-.139-.546-.384-.778-.822-.778-.344,0-.533-.116-.422-.259a.43.43,0,0,1,.5-.112c.165.081.3.025.3-.123,0-.255-.137-.3-1.292-.384-.266-.02-.436-.2-.377-.407s-.013-.274-.161-.158a.906.906,0,0,0-.31.445c-.022.128-.059.327-.081.442a3.452,3.452,0,0,1-1.655.046c-1.06-.107-1.616-.07-1.62.109,0,.15-.146.1-.318-.109s-.315-.291-.318-.181-.187.067-.409-.1a1.263,1.263,0,0,1-.377-.964c.03-.757.735-1.933,1.023-1.706.1.082.465-.046.8-.286.52-.371.654-.381.9-.071s.32.293.5-.074a.986.986,0,0,1,1.66.053.483.483,0,0,0,.669.338c.315-.1.424-.049.29.122s.013.248.351.208c.518-.061,2.019,1.008,2.02,1.439,0,.1.2.123.442.049a.5.5,0,0,1,.616.39c.1.288.042.523-.119.523-.483,0-.33.516.192.644.266.066.739.192,1.05.282a14.87,14.87,0,0,0,2.341.429c1.8.255,2.953.957,5.178,3.151.441.435.387.59-.149.428-.337-.1-.413,0-.285.39.178.535.746.744.746.275,0-.14.154-.254.342-.254s.244.143.124.318.126.024.546-.336c1.012-.865,1.987-1.162,1.818-.554a.492.492,0,0,1-.511.38c-.3-.049-.293.055.013.441.333.42.307.58-.158.946-.347.273-.559.323-.559.131a.317.317,0,0,1,.323-.309.357.357,0,0,0,.323-.382c0-.521-.4-.479-1.41.146-.89.552-1.139,1.251-.447,1.258.25,0,.281.075.081.191a2.771,2.771,0,0,0-.669.681c-.468.668-1.29.893-.859.235.387-.591.174-1.111-.455-1.111-.278,0-.381.122-.246.294s.089.225-.106.13-.423.093-.53.406c-.293.861-.251.949.363.773.507-.146.5-.106-.05.39-.647.58-.863.678-.8.361Zm-6.82-8.205c-.256-.125-.538-.17-.627-.1s.048.229.3.354.538.17.627.1S67.61,57.145,67.354,57.021Zm-.109-1.845c-.09-.175-.163-.032-.163.318s.073.493.163.318A.786.786,0,0,0,67.245,55.176Zm-5.8-.886c-.082-.248-.154-.107-.161.313s.06.622.149.45a1.159,1.159,0,0,0,.012-.763Zm-.547.328c0-.062-.145-.183-.323-.269s-.323-.036-.323.112a.3.3,0,0,0,.323.269C60.75,54.731,60.9,54.68,60.9,54.619Zm10.53,8.706c-.21-.827-1.008-1.575-1.451-1.36-.312.152-.682-.414-.682-1.043,0-.282.263-.209.994.275a4.546,4.546,0,0,0,1.27.659c.152,0,.364.217.47.481a1.279,1.279,0,0,0,.862.619c.394.081.575.256.441.426a.658.658,0,0,1-.662.157c-.261-.079-.372,0-.276.195.087.179-.052.326-.31.326s-.552-.33-.655-.736Zm-5.362-.309a.367.367,0,0,1,.323-.4c.178,0,.323.108.323.239a.55.55,0,0,1-.323.4C66.207,63.341,66.062,63.233,66.062,63.015Zm-1.4-.259c-.444-.265-.515-.466-.281-.8.286-.4.334-.392.537.112.123.3.358.488.523.408s.3.033.3.251c0,.485-.3.492-1.079.026Zm-12.476-.965A33.97,33.97,0,0,0,50.535,58.5c-.448-.686-.659-1.985-.323-1.985.168,0,.367.315.441.7.125.651.138.642.183-.127.027-.455-.1-.827-.275-.827-.4,0-.417-1.016-.027-1.5a.8.8,0,0,1,.823-.193c.3.089.45.274.344.409s.466.091,1.271-.1c1.066-.253,1.466-.268,1.47-.054,0,.162.145.123.318-.089.26-.317.315-.295.323.127.007.379.08.422.285.167.423-.526,2.3.312,2.3,1.027,0,.3-.091.473-.2.385a2.543,2.543,0,0,0-1.292.2c-.6.2-1.089.3-1.089.226s-.239.056-.531.286c-.429.338-.583.354-.8.082-.2-.254-.272-.259-.276-.019-.007.479-1.217.382-1.594-.127-.528-.714-.408.126.136.955a7.037,7.037,0,0,1,.739,2.086c.2,1.047.377,1.34.807,1.312.3-.02.553.073.553.206s.145.17.323.084.323-.023.323.14c0,.19-.292.239-.807.137-.6-.118-.807-.058-.807.227,0,.672-.552.419-.96-.44Zm-1.26-6.619c-.319-.249-.356-.22-.181.142.121.251.3.392.4.314s0-.284-.22-.456Zm48.4,6.429c0-.14.154-.254.342-.254s.252.114.142.254a.643.643,0,0,1-.342.254C99.389,61.855,99.325,61.74,99.325,61.6Zm-31-.509a.332.332,0,1,1,.323.254A.3.3,0,0,1,68.323,61.092ZM60.9,60.71c0-.226-.145-.341-.323-.254s-.323,0-.323-.192-.426-.67-.946-1.063-.936-.9-.923-1.129a2.323,2.323,0,0,0-.1-.765.369.369,0,0,1,.277-.466c.235-.068.4.09.4.378,0,.272.581.882,1.29,1.357,1.279.856,1.748,2.011.97,2.389-.178.086-.323-.028-.323-.254Zm19.264,0c.305-.731.786-1.161,1.118-1,.158.077.286.011.286-.145s.14-.216.311-.133.607-.082.969-.367.658-.453.658-.373.193-.006.43-.191c.312-.244,1.576-.336,4.6-.336a19.943,19.943,0,0,0,4.4-.254c.152-.166.45-.148.859.052.514.251.662.234.823-.1.148-.3.475-.366,1.328-.258.761.1,1.062.056.918-.128-.124-.158-.026-.222.235-.152.424.114,1.579-.679,1.579-1.084,0-.331.94-.486,1.17-.192.134.171.075.211-.151.1s-.373-.012-.373.246c0,.322.1.36.419.154.485-.317,1.88-.3,1.628.024a.871.871,0,0,1-.7.131,1.907,1.907,0,0,0-1.168.373c-1.147.829-4.912,1.543-8.571,1.625-4.774.107-7.168.3-7.55.6-.224.176-.205.26.058.26.213,0,.388.119.388.263,0,.18-.194.181-.612.005a.794.794,0,0,0-1.008.118,1.506,1.506,0,0,1-.886.376,1.562,1.562,0,0,0-.93.445c-.409.414-.425.409-.228-.064ZM44.425,59.2a.373.373,0,0,0-.331-.4c-.182,0-.465-.277-.629-.617-.665-1.378,1.753-3.53,3.4-3.031.3.091.452.02.395-.186-.052-.184.136-.374.417-.423s.511.076.511.292-.121.322-.269.25c-.673-.328-.173.369.667.929l.936.624-1.279.949a5.783,5.783,0,0,1-1.5.914c-.451-.07-1.834.492-1.732.7.058.12-.051.26-.242.31s-.347-.09-.347-.312Zm1.527-1.065a.8.8,0,0,0-.619-.02c-.258.081-.181.142.2.154.34.011.531-.049.424-.134Zm54.019-2.33c0-.416.911-.882,1.328-.679.245.119.3.081.157-.105-.127-.162-.139-.294-.027-.294.218,0,1.242.75,1.069.783q-.893.168-1.8.379c-.411.1-.727.06-.727-.083Zm-51.056-.981c-.375-.356-.351-.4.176-.318a1.048,1.048,0,0,1,.743.411c.192.454-.407.393-.919-.093Zm-9.724-4.306a3.4,3.4,0,0,1-.03-1.461c.079-.728.042-1.243-.084-1.144a3.187,3.187,0,0,1-1.586-.447,3.985,3.985,0,0,0-1.52-.5,4.163,4.163,0,0,1-2.2-.6,2.78,2.78,0,0,1,1.3-.236c.924-.05,1.353.041,1.487.317a.389.389,0,0,0,.477.246c.6-.295.239-.809-1.164-1.637-1.757-1.037-2.021-1.769-.4-1.116a4.684,4.684,0,0,1,1.287.706c.13.155.24.179.242.053s.3.034.651.357.646.5.646.389.209-.06.465.107a.579.579,0,0,1,.29.664c-.11.225.138.453.665.611.462.138.858.369.881.512s.059.384.081.536.295.421.606.6c.776.447.708.7-.161.6-.448-.049-.7.042-.646.238a.241.241,0,0,1-.242.318c-.178,0-.323.229-.323.509,0,.486-.341.664-.712.372Zm-3.87-8.942a.8.8,0,0,1,.619.02c.107.085-.083.145-.424.134-.376-.012-.453-.072-.2-.154ZM35.242,41a5.293,5.293,0,0,1-.391-1.994c-.077-1.4-.024-1.583.382-1.317.595.389.658,1.891.068,1.611-.293-.139-.287-.077.023.224a1.47,1.47,0,0,1,.323,1.13c-.08.55-.174.63-.406.346Zm9.182-.267c0-.28.145-.509.323-.509s.323.229.323.509-.145.509-.323.509S44.425,41.017,44.425,40.737Zm-4.2-.015c0-.148.145-.2.323-.112s.323.208.323.269-.145.112-.323.112A.3.3,0,0,1,40.227,40.722Zm-7.662-.754c-.027-.283.087-.448.254-.367.367.179.406.881.049.881C32.728,40.483,32.591,40.251,32.564,39.969Zm-.411-1.791c0-.148.145-.2.323-.112s.323.208.323.269-.145.112-.323.112A.3.3,0,0,1,32.153,38.178ZM25.94,26.54c-.1-.307-.064-.618.085-.69.411-.2.585.2.329.754-.217.471-.237.468-.414-.063Z" transform="translate(-20.821 -25.797)"/>
</svg>
