<svg xmlns="http://www.w3.org/2000/svg" xmlns:xlink="http://www.w3.org/1999/xlink" width="67.889" height="75.564" viewBox="0 0 67.889 75.564">
  <defs>
    <style>
      .cls-1 {
        stroke: #707070;
        stroke-linecap: round;
        fill: url(#radial-gradient);
      }
    </style>
    <radialGradient id="radial-gradient" cx="0.5" cy="0.5" r="0.849" gradientTransform="matrix(1, 0, 0, 0.673, 0, 0.163)" gradientUnits="objectBoundingBox">
      <stop offset="0" stop-color="#fff"/>
      <stop offset="1" stop-color="#919191" stop-opacity="0.725"/>
    </radialGradient>
  </defs>
  <g id="coeur03" transform="translate(0.49 0.501)">
    <path id="path79" class="cls-1" d="M63.339,100.222c-.087-.111-.1-.246-.037-.3.181-.143.379.067.281.3-.069.162-.116.162-.244,0Zm.693-.021c0-.088.1-.16.215-.16s.158.072.089.16a.4.4,0,0,1-.215.16C64.072,100.36,64.032,100.288,64.032,100.2Zm.608-.009c0-.093.091-.125.2-.07s.2.13.2.169-.091.07-.2.07A.189.189,0,0,1,64.64,100.191ZM61.9,99.558c-.252-.219-.417-.265-.513-.143s-.186.124-.267.021c-.224-.285.519-.373.78-.092a.454.454,0,0,0,.447.17c.11-.054.2.007.2.135,0,.32-.208.291-.646-.091Zm12.565-.139a11.017,11.017,0,0,0-1.555-.092c-1.486-.03-2.591-.192-2.591-.382a18.374,18.374,0,0,0-2.731-.086,11.98,11.98,0,0,1-2.624-.12c.059-.075.01-.136-.108-.136a.2.2,0,0,0-.215.168c0,.1-.4.149-1.014.12a3.365,3.365,0,0,1-1.014-.128c0-.044-.251-.089-.558-.1A4.376,4.376,0,0,1,60.1,98.3a.613.613,0,0,0-.671-.032c-.335.153-.336.168-.017.172.366.005.288.484-.078.484-.106,0-.143-.064-.081-.143s-.03-.186-.2-.239c-.214-.065-.274-.2-.184-.426.122-.3.1-.313-.317-.121-.356.166-.469.168-.542.01a.423.423,0,0,0-.362-.2.449.449,0,0,1-.373-.2c-.072-.141-.107-.144-.118-.011s-.189.146-.675.027c-.362-.089-.8-.175-.963-.193a19.384,19.384,0,0,1-3.208-.921,7.934,7.934,0,0,0-1.774-.46c-.271,0-.493-.076-.493-.169s-.092-.124-.2-.07a.256.256,0,0,1-.325-.149.25.25,0,0,0-.3-.16.25.25,0,0,1-.3-.16c-.067-.137-.2-.209-.3-.16s-.182.02-.182-.063-.342-.278-.76-.434a4.494,4.494,0,0,1-1.216-.7c-.251-.228-.456-.356-.456-.284s-.274-.023-.609-.211-.608-.4-.608-.473a2.387,2.387,0,0,0-.61-.646,5.22,5.22,0,0,1-.952-1.1,2.2,2.2,0,0,0-.609-.71,2.014,2.014,0,0,1-.58-.639c-.67-1.09-.805-1.223-1.35-1.317-.31-.054-.563-.153-.563-.222,0-.441-3.349-2.715-4.009-2.723a8.253,8.253,0,0,1-4.306-5.655,15.867,15.867,0,0,0-.912-3.028c-.13-.243-.075-.284.323-.24.846.095.666-.423-.489-1.406a6.973,6.973,0,0,1-1.109-1.07.387.387,0,0,0-.159-.24c-.083-.059-.085-.017-.005.093.227.311-.05.238-.879-.232A4.16,4.16,0,0,1,26.92,71.82a4.674,4.674,0,0,0-.809-.936,3.673,3.673,0,0,1-.809-1,.2.2,0,0,0-.2-.2c-.36,0-.892-.825-.959-1.488a2.261,2.261,0,0,0-.385-1.036.868.868,0,0,1-.219-.688c.055-.167.018-.263-.083-.214-.269.131-.224-.153.059-.377.148-.116.16-.192.032-.192-.209,0-.217-2.071-.013-3.435a1.2,1.2,0,0,0-.134-.863c-.127-.123-.207-.249-.179-.28a1.313,1.313,0,0,0,.051-.455c0-.577-.525-.5-.8.12-.255.575-.292.554-1.053-.581-.328-.489-.36-.648-.154-.748a.581.581,0,0,1,.421-.05c.088.043.1-.046.026-.2-.082-.168-.053-.235.073-.173.36.175.185-.576-.3-1.3-.63-.932-.705-1.446-.651-4.423.026-1.406.041-3.231.033-4.056a5.44,5.44,0,0,1,.188-1.8c.113-.166.121-.3.019-.3-.226,0-.067-1.173.205-1.518a2.766,2.766,0,0,0,.252-.787,2.129,2.129,0,0,1,.3-.8,2.127,2.127,0,0,0,.279-.841,3.757,3.757,0,0,1,.433-1.183,2.391,2.391,0,0,0,.325-1.079c0-.491.033-.529.253-.293s.256.2.269-.3a.894.894,0,0,1,.279-.7c.145-.071.2-.208.124-.306s-.055-.178.049-.178.24-.3.3-.676.2-.7.309-.727.144-.2.083-.388c-.076-.23-.037-.3.123-.223.221.107.344-.356.273-1.023a1.822,1.822,0,0,1,.16-.679c.154-.364.127-.44-.158-.442-.213,0-.26-.047-.123-.12.7-.372,1.094-3.7.5-4.257-.172-.163-.205-.511-.108-1.124.11-.7.081-.888-.136-.89s-.21-.037.027-.157.243-.155.027-.157c-.186,0-.245-.134-.18-.4.053-.22.007-.4-.1-.4-.125,0-.129-.075-.011-.2A1.026,1.026,0,0,0,25,26.669c-.011-.243.072-.417.186-.388s.221.272.238.539a2.816,2.816,0,0,0,.9,1.894c.421.3.837.2.447-.111-.167-.132-.151-.239.064-.408.369-.291.367-.444-.013-.743-.167-.132-.3-.286-.3-.342,0-.2,1.139.561,3.3,2.2,1.554,1.179,2.151,1.732,2.062,1.915a.358.358,0,0,1-.415.169c-.2-.061-.252-.01-.164.17a.493.493,0,0,0,.4.257c.171,0,.233.106.162.28-.088.216-.069.23.085.059a.373.373,0,0,1,.391-.127c.4.2,1.306,1.374,1.178,1.537-.074.094,0,.278.169.409.38.3.462.3.612-.009.069-.142.035-.206-.08-.15s-.2-.057-.2-.247c0-.4-.607-1.272-.882-1.272a2.7,2.7,0,0,1-1.146-1.018c0-.406,3.033,2.072,3.074,2.511.018.189.057.74.089,1.223s.072,1.058.091,1.278l.034.4.22-.439c.121-.242.281-.439.356-.439a5.551,5.551,0,0,1,.092,1.717,16.558,16.558,0,0,1-.089,1.717.73.73,0,0,0-.119.32c-.041.176-.129.551-.2.834a1.085,1.085,0,0,1-.468.674c-.25.115-.268.161-.062.164.236,0,.231.053-.025.284a4.676,4.676,0,0,0-.668.887c-.235.4-.457.578-.645.521-.158-.048-.232-.017-.165.068.132.169-.208.748-.639,1.088a.489.489,0,0,0-.01.859c.309.249.41,1.519.133,1.654-.106.051-.192-.091-.192-.315s-.088-.409-.2-.409-.148.1-.09.219-.056.252-.279.3c-.318.065-.429-.055-.633-.682a2.285,2.285,0,0,1,.492-2.3c.413-.426.377-.774-.1-1.011-.223-.11-.406-.283-.406-.385a.958.958,0,0,0-.337-.479c-.185-.161-.279-.339-.208-.394.2-.154,1.513.7,1.666,1.075l.134.333.386-.327a1.051,1.051,0,0,0,.386-.573c0-.135.069-.246.153-.246.254,0,.625-1.116.406-1.222-.107-.052-.146-.287-.086-.522.1-.413-.078-.853-.344-.825-.407.043-.535-.011-.535-.226a.224.224,0,0,0-.2-.24.23.23,0,0,1-.2-.249c0-.137-.081-.21-.18-.162-.214.1-1.771-.981-1.6-1.116a8.508,8.508,0,0,1,2.355,1.245c.168.3.439.076.439-.368,0-.417-.06-.475-.406-.389-.277.069-.406.029-.406-.127,0-.126-.411-.352-.913-.5-.893-.269-1.213-.568-.608-.568.167,0,.3.086.3.192,0,.132.066.14.209.027s.143-.3.013-.551c-.108-.213-.2-.3-.209-.2s-.233.033-.509-.16l-.5-.347.521-.111a.953.953,0,0,1,.825.128,2.361,2.361,0,0,0,.9.334,1.544,1.544,0,0,1,.835.392.766.766,0,0,0,.474.3.388.388,0,0,1,.329.2.172.172,0,0,0,.27.067c.1-.075-.06-.27-.368-.447-.325-.187-.5-.408-.434-.546s.02-.232-.095-.232-.3-.2-.411-.439-.211-.349-.22-.24-.15.2-.314.2-.258-.09-.208-.2c.1-.218-.16-.508-.878-.992-.4-.267-.493-.279-.653-.08s-.188.189-.19-.041c0-.151-.186-.351-.409-.445s-.406-.24-.406-.325c0-.2.752-.2.913.006a.492.492,0,0,0,.343.16c.12,0-.045-.159-.367-.354a4.779,4.779,0,0,1-.717-.5.51.51,0,0,0-.465-.048c-.266.08-.289.166-.115.423s.157.322-.177.322a.61.61,0,0,0-.5.2c-.061.119-.109.087-.118-.08a.254.254,0,0,1,.237-.282c.2,0,.195-.032-.008-.133-.178-.089-.227-.357-.155-.836.079-.529.061-.605-.073-.306-.2.455-.277.313-.225-.439.022-.309-.061-.519-.2-.519s-.19-.1-.129-.228c.124-.255-.281-1.047-.536-1.049-.09,0-.108-.073-.039-.161s-.017-.16-.191-.16-.323.054-.332.12-.046.246-.083.4,0,.28.085.28c.271,0,.638,1.252.5,1.7-.093.291-.066.395.084.322s.215.2.2.855c-.017.912-.032.941-.292.546-.151-.229-.225-.479-.165-.556s-.017-.33-.172-.563c-.219-.33-.308-.369-.4-.177-.071.145.013.287.2.344.283.086.275.126-.063.333-.379.231-.379.24.008.475.218.133.281.24.14.24s-.2.072-.128.16.036.16-.073.16a.382.382,0,0,1-.3-.2c-.06-.117-.109-.082-.118.085s-.221.35-.472.429c-.35.111-.373.147-.1.155.371.011.463.191.2.4a5.047,5.047,0,0,0-.161,1.608,4.436,4.436,0,0,1-.225,1.7,2.051,2.051,0,0,0-.338.842,1.34,1.34,0,0,1-.383.774c-.187.106-.161.122.094.058.455-.115.487.349.034.486-.177.053-.245.141-.152.195a.975.975,0,0,1,.471,1.056,12.043,12.043,0,0,0-.68,1.837,4.835,4.835,0,0,1-.333.879,3.555,3.555,0,0,0-.3.857.739.739,0,0,1-.326.508.812.812,0,0,0-.248.7c.014.384-.07.57-.257.57-.155,0-.229-.1-.169-.223a.244.244,0,0,0-.105-.328c-.126-.061-.169-.011-.1.123a.414.414,0,0,1-.154.448,2.434,2.434,0,0,0-.325,1.259c-.047.812.024,1.136.327,1.488l.387.45.124-.49c.24-.944.494-.477.5.908,0,1.428.155,2.117.474,2.117a.206.206,0,0,1,.179.225c0,.146.142.2.406.141.233-.048.406,0,.406.1s-.16.164-.355.138c-.3-.04-.356.082-.359.782a2.213,2.213,0,0,1-.128.926c-.2.16.311.878.629.88.229,0,.24-.041.051-.19-.387-.305-.308-.774.112-.66.286.078.276.048-.05-.152-.513-.314-.286-.5.615-.5.442,0,.7-.077.7-.208,0-.114-.183-.208-.406-.208s-.406-.07-.406-.156.176-.1.456-.019a3.748,3.748,0,0,0,.651.144c.107,0,.253.137.323.3.118.264.147.26.363-.058a1.547,1.547,0,0,0,.235-.735,4.377,4.377,0,0,1,.124-.879c.1-.379.18-.448.375-.3a.521.521,0,0,1,.169.509c-.045.178.06.082.233-.213.348-.594.414-.872.12-.506-.1.129-.248.188-.321.13-.218-.172.106-.445.528-.445s.543.388.191.559c-.261.127-.262,1.215,0,1.756.134.278.134.386,0,.32-.111-.054-.2-.022-.2.071a.174.174,0,0,0,.177.169c.1,0,.237.306.31.679s.186.913.251,1.2c.093.406.049.519-.2.519-.218,0-.28-.089-.194-.28s-.008-.161-.311.1a1.318,1.318,0,0,0-.434.559c0,.1.078.082.175-.038.135-.168.205-.151.331.08.28.514.2,1.491-.127,1.491-.125,0-.18-.14-.122-.314a.457.457,0,0,0-.177-.5c-.155-.1-.222-.259-.151-.35s.033-.119-.092-.058c-.159.077-.161.247-.008.592.118.266.17.519.115.562a4.456,4.456,0,0,1-.759-1.693c0-.267-.563-.664-.7-.493a.119.119,0,0,0,.07.2c.1.029.242.341.312.693s.172.855.228,1.118a2.346,2.346,0,0,0,.5.912,1.582,1.582,0,0,1,.4.611.774.774,0,0,0,.306.419c.168.133.26.3.2.371s.022.168.174.214c.271.082.6.913.352.9a1.786,1.786,0,0,1-.49-.224c-.274-.163-.3-.239-.1-.3.171-.054.139-.088-.091-.1-.2-.007-.355-.112-.355-.234s-.192-.261-.426-.309-.366-.164-.292-.258.012-.171-.136-.171c-.288,0-.9-.827-1.012-1.358-.041-.2-.232-.326-.519-.338-.535-.021-.541,0-.164.553.5.733.692,1.387.488,1.674-.125.175-.117.267.023.267a.216.216,0,0,0,.22-.2c0-.11.138-.02.3.2.33.455.385.7.131.574-.228-.111-.638.611-.638,1.122a1.53,1.53,0,0,1-.223.731c-.17.25-.165.3.019.21.163-.079.216-.02.16.18a.322.322,0,0,1-.326.258c-.184-.031-.181.042.012.3.205.273.205.355,0,.414-.14.04-.2.138-.14.219s-.032.146-.21.146-.3.09-.276.2a1.175,1.175,0,0,1-.109.567.521.521,0,0,0,.069.582c.125.118.213.277.2.352a.5.5,0,0,0,.018.256,2.44,2.44,0,0,1,.082.24,2.677,2.677,0,0,0,.286.479c.159.226.175.359.044.359-.115,0-.027.144.2.32a1.513,1.513,0,0,0,.584.32c.342,0,.714.513.747,1.032a8.946,8.946,0,0,0,1.471,2.944A1.484,1.484,0,0,0,30.2,73c.191.041.293.172.232.3a.243.243,0,0,1-.321.119c-.447-.218.09.264.635.57l.57.32.027-.592c.02-.432-.025-.527-.167-.352-.16.2-.195.184-.2-.081a.711.711,0,0,0-.407-.52c-.4-.195-.449-.561-.137-.954.091-.114-.061-.49-.361-.893a3.037,3.037,0,0,1-.517-.892.767.767,0,0,0-.3-.437.686.686,0,0,1-.288-.428c.011-.133.046-.129.118.011s.29.162.623.1c.387-.077.48-.052.363.1s-.042.171.274.092c.374-.094.431-.045.431.373,0,.565.3.767.727.488.262-.171.292-.117.22.4s-.016.616.41.744c.271.081.434.223.361.315-.092.117-.21.116-.392,0-.411-.269-.586.72-.207,1.175.166.2.254.4.2.448s.039.18.218.3c.271.177.353.175.5-.008a.456.456,0,0,0-.025-.512c-.239-.352-.118-.538.422-.649.353-.073.377-.042.185.241-.208.306.01.592.457.6.071,0,.179.153.24.338.068.206.2.291.35.22.169-.082.2-.005.105.263-.116.333-.1.344.1.088.127-.16.178-.333.113-.385s-.005-.2.134-.338c.2-.2.2-.221-.015-.118-.18.085-.3.017-.379-.209a.475.475,0,0,0-.386-.336c-.175,0-.226-.1-.142-.271s.163-.2.213-.08a.44.44,0,0,0,.724-.008c.082-.16.105-.16.118,0a.231.231,0,0,0,.232.2c.124,0,.162-.136.088-.32-.1-.253-.036-.32.315-.32s.4.043.2.227-.164.212.178.141c.521-.107.527-.289.021-.716a3.472,3.472,0,0,1-.712-1.065c-.269-.623-.274-.762-.034-.952.2-.154.324-.169.419-.047.076.1.041.175-.077.175a.2.2,0,0,0-.215.169c0,.093.081.13.181.081s.241.167.315.478c.112.468.2.549.529.467s.394-.021.394.391c0,.27.091.49.2.49s.2-.126.207-.28c0-.227.08-.2.4.12a2.919,2.919,0,0,1,.522.695,2.609,2.609,0,0,0,1.273,1.051c.55.232.637.218.637-.1,0-.195.062-.223.219-.1.231.182-.149.85-.483.85-.091,0-.11-.072-.041-.16.159-.2-.11-.2-.507,0-.25.128-.253.155-.017.157.158,0,.241.039.184.083-.2.16-1.378-.12-1.263-.3.063-.1-.114.015-.394.254-.332.283-.543.367-.609.24-.055-.107-.107-.041-.116.147a.519.519,0,0,1-.341.441c-.179.054-.276.2-.216.323.117.24-.385.473-.694.322-.1-.049-.184-.021-.184.062,0,.173-.827.376-1.724.424-1,.053-1.042.067-1.276.472-.177.307-.156.5.1.9a9.8,9.8,0,0,1,.874,3.232,7.741,7.741,0,0,0,1.942,3.157c.27.2.491.451.491.558s.246.243.546.3a2.273,2.273,0,0,1,.927.457c1.263,1.155,1.739,1.519,1.86,1.424.075-.059.079.009.01.151a.268.268,0,0,0,.091.364c.119.058.217-.007.217-.145,0-.21.065-.219.406-.051a.694.694,0,0,1,.406.5c0,.2.1.268.3.206s.3.008.3.213a.471.471,0,0,0,.192.4c.106.052.155-.058.11-.244-.069-.283-.034-.306.218-.141.165.108.259.23.207.271s.13.237.4.437c.331.242.456.463.374.662-.1.241-.083.253.087.064.265-.3.422-.177.478.359.034.321.1.378.3.247.33-.215.345.058.017.316-.189.149-.164.192.113.192.221,0,.3.071.21.187s-.04.155.157.1c.181-.055.3,0,.3.133a.251.251,0,0,1-.27.224c-.317,0-.36.257-.068.4.112.054.2.023.2-.07a.2.2,0,0,1,.215-.169c.118,0,.162.067.1.149s-.01.2.121.264c.148.072.183.046.093-.069-.218-.277.2-.222.5.067.22.209.215.279-.026.41-.218.118-.179.133.153.06a.54.54,0,0,1,.652.208c.114.168.143.363.063.433s-.015.067.143-.005c.216-.1.255-.064.154.142q-.133.274.1.162a.43.43,0,0,1,.454.121,1.6,1.6,0,0,0,.6.345c.226.067.33.206.26.35-.14.287.2.324.346.039.075-.146.148-.151.27-.018a5.633,5.633,0,0,0,2.207.895c.272.018.495.1.495.174s.137.1.3.05.3-.03.3.045.212.179.472.231a3.511,3.511,0,0,1,1.107.572c.349.263.689.41.754.327s.269-.078.5.037c.211.1.342.241.291.305s-.006.159.1.21.25-.052.321-.229c.129-.321.508-.453.508-.177a2.93,2.93,0,0,0,1.166.408l2.231.5c.586.131,1.066.325,1.068.43,0,.122.07.108.187-.038.133-.166.258-.183.453-.061.351.22,2.325.36,6.454.459a32.451,32.451,0,0,1,4.36.308,20.169,20.169,0,0,0,2.616.32,13.834,13.834,0,0,1,1.757.167.164.164,0,0,0,.223-.07,2.6,2.6,0,0,1,1.082-.237,9.607,9.607,0,0,0,3.64-.889c.245-.182.489-.3.541-.256s.108-.063.124-.231c.045-.469,1-1.505,1.151-1.25.069.116.089.055.045-.135a1.569,1.569,0,0,1,.4-.959c.442-.567.478-.782.484-2.9s-.017-2.269-.327-2.025a1.5,1.5,0,0,0-.416.85,1.449,1.449,0,0,1-.275.739.7.7,0,0,0-.2.479c-.008.383-.48.929-.673.778a.619.619,0,0,1-.132-.416c0-.257.053-.278.3-.117s.288.1.217-.459a1.132,1.132,0,0,1,.157-.86,12.111,12.111,0,0,0,1.466-2.032c.983-1.642,1.171-1.9,1.431-1.981a.4.4,0,0,0,.283-.34c0-.14.085-.213.189-.162s.184-.143.178-.43a9.232,9.232,0,0,1,.1-1.241c.1-.675.4-3.18.4-3.355,0-.463-.1-.639-.352-.639-.167,0-.3-.076-.3-.169s.079-.131.176-.084.142-.146.1-.43-.117-.8-.169-1.144c-.088-.584.174-1.127.473-.982.071.035.141-.416.155-1a6.419,6.419,0,0,1,.233-1.622l.207-.559.021.739c.03,1.059.236,1.75.485,1.629.134-.065.162,0,.077.175a1.587,1.587,0,0,0-.136.346c0,.037-.091.067-.2.067s-.2-.126-.206-.28a.922.922,0,0,0-.17-.486c-.093-.115-.126.176-.075.658.057.537.006.907-.135.975a.382.382,0,0,0-.226.27c0,.088.1.113.214.056.141-.069.2.172.167.709-.026.447-.145.815-.264.816s-.093.065.06.141c.185.092.251.357.2.8-.057.471,0,.658.189.658s.245-.207.179-.8c-.049-.439-.007-.8.092-.8.185,0,.27.336.213.848-.017.159.036.256.12.215a11.026,11.026,0,0,1,.139,3.534c-.06.288-.2.481-.3.43s-.193.074-.193.28a2.141,2.141,0,0,1-.8,1.243A12.131,12.131,0,0,0,84.65,88.8a4.114,4.114,0,0,0-.383,1.638,2.406,2.406,0,0,1-.205,1.138c-.081,0-.058.184.051.41.245.509.248.592.012.477-.1-.05-.081.127.046.394.194.4.255.438.374.2.136-.271.143-.271.156,0a.391.391,0,0,1-.267.37.286.286,0,0,0-.189.365A2.007,2.007,0,0,1,83.8,94.86a14.985,14.985,0,0,0-.932,1.608A5.36,5.36,0,0,1,80.5,98.719c-.717.455-.829.483-.957.24-.1-.19-.174-.213-.24-.075a.213.213,0,0,1-.281.11c-.1-.05-.185-.006-.185.1s-.138.145-.306.094a1.873,1.873,0,0,0-.862.081,12.248,12.248,0,0,1-3.2.154Zm8.028-2.742a.69.69,0,0,0,.141-.519c-.045-.1-.236.043-.424.328s-.252.519-.141.519A.715.715,0,0,0,82.491,96.677ZM45.781,92.6c0-.137-.093-.2-.206-.149s-.154.167-.089.249c.174.222.3.18.3-.1Zm40.554-7.038c-.018-.058.072-.157.2-.219a4.072,4.072,0,0,0,.427-2.678c-.172-.232-.208-.192-.213.239,0,.286,0,.565.011.621s-.1.163-.253.237c-.222.111-.223.136,0,.138.33,0,.261.746-.11,1.2a1.111,1.111,0,0,0-.244.639c.009.178.061.236.117.128a.526.526,0,0,0,.068-.3ZM33.753,81.958c-.065-.127-.113-.09-.123.1-.009.168.039.263.107.21a.263.263,0,0,0,.016-.306Zm52.788-2.6c0-.039-.091-.115-.2-.169s-.2-.023-.2.07a.189.189,0,0,0,.2.169C86.449,79.432,86.54,79.4,86.54,79.361ZM35.693,75.179a.465.465,0,0,0,.355-.444c0-.445-.154-.58-.532-.465-.208.063-.23.144-.078.289.2.193-.054.334-1.418.781C33.686,75.448,35.123,75.311,35.693,75.179Zm-2.687-.15c0-.137-.077-.211-.172-.165s-.374-.065-.622-.246-.5-.287-.571-.234-.084.119-.037.146l.669.4c.7.416.733.421.733.1Zm.944-.683c-.185-.161-.27-.344-.19-.408s-.011-.068-.2-.01c-.439.133-.438.222.006.488.523.313.774.267.386-.07Zm1.49-.506a.209.209,0,1,0-.2.16A.186.186,0,0,0,35.439,73.84Zm2.17-.332.041-.387-.159.4c-.14.35-.172.311-.263-.32a1.436,1.436,0,0,1,.118-.957c.2-.211.168-.211-.248,0-.517.262-.523.29-.223,1.167.228.667.667.725.733.1Zm.791-.424c-.206-.162-.376.082-.207.3.128.163.176.163.244,0a.27.27,0,0,0-.037-.3Zm-9.248.056a1.163,1.163,0,0,0-.355-.28c-.322-.2-.329-.193-.077.06s.431.351.431.219Zm1.681-.738c.058-.176.023-.36-.078-.409s-.184.094-.184.319c0,.49.116.529.261.089Zm-2.494-.921c-.192-.241-.2-.231-.1.069.066.19.024.392-.092.449s-.211-.088-.211-.386c0-.269-.077-.489-.172-.489-.265,0-.238.968.033,1.2.36.309.853-.455.543-.843ZM30.3,70.405c0-.132-.076-.24-.169-.24-.2,0-.223.224-.034.373S30.3,70.677,30.3,70.405Zm-3.988-.9c0-.12.106-.11.32.03.265.173.351.17.5-.02.233-.29.231-.337-.029-.629-.169-.19-.187-.167-.09.106.068.19.028.392-.088.449s-.211-.088-.211-.386c0-.269-.1-.489-.212-.489a.166.166,0,0,0-.152.229.18.18,0,0,1-.143.245c-.112.008-.232-.167-.267-.389s-.142-.4-.237-.4-.264-.2-.376-.439c-.158-.34-.207-.368-.22-.123a4.292,4.292,0,0,0,1.035,2,.173.173,0,0,0,.165-.179Zm-.992-4.841c.11.222.158.13.172-.332a6.11,6.11,0,0,1,.207-1.278c.122-.416.117-.695-.017-.8s-.163-.073-.078.1a.272.272,0,0,1-.089.369c-.119.058-.217,0-.217-.123,0-.3-.819-1.755-.936-1.662a1.642,1.642,0,0,0,.1.772,4.232,4.232,0,0,1,.058,1.5,5.882,5.882,0,0,0-.066,1.337l.065.538.325-.366c.311-.35.332-.352.478-.059Zm1.4-2.649c0-.088-.1-.16-.215-.16s-.158.072-.089.16a.4.4,0,0,0,.215.16C26.68,62.178,26.72,62.106,26.72,62.018Zm-.348-.592c-.055-.114,0-.207.124-.207s.224-.072.224-.16-.142-.16-.316-.16-.275-.054-.224-.12-.05-.223-.224-.35c-.283-.206-.3-.176-.185.288.074.293.052.479-.05.429-.139-.067-.158.255-.03.5a1.4,1.4,0,0,0,.4.007c.224-.013.341-.109.282-.23Zm1.97-1.964c0-.088-.1-.16-.215-.16s-.158.072-.089.16a.4.4,0,0,0,.215.16C28.3,59.622,28.342,59.55,28.342,59.462Zm-2.231-.208a.613.613,0,0,0-.235-.393,1.361,1.361,0,0,1-.108-1.436c.11-.115.112-.2.006-.2s-.2-.373-.229-.828a1.34,1.34,0,0,0-.45-1.125c-.384-.282-.4-.282-.4-.01a3.3,3.3,0,0,0,.2.837c.148.407.135.583-.051.675s-.157.126.083.128c.277,0,.306.1.17.573a2.007,2.007,0,0,0,.012,1.052c.15.412.133.454-.12.289-.213-.139-.295-.142-.295-.011s-.191.145-.537.076-.492-.049-.4.063a.907.907,0,0,0,.639.125c.278-.024.506.026.506.111s.134.114.3.065a.426.426,0,0,1,.418.063c.175.223.5.187.5-.055Zm-2.732-.578c-.1-.244-.044-.29.27-.225s.388,0,.363-.335c-.023-.308-.083-.364-.234-.214a1.1,1.1,0,0,1-.5.254c-.242.042-.235,0,.036-.24.315-.275.3-.292-.242-.308l-.576-.016.429.7c.448.727.666.913.455.389Zm1.465-1.209c0-.221-.076-.4-.169-.4s-.15.209-.127.464c.051.559.3.508.3-.061ZM24.151,57a.364.364,0,0,0-.181-.419.755.755,0,0,1-.292-.571c0-.209-.08-.38-.178-.38-.219,0-.188,1.122.038,1.4S24.014,57.278,24.151,57Zm-1.183-.092c.069-.088.029-.16-.089-.16s-.215.072-.215.16.04.16.089.16A.4.4,0,0,0,22.968,56.906Zm-.355-.505c-.6-.172-.772-.718-.276-.868.172-.052.239-.215.171-.419-.076-.228-.036-.3.124-.22.246.12.329-.1.1-.273a3.182,3.182,0,0,1-.181-1.128c-.045-.908,0-1.046.384-1.205.406-.168.4-.176-.128-.118a1.058,1.058,0,0,1-.671-.077c-.06-.076.089-.138.331-.138.307,0,.4-.072.323-.24s.006-.241.232-.242.267-.043.114-.12c-.132-.066-.189-.309-.129-.555s.187-.4.286-.35.18-.1.18-.336a.457.457,0,0,0-.406-.507c-.223-.046-.406-.18-.406-.3s-.183-.292-.406-.386c-.275-.116-.406-.118-.406-.006a.188.188,0,0,0,.2.165.189.189,0,0,1,.2.169.1.1,0,0,1-.152.1c-.084-.041-.155.117-.159.35s-.073,1.241-.153,2.239c-.125,1.553-.1,1.8.149,1.726.3-.09.239.257-.1.614-.085.088-.025.3.133.47.385.415.37.713-.017.319-.28-.285-.294-.252-.179.409.128.733.513,1.128,1.079,1.106.174-.007.065-.085-.242-.173Zm6.6-.933c-.146-.44-.261-.4-.261.089,0,.225.083.369.184.319s.136-.233.078-.409Zm-3.14-.4c-.062-.049-.176.039-.252.2-.11.228-.087.246.114.089.139-.108.2-.237.138-.286Zm-1.868.059c.09-.114.056-.141-.089-.07s-.234.006-.234-.162c0-.152-.057-.231-.126-.176-.131.1.041.593.209.593a.47.47,0,0,0,.24-.184Zm3.124-.321c0-.073-.091-.133-.2-.133s-.2-.144-.2-.32a.311.311,0,0,0-.3-.32c-.357,0-.362.02-.119.522.171.354.829.553.829.25Zm-3.081-.465a.291.291,0,0,0-.531,0c-.04.094.079.172.265.172S24.288,54.432,24.248,54.338Zm5.108-.218c0-.039-.091-.115-.2-.169s-.2-.023-.2.07a.189.189,0,0,0,.2.169C29.265,54.19,29.356,54.158,29.356,54.119Zm-5.327-.825a.5.5,0,0,0-.389-.013c-.162.051-.114.089.122.1.214.007.334-.031.266-.084Zm-.351-1.5a.209.209,0,1,0-.2.16A.186.186,0,0,0,23.678,51.793Zm-1.434-4.2c.008-.159-.077-.245-.189-.19s-.2.328-.189.609c.012.43.042.46.189.19A1.721,1.721,0,0,0,22.244,47.59ZM22.284,46c-.2-.157-.224-.138-.114.089.076.158.19.246.252.2s0-.178-.138-.286Zm10.342-.8c-.2-.157-.224-.138-.114.089.076.158.19.246.252.2s0-.178-.138-.286Zm-9.255-1.07a3.18,3.18,0,0,0,.51-1.189c0-.519.351-.681.468-.217.059.233.085.181.074-.146-.01-.279-.094-.471-.187-.426s-.112-.1-.043-.313.032-.441-.084-.5-.307.184-.442.582a3.232,3.232,0,0,1-.392.844c-.257.257-.7,2.157-.5,2.157a3.689,3.689,0,0,0,.6-.793Zm1.8-2.17c.069-.142.035-.206-.08-.15a.342.342,0,0,0-.2.248c0,.23.145.179.28-.1Zm-.686-1.03c0-.088-.04-.16-.089-.16a.4.4,0,0,0-.215.16c-.069.088-.029.16.089.16S24.489,41.018,24.489,40.93Zm.913-.639c.069-.088-.022-.16-.2-.16s-.272.072-.2.16.16.16.2.16S25.333,40.379,25.4,40.291Zm8.891-1.684c-.066-.136-.164-.212-.217-.17s-.037.153.037.247C34.313,38.937,34.43,38.888,34.293,38.606Zm.783-.863c.057-.306.012-.435-.129-.369-.119.056-.092-.02.062-.168.239-.232.234-.27-.039-.27-.476,0-.557.218-.29.775a2.844,2.844,0,0,0,.275.5,1.844,1.844,0,0,0,.122-.471Zm-1.417-1.476c-.132-.1-.289-.15-.349-.1s-.05.209.023.36c.094.194.2.224.35.1S33.828,36.4,33.658,36.267Zm-.652-.192c0-.122-.183-.259-.406-.3-.5-.1-.521.022-.051.3.448.268.456.268.456,0Zm2.028-.738c0-.088-.04-.16-.089-.16a.4.4,0,0,0-.215.16c-.069.088-.029.16.089.16S35.034,35.426,35.034,35.338Zm-4.056-4.163c0-.093.091-.125.2-.07s.2.023.2-.07a.2.2,0,0,0-.215-.169c-.118,0-.158-.072-.089-.16s.029-.16-.089-.16a.245.245,0,0,0-.215.266c0,.318-.213.189-.28-.168a2.547,2.547,0,0,0-1.153-1.057c-.08,0-.194.1-.253.22-.066.136.022.212.232.2a.382.382,0,0,1,.406.353,1.458,1.458,0,0,0,.4.679c.36.331.851.411.851.137Zm-4.34-.495c.09-.114.056-.141-.089-.07s-.239-.018-.248-.255a1.862,1.862,0,0,0-.189-.688c-.131-.24-.178-.132-.189.439s.063.759.278.759a.621.621,0,0,0,.437-.184Zm.995-.135c.069-.088.029-.16-.089-.16s-.215.072-.215.16.04.16.089.16A.4.4,0,0,0,27.632,30.545Zm1.849-.259c.026-.137-.01-.205-.079-.151a.673.673,0,0,0-.172.349c-.026.137.01.205.079.151A.673.673,0,0,0,29.482,30.286ZM59.938,98.963c-.235-.226-.206-.244.24-.151a5.282,5.282,0,0,0,.794.108c.394,0,.165.158-.348.236A.917.917,0,0,1,59.938,98.963Zm11.7-1.476a9.99,9.99,0,0,1-1.763-.453,6.031,6.031,0,0,0-1.255-.348c-.41,0-.595-.266-.256-.368a2.915,2.915,0,0,1,1.135.222,2.588,2.588,0,0,0,1.045.216c.1-.049.182-.015.182.075s.137.123.3.072.3-.024.3.058.114.157.253.166a8.783,8.783,0,0,1,1.9.243,2.791,2.791,0,0,0,1.548-.431c.1-.118.216-.1.352.066.171.205.2.2.2-.04,0-.154.091-.28.2-.28s.144.109.079.241c-.085.175-.025.213.221.139.186-.056.3-.188.246-.293-.1-.205.642-.649.833-.5.064.05.009.091-.121.091a.238.238,0,0,0-.237.238c0,.21.094.209.784-.009a4.446,4.446,0,0,1,1.622-.167c.838.08.839.079.839-.461,0-.7.321-.854.481-.225.215.848-.084,1.047-1.632,1.087a4.438,4.438,0,0,0-1.5.191,1.349,1.349,0,0,1-.658.232,8.445,8.445,0,0,0-1,.214,17.763,17.763,0,0,1-4.112.021ZM54.6,96.047a.4.4,0,0,1,.215-.16c.049,0,.089.072.089.16s-.1.16-.215.16S54.533,96.135,54.6,96.047Zm-.913-.16c0-.088.1-.16.215-.16s.158.072.089.16a.4.4,0,0,1-.215.16C53.73,96.047,53.69,95.975,53.69,95.887Zm25.554-.694c.005-.31.3-.574.509-.456.351.2.295.474-.114.559-.227.047-.4,0-.4-.1Zm.849-.9c.136-.172.276-.29.311-.263.12.095-.193.575-.375.575C79.927,94.609,79.957,94.468,80.093,94.3Zm.683-.487c.159-.464.464-.8.727-.8.208,0-.028.387-.535.879-.322.312-.326.31-.193-.08ZM52.6,93.521a2.626,2.626,0,0,1-.94-.342,1.206,1.206,0,0,0-.294-.416c-.284-.3-.29-.3-.178.052.092.287.047.341-.213.262-.181-.055-.329-.164-.329-.242s-.183-.143-.406-.143-.406-.076-.406-.169-.083-.129-.185-.079a.222.222,0,0,1-.288-.11c-.056-.11-.11-.051-.119.132a.619.619,0,0,0,.124.443.8.8,0,0,1,.2.4c.04.207-.064.288-.351.275a.9.9,0,0,1-.552-.189,1.237,1.237,0,0,0-.5-.276c-.469-.136-.683-.589-.354-.749.142-.069.2-.206.119-.3-.208-.265-.526-.215-.392.062.064.132.019.24-.1.24s-.166.108-.1.24c.165.339-.2.3-.625-.07-.393-.342-.268-.686.2-.545.184.056.3-.006.3-.162s-.116-.217-.266-.171a.853.853,0,0,1-.64-.245c-.23-.2-.279-.325-.127-.325.135,0,.2-.06.142-.133s.1-.115.343-.093.561.045.7.053a.264.264,0,0,1,.253.253.224.224,0,0,0,.2.24c.112,0,.192-.054.179-.12-.069-.342.046-.687.2-.611a.81.81,0,0,1,.156,1.042c-.149.117-.145.168.013.168a.351.351,0,0,0,.3-.184c.055-.13.225-.11.575.064a4.97,4.97,0,0,0,1.173.36,10.045,10.045,0,0,1,1.726.546,11.991,11.991,0,0,0,1.5.529c.489.1.634.549.177.549a8.356,8.356,0,0,1-1.217-.236Zm1.7-.07a.833.833,0,0,1,.177-.416c.223-.277.516.044.351.384-.138.284-.532.308-.528.032Zm-4.568-.122c-.04-.051.006-.192.1-.314.144-.183.229-.186.494-.013.176.115.32.268.32.339,0,.145-.8.134-.915-.012ZM44.8,90.739c-.34-.268-.294-.494.077-.382.173.052.27.039.216-.03s-.018-.228.08-.353c.15-.191.2-.184.309.04.187.383-.368.973-.682.726Zm33.424-.013a1.039,1.039,0,0,1,.3-.519,1.1,1.1,0,0,0,.3-.584.576.576,0,0,1,.362-.424,1.841,1.841,0,0,0,.64-.924c.311-.847.7-1.385.885-1.237.066.052.07-.057.008-.243-.09-.271-.042-.317.24-.231.3.092.321.06.125-.228-.149-.22-.157-.368-.023-.433.112-.054.2-.023.2.07,0,.317.3.168.659-.324a2.15,2.15,0,0,0,.355-1.069c0-.96-.537-.231-.593.8a.275.275,0,0,1-.24.28c-.134,0-.166-.113-.08-.28a5.587,5.587,0,0,0,.395-1.841c.01-.393.07-.433.539-.352.506.088.534.056.657-.755.277-1.817.195-2.191-.677-3.081-.789-.806-1.275-1.839-.865-1.839a3.689,3.689,0,0,1,1.269,1.434.187.187,0,0,0,.2.163.224.224,0,0,1,.2.24.233.233,0,0,0,.224.24c.123,0,.17.112.1.248s-.035.206.08.15.212.068.226.271.05.549.079.768a.838.838,0,0,1-.092.559,2.212,2.212,0,0,0-.2.879,1.915,1.915,0,0,1-.23.887.557.557,0,0,0-.059.519c.07.209.024.351-.114.351s-.182.152-.1.423c.1.324.073.393-.129.295-.167-.081-.214-.065-.129.043s.012.268-.137.386a.424.424,0,0,0-.178.435c.055.131,0,.176-.13.112s-.276.057-.352.3c-.071.223-.21.365-.31.317s-.181.02-.181.152-.185.342-.412.467c-.667.368-1.116,1.952-.5,1.766.167-.051.3-.192.3-.314a.21.21,0,0,1,.192-.223c.118,0,.114.178-.012.462-.152.345-.3.442-.592.382-.406-.084-.629.194-.925,1.153-.1.335-.173.4-.232.2-.046-.154-.16-.28-.253-.28s-.121.144-.063.32c.081.245.006.32-.323.32-.236,0-.429-.094-.429-.209Zm6.421-.217a.394.394,0,0,1-.135-.272c0-.1.094-.091.24.024s.193.226.135.272A.208.208,0,0,1,84.648,90.508ZM47.2,90.261c0-.069.084-.126.186-.126a2.3,2.3,0,0,0,.509-.1c.222-.067.289-.028.214.126-.113.232-.91.318-.91.1Zm-2.94-.285c-.331-.112-.342-.139-.063-.149a.652.652,0,0,1,.468.149C44.81,90.16,44.8,90.16,44.26,89.976Zm2.94-.464c0-.077.137-.182.3-.233.518-.157.345-.436-.2-.327-.512.1-.632-.069-.513-.725.023-.127-.116-.323-.31-.434-.271-.156-.3-.254-.121-.422.265-.252.11-.435-.357-.418-.239.008-.221.042.071.132.26.08.314.159.159.234s-.515-.19-.945-.651c-.716-.769-.888-1.224-.528-1.4a.255.255,0,0,0,.135-.289c-.033-.107-.021-.14.026-.074a.229.229,0,0,0,.276.028c.253-.123.137.3-.124.448-.112.065.025.12.3.122.4,0,.444.037.2.16-.261.133-.255.155.044.157a.788.788,0,0,1,.565.322.737.737,0,0,0,.514.32.274.274,0,0,1,.3.24.219.219,0,0,0,.186.24c.212,0,.764,1.236.93,2.082.1.514.065.567-.4.6-.282.018-.512-.03-.512-.107Zm.073-2.012a.422.422,0,0,0-.323-.24c-.119,0-.1.1.047.24a1.076,1.076,0,0,0,.323.24C47.359,87.739,47.338,87.631,47.274,87.5Zm-.479-.719c0-.088-.16-.159-.355-.157-.3,0-.311.025-.051.157.383.195.406.195.406,0Zm-.941-.559c-.064-.132-.153-.24-.2-.24s-.08.108-.08.24a.222.222,0,0,0,.2.24c.108,0,.144-.108.08-.24Zm-.566,2.209a.365.365,0,0,1,.11-.438c.177-.128.2-.116.082.045a.217.217,0,0,0,.093.339c.158.077.175.159.047.221a.269.269,0,0,1-.332-.166Zm-1.123-.422a1.136,1.136,0,0,1-.244-.388,3.022,3.022,0,0,0-.592-.509,1.327,1.327,0,0,0-.944-.373c-.248.075-.294.019-.2-.25.066-.2.033-.307-.078-.253-.267.13-1.23-.391-1.079-.584.068-.086,0-.137-.146-.113-.171.028-.246-.082-.208-.3a.434.434,0,0,0-.152-.449c-.117-.057-.212-.034-.212.051s-.183.117-.406.071-.406-.187-.406-.314.09-.187.2-.133.151,0,.09-.129a1.27,1.27,0,0,0-.61-.406c-.412-.148-.476-.254-.365-.6.086-.269.06-.389-.069-.326-.223.108-.808-.829-.953-1.527a1.894,1.894,0,0,0-.207-.584.631.631,0,0,1,.067-.522c.175-.359.189-.361.331-.055.082.176.456.868.831,1.538a9.4,9.4,0,0,1,.683,1.368,1.263,1.263,0,0,0,.413.5c.227.192.364.35.3.35-.168,0,.681.639.854.642.295.005,1.094.789.968.949-.078.1.008.121.22.057.255-.077.3-.049.182.106-.105.134-.087.173.05.107.285-.139.89.049.746.232a.277.277,0,0,0,.027.32c.1.129.177.128.28,0,.089-.114.242-.032.414.223.15.221.372.4.493.4s.082.079-.085.174c-.247.139-.221.157.135.1.47-.081.713.258.493.689-.182.358-.515.336-.823-.053Zm39.307-1.627c-.014-.044-.038-.134-.054-.2a.967.967,0,0,0-.149-.28c-.168-.222.032-1.358.239-1.358a.483.483,0,0,1,.313.184c.09.114.056.141-.089.07-.331-.161-.281.242.076.614a.993.993,0,0,1,.291.479c0,.093-.138-.011-.3-.23-.28-.386-.29-.388-.3-.049a.519.519,0,0,0,.2.449.345.345,0,0,1,.2.249c0,.153-.385.216-.431.07ZM43.758,84.947c-.22-.209-.173-.243.326-.241.32,0,.491.056.38.122a2.012,2.012,0,0,0-.326.241C44.07,85.136,43.9,85.081,43.758,84.947Zm37.966-2.4c.053-.22.02-.4-.074-.4s-.229-.2-.3-.439-.266-.781-.433-1.2a2.229,2.229,0,0,1-.206-1.054.831.831,0,0,0-.276-.679,1.356,1.356,0,0,1-.379-.583.207.207,0,0,0-.207-.2c-.112,0-.2-.174-.2-.386a.527.527,0,0,0-.208-.467c-.114-.045-.092-.063.051-.041a4.672,4.672,0,0,1,1.519,2.443c-.048.2-.023.327.055.289s.281.324.451.8.229.873.133.873a.173.173,0,0,0-.176.169c0,.093.081.13.18.082s.234.073.3.27c.189.554.149.917-.1.917-.132,0-.186-.166-.129-.4ZM37.645,79.858c-.014-.059-.048-.178-.076-.266a2.524,2.524,0,0,1-.076-.339c-.018-.126-.117-.12-.33.02-.25.163-.3.151-.3-.07,0-.148.091-.224.2-.17s.207-.066.212-.27c.007-.254.106-.152.318.326.17.382.257.735.193.785s-.127.043-.141-.016Zm41.393-3.222c0-.132.036-.24.08-.24s.132.108.2.24.028.24-.08.24A.222.222,0,0,1,79.038,76.636Zm.291-1.1A1.425,1.425,0,0,1,79.3,74.8c.067-.2.026-.278-.113-.211s-.17.006-.082-.173a1.435,1.435,0,0,0,.136-.515c0-.13.09-.192.2-.138s.147-.011.072-.165a3.421,3.421,0,0,1,.132-1.347c.308-1.286.215-1.665-.61-2.483-.341-.338-.572-.713-.514-.834s.017-.175-.094-.121a3.678,3.678,0,0,1-1.619-1.239c0-.066-.167-.12-.37-.12a3.714,3.714,0,0,1-1.322-.719c-1.132-.855-2.38-1.048-1.431-.222.179.156.281.377.226.492-.067.142-.151.107-.263-.111A1.438,1.438,0,0,0,72.6,66.1c-.24-.06-.392-.2-.338-.311s-.088-.334-.315-.5c-.4-.286-.413-.286-.413.018a.727.727,0,0,0,.243.5c.189.149.17.192-.088.192-.446,0-.639-.545-.346-.977.236-.347.244-.344.937.234.721.6,1.687.8,1.687.351,0-.194.1-.188.607.04.334.15.608.36.608.467s.138.153.329.1c.267-.081.3-.028.178.285-.082.211-.077.329.012.262s.351.011.583.172a4.892,4.892,0,0,0,1.293.509,3.049,3.049,0,0,1,1,.375c.074.094-.014.117-.213.057-.589-.178-.387.421.257.76.326.172.55.368.5.435s.086.244.308.394.357.331.3.4-.006.131.112.131.215.18.215.4.114.4.253.4c.186,0,.179.039-.023.14-.229.114-.23.15-.005.209s.2.293-.091,1.281a13.078,13.078,0,0,0-.442,2.284c-.089,1.2-.214,1.441-.415.811ZM37.67,75.278c.4-.2.666-.2.507,0a.676.676,0,0,1-.468.157C37.413,75.433,37.408,75.411,37.67,75.278Zm1.622-.479c0-.088.1-.16.215-.16s.158.072.089.16a.4.4,0,0,1-.215.16C39.333,74.958,39.292,74.887,39.292,74.8Zm47.022-.364a1.612,1.612,0,0,0-.173-.754,4.043,4.043,0,0,1-.089-.831,1.861,1.861,0,0,0-.178-.865.5.5,0,0,1-.137-.367c.017-.521.59.606.9,1.761.172.65.313,1.191.313,1.2a1.265,1.265,0,0,1-.3.115c-.211.064-.311-.017-.328-.262ZM25.24,71.828c-.2-.211-.272-.384-.159-.384.205,0,.717.622.591.717-.037.028-.231-.122-.431-.333Zm59.346-.054c-.068-.269-.2-.49-.3-.49s-.177-.113-.177-.251a.823.823,0,0,0-.323-.505.641.641,0,0,1-.2-.742c.1-.384.071-.446-.123-.293-.333.262-.572.246-.572-.04,0-.154.117-.2.339-.132.257.078.308.038.209-.165-.072-.147-.042-.267.066-.267a.21.21,0,0,1,.2.22.645.645,0,0,0,.3.419c.366.239.41-.012.052-.294-.178-.14-.187-.231-.03-.312a.739.739,0,0,0,.069-1.194c-.335-.165-.34-.218-.059-.645.168-.256.207-.418.086-.359s-.22,0-.22-.142a.235.235,0,0,0-.215-.249c-.118,0-.157-.073-.087-.162a.27.27,0,0,1,.316-.07c.1.051.189-.012.189-.139s-.16-.221-.355-.209a.38.38,0,0,1-.423-.355c-.046-.253.009-.34.166-.263a.268.268,0,0,1,.114.36c-.1.2-.062.208.165.06s.32-.126.449.1a1.632,1.632,0,0,1,.185.443,1.81,1.81,0,0,0,.272.519c.138.2.167.359.065.359s-.235.148-.3.329c-.085.256-.051.291.154.156s.29-.093.371.151c.065.2.026.283-.1.223s-.153.031-.061.258a.851.851,0,0,1-.1.717c-.208.306-.167.454.275,1.006a4.009,4.009,0,0,1,.642,1.1c.119.435.111.441-.2.138-.177-.173-.284-.393-.238-.489s-.083-.35-.289-.564c-.268-.28-.436-.341-.594-.217-.293.23-.047.7.372.717.281.009.276.029-.034.125-.349.108-.346.135.051.533.454.455.538.851.213,1.009-.114.056-.26-.118-.33-.39Zm-50.566-.26c0-.137-.091-.2-.2-.15s-.2.031-.2-.052-.182-.188-.406-.234-.406-.191-.406-.321a1.763,1.763,0,0,0-.6-.742c-.334-.282-.548-.606-.485-.736s.012-.231-.112-.231a.227.227,0,0,1-.224-.228.693.693,0,0,0-.268-.439,5.885,5.885,0,0,1-.949-1.895c0-.06.209-.078.465-.039.51.077.66.542.331,1.026-.161.237-.135.272.144.187s.318-.033.228.237a.465.465,0,0,0,.182.534c.253.165.28.094.189-.5-.076-.5-.044-.644.115-.518a1.354,1.354,0,0,1,.243.822c.013.383.133.682.295.731s.241.249.187.522c-.047.242-.047.346,0,.231.134-.322.562-.12.545.257-.008.184.05.3.129.265.139-.068.459.522.415.765s.4.119.518-.129c.1-.2.167-.179.364.12a.771.771,0,0,1,.155.568c-.127.287-.653.247-.653-.049Zm.341-.26c-.065-.127-.113-.09-.123.1-.009.168.039.263.107.21a.264.264,0,0,0,.016-.306Zm-2.268-.13a.4.4,0,0,1,.215-.16c.049,0,.089.072.089.16s-.1.16-.215.16S32.025,71.212,32.094,71.124Zm50.128-.919a8.821,8.821,0,0,1-.547-1.125c-.186-.466-.363-.658-.554-.6-.154.046-.227.018-.164-.063a.815.815,0,0,1,1.075.187.46.46,0,0,0,.415.284c.25,0,.267.043.078.192-.293.231-.33.987-.041.847.115-.056.2.078.2.31,0,.525-.125.517-.466-.031Zm-7.095-.479a.833.833,0,0,1,.069-.519c.141-.373.152-.366.171.12C75.387,69.828,75.3,69.977,75.127,69.726Zm-45.771-.679c0-.088.1-.16.215-.16s.158.072.089.16a.4.4,0,0,1-.215.16C29.4,69.207,29.356,69.135,29.356,69.047Zm13.978-.489c-.438-.261-.458-.317-.178-.5a8.354,8.354,0,0,0,2.017-2.269c0-.151.091-.23.2-.176s.208,0,.215-.11.083-.548.169-.961.081-.715-.012-.67-.169-.024-.169-.154a1.435,1.435,0,0,0-.136-.515c-.086-.178-.057-.241.08-.174.247.121.523-.324.343-.553-.066-.084-.025-.242.09-.351a4.932,4.932,0,0,0-.036-2.617c-.117-.149-.272-.151-.667-.009s-.55.14-.677-.023c-.1-.129-.21-.147-.289-.047s-.4.111-.836.034c-.467-.083-.711-.068-.711.043,0,.093-.06.122-.133.064s-.263-.02-.422.084A4.638,4.638,0,0,1,39.4,59.56a2.3,2.3,0,0,0-.786-.258.923.923,0,0,1-.537-.238c-.138-.131-.322-.2-.409-.161s-.211-.03-.275-.162c-.161-.33.18-.3,1.595.164,1.226.4,2.67.538,2.433.237a1.271,1.271,0,0,0-.733-.16,8.232,8.232,0,0,1-2.786-.851,10.421,10.421,0,0,0-3.274-.953c-.223.046-.406.012-.406-.075s-.234-.158-.521-.158a1.187,1.187,0,0,1-.837-.356c-.249-.28-.353-.31-.49-.14-.124.155-.179.1-.193-.183-.011-.22-.065-.31-.121-.2-.167.326-.671-.183-.548-.553a1.2,1.2,0,0,0-.3-.847,1.15,1.15,0,0,1-.3-.978,1.833,1.833,0,0,0-.19-1.052,1.08,1.08,0,0,1,.413-1.575c.3-.17.341-.432.293-1.692-.069-1.8.086-2.7.448-2.591s.834,1.862.917,3.362c.006.106.186.149.424.1s.369-.12.315-.163c-.13-.1.991-.841,1.277-.841.314,0,.279-.364-.105-1.122s-.3-.906.31-.608a.75.75,0,0,1,.428.77c0,.378.06.489.178.343a1.318,1.318,0,0,0,.129-.759c-.025-.3.031-.541.126-.541s.175.27.18.6.04.959.079,1.4c.064.715.012.836-.495,1.157-.791.5-1.254.627-1.094.3.081-.167.017-.257-.181-.257s-.272.1-.2.32c.059.179.006.32-.12.32s-.226-.072-.226-.16-.16-.154-.355-.147c-.212.008-.253.045-.1.093s.253.144.253.222-.131.1-.29.054c-.447-.135-.937.778-1,1.857a3.013,3.013,0,0,1-.17,1.04c-.149.118.288.872.506.874.09,0,.108.073.039.161s-.029.16.089.16a.229.229,0,0,1,.215.24.268.268,0,0,0,.287.24.438.438,0,0,1,.355.134,9.3,9.3,0,0,0,2.5.984.45.45,0,0,1,.373.2c.056.11.109.062.118-.107s.071-.263.138-.21a1.19,1.19,0,0,0,.659-.05l.537-.147-.457.257-.457.257.92.46a5.691,5.691,0,0,0,1.1.46.326.326,0,0,1,.263.2c.062.145.172.129.413-.061.181-.143.284-.295.228-.338s.05-.125.235-.181c.274-.083.312-.029.208.3-.121.379-.1.39.4.211.415-.149.559-.145.688.02s.184.168.274-.009c.073-.145.115-.117.126.08s.129.275.377.224a.823.823,0,0,1,.616.141,3.611,3.611,0,0,0,1.667.215c1.324,0,1.412-.022,1.426-.359.053-1.28.164-1.545.876-2.09.4-.308.732-.646.732-.752,0-.143-.07-.147-.272-.015-.3.2-.539.085-.539-.262,0-.143.12-.194.317-.134.232.07.288.021.21-.183s.08-.352.544-.533c.359-.14.652-.332.652-.426a.429.429,0,0,1,.152-.292c.084-.066.152.012.152.173,0,.319.207.241.277-.105.065-.32.521-.885.528-.654.011.338.412.221.412-.12a.955.955,0,0,1,.368-.609c.2-.159.327-.385.278-.5s0-.167.136-.1.39-.1.611-.389.418-.481.459-.46c.184.095.987-.369.987-.571a.365.365,0,0,1,.169-.307c.093-.045.169.134.169.4,0,.345-.162.571-.575.8-.316.177-.575.392-.575.476a2.891,2.891,0,0,1-.811.741c-.446.323-.811.673-.811.777,0,.281-.65.426-.852.189-.106-.125-.125-.036-.047.227.108.367.051.448-.38.533a.855.855,0,0,0-.614.422c-.059.177-.2.275-.323.217s-.216.007-.216.144a.282.282,0,0,0,.3.249c.167,0,.3-.084.3-.186s.058-.141.129-.085c.154.122-.316,1.07-.531,1.07a5.825,5.825,0,0,0-1.228,2.2c.009.152.058,1.693.109,3.424.074,2.532.032,3.28-.213,3.828a2.682,2.682,0,0,1-.453.767,6.936,6.936,0,0,0-1.327,1.693c0,.1-.288.323-.639.5-.624.322-.651.323-1.132.036ZM33.817,56.586c0-.088-.142-.16-.316-.16s-.26.072-.191.16a.459.459,0,0,0,.316.16A.178.178,0,0,0,33.817,56.586Zm-1.369-.9a.983.983,0,0,0-.507,0c-.139.044-.025.081.253.081S32.588,55.726,32.448,55.682Zm19.214-3.728c0-.088-.1-.16-.215-.16s-.158.072-.089.16a.4.4,0,0,0,.215.16C51.622,52.113,51.662,52.041,51.662,51.953ZM35.237,50.3a.974.974,0,0,0-.309-.262c-.258-.169-.288-.159-.181.06s.49.381.49.2Zm.6-.33c.2-.189.167-.226-.178-.206-.429.025-.528.139-.286.33.18.142.184.141.464-.124ZM74.8,68.781a2.179,2.179,0,0,0-.155-.479c-.1-.227-.075-.252.12-.11a.457.457,0,0,1,.155.479C74.87,68.834,74.816,68.884,74.8,68.781Zm7.936-.328a.352.352,0,0,1-.253-.309c0-.2.05-.2.328.021.357.281.326.4-.075.288Zm-54.9-.364c-.076-.189-.093-.38-.037-.423s.164.075.24.264.093.38.037.423S27.911,68.278,27.835,68.089Zm52.419.005c0-.085-.137-.113-.3-.063s-.3.012-.3-.085.183-.177.406-.177.406.076.406.169.091.125.2.07.2-.023.2.07-.137.169-.3.169-.3-.07-.3-.155Zm1.622-.222a.368.368,0,0,0-.253-.316c-.159-.051-.168-.085-.025-.093.352-.019.747.417.491.542A.136.136,0,0,1,81.876,67.872Zm-2.839-.5c-.174-.166-.182-.24-.025-.24.125,0,.228.067.228.148s.16.181.355.221c.3.062.3.076.025.092a.9.9,0,0,1-.582-.221Zm1.825.063c0-.108-.057-.151-.126-.1s-.455-.077-.858-.293a3.351,3.351,0,0,0-1.04-.393,3.135,3.135,0,0,1-.953-.31,5.3,5.3,0,0,0-1.622-.37c-.938-.058-.928-.061.245-.089a4.086,4.086,0,0,1,1.622.188,6.438,6.438,0,0,0,1.16.412c.418.107.76.261.76.342s.114.15.253.152c.418.008,1.014.431.773.548-.118.058-.215.017-.215-.091Zm-2.636-.319c0-.1-.14-.134-.312-.083a.355.355,0,0,1-.427-.143c-.071-.145-.382-.237-.8-.237-.378,0-.688-.073-.688-.163,0-.209.9-.083,1.876.262.714.252,1.011.54.558.54a.192.192,0,0,1-.2-.177Zm-51.709-.77c0-.082-.149-.266-.332-.41-.248-.2-.273-.307-.1-.443s.23-.118.23.071a.66.66,0,0,0,.3.451c.348.227.4.479.1.479C26.608,66.491,26.517,66.424,26.517,66.343Zm4.125-.142a2.439,2.439,0,0,1-.88-1.619c0-.386.087-.487.42-.487.362,0,.38.031.134.225-.336.265-.323.927.02,1.017.131.034.238-.016.238-.111,0-.242.334-.217.355.027a3.722,3.722,0,0,0,.123.556c.115.388-.069.565-.409.392Zm42.566-.774a.365.365,0,0,1-.253-.313c0-.182.087-.2.406-.061.648.273.52.587-.152.373Zm9.7-.307c.01-.186.058-.224.123-.1a.263.263,0,0,1-.016.306c-.067.053-.115-.041-.107-.21Zm-1.233-.194a.7.7,0,0,0-.243-.479c-.134-.105-.184-.192-.11-.192s0-.288-.153-.639-.238-.639-.18-.639-.088-.215-.326-.478-.375-.551-.306-.639.036-.161-.075-.161-.259-.145-.331-.322-.21-.283-.309-.235-.122.2-.052.348c.085.175.048.222-.111.145a.4.4,0,0,1-.123-.477.478.478,0,0,0-.2-.569c-.354-.232-.428-.648-.114-.648a.189.189,0,0,1,.2.169c0,.093.093.124.207.069s.325.121.47.393.326.444.4.384c.126-.1.221.171.163.463-.013.066.061.12.165.12s.22.162.258.359.188.34.334.316c.18-.03.222.059.134.28-.079.2-.039.324.1.324s.184.145.117.359c-.062.2-.061.27,0,.16a.436.436,0,0,1,.336-.2c.121,0,.162.045.092.1s-.04.23.067.388c.139.2.11.354-.1.519-.162.127-.235.278-.163.335.224.177.263.734.051.734-.111,0-.2-.129-.2-.288Zm-51.189-.239c.076-.158.19-.246.252-.2s0,.178-.138.286c-.2.157-.224.138-.114-.089ZM71.737,64.1a.345.345,0,0,1,.2-.249c.112-.054.2.013.2.15a.23.23,0,0,1-.2.249c-.112,0-.2-.068-.2-.15Zm-1.785-.58c-.58-.32-.968-.87-.6-.858.28.009,1.278.92,1.134,1.034-.048.038-.286-.042-.529-.176Zm1.177-.3a.388.388,0,0,1,.19-.323c.1-.051.177.053.16.23-.035.365-.35.448-.35.093Zm2.732-.416a.287.287,0,0,1,.063-.359,2.5,2.5,0,0,0,.322-1.851,3.334,3.334,0,0,0-2.357-1.843c-.418-.059-.76-.164-.76-.233,0-.237-.6-.126-.692.127a12.142,12.142,0,0,0-.422,1.531.228.228,0,0,1-.162.2c-.377.091-.683.458-.6.718.066.2-.02.284-.284.282s-.306-.039-.118-.133a.3.3,0,0,0,.129-.4.5.5,0,0,1,.139-.526,2.179,2.179,0,0,0,.276-1.268,2.03,2.03,0,0,1,.259-1.211.81.81,0,0,0,.253-.567c0-.2.077-.367.17-.367s.345-.287.558-.637.51-.638.66-.639c.484,0,1.462-.547,1.36-.757-.054-.112-.011-.2.1-.2a.222.222,0,0,1,.2.24c0,.337.331.3.666-.079.156-.175.343-.271.417-.213s.134.032.134-.058a1.812,1.812,0,0,1,.548-.626,1.439,1.439,0,0,0,.583-1.224c.019-.419-.044-.8-.142-.848s-.178-.015-.178.072a2.159,2.159,0,0,1-.234.609,4.381,4.381,0,0,0-.29.67.81.81,0,0,1-.246.37c-.222.175-.195-.29.042-.7a.572.572,0,0,0-.166-.635c-.177-.2-.322-.278-.322-.174s-.227.367-.505.586-.418.441-.3.5a.347.347,0,0,1,.2.258c0,.088-.105.108-.234.046-.148-.072-.179-.044-.084.077a.581.581,0,0,0,.538.094c.268-.067.389-.021.389.148,0,.145-.117.21-.284.16a.417.417,0,0,0-.418.085c-.228.291-.413.189-.445-.245a.934.934,0,0,0-.242-.582c-.147-.116-.183-.05-.119.216.051.21.038.293-.028.183-.175-.29-.365-.25-.994.21a1.525,1.525,0,0,0-.605.852c-.076.765-.718,1.191-.718.477a6.149,6.149,0,0,1,1.815-2.162c.244-.148.257-.257.07-.559a6.88,6.88,0,0,1-.959-3.81c-.016-1.94.363-2.941,1.323-3.5.325-.189.589-.432.587-.539,0-.124-.075-.107-.2.045-.158.193-.2.169-.2-.125,0-.321.048-.343.42-.187.233.1.37.22.306.271s-.04.171.055.267c.188.191.44.893.321.893A1.913,1.913,0,0,1,73,45.407c-.368-.311-.374-.307-.389.28-.012.453.023.519.148.276.141-.273.169-.25.195.16.017.278.08.378.149.24.221-.447,1.212-.879,1.007-.439a.312.312,0,0,1-.321.16c-.125-.022-.221.122-.212.32s.062.27.118.16a.382.382,0,0,1,.3-.2c.109,0,.146.066.083.146s-.046.17.039.2a2.185,2.185,0,0,1,.518.571c.308.437.316.5.051.422-.173-.052-.314-.186-.314-.3,0-.233-.567-.647-.72-.527-.213.168.337.958.723,1.038.222.046.4.151.4.235s-.182.106-.406.05-.406-.029-.406.069a.181.181,0,0,0,.189.171c.173,0,.126.6-.085,1.073a.211.211,0,0,0,.083.277c.093.046.175.381.182.746a1.385,1.385,0,0,0,.209.819c.224.177.7.007.542-.193s.574-.118.752.073a2.621,2.621,0,0,1-.15,2.055c-.35.529-.392.8-.1.661.461-.225.158.354-.406.773-.335.249-.608.518-.608.6s-.182.146-.406.146-.406.08-.406.178-.179.142-.406.095-.406-.023-.406.051-.319.225-.71.337q-.709.2-.507.362a.509.509,0,0,1,.2.327c0,.092-.089.061-.193-.069-.15-.187-.256-.113-.5.354-.515.971-.481,1.011,1,1.169a13.437,13.437,0,0,1,1.786.328,6.724,6.724,0,0,0,1.479.223,4.96,4.96,0,0,1,2.28.679.665.665,0,0,0,.456.12c.219,0,.389.11.389.253s-.068.229-.152.2-.608-.241-1.166-.47c-1.189-.487-2.129-.695-2.129-.47s.721.506.9.367c.076-.06.076.02,0,.179s-.2.228-.264.155a.91.91,0,0,0-.427-.186c-.472-.083-.821-.365-.677-.549.075-.1.033-.119-.1-.054a.951.951,0,0,1-.64-.061c-.594-.251-.5-.005.266.66a2.1,2.1,0,0,1,.421,2.726c-.354.618-.565.735-.8.439ZM72.15,51.154c-.093-.308-.185-.487-.2-.4s-.067.285-.1.439a.334.334,0,0,0,.12.371.182.182,0,0,1,.054.28c-.092.129-.065.138.085.029S72.259,51.516,72.15,51.154Zm-.514-.639c.069-.088.029-.16-.089-.16s-.215.072-.215.16.04.16.089.16A.4.4,0,0,0,71.636,50.515Zm-.076-.841c-.2-.157-.224-.138-.114.089.076.158.19.246.252.2s0-.178-.138-.286Zm1.8-2.008a.4.4,0,0,0-.152-.253.527.527,0,0,1-.177-.266c-.084-.484-.12-.515-.262-.229-.206.416-.042.881.311.881.154,0,.281-.06.281-.133ZM71.94,46.042a.209.209,0,1,0-.2.16A.186.186,0,0,0,71.94,46.042Zm5.708,16.475a.939.939,0,0,0-.212-.719c-.236-.224-.221-.26.116-.26a.78.78,0,0,1,.877.719.772.772,0,0,1-.664.719c-.1,0-.15-.207-.116-.459ZM68.7,62.16c0-.156-.2-.4-.451-.533q-.452-.249-.152-.251c.176,0,.216-.051.1-.12-.283-.164-.367-.677-.11-.677.116,0,.2.054.183.12-.063.259.485,1.153.655,1.07.1-.048.126.024.06.16s-.02.248.1.248.224.06.224.133-.137.133-.3.133a.3.3,0,0,1-.3-.284Zm9.734-1.34a.92.92,0,0,0-.532-.24c-.154,0-.279-.065-.279-.145s-.183-.107-.406-.061-.406,0-.406-.095-.134-.178-.3-.178c-.2,0-.253-.092-.166-.272s.162-.2.214-.079a.2.2,0,0,0,.267.1c.1-.05.185-.01.185.088s.081.139.18.091a.46.46,0,0,1,.429.149c.137.13.324.2.416.155a.306.306,0,0,1,.332.136,1.743,1.743,0,0,0,.57.4c.323.144.338.182.076.186a.962.962,0,0,1-.582-.235Zm-10.272-.612a1.557,1.557,0,0,0,.132-.519.252.252,0,0,1,.27-.227c.395,0,.33.352-.133.719-.364.289-.39.291-.27.027Zm.538-1.056a.345.345,0,0,1,.2-.249c.112-.054.2.013.2.15a.23.23,0,0,1-.2.249C68.787,59.3,68.7,59.234,68.7,59.152Zm-.33-.708.52-.7-.4-.651a2,2,0,0,1,.226-2.682c.569-.566,1.2-.987,1.2-.8a4.269,4.269,0,0,1-.694.637,1.64,1.64,0,0,0-.46,2.346,1.466,1.466,0,0,1,.343.824c0,.5-.749,1.727-1.054,1.727C67.937,59.142,68.08,58.828,68.366,58.443Zm-6.311-.264C61.8,58.1,61.6,58,61.6,57.949c0-.168.538-.081.924.15.44.262.224.3-.468.08Zm-17.348-.256a.268.268,0,0,1-.011-.3c.057-.117-.114-.324-.38-.461a.926.926,0,0,1-.529-.931l-.046-.681.506.479a2.368,2.368,0,0,1,.513.6c.011.179-.349.145-.468-.044-.057-.09-.08-.072-.051.04s.26.212.514.223c.466.019.814.3.82.654,0,.22-.695.561-.869.424Zm-4.6-1.337a.209.209,0,1,1,.2.16A.186.186,0,0,1,40.1,56.586Zm5.475-.019c0-.3.757-.876.954-.721.077.061-.106.3-.407.541-.4.316-.547.364-.547.18Zm26.97.028a.342.342,0,0,1,.2-.248c.115-.056.149.008.08.15-.135.277-.28.327-.28.1ZM30.311,53.71c.058-.176.141-.32.184-.32s.078.144.078.32-.083.32-.184.32S30.253,53.886,30.311,53.71Zm-3.591-.959c-.161-.078-.225-.2-.143-.26a.351.351,0,0,1,.386.069C27.27,52.8,27.1,52.936,26.72,52.752Zm22.048-1.438a2.166,2.166,0,0,0-.727-.32.6.6,0,0,1-.395-.258c-.123-.174-.606-.294-1.48-.367-1.315-.111-2.21-.378-2.21-.658,0-.2.536-.2,1.038.016a4.271,4.271,0,0,0,1.254.176A3.721,3.721,0,0,1,48,50.372a5.551,5.551,0,0,0,1.065.463c.092,0,.168.108.168.24a.279.279,0,0,0,.3.24c.167,0,.3.072.3.16,0,.26-.516.183-1.069-.16Zm-22.453-.325c0-.173-.091-.314-.2-.314-.264,0-.264-.591,0-.719.134-.065.127-.211-.02-.428s-.147-.292-.015-.227a.286.286,0,0,0,.336-.061c.07-.089-.017-.162-.193-.162-.246,0-.289-.1-.188-.439a1.847,1.847,0,0,1,.383-.679.454.454,0,0,0,.159-.439c-.056-.121.1-.207.381-.218.375-.015.4-.034.1-.095s-.35-.173-.245-.581c.372-1.444.471-1.768.5-1.623.016.088.109.059.208-.063.244-.3.813-.106.727.253a.833.833,0,0,1-.1.289,4.309,4.309,0,0,0-.131.708,5.664,5.664,0,0,1-.407,1.358,7.218,7.218,0,0,0-.816,3.063c.06.349,0,.551-.191.607s-.28-.028-.28-.23Zm24.8-.473a1.336,1.336,0,0,0-.709-.622c-.547-.164-.732-.818-.232-.818.2,0,.27.089.188.257-.09.184-.038.231.18.165.363-.11,1.171.517,1.033.8-.059.12.018.163.2.108.356-.108.386.128.051.393-.358.282-.455.242-.708-.286Zm23.62.049c.071-.293.143-.343.269-.185.241.3.221.407-.094.5C74.715,50.943,74.666,50.855,74.737,50.566Zm-21.351-.051a.4.4,0,0,1,.215-.16c.049,0,.089.072.089.16s-.1.16-.215.16S53.317,50.6,53.386,50.515Zm.937.04c.06-.3-.066-.74-.158-.559-.177.346-.649.231-.53-.129a.317.317,0,0,1,.384-.245c.151.046.253.03.227-.034s.194-.324.49-.576c.519-.441.528-.482.255-1.092-.156-.349-.225-.709-.153-.8s.034-.12-.1-.053-.234-.012-.234-.237c0-.387-.519-.773-1.05-.781a1.3,1.3,0,0,1-.659-.256c-.175-.138-.319-.2-.319-.14s-.133.024-.3-.082a.608.608,0,0,0-.516-.086.548.548,0,0,1-.465-.041c-.625-.38-.853-.322-.868.221a1.205,1.205,0,0,1-.142.637c-.215.169-.753-.371-.884-.887-.087-.343-.241-.489-.516-.489-.216,0-.335-.073-.265-.162a.27.27,0,0,1,.316-.07c.1.051.189.016.189-.077,0-.16-.086-.186-.811-.241-.167-.013-.274-.128-.237-.255s-.008-.172-.1-.1a.569.569,0,0,0-.194.28c-.014.081-.037.205-.051.278a2.167,2.167,0,0,1-1.039.029c-.666-.067-1.015-.044-1.017.069,0,.094-.092.063-.2-.069s-.2-.183-.2-.114-.117.042-.257-.06a.793.793,0,0,1-.237-.606c.019-.475.462-1.213.642-1.071.066.052.292-.029.5-.18.327-.233.41-.239.563-.045s.2.184.313-.046a.619.619,0,0,1,1.042.033.3.3,0,0,0,.42.212c.2-.06.266-.031.182.077s.008.156.22.131c.325-.038,1.268.633,1.268.9,0,.063.125.077.278.031a.316.316,0,0,1,.387.245c.06.181.026.329-.075.329-.3,0-.207.324.12.4.167.041.464.121.659.177a9.338,9.338,0,0,0,1.47.269c1.13.16,1.854.6,3.252,1.978.277.273.243.37-.094.269-.211-.064-.26,0-.179.245.111.336.469.467.469.172,0-.088.1-.16.215-.16s.153.09.078.2.079.015.343-.211c.635-.543,1.248-.73,1.142-.348a.309.309,0,0,1-.321.239c-.186-.031-.184.035.008.277.209.264.193.364-.1.594-.218.172-.351.2-.351.082a.2.2,0,0,1,.2-.194.224.224,0,0,0,.2-.24c0-.327-.252-.3-.885.091-.559.346-.715.785-.281.79.157,0,.176.047.051.12a1.74,1.74,0,0,0-.42.427c-.294.419-.81.561-.54.148.243-.371.109-.7-.286-.7-.175,0-.239.077-.155.184s.056.141-.066.082-.266.058-.333.255c-.184.541-.158.6.228.485.319-.092.315-.067-.031.245-.406.364-.542.426-.5.227ZM50.04,45.4c-.161-.078-.338-.106-.394-.063s.03.144.191.222.338.106.394.063S50.2,45.481,50.04,45.4Zm-.068-1.158c-.056-.11-.1-.02-.1.2s.046.31.1.2A.494.494,0,0,0,49.971,44.245Zm-3.644-.556c-.051-.155-.1-.067-.1.2s.038.391.093.283a.728.728,0,0,0,.007-.479Zm-.343.206c0-.039-.091-.115-.2-.169s-.2-.023-.2.07a.189.189,0,0,0,.2.169C45.893,43.965,45.984,43.933,45.984,43.895ZM52.6,49.361c-.132-.519-.633-.989-.911-.854-.2.1-.428-.26-.428-.655,0-.177.165-.131.624.173a2.855,2.855,0,0,0,.8.414c.1,0,.228.136.3.3a.8.8,0,0,0,.541.389c.247.051.361.161.277.268a.413.413,0,0,1-.416.1c-.164-.05-.233,0-.174.122s-.033.2-.195.2-.347-.207-.412-.462Zm-3.367-.194a.23.23,0,0,1,.2-.249c.112,0,.2.068.2.15a.345.345,0,0,1-.2.249C49.32,49.371,49.229,49.3,49.229,49.167ZM48.348,49c-.279-.167-.324-.293-.176-.5.179-.253.21-.246.337.07.077.191.225.307.328.256s.188.02.188.157c0,.3-.187.309-.677.016ZM40.514,48.4a21.33,21.33,0,0,0-1.035-2.069c-.281-.431-.414-1.246-.2-1.246.106,0,.23.2.277.439.079.409.087.4.115-.08.017-.286-.061-.519-.172-.519-.25,0-.262-.638-.017-.942a.5.5,0,0,1,.517-.121c.186.056.283.172.216.257s.292.057.8-.063c.67-.159.921-.168.923-.034,0,.1.091.077.2-.056.163-.2.2-.185.2.08,0,.238.05.265.179.1.266-.33,1.443.2,1.443.645,0,.188-.057.3-.127.242a1.6,1.6,0,0,0-.811.125c-.376.124-.684.188-.684.142s-.15.035-.334.18c-.269.212-.366.222-.5.051s-.171-.162-.173-.012c0,.3-.764.24-1-.08-.331-.448-.256.079.085.6a4.419,4.419,0,0,1,.464,1.31c.124.658.237.841.507.824.191-.012.347.046.347.129s.091.107.2.053.2-.015.2.088c0,.119-.183.15-.507.086-.374-.074-.507-.037-.507.142,0,.422-.347.263-.6-.277Zm-.791-4.156c-.2-.157-.224-.138-.114.089.076.158.19.246.252.2s0-.178-.138-.286Zm30.392,4.037c0-.088.1-.16.215-.16s.158.072.089.16a.4.4,0,0,1-.215.16C70.155,48.438,70.115,48.367,70.115,48.279Zm-19.467-.32a.209.209,0,1,1,.2.16A.186.186,0,0,1,50.648,47.959Zm-4.664-.24c0-.142-.091-.214-.2-.16s-.2,0-.2-.12-.267-.421-.594-.667-.588-.566-.58-.709a1.459,1.459,0,0,0-.065-.48.232.232,0,0,1,.174-.293c.148-.043.253.056.253.237s.365.554.81.852c.8.537,1.1,1.262.609,1.5-.112.054-.2-.018-.2-.16Zm12.1,0c.192-.459.494-.729.7-.628.1.048.18.007.18-.091s.088-.136.2-.083.381-.051.608-.23.413-.284.413-.234.121,0,.27-.12a8.25,8.25,0,0,1,2.89-.211,12.523,12.523,0,0,0,2.766-.16c.1-.1.282-.093.54.032.323.158.416.147.517-.06.093-.19.3-.23.834-.162.478.061.667.035.577-.08-.078-.1-.016-.139.148-.1.266.071.991-.426.991-.681,0-.208.59-.3.735-.121.084.107.047.133-.095.063s-.234-.008-.234.155c0,.2.065.226.263.1.3-.2,1.18-.186,1.022.015a.547.547,0,0,1-.442.082,1.2,1.2,0,0,0-.733.234c-.72.521-3.084.969-5.382,1.021-3,.067-4.5.186-4.741.375-.141.111-.129.163.036.163.134,0,.243.074.243.165,0,.113-.122.114-.384,0a.5.5,0,0,0-.633.074.946.946,0,0,1-.557.236.981.981,0,0,0-.584.28c-.257.26-.267.257-.143-.04Zm-22.438-.945a.234.234,0,0,0-.208-.253c-.114,0-.292-.174-.395-.387-.417-.865,1.1-2.216,2.137-1.9.189.057.284.012.248-.117s.086-.235.262-.266.321.048.321.183-.076.2-.169.157c-.423-.206-.108.232.419.583l.588.392-.8.6a3.631,3.631,0,0,1-.943.574c-.283-.044-1.151.309-1.088.442.036.076-.032.163-.152.195s-.218-.057-.218-.2Zm.959-.669a.5.5,0,0,0-.389-.013c-.162.051-.114.089.123.1.214.007.334-.031.266-.084Zm33.919-1.463c0-.261.572-.554.834-.427.154.075.19.051.1-.066-.08-.1-.087-.184-.017-.184.137,0,.78.471.671.492q-.561.105-1.13.238c-.258.06-.456.037-.456-.052Zm-32.059-.616c-.235-.223-.22-.25.11-.2a.658.658,0,0,1,.467.258c.12.285-.256.247-.577-.058Zm-6.106-2.7a2.138,2.138,0,0,1-.019-.917c.05-.457.026-.78-.053-.718a2,2,0,0,1-1-.281,2.5,2.5,0,0,0-.954-.313,2.614,2.614,0,0,1-1.384-.376,1.746,1.746,0,0,1,.815-.148c.58-.031.849.026.933.2a.244.244,0,0,0,.3.154c.38-.185.15-.508-.731-1.028-1.1-.651-1.269-1.111-.253-.7a2.941,2.941,0,0,1,.808.443c.082.1.15.113.152.033s.186.021.409.224.406.313.406.245.131-.038.292.067a.364.364,0,0,1,.182.417c-.069.142.087.285.418.384.29.087.539.232.553.322s.037.241.051.336.185.265.38.377c.487.281.445.439-.1.379-.282-.031-.437.026-.406.15a.152.152,0,0,1-.152.2c-.112,0-.2.144-.2.32,0,.305-.214.417-.447.233Zm-2.43-5.615a.5.5,0,0,1,.389.013c.067.053-.052.091-.266.084-.236-.008-.284-.046-.123-.1Zm-.05-.362a3.324,3.324,0,0,1-.245-1.252c-.048-.879-.015-.994.24-.827.374.244.413,1.187.043,1.012-.184-.087-.18-.049.015.141a.923.923,0,0,1,.2.71c-.05.345-.109.4-.255.217Zm5.766-.168c0-.176.091-.32.2-.32s.2.144.2.32-.091.32-.2.32S35.642,35.354,35.642,35.178Zm-2.636-.009c0-.093.091-.125.2-.07s.2.13.2.169-.091.07-.2.07A.189.189,0,0,1,33.006,35.169ZM28.195,34.7c-.017-.178.055-.281.16-.23.23.112.255.553.031.553C28.3,35.019,28.212,34.873,28.195,34.7Zm-.258-1.124c0-.093.091-.125.2-.07s.2.13.2.169-.091.07-.2.07A.189.189,0,0,1,27.937,33.571Zm-3.9-7.308c-.064-.193-.04-.388.053-.433.258-.126.367.125.206.473-.136.3-.149.294-.26-.04Z" transform="translate(-20.821 -25.797)"/>
  </g>
</svg>
