<svg xmlns="http://www.w3.org/2000/svg" xmlns:xlink="http://www.w3.org/1999/xlink" width="33.264" height="47.061" viewBox="0 0 33.264 47.061"><defs><style>.a{fill:url(#a);}</style><radialGradient id="a" cx="0.5" cy="0.5" r="0.849" gradientTransform="matrix(1, 0, 0, 0.673, 0, 0.163)" gradientUnits="objectBoundingBox"><stop offset="0" stop-color="#fff"/><stop offset="1" stop-color="#919191" stop-opacity="0.725"/></radialGradient></defs><path class="a" d="M41.963,72.771c-.043-.07-.052-.155-.018-.188.09-.09.189.042.14.189-.034.1-.058.1-.121,0Zm.345-.014a.1.1,0,0,1,.107-.1c.059,0,.079.045.044.1s-.082.1-.107.1S42.308,72.813,42.308,72.758Zm.3-.006c0-.059.045-.079.1-.044s.1.082.1.107-.045.044-.1.044A.1.1,0,0,1,42.61,72.752Zm-1.363-.4c-.125-.138-.207-.167-.255-.09s-.093.078-.133.013c-.111-.18.258-.235.388-.058.068.093.168.141.222.107s.1,0,.1.085c0,.2-.1.184-.321-.057Zm6.248-.087a4.337,4.337,0,0,0-.773-.058c-.739-.019-1.288-.121-1.288-.241a7.215,7.215,0,0,0-1.358-.055,4.719,4.719,0,0,1-1.3-.076c.029-.047,0-.086-.054-.086a.107.107,0,0,0-.107.106c0,.064-.2.094-.5.076a1.348,1.348,0,0,1-.5-.081c0-.028-.125-.056-.277-.064a1.79,1.79,0,0,1-.972-.23.253.253,0,0,0-.334-.02c-.166.1-.167.106-.008.109.182,0,.143.306-.039.306-.053,0-.071-.041-.04-.09s-.015-.117-.1-.151c-.107-.041-.136-.128-.091-.269.061-.192.048-.2-.157-.076-.177.1-.233.106-.269.006a.206.206,0,0,0-.18-.126.217.217,0,0,1-.185-.126c-.036-.089-.053-.091-.059-.007s-.094.092-.336.017a4.056,4.056,0,0,0-.479-.122,8.115,8.115,0,0,1-1.6-.581,3.284,3.284,0,0,0-.882-.29c-.135,0-.245-.048-.245-.107s-.046-.079-.1-.044-.129-.008-.162-.094-.1-.132-.151-.1-.118-.014-.151-.1-.1-.132-.151-.1-.09.013-.09-.04-.17-.176-.378-.274a2.181,2.181,0,0,1-.6-.44c-.125-.144-.227-.225-.227-.179s-.136-.014-.3-.133-.3-.253-.3-.3a1.441,1.441,0,0,0-.3-.408,3.2,3.2,0,0,1-.474-.691,1.339,1.339,0,0,0-.3-.448,1.206,1.206,0,0,1-.288-.4c-.333-.688-.4-.772-.671-.831-.154-.034-.28-.1-.28-.14a5.551,5.551,0,0,0-1.994-1.719,4.962,4.962,0,0,1-1.47-1.616,6.592,6.592,0,0,1-.672-1.953A12.11,12.11,0,0,0,25.82,58.1c-.065-.153-.037-.179.161-.151.421.06.331-.267-.243-.887a4.06,4.06,0,0,1-.551-.675.257.257,0,0,0-.079-.151c-.041-.037-.042-.01,0,.059.113.2-.025.15-.437-.146a2.632,2.632,0,0,1-.814-1.3,2.9,2.9,0,0,0-.4-.591,2.328,2.328,0,0,1-.4-.63.116.116,0,0,0-.1-.126c-.179,0-.444-.521-.477-.939a1.676,1.676,0,0,0-.191-.654.652.652,0,0,1-.109-.434c.028-.105.009-.166-.041-.135-.134.083-.112-.1.03-.238.073-.073.08-.121.016-.121a6.9,6.9,0,0,1-.006-2.168.929.929,0,0,0-.067-.545c-.063-.078-.1-.157-.089-.176a1.039,1.039,0,0,0,.025-.287c0-.364-.261-.315-.4.076-.127.363-.145.35-.523-.367-.163-.309-.179-.409-.077-.472a.235.235,0,0,1,.21-.032c.044.027.049-.029.013-.124s-.026-.148.036-.109c.179.111.092-.364-.15-.819-.313-.588-.351-.913-.324-2.791.013-.887.02-2.039.016-2.56a4.311,4.311,0,0,1,.094-1.134c.056-.105.06-.188.009-.188-.112,0-.033-.741.1-.958a2.087,2.087,0,0,0,.125-.5,1.576,1.576,0,0,1,.148-.5,1.6,1.6,0,0,0,.139-.531,2.8,2.8,0,0,1,.215-.747,1.817,1.817,0,0,0,.162-.681c0-.31.017-.334.126-.185s.127.124.134-.191a.644.644,0,0,1,.139-.443.145.145,0,0,0,.062-.193c-.038-.062-.027-.112.024-.112s.119-.192.151-.426.1-.441.154-.459.072-.128.041-.245c-.038-.145-.018-.19.061-.14.11.068.171-.225.136-.646a1.414,1.414,0,0,1,.08-.429c.077-.23.063-.278-.079-.279-.106,0-.129-.03-.061-.076a3.854,3.854,0,0,0,.25-2.687c-.085-.1-.1-.323-.054-.709.055-.44.04-.56-.068-.561s-.1-.023.014-.1.121-.1.013-.1c-.092,0-.122-.085-.09-.254.027-.139,0-.252-.051-.252s-.064-.047-.006-.126a.782.782,0,0,0,.083-.4c-.006-.153.036-.263.092-.245s.11.172.118.34a1.993,1.993,0,0,0,.448,1.2c.209.189.416.124.222-.07-.083-.083-.075-.151.032-.258.184-.184.182-.28-.006-.469a.542.542,0,0,1-.151-.216c0-.125.566.354,1.642,1.389.773.744,1.069,1.093,1.025,1.208a.165.165,0,0,1-.206.107c-.1-.039-.125-.006-.082.107a.249.249,0,0,0,.2.162c.085,0,.116.067.081.176-.044.137-.034.145.042.037.054-.076.142-.112.194-.08.2.124.649.868.586.97-.037.059,0,.175.084.258.189.189.23.188.3-.006.034-.09.018-.13-.04-.095s-.1-.036-.1-.156c0-.251-.3-.8-.439-.8a1.513,1.513,0,0,1-.57-.643c0-.256,1.508,1.308,1.528,1.585.009.12.029.467.044.772s.036.668.045.807l.017.252.11-.277c.06-.153.14-.277.177-.277a4.423,4.423,0,0,1,.046,1.084c-.012.6-.032,1.084-.044,1.084a.536.536,0,0,0-.059.2c-.02.111-.064.348-.1.527a.7.7,0,0,1-.233.425c-.124.073-.133.1-.031.1s.115.034-.012.18a2.992,2.992,0,0,0-.332.56c-.117.251-.227.365-.321.329s-.115-.011-.082.043c.066.107-.1.472-.318.687a.353.353,0,0,0-.005.542c.153.157.2.959.066,1.044-.052.032-.1-.057-.1-.2s-.044-.258-.1-.258-.074.062-.045.138-.028.159-.139.188c-.158.041-.213-.035-.315-.43a1.738,1.738,0,0,1,.245-1.453c.205-.269.187-.488-.052-.638-.111-.069-.2-.179-.2-.243a.631.631,0,0,0-.167-.3c-.092-.1-.139-.214-.1-.249.1-.1.752.44.828.679l.067.21.192-.206a.7.7,0,0,0,.192-.362c0-.086.034-.155.076-.155.126,0,.311-.7.2-.771-.053-.033-.073-.181-.043-.33.052-.261-.039-.539-.171-.521-.2.027-.266-.007-.266-.143,0-.083-.045-.151-.1-.151s-.1-.071-.1-.157-.04-.132-.089-.1c-.107.066-.881-.619-.8-.7a4.021,4.021,0,0,1,1.171.786c.084.191.218.048.218-.232,0-.263-.03-.3-.2-.245-.138.044-.2.018-.2-.08,0-.079-.2-.222-.454-.318-.444-.17-.6-.358-.3-.358a.139.139,0,0,1,.151.121c0,.083.033.088.1.017s.071-.186.006-.348c-.054-.134-.1-.191-.1-.126s-.116.021-.253-.1l-.247-.219.259-.07a.394.394,0,0,1,.41.081,1.036,1.036,0,0,0,.449.211.716.716,0,0,1,.415.247.379.379,0,0,0,.236.187.193.193,0,0,1,.164.126c.025.069.085.088.134.042s-.03-.171-.183-.282-.249-.258-.216-.345.01-.146-.047-.146-.149-.125-.2-.277-.1-.221-.109-.151a.15.15,0,0,1-.156.126c-.081,0-.128-.057-.1-.126.048-.138-.079-.321-.437-.626-.2-.169-.245-.176-.325-.05s-.093.119-.095-.026a.383.383,0,0,0-.2-.281c-.111-.059-.2-.152-.2-.205,0-.129.374-.126.454,0a.227.227,0,0,0,.171.1c.06,0-.022-.1-.182-.223a2.478,2.478,0,0,1-.356-.317.209.209,0,0,0-.231-.03c-.132.051-.144.1-.057.267s.078.2-.088.2a.278.278,0,0,0-.248.126c-.03.075-.054.055-.059-.05S25.021,30,25.09,30c.1,0,.1-.02,0-.084s-.113-.225-.077-.528c.039-.334.03-.382-.036-.193-.1.287-.138.2-.112-.277.011-.2-.03-.328-.1-.328s-.095-.065-.064-.144c.062-.161-.14-.661-.266-.662-.045,0-.054-.046-.019-.1s-.008-.1-.095-.1-.161.034-.165.076-.023.155-.041.252,0,.176.042.176c.135,0,.317.79.247,1.07-.046.184-.033.249.042.2s.107.125.1.54c-.008.575-.016.594-.145.345a.524.524,0,0,1-.082-.351.534.534,0,0,0-.086-.355c-.109-.208-.153-.233-.2-.112a.162.162,0,0,0,.1.217c.141.054.137.08-.032.21-.188.146-.188.151,0,.3.109.084.14.151.07.151s-.1.045-.064.1.018.1-.036.1a.194.194,0,0,1-.149-.126c-.03-.074-.054-.052-.059.054a.369.369,0,0,1-.235.271c-.174.07-.186.093-.05.1.184.007.23.121.1.25a4,4,0,0,0-.08,1.015,3.5,3.5,0,0,1-.112,1.076,1.5,1.5,0,0,0-.168.531.939.939,0,0,1-.19.488c-.093.067-.08.077.047.037.226-.073.242.221.017.307-.088.034-.122.089-.076.123a.692.692,0,0,1,.234.667,9,9,0,0,0-.338,1.16,3.6,3.6,0,0,1-.165.555,2.674,2.674,0,0,0-.148.541.489.489,0,0,1-.162.321.592.592,0,0,0-.123.442c.007.242-.035.36-.128.36-.077,0-.114-.063-.084-.141a.176.176,0,0,0-.052-.207c-.063-.039-.084-.007-.051.078a.3.3,0,0,1-.077.283,1.857,1.857,0,0,0-.162.794,1.361,1.361,0,0,0,.163.939l.192.284.062-.309c.119-.6.246-.3.246.573,0,.9.077,1.336.236,1.336.049,0,.089.064.089.142s.071.123.2.089.2,0,.2.064-.079.1-.176.087c-.149-.025-.177.052-.179.493a1.74,1.74,0,0,1-.064.585c-.1.1.155.554.313.555.114,0,.119-.026.025-.12-.193-.193-.153-.489.055-.417.142.049.137.03-.025-.1-.255-.2-.142-.314.306-.314.22,0,.35-.049.35-.131s-.091-.131-.2-.131-.2-.044-.2-.1.088-.065.227-.012a1.53,1.53,0,0,0,.324.091c.053,0,.126.086.161.186.059.167.073.164.18-.036a1.169,1.169,0,0,0,.117-.464,3.465,3.465,0,0,1,.062-.555c.048-.239.09-.282.186-.192a.384.384,0,0,1,.084.321c-.022.113.03.052.116-.135.173-.375.206-.55.06-.319-.052.082-.124.119-.16.082-.109-.109.053-.281.263-.281a.187.187,0,0,1,.095.353c-.13.08-.13.767,0,1.108.067.176.067.244,0,.2s-.1-.014-.1.045a.1.1,0,0,0,.088.107c.048,0,.118.193.154.429s.093.576.125.756c.046.256.024.328-.1.328-.108,0-.139-.056-.1-.176s0-.1-.154.066a.847.847,0,0,0-.216.353c0,.062.039.052.087-.024.067-.106.1-.1.164.05.139.325.1.941-.063.941-.062,0-.089-.089-.061-.2a.333.333,0,0,0-.088-.314.19.19,0,0,1-.075-.221c.036-.059.016-.075-.046-.037-.079.049-.08.156,0,.374a.637.637,0,0,1,.057.355,3.211,3.211,0,0,1-.377-1.069c0-.168-.28-.419-.347-.311a.082.082,0,0,0,.035.127.8.8,0,0,1,.155.437c.035.222.086.539.114.706a1.634,1.634,0,0,0,.249.576,1.066,1.066,0,0,1,.2.385.5.5,0,0,0,.152.264c.084.084.129.189.1.234s.011.106.087.135c.135.052.3.577.175.57a.809.809,0,0,1-.243-.141c-.136-.1-.149-.151-.05-.19s.069-.055-.045-.061a.171.171,0,0,1-.176-.147c0-.077-.1-.164-.212-.195s-.182-.1-.145-.163.006-.108-.068-.108c-.143,0-.45-.522-.5-.857a.251.251,0,0,0-.258-.213c-.266-.013-.269,0-.081.349a1.381,1.381,0,0,1,.243,1.057c-.062.111-.058.169.011.169a.122.122,0,0,0,.109-.126c0-.069.068-.013.148.126.164.287.192.44.065.362s-.317.386-.317.708a1.16,1.16,0,0,1-.111.461c-.084.158-.082.189.01.133s.107-.013.08.114c-.022.1-.1.177-.162.163-.092-.019-.09.027.006.19s.1.224,0,.261c-.07.025-.1.087-.07.138s-.016.092-.1.092-.151.057-.137.126a.919.919,0,0,1-.054.358.4.4,0,0,0,.034.368.366.366,0,0,1,.1.222.4.4,0,0,0,.009.162c.014.042.032.11.041.151a1.839,1.839,0,0,0,.142.3c.079.142.087.227.022.227s-.014.091.1.2a.717.717,0,0,0,.29.2c.17,0,.355.324.371.651a6.411,6.411,0,0,0,.731,1.858.826.826,0,0,0,.339.388.145.145,0,0,1,.115.187c-.03.077-.1.111-.16.075-.222-.137.045.167.316.36l.283.2.013-.373c.01-.273-.013-.333-.083-.222s-.1.116-.1-.051a.45.45,0,0,0-.2-.328c-.2-.123-.223-.354-.068-.6.045-.072-.031-.309-.179-.563a2.106,2.106,0,0,1-.257-.563.505.505,0,0,0-.151-.276.456.456,0,0,1-.143-.27c.006-.084.023-.082.059.007s.144.1.31.061c.193-.048.239-.033.181.061s-.021.108.136.058c.186-.059.214-.028.214.235,0,.357.15.484.361.308.13-.108.145-.074.109.251s-.008.389.2.469c.135.051.216.141.18.2-.046.074-.1.073-.195,0-.2-.17-.291.454-.1.741.083.126.126.253.1.282s.019.113.108.187c.135.112.176.111.247-.005a.353.353,0,0,0-.012-.323c-.119-.222-.059-.34.21-.41.175-.046.187-.026.092.152a.244.244,0,0,0,.227.379c.035,0,.089.1.119.213s.1.183.174.139.1,0,.052.166c-.058.21-.052.217.049.055.063-.1.088-.21.056-.243s0-.128.066-.213c.1-.125.1-.139-.008-.075-.089.054-.151.011-.188-.132-.03-.116-.117-.212-.192-.212s-.112-.062-.071-.171.081-.126.106-.05a.2.2,0,0,0,.36-.005c.041-.1.052-.1.059,0a.128.128,0,0,0,.116.126c.062,0,.08-.086.044-.2-.051-.16-.018-.2.157-.2s.2.027.1.143-.082.134.088.089c.259-.068.262-.182.01-.452a2.3,2.3,0,0,1-.354-.672c-.134-.393-.136-.481-.017-.6.1-.1.161-.106.209-.03.038.061.02.111-.038.111a.107.107,0,0,0-.107.107c0,.059.04.082.09.051s.12.105.157.3c.055.3.1.346.263.295s.2-.013.2.247c0,.17.045.309.1.309s.1-.079.1-.176c0-.143.04-.129.2.076a1.879,1.879,0,0,1,.26.438,1.435,1.435,0,0,0,.633.663c.273.146.317.138.317-.063,0-.123.031-.141.109-.062.115.115-.074.536-.24.536-.045,0-.054-.045-.02-.1.079-.128-.055-.128-.252,0-.125.08-.126.1-.008.1.079,0,.12.025.092.053-.1.1-.685-.076-.628-.189.031-.063-.057.01-.2.161-.165.179-.27.231-.3.151s-.053-.026-.058.093a.325.325,0,0,1-.17.278.164.164,0,0,0-.107.2c.058.151-.192.3-.345.2-.05-.031-.092-.014-.092.039,0,.109-.411.238-.857.267-.5.033-.518.042-.634.3a.555.555,0,0,0,.049.569,7.524,7.524,0,0,1,.434,2.04,5.25,5.25,0,0,0,.966,1.993.774.774,0,0,1,.244.352c0,.068.122.153.271.191a1.058,1.058,0,0,1,.461.288c.628.729.865.959.925.9.037-.037.039.006.005.1a.2.2,0,0,0,.045.23c.059.037.108,0,.108-.091,0-.133.032-.138.2-.032a.435.435,0,0,1,.2.314c0,.126.05.169.151.13s.151,0,.151.135a.329.329,0,0,0,.1.252c.053.033.077-.037.054-.154-.034-.179-.017-.193.109-.089.082.068.129.145.1.171s.065.15.2.276c.165.153.227.292.186.418-.05.152-.041.16.043.04.132-.186.21-.112.238.227.017.2.052.239.152.156.164-.136.171.037.009.2-.094.094-.082.121.056.121.11,0,.15.045.1.118s-.02.1.078.06.151,0,.151.084a.139.139,0,0,1-.134.142c-.158,0-.179.162-.034.252.055.034.1.014.1-.044a.107.107,0,0,1,.107-.107c.059,0,.081.042.049.094a.127.127,0,0,0,.06.167c.074.046.091.029.046-.043-.108-.175.1-.14.249.043.109.132.107.176-.013.259s-.089.084.076.038a.242.242,0,0,1,.324.131c.057.106.071.229.031.273s-.008.042.071,0c.108-.062.127-.04.077.09s-.028.149.049.1a.185.185,0,0,1,.226.077.778.778,0,0,0,.3.218c.113.042.164.13.129.221-.069.181.1.2.172.024.037-.092.073-.1.134-.012a2.512,2.512,0,0,0,1.1.565c.135.011.246.061.246.11s.068.064.151.032.151-.019.151.029.106.113.235.146a1.645,1.645,0,0,1,.551.361c.174.166.343.259.375.206s.134-.049.25.023.17.152.145.193a.1.1,0,0,0,.05.133c.052.032.124-.033.16-.144.064-.2.253-.286.253-.112,0,.05.261.166.58.258l1.109.317c.291.083.53.205.531.272s.035.068.093-.024.128-.115.225-.038a11.521,11.521,0,0,0,3.209.29,12.788,12.788,0,0,1,2.168.195,8.017,8.017,0,0,0,1.3.2,5.474,5.474,0,0,1,.874.106.074.074,0,0,0,.111-.044,1.079,1.079,0,0,1,.538-.15,4,4,0,0,0,1.81-.561c.122-.115.243-.187.269-.161s.054-.04.062-.146c.022-.3.5-.95.573-.789.034.073.044.035.022-.085a1.153,1.153,0,0,1,.2-.605c.22-.358.238-.493.241-1.83s-.009-1.432-.163-1.278a1.061,1.061,0,0,0-.207.537,1.067,1.067,0,0,1-.137.466.509.509,0,0,0-.1.3c0,.241-.239.586-.334.491a.462.462,0,0,1-.066-.263c0-.162.026-.175.149-.074s.143.066.108-.29a.873.873,0,0,1,.078-.543,7.839,7.839,0,0,0,.729-1.283c.489-1.037.582-1.2.711-1.25A.245.245,0,0,0,53,64.134c0-.088.042-.134.094-.1s.091-.09.089-.271a7.368,7.368,0,0,1,.048-.783c.05-.426.2-2.007.2-2.118,0-.292-.048-.4-.175-.4-.083,0-.151-.048-.151-.107s.039-.082.087-.053.071-.092.05-.271-.058-.5-.084-.722c-.044-.369.087-.712.235-.62.035.022.07-.262.077-.631a5.072,5.072,0,0,1,.116-1.024l.1-.353.01.466c.015.669.117,1.1.241,1.028.066-.041.081,0,.038.111a1.18,1.18,0,0,0-.068.218c0,.023-.045.042-.1.042s-.1-.079-.1-.176a.689.689,0,0,0-.084-.307c-.046-.073-.063.111-.037.416.028.339,0,.572-.067.615a.237.237,0,0,0-.112.17c0,.055.048.071.106.035s.1.109.083.448c-.013.282-.072.514-.131.515s-.046.041.03.089c.092.058.125.225.1.5-.028.3,0,.415.094.415s.122-.131.089-.5c-.024-.277,0-.5.046-.5.092,0,.134.212.106.535-.009.1.018.161.06.136a8.8,8.8,0,0,1,.069,2.231c-.03.182-.1.3-.15.271s-.1.047-.1.176a1.431,1.431,0,0,1-.4.785,7.307,7.307,0,0,0-.843,1.172,3.179,3.179,0,0,0-.19,1.034,1.87,1.87,0,0,1-.1.718c-.04,0-.029.116.025.259.122.321.123.374.006.3-.051-.031-.04.08.023.249.1.255.127.276.186.127.068-.171.071-.171.078,0a.249.249,0,0,1-.133.233.193.193,0,0,0-.094.231,1.479,1.479,0,0,1-.221.674,10.326,10.326,0,0,0-.463,1.015A3.109,3.109,0,0,1,50.5,71.823c-.357.287-.412.3-.476.151-.05-.12-.087-.134-.119-.047-.026.07-.089.1-.14.07s-.092,0-.092.061-.068.091-.152.059a.745.745,0,0,0-.429.051,4.82,4.82,0,0,1-1.593.1Zm3.992-1.731a.527.527,0,0,0,.07-.328c-.022-.066-.117.027-.211.207s-.125.328-.07.328S51.425,70.648,51.486,70.534ZM33.232,67.962c0-.086-.046-.129-.1-.094a.116.116,0,0,0-.044.157c.086.14.147.114.147-.063ZM53.4,63.52c-.009-.037.036-.1.1-.138a3.181,3.181,0,0,0,.212-1.69c-.085-.147-.1-.121-.106.151,0,.18,0,.357.006.392s-.052.1-.126.15c-.111.07-.111.086,0,.087.164,0,.13.471-.055.755a.822.822,0,0,0-.121.4c0,.112.03.149.058.081a.408.408,0,0,0,.034-.19ZM27.251,61.244c-.032-.08-.056-.057-.061.061s.019.166.053.132a.2.2,0,0,0,.008-.193ZM53.5,59.6c0-.024-.045-.072-.1-.107s-.1-.014-.1.044a.1.1,0,0,0,.1.107C53.455,59.649,53.5,59.629,53.5,59.6Zm-25.284-2.64a.288.288,0,0,0,.176-.28c0-.281-.076-.366-.265-.294-.1.04-.114.091-.039.182.1.122-.027.211-.705.493C27.218,57.135,27.933,57.048,28.216,56.965ZM26.88,56.87c0-.086-.039-.133-.086-.1s-.186-.041-.309-.155-.251-.181-.284-.148-.042.075-.019.092l.333.252c.347.263.365.266.365.063Zm.469-.431c-.092-.1-.134-.217-.094-.257s-.005-.043-.1-.006c-.218.084-.218.14,0,.308.26.2.385.169.192-.044Zm.741-.32a.1.1,0,1,0-.1.1A.1.1,0,0,0,28.09,56.12Zm1.079-.21.02-.244-.079.252c-.069.221-.086.2-.131-.2a1.125,1.125,0,0,1,.059-.6c.1-.133.083-.133-.123,0-.257.165-.26.183-.111.736.113.421.332.457.365.061Zm.394-.267c-.1-.1-.187.052-.1.188.064.1.087.1.121,0a.207.207,0,0,0-.018-.188Zm-4.6.035a.635.635,0,0,0-.176-.176c-.16-.125-.163-.122-.038.038s.215.221.215.138Zm.836-.466c.029-.111.012-.227-.039-.258s-.091.06-.091.2c0,.309.057.334.13.056Zm-1.24-.582c-.1-.152-.1-.146-.05.044.033.12.012.248-.046.283s-.1-.056-.1-.244c0-.17-.038-.308-.085-.308-.132,0-.119.611.016.757.179.195.424-.287.27-.532Zm.975-.679c0-.083-.038-.151-.084-.151-.1,0-.111.141-.017.235s.1.087.1-.084Zm-1.983-.567c0-.076.053-.07.159.019.132.109.175.107.251-.013.116-.183.115-.212-.014-.4-.084-.12-.093-.106-.045.067.034.12.014.248-.044.283s-.1-.056-.1-.244c0-.17-.047-.308-.105-.308s-.092.065-.076.145-.016.149-.071.154-.115-.105-.133-.245-.07-.255-.118-.255-.131-.125-.187-.277c-.078-.215-.1-.232-.109-.078A3.007,3.007,0,0,0,23.47,53.5c.045,0,.082-.051.082-.113Zm-.493-3.055c.055.14.079.082.085-.21a4.819,4.819,0,0,1,.1-.807c.061-.263.058-.438-.008-.5s-.081-.046-.039.065a.2.2,0,0,1-.044.233c-.059.037-.108,0-.108-.078a2.822,2.822,0,0,0-.466-1.049,1.3,1.3,0,0,0,.049.487,3.377,3.377,0,0,1,.029.946,4.7,4.7,0,0,0-.033.844l.032.34.162-.231c.155-.221.165-.222.238-.037Zm.7-1.672a.1.1,0,0,0-.107-.1c-.059,0-.079.045-.044.1s.082.1.107.1S23.754,48.714,23.754,48.658Zm-.173-.374c-.028-.072,0-.131.062-.131a.107.107,0,0,0,.112-.1c0-.055-.071-.1-.157-.1s-.137-.034-.111-.076-.025-.141-.111-.221c-.141-.13-.15-.111-.092.181.037.185.026.3-.025.271-.069-.043-.079.161-.015.317a.552.552,0,0,0,.2,0c.111-.008.17-.069.14-.145Zm.98-1.24a.1.1,0,0,0-.107-.1c-.059,0-.079.045-.044.1s.082.1.107.1S24.561,47.1,24.561,47.045Zm-1.109-.131a.418.418,0,0,0-.117-.248,1.056,1.056,0,0,1-.054-.906c.055-.073.056-.126,0-.126s-.1-.235-.114-.523a.964.964,0,0,0-.224-.71c-.191-.178-.2-.178-.2-.006a2.566,2.566,0,0,0,.1.528c.074.257.067.368-.025.426s-.078.08.041.081c.138,0,.152.062.085.361a1.6,1.6,0,0,0,.006.664c.075.26.066.286-.059.182-.106-.088-.147-.09-.147-.007s-.1.091-.267.048-.245-.031-.2.04a.377.377,0,0,0,.318.079c.138-.015.252.016.252.07s.067.072.148.041a.178.178,0,0,1,.208.04c.087.141.249.118.249-.035Zm-1.359-.365c-.049-.154-.022-.183.134-.142s.193,0,.181-.212c-.011-.195-.041-.23-.116-.135a.516.516,0,0,1-.249.16c-.12.027-.117,0,.018-.151.157-.174.15-.184-.12-.194l-.286-.01.213.439c.223.459.331.576.226.246Zm.728-.763c0-.14-.038-.254-.084-.254s-.075.132-.063.293c.025.353.147.321.147-.039Zm-.344-.3a.259.259,0,0,0-.09-.264.527.527,0,0,1-.145-.36c0-.132-.04-.24-.089-.24-.109,0-.094.708.019.882S22.409,45.667,22.477,45.489Zm-.588-.058c.034-.055.014-.1-.044-.1a.1.1,0,0,0-.107.1c0,.055.02.1.044.1S21.854,45.487,21.889,45.432Zm-.176-.319c-.3-.109-.384-.453-.137-.548.086-.033.119-.136.085-.265s-.018-.188.062-.139c.122.076.164-.061.052-.173a2.5,2.5,0,0,1-.09-.712c-.022-.573,0-.66.191-.761s.2-.111-.064-.075c-.154.021-.3,0-.334-.048s.044-.087.164-.087c.153,0,.2-.045.16-.151s0-.152.115-.153.133-.027.056-.076-.094-.195-.064-.35.093-.251.142-.221.089-.065.089-.212c0-.183-.064-.284-.2-.32-.111-.029-.2-.114-.2-.189a.362.362,0,0,0-.2-.244c-.137-.073-.2-.074-.2,0a.1.1,0,0,0,.1.1.1.1,0,0,1,.1.107c0,.059-.034.086-.076.06s-.077.074-.079.221-.036.783-.076,1.413c-.062.981-.052,1.137.074,1.089.149-.057.119.162-.052.388-.042.056-.013.189.066.3.192.262.184.45-.008.2-.139-.18-.146-.159-.089.258.064.463.255.712.537.7.086,0,.032-.054-.12-.109Zm3.281-.589c-.073-.277-.13-.252-.13.056,0,.142.041.233.091.2s.068-.147.039-.258Zm-1.561-.255c-.031-.031-.087.025-.125.124-.055.144-.043.155.056.056.069-.068.1-.15.069-.181Zm-.929.037c.045-.072.028-.089-.044-.044s-.116,0-.116-.1-.028-.146-.063-.111c-.065.065.021.374.1.374.026,0,.08-.052.12-.116Zm1.553-.2a.094.094,0,0,0-.1-.084c-.055,0-.1-.091-.1-.2s-.067-.2-.151-.2c-.177,0-.18.013-.059.33.085.224.412.349.412.158Zm-1.532-.293a.134.134,0,0,0-.264,0c-.02.06.039.108.132.108S22.545,43.87,22.525,43.811Zm2.54-.138c0-.024-.045-.073-.1-.107s-.1-.014-.1.044a.1.1,0,0,0,.1.107C25.02,43.717,25.065,43.7,25.065,43.673Zm-2.649-.521a.2.2,0,0,0-.193-.008c-.08.032-.057.056.061.061s.166-.019.132-.053Zm-.174-.947a.1.1,0,1,0-.1.1A.1.1,0,0,0,22.242,42.2Zm-.713-2.653c0-.1-.038-.154-.094-.12a.557.557,0,0,0-.094.384c.006.271.021.29.094.12A1.308,1.308,0,0,0,21.529,39.552Zm.02-1c-.1-.1-.111-.087-.056.056.038.1.094.155.125.124s0-.112-.069-.181Zm5.143-.5c-.1-.1-.111-.087-.056.056.038.1.094.155.125.124s0-.112-.069-.181Zm-4.6-.676a2.33,2.33,0,0,0,.254-.75c0-.327.174-.43.233-.137.029.147.042.114.037-.092,0-.176-.047-.3-.093-.269s-.056-.06-.021-.2.016-.279-.042-.314-.153.116-.22.367a2.317,2.317,0,0,1-.195.532,3.315,3.315,0,0,0-.251,1.361,2.34,2.34,0,0,0,.3-.5Zm.9-1.37c.034-.09.018-.13-.04-.095a.215.215,0,0,0-.1.156c0,.145.072.113.139-.062Zm-.341-.65c0-.055-.02-.1-.044-.1s-.073.045-.107.1-.014.1.044.1A.1.1,0,0,0,22.645,35.348Zm.454-.4c.034-.055-.011-.1-.1-.1s-.135.045-.1.1.08.1.1.1S23.064,35,23.1,34.945Zm4.421-1.063c-.033-.086-.081-.134-.108-.108s-.018.1.018.156C27.53,34.091,27.588,34.059,27.52,33.882Zm.389-.545c.028-.193.006-.275-.064-.233s-.046-.012.031-.106c.119-.147.116-.171-.019-.171-.237,0-.277.137-.144.489a1.972,1.972,0,0,0,.137.317,1.416,1.416,0,0,0,.06-.3Zm-.7-.931c-.066-.066-.144-.095-.174-.065s-.025.132.012.227c.047.122.1.141.174.065S27.289,32.49,27.2,32.406Zm-.324-.121c0-.077-.091-.163-.2-.192-.249-.065-.259.014-.025.191s.227.169.227,0Zm1.008-.466c0-.055-.02-.1-.044-.1s-.073.045-.107.1-.014.1.044.1A.1.1,0,0,0,27.888,31.819Zm-2.017-2.628c0-.059.045-.079.1-.044s.1.014.1-.044A.107.107,0,0,0,25.966,29c-.059,0-.079-.045-.044-.1s.014-.1-.044-.1-.107.076-.107.168c0,.2-.106.119-.139-.106-.025-.169-.453-.667-.573-.667-.04,0-.1.062-.126.139s.011.134.115.126.181.076.2.223a1,1,0,0,0,.2.429c.179.209.423.259.423.087Zm-2.158-.312c.045-.072.028-.089-.044-.044s-.119-.012-.124-.161a1.429,1.429,0,0,0-.094-.434c-.065-.152-.088-.083-.094.277s.031.479.138.479a.282.282,0,0,0,.217-.116Zm.495-.085c.034-.055.014-.1-.044-.1a.1.1,0,0,0-.107.1c0,.055.02.1.044.1S24.174,28.849,24.208,28.794Zm.92-.163c.013-.087-.005-.129-.039-.1a.475.475,0,0,0-.086.22c-.013.087,0,.129.039.1a.475.475,0,0,0,.086-.22ZM40.272,71.977c-.117-.143-.1-.154.12-.1a2.1,2.1,0,0,0,.395.068c.2,0,.082.1-.173.149A.391.391,0,0,1,40.272,71.977Zm5.817-.932a4.139,4.139,0,0,1-.877-.286,2.514,2.514,0,0,0-.624-.22c-.2,0-.3-.168-.127-.232a1.181,1.181,0,0,1,.564.14,1.051,1.051,0,0,0,.52.136c.05-.031.091-.009.091.048s.068.078.151.046.151-.015.151.037a.125.125,0,0,0,.126.1,3.507,3.507,0,0,1,.944.153c.076.076.676-.136.77-.272.051-.075.107-.061.175.042.085.129.1.126.1-.025,0-.1.045-.176.1-.176s.071.069.039.152c-.042.111-.012.135.11.088.093-.036.148-.119.122-.185-.05-.13.319-.41.414-.314.032.032,0,.057-.06.057a.138.138,0,0,0-.118.15c0,.132.047.132.39-.005a1.767,1.767,0,0,1,.807-.106c.417.05.417.05.417-.291,0-.444.16-.539.239-.142.107.535-.042.661-.811.686a1.78,1.78,0,0,0-.744.12.593.593,0,0,1-.327.147,3.445,3.445,0,0,0-.5.135,6.973,6.973,0,0,1-2.045.013Zm-8.47-.909c.034-.055.082-.1.107-.1s.044.045.044.1a.1.1,0,0,1-.107.1C37.6,70.237,37.584,70.191,37.619,70.136Zm-.454-.1a.1.1,0,0,1,.107-.1c.059,0,.079.045.044.1s-.082.1-.107.1S37.165,70.091,37.165,70.035ZM49.872,69.6c0-.2.149-.362.253-.288.175.125.147.3-.057.353-.113.03-.2,0-.2-.065Zm.422-.566c.068-.108.137-.183.154-.166.06.06-.1.363-.187.363C50.212,69.228,50.226,69.14,50.294,69.031Zm.34-.307c.079-.293.23-.5.362-.5.1,0-.014.244-.266.555-.16.2-.162.2-.1-.05Zm-14.01-.183a1.161,1.161,0,0,1-.467-.216.8.8,0,0,0-.146-.263c-.141-.189-.144-.188-.089.033.046.181.024.215-.106.166-.09-.034-.163-.1-.163-.153s-.091-.09-.2-.09-.2-.048-.2-.107-.042-.081-.092-.05-.115,0-.143-.07-.055-.032-.059.083a.466.466,0,0,0,.062.28.562.562,0,0,1,.1.255c.02.13-.032.182-.174.174a.4.4,0,0,1-.275-.119.6.6,0,0,0-.251-.174c-.233-.086-.34-.372-.176-.473a.143.143,0,0,0,.059-.191c-.1-.167-.262-.135-.195.039.032.083.009.151-.05.151s-.082.068-.05.151c.082.214-.1.188-.311-.044-.2-.216-.133-.433.1-.344.092.035.148,0,.148-.1s-.058-.137-.132-.108-.216-.042-.318-.154-.139-.205-.063-.205.1-.038.071-.084.048-.072.171-.059.279.029.348.033a.153.153,0,0,1,.126.16c0,.083.045.151.1.151s.1-.034.089-.076c-.034-.216.023-.434.1-.386a.613.613,0,0,1,.078.658c-.074.074-.072.106.007.106a.175.175,0,0,0,.151-.116c.027-.082.112-.07.286.041a2.108,2.108,0,0,0,.583.227,4.265,4.265,0,0,1,.858.345,5.17,5.17,0,0,0,.748.334c.243.064.315.347.088.347a3.379,3.379,0,0,1-.6-.149Zm.845-.044a.608.608,0,0,1,.088-.263c.111-.175.257.028.174.242-.069.179-.265.194-.263.02ZM35.2,68.42c-.02-.032,0-.121.05-.2.072-.116.114-.117.245-.008a.432.432,0,0,1,.159.214c0,.091-.4.085-.455-.008Zm-2.452-1.634c-.169-.169-.146-.312.038-.241.086.033.134.024.107-.019a.257.257,0,0,1,.04-.223c.074-.12.1-.116.154.025.093.242-.183.614-.339.458Zm16.62-.008a.719.719,0,0,1,.148-.328.776.776,0,0,0,.151-.369.355.355,0,0,1,.18-.268,1.192,1.192,0,0,0,.318-.583c.155-.534.346-.874.44-.781.033.033.035-.036,0-.153-.045-.171-.021-.2.119-.146s.16.038.062-.144c-.074-.139-.078-.232-.012-.273s.1-.014.1.044c0,.2.151.106.328-.2a1.617,1.617,0,0,0,.176-.675c0-.606-.267-.146-.3.507,0,.1-.058.176-.119.176s-.083-.071-.04-.176a4.349,4.349,0,0,0,.2-1.162c0-.248.035-.273.268-.222.252.055.265.035.327-.476.138-1.147.1-1.383-.337-1.945-.392-.508-.634-1.161-.43-1.161a2.241,2.241,0,0,1,.631.905.1.1,0,0,0,.1.1c.055,0,.1.068.1.151s.05.151.112.151.085.07.052.156-.018.13.04.095.105.043.113.171.025.346.039.485a.652.652,0,0,1-.046.353,1.709,1.709,0,0,0-.1.555,1.464,1.464,0,0,1-.114.56.432.432,0,0,0-.029.328c.035.132.012.222-.057.222s-.091.1-.047.267c.051.2.036.248-.064.186-.083-.051-.107-.041-.064.027a.223.223,0,0,1-.068.243.306.306,0,0,0-.089.274c.027.082,0,.111-.065.071s-.137.036-.175.187-.1.23-.154.2-.09.013-.09.1a.463.463,0,0,1-.2.295c-.332.232-.555,1.232-.249,1.114a.239.239,0,0,0,.151-.2c0-.077.043-.14.1-.14s.057.112-.006.291c-.076.218-.151.279-.294.241-.2-.053-.313.123-.46.728-.051.212-.086.249-.115.126-.023-.1-.079-.176-.126-.176s-.06.091-.031.2c.04.155,0,.2-.161.2-.117,0-.213-.059-.213-.132Zm3.193-.137a.278.278,0,0,1-.067-.171c0-.063.047-.057.119.015s.1.143.067.171A.087.087,0,0,1,52.559,66.64Zm-18.621-.156a.087.087,0,0,1,.093-.079.929.929,0,0,0,.253-.062c.11-.042.144-.017.107.079-.056.147-.452.2-.452.062Zm-1.462-.18c-.164-.071-.17-.088-.031-.094a.284.284,0,0,1,.233.094C32.75,66.42,32.746,66.42,32.476,66.3Zm1.462-.293c0-.049.068-.115.151-.147.258-.1.172-.275-.1-.207-.255.064-.314-.043-.255-.458a.349.349,0,0,0-.154-.274c-.135-.1-.149-.16-.06-.267.132-.159.055-.274-.177-.264-.119.005-.11.027.035.083.129.051.156.1.079.148s-.256-.12-.47-.411c-.356-.485-.441-.773-.263-.883a.178.178,0,0,0,.067-.182c-.016-.068-.01-.089.013-.047a.1.1,0,0,0,.137.018c.126-.078.068.187-.062.283-.055.041.013.075.151.077.2,0,.221.023.1.1s-.127.1.022.1a.383.383,0,0,1,.281.2.366.366,0,0,0,.256.2.15.15,0,0,1,.148.151c0,.083.042.151.093.151a3.065,3.065,0,0,1,.463,1.314c.05.324.032.358-.2.377-.14.012-.255-.019-.255-.068Zm.036-1.27c-.032-.083-.1-.151-.16-.151s-.049.064.023.151a.559.559,0,0,0,.16.151C34.017,64.893,34.007,64.825,33.975,64.741Zm-.238-.454c0-.055-.079-.1-.176-.1-.151,0-.154.016-.025.1.19.123.2.123.2,0Zm-.468-.353c-.032-.083-.076-.151-.1-.151s-.04.068-.04.151.044.151.1.151.072-.068.04-.151Zm-.281,1.394a.272.272,0,0,1,.055-.277c.088-.081.1-.073.041.028a.155.155,0,0,0,.046.214c.078.048.087.1.023.139s-.13-.013-.165-.105Zm-.558-.267a.776.776,0,0,1-.121-.245,1.7,1.7,0,0,0-.294-.321c-.191-.183-.371-.273-.47-.236-.124.047-.146.012-.1-.158.033-.126.017-.194-.039-.16-.133.082-.612-.247-.536-.368.034-.054,0-.086-.072-.071s-.123-.052-.1-.19a.316.316,0,0,0-.076-.283c-.058-.036-.106-.022-.106.032s-.091.074-.2.045-.2-.118-.2-.2.045-.118.1-.084.075,0,.045-.081a.652.652,0,0,0-.3-.256c-.205-.093-.237-.16-.181-.382.043-.17.03-.245-.034-.206-.111.068-.4-.523-.474-.964a1.414,1.414,0,0,0-.1-.369.494.494,0,0,1,.033-.329c.087-.226.094-.228.165-.035.041.111.227.548.413.971a6.715,6.715,0,0,1,.34.863.8.8,0,0,0,.206.315c.113.121.181.221.151.221-.084,0,.339.4.425.405.147,0,.544.5.481.6-.039.063,0,.077.11.036.127-.049.151-.031.09.067s-.043.109.025.067c.142-.088.442.031.371.147a.214.214,0,0,0,.013.2c.05.081.088.081.139,0s.12-.02.206.14c.075.14.185.255.245.256s.041.05-.042.11c-.123.088-.11.1.067.061.234-.051.354.163.245.435-.091.226-.256.212-.409-.034Zm19.546-1.027c-.007-.028-.019-.084-.027-.126a.68.68,0,0,0-.074-.176c-.083-.14.016-.857.119-.857a.235.235,0,0,1,.156.116c.045.072.028.089-.044.044-.165-.1-.14.153.038.388a.68.68,0,0,1,.144.3c0,.059-.068-.007-.148-.145-.139-.244-.144-.245-.148-.031a.368.368,0,0,0,.1.283.216.216,0,0,1,.1.157c0,.1-.191.136-.214.044ZM32.226,63.13c-.109-.132-.086-.153.162-.152.159,0,.244.035.189.077a1.059,1.059,0,0,0-.162.152C32.381,63.249,32.3,63.215,32.226,63.13ZM51.1,61.615c.027-.139.01-.252-.037-.252s-.114-.125-.149-.277-.132-.493-.215-.757a1.745,1.745,0,0,1-.1-.666.608.608,0,0,0-.137-.428.914.914,0,0,1-.188-.368.118.118,0,0,0-.1-.126c-.055,0-.1-.11-.1-.244a.371.371,0,0,0-.1-.295c-.057-.028-.046-.04.025-.026a3.144,3.144,0,0,1,.755,1.542c-.024.124-.011.206.027.182s.14.2.224.507.114.551.066.551a.1.1,0,0,0-.087.107c0,.059.04.082.089.052s.117.046.15.171c.094.35.074.579-.049.579-.066,0-.093-.1-.064-.252Zm-21.918-1.7c-.007-.037-.024-.113-.038-.168a1.966,1.966,0,0,1-.038-.214c-.009-.079-.058-.076-.164.012-.124.1-.151.1-.151-.044,0-.093.045-.142.1-.107s.1-.042.106-.171c0-.16.053-.1.158.205a1.033,1.033,0,0,1,.1.5c-.032.032-.063.027-.07-.01Zm20.583-2.033c0-.083.018-.151.04-.151s.066.068.1.151.014.151-.04.151S49.769,57.968,49.769,57.885Zm.145-.7a1.133,1.133,0,0,1-.014-.466c.033-.127.013-.176-.056-.133s-.084,0-.041-.109a1.1,1.1,0,0,0,.068-.325c0-.082.045-.121.1-.087s.073-.007.036-.1a2.72,2.72,0,0,1,.066-.85,1.5,1.5,0,0,0-.3-1.567c-.17-.213-.285-.45-.256-.526s.008-.11-.047-.076c-.1.059-.8-.628-.805-.782,0-.042-.083-.076-.184-.076a1.755,1.755,0,0,1-.657-.454c-.563-.539-1.184-.661-.712-.14a.375.375,0,0,1,.113.31c-.033.09-.075.068-.131-.07a.763.763,0,0,0-.521-.5c-.119-.038-.2-.126-.168-.2s-.044-.211-.156-.313c-.2-.181-.205-.18-.205.011a.515.515,0,0,0,.121.318c.094.094.084.121-.044.121-.222,0-.318-.344-.172-.617.117-.219.121-.217.466.147s.839.507.839.222c0-.123.049-.118.3.025.166.094.3.227.3.295s.069.1.164.06c.133-.051.149-.018.088.18-.041.133-.038.208.006.166s.175.007.29.108a2.167,2.167,0,0,0,.643.321,1.349,1.349,0,0,1,.5.236c.037.059-.007.074-.106.036-.293-.112-.192.265.128.48.162.109.274.232.248.275s.043.154.153.249.178.209.15.255,0,.083.056.083.107.113.107.252.057.253.126.254c.092,0,.089.025-.011.089s-.114.095,0,.132.1.185-.045.809a10.257,10.257,0,0,0-.22,1.442c-.044.755-.107.909-.206.512ZM29.2,57.028c.2-.128.331-.128.252,0a.3.3,0,0,1-.233.1C29.071,57.125,29.069,57.112,29.2,57.028Zm.807-.3a.1.1,0,0,1,.107-.1c.059,0,.079.045.044.1s-.082.1-.107.1S30.006,56.78,30.006,56.725Zm23.382-.23a1.242,1.242,0,0,0-.086-.476,3.211,3.211,0,0,1-.044-.525,1.441,1.441,0,0,0-.089-.546.368.368,0,0,1-.068-.232c.008-.329.293.382.445,1.112.086.41.156.752.156.76a.559.559,0,0,1-.151.072c-.1.04-.155-.011-.163-.166ZM23.018,54.85c-.1-.133-.135-.242-.079-.242.1,0,.357.392.294.453-.018.018-.115-.077-.215-.21Zm29.51-.034c-.034-.17-.1-.309-.15-.309s-.088-.071-.088-.158a.553.553,0,0,0-.161-.319.474.474,0,0,1-.1-.469c.048-.242.035-.282-.061-.185-.165.165-.284.155-.284-.025,0-.1.058-.126.169-.083.128.049.153.024.1-.1-.036-.093-.021-.169.033-.169s.1.063.1.139a.419.419,0,0,0,.151.264c.182.151.2-.008.026-.186-.089-.089-.093-.146-.015-.2a.545.545,0,0,0,.034-.753c-.167-.1-.169-.138-.029-.407.084-.162.1-.264.043-.227s-.109,0-.109-.09-.048-.157-.107-.157-.078-.046-.043-.1a.116.116,0,0,1,.157-.044c.052.032.094-.008.094-.088a.149.149,0,0,0-.176-.132c-.114.009-.188-.07-.21-.224s0-.214.082-.166a.193.193,0,0,1,.057.227c-.047.124-.031.131.082.038s.159-.079.223.061a1.2,1.2,0,0,1,.092.28,1.28,1.28,0,0,0,.135.328c.069.125.083.227.032.227s-.117.093-.147.207c-.042.162-.025.183.077.1s.144-.059.184.1c.032.123.013.179-.049.141s-.076.02-.03.163a.663.663,0,0,1-.049.453c-.1.193-.083.287.137.635a2.763,2.763,0,0,1,.319.694c.059.275.055.278-.1.087a.422.422,0,0,1-.118-.309.545.545,0,0,0-.144-.356c-.133-.177-.217-.215-.3-.137a.281.281,0,0,0,.185.452c.14.006.137.018-.017.079-.174.068-.172.085.025.337.226.287.267.537.106.637-.057.035-.13-.074-.164-.246Zm-25.144-.164c0-.086-.045-.129-.1-.095s-.1.02-.1-.033-.091-.119-.2-.148-.2-.12-.2-.2a1.12,1.12,0,0,0-.3-.468c-.166-.178-.273-.383-.241-.464s.006-.146-.056-.146a.131.131,0,0,1-.112-.144.471.471,0,0,0-.133-.277,4.178,4.178,0,0,1-.472-1.2c0-.038.1-.049.231-.025.254.049.328.342.165.647-.08.15-.067.171.072.118s.158-.021.114.15a.338.338,0,0,0,.091.337c.126.1.139.059.094-.315-.038-.316-.022-.407.057-.327a1.02,1.02,0,0,1,.121.519c.006.242.066.43.147.461s.12.157.093.33c-.024.153-.023.218,0,.146.067-.2.279-.076.271.162,0,.116.025.192.064.167.069-.043.228.329.206.483s.2.075.257-.081c.049-.127.083-.113.181.076a.589.589,0,0,1,.077.359.165.165,0,0,1-.325-.031Zm.17-.164c-.032-.08-.056-.057-.061.061s.019.166.053.132a.2.2,0,0,0,.008-.193Zm-1.128-.082c.034-.055.082-.1.107-.1s.044.045.044.1a.1.1,0,0,1-.107.1C26.412,54.507,26.392,54.461,26.426,54.406Zm24.927-.58a6.3,6.3,0,0,1-.272-.71c-.093-.294-.181-.416-.275-.379-.076.029-.113.011-.081-.04.1-.157.485-.072.535.118a.238.238,0,0,0,.206.179c.124,0,.133.027.039.121-.146.146-.164.623-.02.534.057-.035.1.049.1.2,0,.331-.062.326-.232-.019Zm-3.528-.3a.657.657,0,0,1,.034-.328c.07-.236.076-.231.085.076S47.909,53.682,47.825,53.524Zm-22.76-.429a.1.1,0,0,1,.107-.1c.059,0,.079.045.044.1s-.082.1-.107.1S25.065,53.15,25.065,53.095Zm6.951-.308c-.218-.165-.228-.2-.088-.317a5.1,5.1,0,0,0,1-1.432c0-.1.045-.145.1-.111s.1,0,.107-.07.041-.346.084-.607.04-.451-.006-.423-.084-.015-.084-.1a1.1,1.1,0,0,0-.068-.325c-.043-.112-.029-.152.04-.11.123.076.26-.2.171-.349a.214.214,0,0,1,.045-.221,3.924,3.924,0,0,0-.018-1.652c-.058-.094-.135-.1-.332-.006s-.273.088-.337-.015c-.05-.081-.1-.093-.143-.03s-.2.07-.416.021c-.232-.052-.353-.043-.353.027s-.03.077-.066.041-.131-.013-.21.053a1.844,1.844,0,0,1-1.384-.059.98.98,0,0,0-.391-.163.419.419,0,0,1-.267-.15c-.069-.083-.16-.128-.2-.1s-.1-.019-.137-.1c-.08-.208.09-.186.793.1.61.251,1.328.34,1.21.149a.529.529,0,0,0-.364-.1,3.491,3.491,0,0,1-1.385-.537,4.385,4.385,0,0,0-1.628-.6c-.111.029-.2.008-.2-.047s-.117-.1-.259-.1a.539.539,0,0,1-.416-.225c-.124-.177-.176-.2-.244-.088s-.089.065-.1-.116c-.005-.139-.032-.2-.06-.127-.083.206-.334-.115-.273-.349a.9.9,0,0,0-.151-.534.866.866,0,0,1-.147-.617,1.433,1.433,0,0,0-.094-.664.781.781,0,0,1,.205-.994c.147-.107.169-.273.145-1.068-.034-1.138.043-1.7.223-1.635a4.614,4.614,0,0,1,.456,2.122c0,.067.092.094.211.063s.184-.076.157-.1c-.065-.065.493-.531.635-.531s.139-.23-.052-.708-.147-.572.154-.384a.505.505,0,0,1,.213.486c0,.238.03.309.089.216a1.027,1.027,0,0,0,.064-.479c-.013-.188.016-.341.063-.341s.087.17.089.378.02.605.039.882c.032.452.006.528-.246.73-.393.316-.624.4-.544.188.04-.105.009-.162-.09-.162s-.135.066-.1.2c.029.113,0,.2-.06.2a.108.108,0,0,1-.113-.1c0-.055-.079-.1-.176-.093s-.126.028-.05.059.126.091.126.14-.065.064-.144.034c-.222-.085-.466.491-.5,1.172a2.362,2.362,0,0,1-.084.657c-.074.074.143.551.252.552.045,0,.054.046.019.1s-.014.1.044.1.107.068.107.151a.148.148,0,0,0,.143.151.2.2,0,0,1,.176.085,4.114,4.114,0,0,0,1.244.621.217.217,0,0,1,.185.126c.028.069.054.039.059-.067s.035-.166.069-.132.181.019.328-.032l.267-.093-.227.162-.227.162.457.29a2.527,2.527,0,0,0,.546.29c.049,0,.108.056.131.125.031.092.085.081.205-.038.09-.09.141-.186.114-.214s.025-.079.117-.114c.136-.052.155-.018.1.188-.06.24-.05.246.2.133.206-.094.278-.091.342.013s.092.106.136-.006q.054-.137.063.051c.005.129.064.173.187.141a.344.344,0,0,1,.306.089,1.457,1.457,0,0,0,.829.136c.658,0,.7-.014.709-.227.026-.808.082-.975.435-1.319a1.37,1.37,0,0,0,.364-.475c0-.09-.035-.093-.135-.009-.151.126-.268.054-.268-.166,0-.09.06-.122.158-.085.115.044.143.013.1-.115s.04-.222.271-.336c.178-.088.324-.209.324-.269a.3.3,0,0,1,.076-.184c.042-.042.076.008.076.109,0,.2.1.152.138-.066.032-.2.259-.558.263-.413.005.213.2.139.2-.076a.65.65,0,0,1,.183-.384.393.393,0,0,0,.138-.317c-.026-.079,0-.105.068-.064s.194-.064.3-.245.208-.3.228-.29c.092.06.491-.233.491-.36a.249.249,0,0,1,.084-.194c.046-.029.084.084.084.251a.566.566,0,0,1-.286.507c-.157.112-.286.247-.286.3a1.66,1.66,0,0,1-.4.468,1.491,1.491,0,0,0-.4.49c0,.178-.323.269-.424.119-.053-.079-.062-.023-.023.143.054.232.025.282-.189.336a.445.445,0,0,0-.306.267c-.029.112-.1.173-.161.137s-.108,0-.108.091a.155.155,0,0,0,.151.157.138.138,0,0,0,.151-.118c0-.065.029-.089.064-.054.077.077-.157.675-.264.675a4.028,4.028,0,0,0-.611,1.388c0,.1.029,1.069.054,2.161a7.831,7.831,0,0,1-.106,2.416,1.821,1.821,0,0,1-.225.484,4.4,4.4,0,0,0-.66,1.068c0,.061-.143.2-.318.319-.31.2-.324.2-.563.023ZM27.283,45.23c0-.055-.071-.1-.157-.1s-.129.045-.095.1a.216.216,0,0,0,.157.1A.1.1,0,0,0,27.283,45.23Zm-.681-.571a.389.389,0,0,0-.252,0c-.069.028-.013.051.126.051S26.672,44.687,26.6,44.659Zm9.554-2.353a.1.1,0,0,0-.107-.1c-.059,0-.079.045-.044.1s.082.1.107.1S36.157,42.361,36.157,42.306Zm-8.168-1.046a.546.546,0,0,0-.154-.166c-.128-.107-.143-.1-.09.038s.244.24.244.127Zm.3-.208c.1-.119.083-.143-.088-.13-.213.016-.262.088-.142.208.09.09.092.089.231-.078ZM47.663,52.927a1.653,1.653,0,0,0-.077-.3c-.051-.143-.037-.159.06-.069a.337.337,0,0,1,.077.3C47.7,52.96,47.67,52.992,47.663,52.927Zm3.946-.207a.217.217,0,0,1-.126-.2c0-.127.025-.125.163.013.177.177.162.253-.037.182Zm-27.3-.23c-.038-.119-.046-.24-.018-.267s.081.047.119.166.046.24.018.267S24.347,52.609,24.309,52.49Zm26.066,0c0-.054-.068-.072-.151-.04s-.151.008-.151-.054.091-.112.2-.112.2.048.2.107.045.079.1.044.1-.014.1.044-.068.107-.151.107-.151-.044-.151-.1Zm.807-.14a.229.229,0,0,0-.126-.2c-.079-.032-.084-.054-.012-.059.175-.012.372.263.244.342C51.229,52.473,51.181,52.435,51.181,52.353Zm-1.412-.317c-.087-.1-.091-.151-.012-.151a.105.105,0,0,1,.113.093c0,.051.079.114.176.14.149.039.151.048.012.058a.4.4,0,0,1-.29-.14Zm.908.04c0-.068-.028-.1-.063-.061s-.226-.049-.427-.185a1.46,1.46,0,0,0-.517-.248,1.335,1.335,0,0,1-.474-.2,2.181,2.181,0,0,0-.807-.234c-.466-.036-.461-.039.122-.056a1.635,1.635,0,0,1,.807.119,2.793,2.793,0,0,0,.577.26c.208.068.378.165.378.216s.057.094.126.1c.208.005.5.272.384.346-.059.036-.107.01-.107-.058Zm-1.311-.2c0-.061-.07-.085-.155-.052a.16.16,0,0,1-.212-.09c-.035-.092-.19-.15-.4-.15-.188,0-.342-.046-.342-.1,0-.132.447-.052.933.166.355.159.5.341.277.341a.107.107,0,0,1-.1-.112Zm-25.713-.486a.555.555,0,0,0-.165-.259c-.123-.123-.136-.194-.05-.279s.115-.074.115.045a.436.436,0,0,0,.151.285c.173.143.2.3.05.3A.1.1,0,0,1,23.653,51.388ZM25.7,51.3a1.684,1.684,0,0,1-.438-1.022c0-.244.043-.308.209-.308s.189.02.067.142c-.167.167-.161.585.01.642.065.022.118-.01.118-.07,0-.153.166-.137.177.017a2.9,2.9,0,0,0,.061.351c.057.245-.034.356-.2.248ZM46.87,50.81a.227.227,0,0,1-.126-.2c0-.115.043-.123.2-.038.322.172.258.371-.076.236Zm4.823-.194c0-.117.029-.141.061-.061a.2.2,0,0,1-.008.193c-.034.034-.057-.026-.053-.132Zm-.613-.123a.491.491,0,0,0-.121-.3c-.067-.067-.091-.121-.055-.121s0-.182-.076-.4-.119-.4-.09-.4-.044-.136-.162-.3-.187-.348-.152-.4.018-.1-.037-.1-.129-.091-.164-.2-.1-.178-.154-.148-.061.129-.026.22c.042.11.024.14-.055.091a.3.3,0,0,1-.061-.3.345.345,0,0,0-.1-.359c-.176-.146-.213-.409-.057-.409a.1.1,0,0,1,.1.107c0,.059.046.078.1.043s.162.077.234.248.162.28.2.242c.063-.063.11.108.081.292-.007.042.03.076.082.076s.109.1.128.227.094.214.166.2c.089-.019.111.038.066.176-.039.123-.019.2.05.2s.092.092.058.227-.03.17,0,.1a.215.215,0,0,1,.167-.126c.06,0,.081.029.046.064s-.02.145.033.245a.242.242,0,0,1-.049.328c-.08.08-.117.176-.081.211.112.112.131.463.026.463-.055,0-.1-.082-.1-.182Zm-25.454-.151c.038-.1.094-.155.125-.124s0,.112-.069.181c-.1.1-.111.087-.056-.056Zm20.513-.368a.216.216,0,0,1,.1-.157c.055-.034.1.008.1.095s-.045.157-.1.157a.1.1,0,0,1-.1-.095Zm-.888-.366c-.288-.2-.481-.549-.3-.542.139.006.636.581.564.653-.024.024-.142-.026-.263-.111Zm.585-.188a.262.262,0,0,1,.095-.2c.052-.032.088.033.079.145-.017.23-.174.283-.174.059Zm1.359-.262a.217.217,0,0,1,.031-.227,1.938,1.938,0,0,0,.16-1.169A1.8,1.8,0,0,0,46.215,46.6c-.208-.037-.378-.1-.378-.147,0-.15-.3-.08-.344.08a9.346,9.346,0,0,0-.21.966.14.14,0,0,1-.08.124.435.435,0,0,0-.3.453c.033.125-.01.179-.141.178s-.152-.024-.059-.084a.214.214,0,0,0,.064-.252.373.373,0,0,1,.069-.332,1.677,1.677,0,0,0,.137-.8,1.561,1.561,0,0,1,.129-.764.581.581,0,0,0,.126-.358c0-.128.038-.232.085-.232s.171-.181.277-.4.254-.4.328-.4c.241,0,.727-.346.676-.478-.027-.071-.005-.128.048-.128s.1.068.1.151c0,.213.164.188.331-.05.077-.111.171-.171.207-.134s.067.02.067-.036a1.123,1.123,0,0,1,.272-.395,1.408,1.408,0,0,0,.219-1.308c-.049-.03-.088-.01-.088.046a1.608,1.608,0,0,1-.116.384,3.2,3.2,0,0,0-.144.423.537.537,0,0,1-.122.234c-.111.111-.1-.183.021-.444a.43.43,0,0,0-.083-.4c-.088-.126-.16-.175-.16-.11a.875.875,0,0,1-.251.37c-.142.142-.208.278-.151.313a.22.22,0,0,1,.1.163c0,.055-.052.068-.116.029s-.089-.028-.042.049a.243.243,0,0,0,.268.059c.133-.042.193-.013.193.094,0,.091-.058.133-.141.1a.176.176,0,0,0-.208.054c-.113.184-.205.119-.221-.155a.677.677,0,0,0-.12-.367c-.073-.073-.091-.031-.059.136.025.133.019.185-.014.115-.087-.183-.181-.158-.494.133a1,1,0,0,0-.3.538c-.038.483-.357.752-.357.3a3.824,3.824,0,0,1,.9-1.365c.121-.093.128-.162.035-.353a5.277,5.277,0,0,1-.477-2.4c-.008-1.224.18-1.856.658-2.209.161-.119.293-.272.292-.34s-.037-.068-.1.028c-.079.122-.1.107-.1-.079,0-.2.024-.217.209-.118.116.062.184.139.152.171s-.02.108.027.168c.094.121.219.564.159.564a.978.978,0,0,1-.223-.2c-.183-.2-.186-.194-.194.176-.006.286.012.328.074.174.07-.172.084-.158.1.1.009.175.04.239.074.151.11-.282.6-.555.5-.277a.149.149,0,0,1-.16.1c-.062-.014-.11.077-.105.2s.031.17.059.1a.194.194,0,0,1,.149-.126c.054,0,.073.042.041.092s-.023.107.019.126a1.3,1.3,0,0,1,.258.36c.153.276.157.317.025.267a.237.237,0,0,1-.156-.188c0-.147-.282-.409-.358-.332-.106.106.168.6.359.655.11.029.2.1.2.148s-.091.067-.2.032-.2-.018-.2.044a.1.1,0,0,0,.094.108c.086,0,.062.379-.042.677a.153.153,0,0,0,.041.175.887.887,0,0,1,.09.471,1.055,1.055,0,0,0,.1.517c.111.111.348,0,.27-.122s.285-.075.374.046a2.064,2.064,0,0,1-.075,1.3c-.174.334-.195.507-.05.417.229-.142.078.224-.2.488a1.141,1.141,0,0,0-.3.378c0,.051-.091.092-.2.092s-.2.051-.2.113-.089.089-.2.06-.2-.015-.2.032-.159.142-.353.212q-.353.128-.252.228a.345.345,0,0,1,.1.207c0,.058-.044.039-.1-.044-.075-.118-.127-.071-.251.224-.256.613-.239.638.5.738a5.427,5.427,0,0,1,.888.207,2.692,2.692,0,0,0,.735.141,2.114,2.114,0,0,1,1.134.429c.018.042.121.076.227.076a.176.176,0,0,1,.193.16c0,.088-.034.144-.076.125s-.3-.152-.58-.3c-.591-.307-1.059-.439-1.059-.3s.359.319.446.232c.038-.038.038.013,0,.113s-.1.144-.131.1a.414.414,0,0,0-.212-.118c-.235-.052-.408-.231-.337-.346.037-.06.016-.075-.049-.034a.381.381,0,0,1-.318-.038c-.3-.158-.247,0,.132.417a1.579,1.579,0,0,1,.209,1.721c-.176.39-.281.464-.4.277ZM46.345,41.8c-.046-.194-.092-.308-.1-.252s-.033.18-.052.277a.243.243,0,0,0,.06.234.132.132,0,0,1,.027.177c-.046.081-.032.087.042.018S46.4,42.03,46.345,41.8Zm-.256-.4c.034-.055.014-.1-.044-.1a.1.1,0,0,0-.107.1c0,.055.02.1.044.1S46.055,41.454,46.089,41.4Zm-.038-.531c-.1-.1-.111-.087-.056.056.038.1.094.155.125.124s0-.112-.069-.181Zm.9-1.267a.269.269,0,0,0-.076-.16.35.35,0,0,1-.088-.168c-.042-.305-.06-.325-.13-.144-.1.263-.021.556.154.556.077,0,.139-.038.139-.084Zm-.706-1.025a.1.1,0,1,0-.1.1A.1.1,0,0,0,46.24,38.575Zm2.839,10.4a.706.706,0,0,0-.106-.454c-.118-.142-.11-.164.058-.164a.429.429,0,0,1,.436.454c0,.217-.172.454-.33.454-.049,0-.075-.13-.058-.29Zm-4.452-.225a.513.513,0,0,0-.224-.336q-.225-.157-.076-.159c.088,0,.107-.032.048-.076-.141-.1-.182-.427-.055-.427.058,0,.1.034.091.076-.031.163.241.728.326.675.049-.031.063.015.03.1s-.01.156.052.156.112.038.112.084-.068.084-.151.084a.167.167,0,0,1-.151-.179Zm4.84-.846a.419.419,0,0,0-.264-.151c-.076,0-.139-.041-.139-.091s-.091-.068-.2-.039-.2,0-.2-.06a.134.134,0,0,0-.148-.113c-.1,0-.126-.058-.082-.171s.081-.126.106-.05.082.1.133.065.092-.006.092.056.04.088.089.057.145.012.213.094.161.126.207.1.12.01.165.086a.9.9,0,0,0,.283.251c.16.091.168.115.038.117a.43.43,0,0,1-.29-.148Zm-5.108-.386a1.2,1.2,0,0,0,.066-.328.139.139,0,0,1,.134-.143c.2,0,.164.222-.066.454-.181.182-.194.184-.134.017Zm.268-.666a.216.216,0,0,1,.1-.157c.055-.034.1.008.1.095s-.045.157-.1.157A.1.1,0,0,1,44.627,46.849Zm-.164-.447.259-.441-.2-.411a1.52,1.52,0,0,1,.112-1.693c.283-.357.6-.623.6-.506a2.443,2.443,0,0,1-.345.4,1.216,1.216,0,0,0-.229,1.48,1.071,1.071,0,0,1,.17.52c0,.315-.372,1.09-.524,1.09C44.249,46.843,44.321,46.645,44.463,46.4Zm-3.138-.167c-.125-.05-.227-.115-.227-.145,0-.106.268-.051.46.094.219.165.111.189-.233.05ZM32.7,46.074a.207.207,0,0,1-.005-.191c.028-.074-.057-.2-.189-.291-.183-.12-.246-.261-.263-.587l-.023-.43.251.3a1.474,1.474,0,0,1,.255.378c.005.113-.173.091-.232-.028-.028-.057-.04-.046-.025.025s.129.134.256.141a.417.417,0,0,1,.408.413c0,.139-.345.354-.432.267Zm-2.289-.844a.1.1,0,1,1,.1.1A.1.1,0,0,1,30.409,45.23Zm2.723-.012c0-.192.376-.553.474-.455.038.038-.053.192-.2.342-.2.2-.272.23-.272.113Zm13.411.018a.215.215,0,0,1,.1-.156c.057-.035.074.005.04.095-.067.175-.139.207-.139.062Zm-21-1.821c.029-.111.07-.2.091-.2s.039.091.039.2-.041.2-.091.2S25.511,43.526,25.54,43.415Zm-1.786-.605c-.08-.049-.112-.123-.071-.164s.127-.021.192.043c.152.152.067.237-.121.121ZM34.717,41.9a.972.972,0,0,0-.362-.2c-.058,0-.146-.073-.2-.163-.061-.11-.3-.185-.736-.232-.654-.07-1.1-.238-1.1-.416,0-.129.266-.124.516.01a1.711,1.711,0,0,0,.624.111,1.557,1.557,0,0,1,.869.3,2.486,2.486,0,0,0,.529.292c.046,0,.084.068.084.151a.152.152,0,0,0,.151.151c.083,0,.151.045.151.1,0,.164-.257.115-.532-.1Zm-11.165-.2c0-.109-.045-.2-.1-.2-.131,0-.131-.373,0-.454.067-.041.063-.133-.01-.27s-.073-.184-.007-.143a.122.122,0,0,0,.167-.038c.035-.056-.008-.1-.1-.1-.122,0-.144-.064-.093-.277a1.274,1.274,0,0,1,.19-.429.334.334,0,0,0,.079-.277c-.028-.076.047-.131.19-.138.186-.009.2-.022.049-.06s-.174-.109-.122-.366c.185-.912.234-1.116.247-1.024.008.055.054.037.1-.04a.2.2,0,0,1,.361.16.619.619,0,0,1-.05.183,3.377,3.377,0,0,0-.065.447,4.321,4.321,0,0,1-.2.857,5.561,5.561,0,0,0-.406,1.933c.03.22,0,.347-.095.383s-.139-.018-.139-.145Zm12.333-.3a.743.743,0,0,0-.353-.392c-.272-.1-.364-.516-.115-.516.1,0,.134.056.093.162s-.019.146.089.1c.181-.069.583.327.514.506-.029.076.009.1.1.068.177-.068.192.081.025.248s-.226.153-.352-.181Zm11.745.031c.035-.185.071-.216.134-.117.12.189.11.257-.047.317C47.62,41.668,47.6,41.612,47.631,41.43ZM37.014,41.4c.034-.055.082-.1.107-.1s.044.045.044.1a.1.1,0,0,1-.107.1C37,41.5,36.979,41.454,37.014,41.4Zm.466.025c.03-.187-.033-.467-.079-.353-.088.218-.323.146-.263-.081.032-.122.111-.186.191-.155s.126.019.113-.021.1-.2.244-.363c.258-.279.263-.3.127-.689a.94.94,0,0,1-.076-.506c.038-.062.017-.076-.051-.034s-.116-.008-.116-.15a.55.55,0,0,0-.522-.493.575.575,0,0,1-.328-.162c-.087-.087-.158-.127-.158-.088s-.066.015-.147-.052a.25.25,0,0,0-.257-.054.222.222,0,0,1-.231-.026c-.311-.24-.424-.2-.432.139a.928.928,0,0,1-.071.4c-.107.107-.375-.234-.44-.56-.043-.216-.12-.308-.257-.308-.107,0-.167-.046-.132-.1a.116.116,0,0,1,.157-.044c.052.032.094.01.094-.049,0-.1-.043-.117-.4-.152a.13.13,0,0,1-.118-.161c.018-.081,0-.109-.05-.063a.374.374,0,0,0-.1.176c-.007.051-.018.13-.025.175s-.239.054-.517.018c-.331-.042-.5-.028-.506.043s-.046.04-.1-.043-.1-.115-.1-.072-.058.027-.128-.038a.577.577,0,0,1-.118-.382c.009-.3.23-.766.319-.676.033.033.145-.018.25-.113.162-.147.2-.151.28-.028s.1.116.156-.029a.277.277,0,0,1,.518.021c.033.127.106.174.209.134s.132-.019.09.049,0,.1.109.083c.162-.024.63.4.631.57,0,.04.062.049.138.02s.16.031.192.154.013.207-.037.207c-.151,0-.1.2.06.255.083.026.231.076.328.112a3.78,3.78,0,0,0,.731.17c.562.1.922.379,1.617,1.249.138.172.121.234-.047.17-.105-.04-.129,0-.089.154.055.212.233.295.233.109a.1.1,0,0,1,.107-.1c.059,0,.076.057.039.126s.039.009.171-.133c.316-.343.62-.461.568-.22-.021.1-.093.165-.16.151-.092-.02-.091.022,0,.175s.1.23-.049.375c-.108.108-.174.128-.174.052a.114.114,0,0,1,.1-.122c.055,0,.1-.068.1-.151,0-.206-.125-.19-.44.058-.278.219-.356.5-.14.5.078,0,.088.03.025.076a1.018,1.018,0,0,0-.209.27c-.146.265-.4.354-.268.093.121-.234.054-.44-.142-.44-.087,0-.119.049-.077.116s.028.089-.033.052-.132.037-.165.161c-.091.341-.079.376.113.306.158-.058.157-.042-.016.154-.2.23-.27.269-.25.143ZM35.35,38.172c-.08-.049-.168-.067-.2-.039s.015.091.095.14.168.067.2.039S35.43,38.221,35.35,38.172Zm-.034-.731c-.028-.069-.051-.013-.051.126s.023.2.051.126A.389.389,0,0,0,35.316,37.441ZM33.5,37.089c-.026-.1-.048-.042-.05.124s.019.247.046.178a.577.577,0,0,0,0-.3Zm-.171.13c0-.024-.045-.073-.1-.107s-.1-.014-.1.044a.1.1,0,0,0,.1.107C33.288,37.264,33.333,37.244,33.333,37.22Zm3.288,3.45c-.066-.328-.315-.624-.453-.539-.1.06-.213-.164-.213-.414,0-.112.082-.083.31.109a1.332,1.332,0,0,0,.4.261c.047,0,.114.086.147.191a.421.421,0,0,0,.269.245c.123.032.179.1.138.169a.177.177,0,0,1-.207.062c-.082-.031-.116,0-.086.077a.092.092,0,0,1-.1.129c-.081,0-.172-.131-.2-.292Zm-1.674-.123c0-.086.045-.157.1-.157a.1.1,0,0,1,.1.095.216.216,0,0,1-.1.157C34.992,40.676,34.947,40.634,34.947,40.547Zm-.438-.1c-.139-.105-.161-.185-.088-.316.089-.159.1-.155.168.044.038.121.112.194.163.162s.094.013.094.1c0,.192-.093.195-.337.01Zm-3.9-.382c-.35-.935-.434-1.149-.515-1.306-.14-.272-.206-.787-.1-.787.053,0,.114.125.138.277.039.258.043.255.057-.05.008-.18-.03-.328-.086-.328-.124,0-.13-.4-.009-.594a.215.215,0,0,1,.257-.076c.092.035.141.108.107.162s.145.036.4-.04c.333-.1.458-.106.459-.021,0,.064.045.049.1-.035.081-.125.1-.117.1.05,0,.15.025.167.089.066.132-.208.718.124.718.407,0,.119-.028.187-.063.153s-.216,0-.4.079-.34.118-.34.09-.075.022-.166.113c-.134.134-.182.14-.251.032s-.085-.1-.086-.007c0,.19-.38.151-.5-.05-.165-.283-.127.05.042.378a3.305,3.305,0,0,1,.231.827c.062.415.118.531.252.52.095-.008.173.029.173.082s.045.068.1.033.1-.009.1.055-.091.095-.252.054c-.186-.047-.252-.023-.252.09,0,.266-.172.166-.3-.175Zm-.394-2.623c-.1-.1-.111-.087-.056.056.038.1.094.155.125.124s0-.112-.069-.181Zm15.113,2.548a.1.1,0,0,1,.107-.1c.059,0,.079.045.044.1s-.082.1-.107.1S45.333,40.042,45.333,39.987Zm-9.68-.2a.1.1,0,1,1,.1.1A.1.1,0,0,1,35.653,39.785Zm-2.319-.151c0-.09-.045-.135-.1-.1s-.1,0-.1-.076a.974.974,0,0,0-.3-.421.887.887,0,0,1-.288-.447,1.153,1.153,0,0,0-.032-.3A.153.153,0,0,1,32.6,38.1c.073-.027.126.036.126.15a1.135,1.135,0,0,0,.4.538c.4.339.546.8.3.947-.055.034-.1-.011-.1-.1Zm6.015,0c.1-.29.245-.46.349-.4.049.03.089,0,.089-.057s.044-.086.1-.053.19-.032.3-.145.205-.179.205-.148.06,0,.134-.076c.1-.1.492-.133,1.437-.133a4.939,4.939,0,0,0,1.375-.1c.047-.066.14-.059.268.02.161.1.207.093.257-.038s.148-.145.415-.1c.238.039.332.022.287-.051s-.008-.088.073-.06c.132.045.493-.269.493-.43,0-.131.293-.192.365-.076.042.068.023.084-.047.04s-.116,0-.116.1c0,.127.032.143.131.061.152-.126.587-.118.508.009a.228.228,0,0,1-.22.052.513.513,0,0,0-.365.148,5.26,5.26,0,0,1-2.676.644,7.2,7.2,0,0,0-2.358.237c-.07.07-.064.1.018.1a.114.114,0,0,1,.121.1c0,.071-.061.072-.191,0s-.223-.064-.315.047a.426.426,0,0,1-.277.149.453.453,0,0,0-.29.176c-.128.164-.133.162-.071-.025Zm-11.158-.6c0-.088-.046-.16-.1-.16s-.145-.11-.2-.244c-.208-.546.547-1.4,1.063-1.2.094.036.141.008.123-.074a.152.152,0,0,1,.13-.168.119.119,0,0,1,.16.116c0,.083-.038.128-.084.1-.21-.13-.054.146.208.368l.292.247-.4.376a1.77,1.77,0,0,1-.469.362c-.141-.028-.573.2-.541.279a.1.1,0,0,1-.076.123c-.06.02-.108-.036-.108-.124Zm.477-.422a.2.2,0,0,0-.193-.008c-.08.032-.057.056.061.061s.166-.019.132-.053Zm16.867-.923c0-.165.285-.35.415-.269.076.047.094.032.049-.042s-.043-.116-.008-.116c.068,0,.388.3.334.31q-.279.066-.562.15c-.128.038-.227.024-.227-.033ZM29.593,37.3c-.117-.141-.11-.158.055-.126a.322.322,0,0,1,.232.163c.06.18-.127.156-.287-.037ZM26.557,35.6a1.7,1.7,0,0,1-.009-.579c.025-.289.013-.493-.026-.453s-.262-.041-.5-.177-.447-.226-.475-.2c-.065.065-.688-.15-.688-.237,0-.036.183-.078.406-.094.288-.02.422.016.464.125.032.084.1.128.149.1.189-.117.075-.321-.363-.649-.548-.411-.631-.7-.126-.442a1.418,1.418,0,0,1,.4.28c.041.062.075.071.076.021s.092.014.2.141.2.2.2.154.065-.024.145.042a.258.258,0,0,1,.091.263c-.034.089.043.18.208.242.144.055.268.146.275.2s.018.152.025.212a.484.484,0,0,0,.189.238c.242.177.221.277-.05.239-.14-.019-.217.017-.2.094s-.02.126-.076.126-.1.091-.1.2c0,.193-.107.263-.222.147Zm-1.208-3.544a.2.2,0,0,1,.193.008c.034.034-.026.057-.132.053s-.141-.029-.061-.061Zm-.025-.229a2.589,2.589,0,0,1-.122-.79c-.024-.555-.008-.627.119-.522.186.154.205.749.021.639-.092-.055-.09-.031.007.089a.7.7,0,0,1,.1.448c-.025.218-.054.25-.127.137Zm2.867-.106c0-.111.045-.2.1-.2s.1.091.1.2-.045.2-.1.2S28.191,31.829,28.191,31.718Zm-1.311-.006c0-.059.045-.079.1-.044s.1.082.1.107-.045.044-.1.044A.1.1,0,0,1,26.88,31.712Zm-2.392-.3c-.008-.112.027-.178.079-.145.115.071.127.349.015.349-.044,0-.086-.092-.095-.2Zm-.128-.71c0-.059.045-.079.1-.044s.1.082.1.107-.045.044-.1.044A.1.1,0,0,1,24.359,30.7Zm-1.94-4.613c-.032-.122-.02-.245.027-.274.128-.079.183.079.1.3-.068.187-.074.185-.129-.025Z" transform="translate(-20.821 -25.797)"/></svg>