<svg id="Fleche" xmlns="http://www.w3.org/2000/svg" xmlns:xlink="http://www.w3.org/1999/xlink" width="100" height="136" viewBox="0 0 100 136">
  <defs>
    <style>
      .cls-1 {
        fill: url(#linear-gradient);
      }

      .cls-2 {
        fill: rgba(141,141,141,0.15);
      }
    </style>
    <linearGradient id="linear-gradient" x1="0.5" y1="-0.279" x2="0.5" y2="1.102" gradientUnits="objectBoundingBox">
      <stop offset="0" stop-color="#fff"/>
      <stop offset="0.254" stop-color="#d9d9d9"/>
      <stop offset="1" stop-color="gray" stop-opacity="0.376"/>
    </linearGradient>
  </defs>
  <g id="fleche_vecto" transform="translate(-21.998 -61.504)">
    <path id="path77" class="cls-1" d="M67.253,189.4c-1.236-1.38-2.884-4.784-3.885-8.027a29.112,29.112,0,0,0-4.223-8.667,33.39,33.39,0,0,1-3.958-6.4,85.709,85.709,0,0,0-5.281-9.214,62.71,62.71,0,0,1-5.729-11.507,31.054,31.054,0,0,0-2.45-5.992,7.589,7.589,0,0,1-1-3.135c-.258-1.537-1.2-5.921-2.1-9.742s-1.331-6.929-.961-6.906.336-.384-.075-.9a1.844,1.844,0,0,1,.121-2.108,5.219,5.219,0,0,0,.58-3.272,19.245,19.245,0,0,1-.167-3.457,51.193,51.193,0,0,0-.716-6.838c-.461-3.019-.5-6.339-.08-7.379s.411-2.207-.015-2.594q-.773-.7.35-.635c.674.041,1.032-.272.9-.777a.98.98,0,0,1,.7-1.139c.507-.161.658-.436.334-.612-.86-.468.594-3.794,1.834-4.194.583-.188.8-.59.479-.893-.863-.819.207-2.267,2.412-3.264,1.071-.484,1.746-.653,1.5-.373s.192.595.975.7c1.783.243,1.624,3.57-.431,9.011C43.859,97.7,43.812,105.009,46.2,115a96.63,96.63,0,0,0,3.916,12.886c1.226,2.7,1.489,4.073.875,4.57s-.568.616.212.374a.993.993,0,0,1,1.317.508c.143.532-.217.823-.971.784-.814-.042-.736.111.244.477,1.221.456,1.259.6.248.926-.9.293-.9.408-.014.471.7.049,1.892,1.9,2.916,4.51.956,2.435,2.213,5.468,2.794,6.741s2.055,5.176,3.275,8.674c3.238,9.279,3.535,9.557,5.145,4.808,2.007-5.921,3.713-9.956,4.393-10.392.335-.215.315-.551-.046-.747-1.006-.547,1.278-3.924,2.869-4.241a2.542,2.542,0,0,0,1.815-1.882c.394-1.554.373-1.556-.7-.072s-1.1,1.488-.829-.031a4.26,4.26,0,0,1,1.289-2.327A3.961,3.961,0,0,0,76.1,138.5a5.034,5.034,0,0,1,1.21-2.808c.592-.574,1-1.346.9-1.716a22.334,22.334,0,0,1,1.516-5.219c1.3-3.5,1.946-4.433,2.774-4.054.811.371.885.218.3-.62a1.142,1.142,0,0,1,.176-1.682,2.135,2.135,0,0,0,.7-2.068,3.149,3.149,0,0,1,.963-2.572,2.473,2.473,0,0,0,.965-2.015,5.682,5.682,0,0,1,.794-2.946l1.047-2,1.407.94c1.228.82,1.137,1.594-.716,6.091-1.167,2.833-2.427,5.109-2.8,5.058s-.475,0-.228.107.246,1.022,0,2.025c-.329,1.329-.871,1.857-2,1.947-1.278.1-1.325.206-.271.6,1.66.62.033,5.337-1.9,5.513-.827.075-1.006.34-.522.781.874.795-.775,5.328-1.913,5.258-.435-.027-.5.221-.138.546s-.07,1.78-.953,3.229-1.341,2.7-1.016,2.79.134.3-.425.477a1.032,1.032,0,0,0-.8,1.137c.12.448-.466,1.035-1.3,1.306-1.3.42-1.311.508-.074.6q1.447.111.361.465c-.6.195-.988.72-.868,1.168a1.032,1.032,0,0,1-.8,1.137c-.559.178-.734.4-.39.486s-.009,1.593-.785,3.34a25.182,25.182,0,0,0-1.739,6.071c-.195,1.715-.735,2.869-1.327,2.833-.549-.033-.693.1-.321.307s.567,1.145.432,2.095c-.227,1.6-.364,1.7-1.918,1.289s-1.643-.363-1.249.61a1.467,1.467,0,0,0,1.773.661c.941-.271.861-.079-.268.632-.889.561-1.122.881-.518.712s1.168-.049,1.253.267-.273.549-.8.516c-.545-.033-.633.229-.205.619a1.889,1.889,0,0,1,.427,1.767c-.174.6.378,3.935,1.226,7.412.9,3.7,1.208,6.608.736,7.011s-.184.494.718.213,1.417-.881,1.264-1.452a2.7,2.7,0,0,1,.63-2.053c.723-.871.679-.918-.226-.244-.872.649-1.023.554-.688-.431a5.213,5.213,0,0,0,.236-2.232,1.022,1.022,0,0,1,.521-1.2c.393-.125.247-.542-.324-.928s-1-.979-.942-1.32.155-1.377.227-2.3.488-1.663.924-1.636.456-.481.044-1.128a3.032,3.032,0,0,1,.313-2.862,4.513,4.513,0,0,0,.727-2.938,1.973,1.973,0,0,1,.954-2.021c.972-.579,1-.786.1-.841-.95-.058-1.066-.516-.569-2.24,1.386-4.8,2.976-8.5,6.775-15.8,2.19-4.2,3.95-7.76,3.912-7.9s1.286-3.522,2.944-7.51,3.014-7.449,3.015-7.692-.059-.887-.131-1.43c-.115-.856.022-.919,1.018-.471.923.415,1,.3.388-.575a1.811,1.811,0,0,1,.148-2.122c1.313-1.483,2.966-5.911,2.746-7.355a1.253,1.253,0,0,1,.97-1.44c.637-.113.837-.381.445-.593s-.161-1.419.513-2.68a21.5,21.5,0,0,0,1.747-4.813,9.293,9.293,0,0,1,.979-2.96c.581-.557,1.643-4.793,1.415-5.643-.094-.352-.563-.515-1.042-.363s-.8.525-.722.83a11.839,11.839,0,0,1-1.63,3.609,46.965,46.965,0,0,0-3.325,8.257c-1.511,5.083-2.869,6.514-3.6,3.793-.65-2.422.02-7.288,1.069-7.765.562-.256.654-.213.2.095-1.081.738-.522,2.722.662,2.346.507-.161.614-.46.238-.665s-.22-.519.347-.7c.671-.213.71-.817.111-1.729a2.378,2.378,0,0,1,.135-2.84c.58-.791.861-.979.623-.418-.278.658.157.424,1.228-.661,1.01-1.024,1.386-2.025.962-2.56-.5-.629-.311-.907.662-.979.794-.058,1.182-.348.933-.691a.608.608,0,0,1,.317-.924,2.22,2.22,0,0,0,1.161-3c-.332-.518.339-1.766,1.633-3.033,1.208-1.184,2.129-2.4,2.047-2.708s1-.864,2.393-1.24l2.543-.684-.966,3.19a42.96,42.96,0,0,1-1.671,4.653,7.144,7.144,0,0,0-.666,2.737c.058,1.909-1.409,4.8-2.336,4.6-.448-.1-.5.016-.112.247.991.595.192,4.99-.895,4.924-.494-.03-.594.223-.224.558s-.011,2.1-.849,3.921a16.333,16.333,0,0,0-1.4,3.747c.281,1.048-4.851,12.632-5.519,12.458-.406-.107-.384.128.05.524.681.62-6.478,19.143-10.193,26.375-.6,1.161-1.884,3.65-2.86,5.53-2.789,5.369-5.046,17.437-4.7,25.133.255,5.683-.328,7.807-2.618,9.551L69.4,191.793l-2.147-2.4Zm5.4-12.743c-.08-.3-.537-.418-1.016-.266s-.805.521-.725.819.537.418,1.016.266S72.73,176.955,72.65,176.656ZM66.111,166.37c-.08-.3-.561-.411-1.068-.25s-.614.46-.238.665a1.769,1.769,0,0,0,1.068.25A.532.532,0,0,0,66.111,166.37Zm-8.341-8.729a2.7,2.7,0,0,1-.571-2.947c.372-.992.307-1.413-.162-1.045-.436.342-.97.069-1.2-.612s-.777-2.032-1.223-3.014a3.379,3.379,0,0,1,0-2.944c.688-.98.632-.992-.362-.075-1.042.962-1.311.535-2.392-3.8-.67-2.688-1.539-4.784-1.931-4.66s-1.44-2.656-2.328-6.178a167.27,167.27,0,0,0-5.665-17.776c-.287-.637-.446-.6-.9.209-.305.54-.036,3.236.6,5.992s1.345,6.274,1.58,7.819c1.576,10.357,5.2,18.853,13.265,31.111,2.824,4.291,2.88,4.329,2.686,1.8a7.525,7.525,0,0,0-1.393-3.872Zm15.193-10.833c-.313-.082-.719.374-.9,1.013-.265.923-.148.954.569.149.5-.557.646-1.08.333-1.162Zm9.923-17.75c.364.1.622.025.574-.155-.263-.979-2-.227-2.544,1.1-.565,1.38-.529,1.4.339.212.533-.731,1.268-1.252,1.632-1.156Zm-32.63,7.5c-.394-.344-.566-.15-.438.5.115.584.407.839.648.567a.778.778,0,0,0-.21-1.062Zm-8.847-9.442c-.08-.3-.537-.418-1.016-.266s-.805.521-.725.819.537.418,1.016.266S41.489,127.418,41.409,127.119ZM92.09,105.4c-.313-.082-.719.374-.9,1.013-.265.923-.148.954.569.149.5-.557.646-1.08.333-1.162Zm-49.148,1.5c.155-.535-.1-.852-.561-.7a.916.916,0,0,0-.625,1.082c.12.448.372.765.561.705S42.786,107.444,42.942,106.908Zm-.078-6.059c-.19-.706-1.35-.847-2.105-.255-.807.633.226,1.343,1.407.968.451-.143.765-.464.7-.712Zm-.326-3.12c.093-.777.185-1.8.205-2.273.106-2.469.656-4.63,1.317-5.17a5.6,5.6,0,0,0,.8-3.2l.06-2.593L43.642,86.25c-2.64,3.618-4.379,13.879-2.237,13.2a2.133,2.133,0,0,0,1.134-1.72Z" transform="translate(0)"/>
  </g>
  <rect id="fond_fleche" data-name="fond fleche" class="cls-2" width="100" height="136" rx="12"/>
</svg>
