<svg xmlns="http://www.w3.org/2000/svg" width="52.367" height="55.036" viewBox="0 0 52.367 55.036">
  <defs>
    <style>
      .cls-1 {
        fill: #898989;
        stroke: #707070;
        stroke-linecap: round;
      }
    </style>
  </defs>
  <g id="icone_insta" transform="translate(0.5 0.53)">
    <path id="path259" class="cls-1" d="M21.063,104.89a1.349,1.349,0,0,1-.965-1.5c-.018-.572-.092-.814-.164-.538-.22.84-.954.562-1.412-.535-.562-1.345-.522-9.951.043-9.179a1.175,1.175,0,0,0,.81.465.461.461,0,0,1,.47.447c0,.246.128.368.284.272s.211.015.113.27-.028.445.147.445.317.258.317.574.12.574.266.574c.315,0,1.16,1.611,1.188,2.267.015.338.082.308.255-.116.223-.545.249-.537.521.149a3.812,3.812,0,0,1,.2,1.531c-.049.445-.014.734.078.642s.346-.017.566.165c.317.263.433.2.561-.286.089-.34.278-.546.42-.458a.308.308,0,0,1,.1.424c-.09.145.036.187.28.094a.462.462,0,0,1,.619.288c.1.252.291.387.433.3s.257-.014.257.162.129.241.287.143.287-.019.287.174.071.28.158.193a3.724,3.724,0,0,1,1.581.382,8.243,8.243,0,0,0,2.136.54c.842,0,.836-.029.275,1.372-.391.978-.551,1.1-1.479,1.126-.572.016-.912-.055-.755-.158a1.74,1.74,0,0,0,.455-.86c.161-.637.142-.647-.358-.193-.414.374-.556.4-.655.1-.07-.209-.076-.079-.014.289.07.413,0,.6-.185.485-.164-.1-.3-.048-.3.119s-.452.3-1,.3c-.773,0-1-.115-.981-.5.014-.3.08-.359.168-.142.08.2.263.287.408.2a1.055,1.055,0,0,0-.073-1.449c-.226-.139-.276-.051-.152.27.1.263.068.477-.074.477s-.312-.161-.38-.359-.094-.151-.059.1a1.757,1.757,0,0,1-.2.932c-.352.63-3.187.629-4.465,0Zm9.393-.1a.3.3,0,0,0-.3-.287c-.167,0-.224.129-.126.287s.234.287.3.287S30.456,104.947,30.456,104.789Zm-7.6-.574c.1-.158.041-.287-.126-.287a.3.3,0,0,0-.3.287c0,.158.057.287.126.287S22.758,104.373,22.856,104.215Zm.824-1.358c-.078-.431-.014-.626.171-.512.163.1.3.009.3-.2s-.261-.406-.58-.43-.508.072-.42.214a.985.985,0,0,1-.183.806c-.272.435-.259.638.062.984.5.542.83.112.654-.859Zm3.909-.015c0-.124-.258-.245-.574-.269s-.574.078-.574.226.258.269.574.269.574-.1.574-.226Zm4.954,1.424v-1.172l6.876-.015c5.8-.013,6.852.048,6.721.389a1.163,1.163,0,0,0,.246.934,2.28,2.28,0,0,1,.41.722,59.776,59.776,0,0,1-6.751.187c-5.68,0-6.735-.069-6.606-.407.215-.561-.315-.505-.635.066-.192.343-.262.154-.262-.7Zm4.08.236c.1-.158.041-.287-.126-.287a.3.3,0,0,0-.3.287c0,.158.057.287.126.287S36.525,104.66,36.622,104.5Zm-3.13-1.074c-.1-.1-.337-.006-.532.2-.281.3-.28.34,0,.179.205-.116.368-.042.381.173.019.308.05.308.173,0a.578.578,0,0,0-.027-.554Zm13.593,1.2c-.581-1.527-.519-1.562,2.73-1.562,1.885,0,3.011.111,3.011.3,0,.2.173.2.556,0s.614-.2.753.021.251.231.391,0a3.748,3.748,0,0,1,1.64-.588,20.912,20.912,0,0,0,2.915-.833c1.455-.553,1.471-.553,1.647,0,.13.41.273.478.538.258.2-.165.419-.242.489-.171s.143-.156.16-.5-.027-.479-.1-.291a.411.411,0,0,1-.543.185c-.618-.237-.194-.671.655-.671.411,0,.664-.084.562-.186a7.126,7.126,0,0,1,1.646-2.128,13.342,13.342,0,0,0,2.022-2.539.827.827,0,0,1,.815-.592c.509,0,.546.056.2.282s-.358.279-.024.282c.224,0,.327.084.229.182s.007.363.235.59c.476.475.366,1.709-.142,1.592-.187-.043-.257.056-.156.22a.355.355,0,0,0,.489.111c.177-.109.244-.021.16.21a.45.45,0,0,1-.457.33c-.172-.038-.239.124-.149.359.147.384-.514.6-1.4.461-.118-.019-.215.167-.215.413s.129.367.287.27c.23-.142.427.51.238.789a2.415,2.415,0,0,0,.315.752c.227.423.245.606.048.485-.173-.107-.315-.058-.315.109,0,.41.664.385,1.09-.04.268-.268.344-.236.344.143,0,.268.129.488.287.488s.287-.363.287-.806c0-.83.683-2.048.982-1.75.233.233-.4,1.992-.99,2.761-.269.35-.571.554-.671.454s-.182-.024-.182.168c0,.771-1.966,1.2-5.321,1.16-2.724-.032-3.335-.119-3.564-.511-.253-.433-.277-.433-.285-.006s-.635.471-5.464.506l-5.455.039-.281-.739Zm11.961-.182c-.091-.229-.16-.161-.173.173-.014.3.055.472.151.376a.58.58,0,0,0,.024-.55Zm.082-1.6a.327.327,0,0,0-.295-.359c-.167,0-.229.12-.139.267a.33.33,0,0,1-.126.447.832.832,0,0,0-.292.648c0,.393.068.378.421-.089a2.133,2.133,0,0,0,.43-.915Zm6.8.143c-.08-.2-.145-.036-.145.359s.065.556.145.359A1.106,1.106,0,0,0,65.923,103Zm1.387.645c.1-.158-.03-.287-.287-.287s-.384.129-.287.287.227.287.287.287S67.213,103.8,67.311,103.642Zm-2.325-.74c.252-.656.228-.693-.328-.514-.423.136-.434.113-.072-.146a1.352,1.352,0,0,1,1-.152c.468.127.494.1.143-.15-.382-.272-.382-.337,0-.588.259-.17.295-.284.089-.287a.672.672,0,0,0-.522.287c-.267.431-.714.047-.714-.612,0-.34-.127-.5-.312-.381a.737.737,0,0,0-.163.762c.213.816-.07,1.367-.6,1.164-.3-.115-.383-.061-.246.162a.808.808,0,0,0,.621.336c.227,0,.413.129.413.287,0,.454.494.334.686-.167Zm-2.407-.138c0-.148-.258-.269-.574-.269s-.574.1-.574.226.258.245.574.269.574-.078.574-.226Zm3.868-3.926c-.053-.276-.106-.542-.118-.591s-.157-.005-.323.1c-.206.127-.194.314.035.591.44.53.522.51.406-.1Zm1.162-1.773a.669.669,0,0,0-.494-.306c-.19,0-.168.165.058.437.393.474.745.368.436-.131ZM37.053,99.122c-1.595-.065-2.244-.21-2.51-.563-.333-.442-.359-.442-.359.009,0,.373-.259.485-1.12.485-.979,0-1.1-.072-.97-.574.117-.447.009-.574-.488-.574-.449,0-.589.127-.473.43.191.5-.071.538-1.063.16-.621-.236-.686-.389-.519-1.219.282-1.406.229-2.035-.185-2.173-.268-.089-.318.082-.183.622.125.5.071.745-.166.745-.255,0-.268.1-.047.368a.685.685,0,0,1,.075.741c-.17.275-.272.216-.387-.225-.157-.6-.784-.849-.784-.311a.314.314,0,0,0,.335.287c.184,0,.261.073.171.163s-.427,0-.75-.2c-.437-.273-.508-.461-.28-.737s.216-.37-.015-.37c-.177,0-.322-.194-.322-.43s.129-.43.287-.43a.3.3,0,0,1,.287.3c0,.166.4-.077.9-.539q.9-.84.663-1.221a2.768,2.768,0,0,1-.09-2.341c.162-.3.222-.625.133-.714-.21-.21-1.023,1.714-.846,2,.074.12-.034.22-.241.222-.273,0-.258.08.055.282s.321.279.062.282c-.287,0-.3.139-.042.614s.242.662-.048.842c-.6.372-.9-.022-.719-.943.126-.628.073-.818-.2-.715s-.361-.245-.34-1.343a5.652,5.652,0,0,1,.27-1.876c.163-.264.135-.325-.089-.187-.182.113-.331.072-.331-.09s-.193-.221-.428-.131a.465.465,0,0,1-.6-.3c-.4-1.04-.572-.342-.357,1.442a8.314,8.314,0,0,1,.09,2.127c-.076.123.015.275.2.338s.258.327.156.593c-.257.669-1.04.309-.857-.394.105-.4.03-.515-.267-.4-.259.1-.566-.14-.822-.641C23.218,91.321,23.1,68,23.708,65.913c.652-2.244,2.733-4.841,2.733-3.411,0,.246.135.363.3.261.205-.127.193-.316-.04-.6-.268-.323-.233-.529.168-.972.279-.309.62-.492.757-.408s.248.026.248-.131c0-.265.715-.612,1.229-.6a1.587,1.587,0,0,0,.7-.469c.443-.443.488-.44.659.046s.195.476.337-.066c.121-.463.477-.631,1.671-.789,2.26-.3,6.982-.152,7.23.226.149.227.212.217.215-.037.007-.562,1.377-.434,1.528.143.125.478.133.478.164,0,.024-.356.277-.5.87-.5,1.155,0,1.735.264,1.563.712a.486.486,0,0,0,.837.468c.234-.234.228-.319-.024-.319a.4.4,0,0,1-.344-.43c0-.682,2.432-.58,3.144.133.314.314.441.639.287.734-.4.248-.339.625.131.806.315.121.39-.088.331-.915-.063-.891.02-1.079.491-1.115a1.576,1.576,0,0,1,1.093.588c.289.347.531.495.536.329a1.1,1.1,0,0,0-.335-.645c-.268-.268.163-.343,1.936-.34,1.578,0,2.148.09,1.85.282-.348.225-.307.279.215.282.355,0,.645.141.645.308s.149.212.331.1c.213-.132.253-.078.111.151-.159.256-.307.269-.532.044a1.024,1.024,0,0,0-.613-.3c-.166,0-.075.14.2.3a1.086,1.086,0,0,1,.5.835.934.934,0,0,0,.287.72c.158.1.287.019.287-.174,0-.855.408.161.458,1.141s-.027,1.121-.888,1.432a1.439,1.439,0,0,0-1.133,1.35,4.063,4.063,0,0,0-.01,1.57c.125.394.044.561-.271.561-.5,0-.606.443-.175.709a.471.471,0,0,1,.127.554.5.5,0,0,0,.363.58c.435.167.448.235.088.463s-.341.268.08.271c.276,0,.5-.125.5-.282s.183-.287.406-.287a.636.636,0,0,0,.551-.359c.086-.214.154-.156.167.143.014.276-.079.5-.2.5s-.225.258-.225.574c0,.819.406.709.627-.171.118-.471.264-.62.4-.406.15.243.256.216.376-.1a.4.4,0,0,0-.318-.564c-.385-.1-.365-.135.1-.161a2.839,2.839,0,0,0,2.121-1.56c.2-.54.261-.491.576.464.194.587.471.995.616.905s.264.311.264.891c0,.963.056,1.036.645.85a6.027,6.027,0,0,1,1.1-.238c.4-.029.386-.152-.1-.976-.306-.518-.463-.942-.349-.942s.059-.179-.122-.4c-.254-.306-.229-.435.108-.565a.7.7,0,0,0,.438-.583.644.644,0,0,1,.359-.56c.2-.08.076-.155-.27-.167A1.023,1.023,0,0,0,61,66.07c-.334.54-.636.285-1.393-1.174-.9-1.731-.9-1.719-.256-1.522.28.086.212-.02-.152-.239s-.592-.456-.515-.533c.256-.256-.885-.785-1.231-.571-.248.153-.182.413.241.951.759.965.74,1.436-.02.521-.482-.579-.63-.629-.846-.287-.144.228-.265.279-.267.114a1.133,1.133,0,0,1,.34-.645c.268-.268.252-.345-.072-.349-.3,0-.322-.064-.07-.224.268-.17.257-.477-.049-1.358-.217-.626-.292-1.246-.164-1.377s1.053.208,2.057.754c1.574.856,1.818,1.1,1.772,1.745-.03.414.067.752.215.752s.274-.226.279-.5c.024-1.206,2.858,3.4,2.858,4.647,0,.343-.146.449-.454.331a2.812,2.812,0,0,0-.591-.174c-.075,0-.057-.129.04-.287s.041-.287-.126-.287c-.556,0-.313.55.41.929l.714.374-.714.77c-.863.931-.886,1.073-.143.879.314-.082.5-.3.409-.475s.047-.068.3.248c.437.54.425.583-.194.732-.577.139-.6.192-.179.43s.489,1.3.574,10.454c.1,11.085.017,11.824-1.6,14.018-.724.981-1.018.772-.867-.615.052-.482-.027-.723-.2-.614s-.264-.054-.228-.353c.08-.673-.564-2.4-.895-2.4-.137,0-.387-.258-.556-.574s-.258-.574-.2-.574a3.2,3.2,0,0,1,1.345,1.4.309.309,0,0,0,.287.325c.569,0,.266-.595-.86-1.688-1.05-1.019-1.522-1.733-.887-1.34.143.088.192-.1.11-.413s-.272-.574-.42-.574-.19.129-.093.287-.088.287-.413.287c-.7,0-.74.178-.16.758a1.581,1.581,0,0,1,.43.953.765.765,0,0,0,.414.681c.228.087.5.65.611,1.25a4.388,4.388,0,0,0,.478,1.445.835.835,0,0,1,.138.729,1.186,1.186,0,0,0,.255.919c.652.892.469,1.675-.554,2.371-1.163.792-1.453.811-1.263.085.081-.308.027-.6-.123-.65s-.289-.355-.314-.68c-.035-.459-.2-.561-.724-.46-.483.092-.591.219-.373.437a1.192,1.192,0,0,1,.307.729,1.743,1.743,0,0,0,.454.924c.416.459.41.525-.072.783a4.283,4.283,0,0,1-.813.344,9.586,9.586,0,0,0-.951.315c-.866.329-.856.331-.964-.229-.086-.445-.131-.444-.6.022a2.135,2.135,0,0,1-1.783.424,3.346,3.346,0,0,0-1.485.126c-.19.19-9.277.177-14.154-.021Zm11.053-.338c-.091-.148.062-.4.342-.565s.347-.3.149-.3c-.515-.013-.307-.688.287-.932.276-.113.5-.348.5-.521s-.377-.047-.839.282c-.779.555-.848.561-.965.091-.069-.278-.108-.054-.087.5.037.953.32,1.721.633,1.721.079,0,.068-.121-.024-.269Zm7.016-1.165a.287.287,0,1,0-.287.287A.288.288,0,0,0,55.121,97.619Zm-11.569-.932c-.08-.2-.145-.036-.145.359s.065.556.145.359A1.106,1.106,0,0,0,43.552,96.687Zm1.531.359c0-.315-.049-.574-.11-.574s-.178.258-.26.574-.034.574.11.574S45.083,97.361,45.083,97.045Zm8.891.31c0-.618-.372-1.153-.675-.971-.181.108-.151-.022.065-.288.484-.6.338-.608-.719-.057-.581.3-.669.429-.3.43.285,0,.439.131.342.289s.024.287.27.287.447.129.447.287a.288.288,0,0,0,.287.287.277.277,0,0,0,.287-.263ZM34.368,96.9c-.091-.237-.033-.43.13-.43s.208-.14.1-.312c-.286-.462-.817.172-.605.723.095.247.255.449.356.449s.109-.194.018-.43Zm-3.035-1.1c-.312-.82-.877-1.033-.877-.33,0,.237.143.43.317.43s.246.185.16.412a.393.393,0,0,0,.184.531c.483.168.551-.16.216-1.042Zm9.848.338c-.133-.216-.059-.279.208-.176s.416-.019.416-.32a.481.481,0,0,0-.48-.48c-.273,0-.419.159-.338.369s-.009.369-.193.369-.255.129-.157.287a.628.628,0,0,0,.464.287c.158,0,.193-.151.079-.336ZM51.6,95.9c-.171-.656-.093-.688.676-.277.647.346.735,0,.237-.928-.249-.465-.37-.51-.557-.206s-.315.189-.536-.391a1.893,1.893,0,0,0-.423-.779,3.571,3.571,0,0,1-.652-.2c-.461-.173-.478-.138-.134.284.215.264.505.41.645.324s.254-.02.254.147a.3.3,0,0,1-.3.3c-.167,0-.224.129-.126.287s.007.287-.2.287a1.146,1.146,0,0,0-.731.566c-.33.529-.3.547.409.276.732-.278,1.222-.015,1.236.665a.2.2,0,0,0,.181.215c.1,0,.109-.258.027-.574ZM33.78,95.111c-.2-.2-.743.205-.743.552,0,.19.165.168.437-.058.24-.2.378-.422.306-.494Zm15.748-.361c.1-.158.041-.287-.126-.287a.3.3,0,0,0-.3.287c0,.158.057.287.126.287S49.431,94.909,49.529,94.751Zm8.174-.026a1.229,1.229,0,0,0-.437-.553c-.369-.306-.406-.282-.238.155.137.356.094.453-.137.31-.185-.114-.336-.079-.336.079s.258.266.574.243.574-.129.574-.234Zm-17.9-.757c-.292-.292-.532.147-.293.534.181.292.248.293.345,0a.589.589,0,0,0-.053-.536Zm4.989-.186a1.268,1.268,0,0,0-.382-.426c-.29-.24-.382-.214-.382.108a.407.407,0,0,0,.382.426C44.624,93.89,44.8,93.842,44.8,93.782Zm1.343-.519c-.091-.229-.16-.161-.173.173-.014.3.055.472.151.376a.58.58,0,0,0,.024-.55Zm-.826-.161a2.123,2.123,0,0,1,.147-.81c.156-.455.391-.568,1-.479.632.093.8,0,.837-.457a.764.764,0,0,0-1.091-.748c-.144.089-.261.035-.261-.119a2.426,2.426,0,0,0-.158-.69c-.112-.293.331-.588,1.557-1.035a10.99,10.99,0,0,0,5.541-4.051c.591-.868,1.175-1.707,1.3-1.864a1.757,1.757,0,0,0,.279-.717c.03-.237.2-1.011.385-1.721a12.64,12.64,0,0,0-.592-6.536c-.54-1.22-.543-1.3-.066-1.653.636-.465.7-.386.7.815a3.375,3.375,0,0,0,.25,1.381c.154.247.211-.2.148-1.177-.135-2.1-.127-2.067-.456-1.864-.158.1-.287.032-.287-.147s-.226-.1-.5.178c-.464.464-.509.466-.595.02-.051-.265-.249-.481-.439-.481A3.315,3.315,0,0,1,51.772,70c-.963-1.021-4.017-2.78-4.826-2.78-.36,0-.453-.162-.339-.6.12-.46.051-.556-.3-.421a.612.612,0,0,1-.7-.192c-.186-.281-.372-.216-.786.277-.427.509-.842.645-1.956.645a12.623,12.623,0,0,0-4.46,1.006c-.427.177-.5.1-.4-.467.064-.375.061-.52-.006-.323s-.468.376-.89.4c-.676.034-.691.054-.122.163.355.068.645.181.645.25a21.7,21.7,0,0,1-1.864,1.954c-1.643,1.611-1.864,1.747-1.864,1.145,0-.665-.285-.876-.667-.494-.1.1-.045.362.131.574.227.274.229.385.006.385-.172,0-.239.193-.148.429s.29.351.442.257c.324-.2-.365,1.094-.721,1.354-.132.1-.205.226-.163.287a2.012,2.012,0,0,1-.1.8c-.154.588-.248.637-.626.323-.262-.217-.445-.247-.445-.071a.5.5,0,0,0,.352.415c.41.137.521,4.517.115,4.519-.138,0-.117.162.046.359.429.518,1.488,3.4,1.18,3.21-.143-.088-.259-.012-.259.17s.226.393.5.469c.635.176,2.225,2.389,2.128,2.962-.06.355-.026.361.194.035.306-.454.9-.193.9.394a.448.448,0,0,0,.5.385,17.074,17.074,0,0,1,4.02,1.576c.5.318.117.845-.455.626-.255-.1-.372-.086-.26.026s.073.362-.088.555c-.206.248-.163.4.146.519.241.092.438.064.438-.062s.161-.236.359-.244a2.843,2.843,0,0,0,.805-.2c.593-.248,1.628.675,2.021,1.8.172.493.493.9.715.9s.377-.1.345-.215Zm-5.222-8.659a7.707,7.707,0,0,1-3.6-4.254c-.375-1.35-.389-3.793-.022-3.793.153,0,.2-.2.111-.433-.119-.31-.035-.383.3-.256.254.1.462.034.462-.14a.3.3,0,0,0-.265-.318c-.518,0,.6-1.721,1.775-2.724a8.731,8.731,0,0,1,4.8-1.865,8.12,8.12,0,0,1,6.868,4.616,7.315,7.315,0,0,1-2.091,8.4c-1.253.926-1.752,1.2-1.522.824a1.335,1.335,0,0,0-.107-.976c-.29-.66-.293-.66-.171-.026a.835.835,0,0,1-.35.923c-.393.23-.4.282-.045.3.236.015.118.152-.263.3a9.015,9.015,0,0,1-5.876-.584Zm5.169-.167c-.394-.394-.464-.4-.464-.038a.618.618,0,0,0,.358.555c.567.2.611-.013.106-.517Zm-3.137-.764c-.091-.229-.16-.161-.173.173-.014.3.055.472.151.376a.58.58,0,0,0,.024-.55Zm2.052-1.022a1.43,1.43,0,0,1,.142-.86c.124-.2.1-.359-.055-.359a.5.5,0,0,0-.4.359c-.131.389.06,1.362.268,1.362.07,0,.091-.226.045-.5ZM38.5,81.22c-.854-.8-1.072-.458-.246.38.365.371.711.568.767.438s-.178-.5-.521-.818Zm7.619.744a2.6,2.6,0,0,1-.174-.684c0-.126-.258-.3-.574-.38-.582-.152-.813-.777-.287-.777.554,0,.28-.452-.3-.5-.48-.036-.552.071-.392.584a1.772,1.772,0,0,0,.5.822c.206.132.193.324-.041.606-.287.346-.218.389.42.267.526-.1.7-.044.559.183-.111.181-.053.328.131.328s.258-.2.16-.454Zm1.169-.747c-.091-.229-.16-.161-.173.173-.014.3.055.472.151.376a.58.58,0,0,0,.024-.55Zm-4.5-1.172c0-.167-.085-.219-.189-.115s-.362.045-.574-.131c-.42-.349-.474-.243-.218.426a.52.52,0,0,0,.98-.18Zm1.147.365a.3.3,0,0,0-.3-.287c-.167,0-.224.129-.126.287s.234.287.3.287S43.936,80.568,43.936,80.41Zm2.008,0c0-.158-.057-.287-.126-.287s-.206.129-.3.287-.041.287.126.287A.3.3,0,0,0,45.944,80.41Zm-1.283-1.7c.091-.238.078-.344-.03-.236s-.437.067-.732-.091c-.439-.235-.536-.185-.536.279,0,.679,1.041.717,1.3.048Zm-1.8-.65c-.157-.6-.174-.6-.367-.071-.227.626-.073,1.075.292.849.132-.082.166-.432.076-.778Zm-2.08-.254c0-.092-.189-.167-.426-.167-.442,0-.582.517-.235.865.181.181.65-.315.661-.7Zm7.748.024a.287.287,0,1,0-.287.287A.288.288,0,0,0,48.525,77.829Zm-2.294-.557a.615.615,0,0,0-.287-.447c-.158-.1-.287.024-.287.27s.129.447.287.447A.28.28,0,0,0,46.231,77.273Zm-2.163-1.065c-.491-.359-1.565-.539-1.565-.263,0,.429.943.949,1.471.811.594-.155.6-.179.093-.548Zm2.45-.1a.3.3,0,0,0-.3-.287c-.167,0-.224.129-.126.287s.234.287.3.287S46.517,76.266,46.517,76.108Zm-7.938-.4c.179-.467-.062-.8-.42-.577-.326.2-.318.979.009.979.141,0,.326-.181.41-.4Zm2.592-.028a.85.85,0,0,0-.78-.421c-.6.009-.6.018-.058.43.714.54,1.047.537.838-.009Zm.505-.22c-.283-.281-.316-.248-.161.161.108.283.268.442.356.354s0-.32-.2-.514Zm3.55.363a.628.628,0,0,0-.464-.287c-.158,0-.207.129-.109.287a.628.628,0,0,0,.464.287C45.275,76.108,45.324,75.979,45.227,75.822Zm-.783-1.094c.07-.21-.061-.274-.341-.166-.25.1-.454.3-.454.454,0,.377.652.141.795-.288ZM28.381,91.381c.268-.772.253-.932-.091-.932-.228,0-.426.1-.439.215a6.968,6.968,0,0,1-.425,1.936c-.21.511-.189.526.2.143a4.33,4.33,0,0,0,.758-1.362ZM40.208,92.6c0-.237-.125-.43-.278-.43s-.2.194-.113.43.216.43.278.43S40.208,92.836,40.208,92.6Zm-9.685-.655c.093-.356-.031-.533-.4-.56-.561-.042-.642.163-.358.9C29.976,92.828,30.335,92.665,30.523,91.945Zm6.557-.48c.649.072.727-.007.611-.617q-.134-.7-.457-.447c-.5.388-1.577.59-1.672.313-.047-.136-.251-.144-.454-.018-.48.3-.113,1.268.405,1.069.234-.09.4.048.422.342.022.372.074.344.215-.116s.381-.587.931-.526Zm-4.043-1.351c0-.289-.114-.526-.253-.526s-.315.237-.391.526c-.084.32.016.526.253.526C32.861,90.64,33.037,90.4,33.037,90.114Zm4.015.01c0-.507-.372-1.091-.6-.947-.141.087-.257.006-.257-.18,0-.257-.1-.255-.418.008a.7.7,0,0,1-.7.174.332.332,0,0,0-.455.11c-.1.156.153.365.554.466s.729.27.729.377.258.194.574.194.574-.091.574-.2Zm2.868-.249a.3.3,0,0,0-.3-.287c-.167,0-.224.129-.126.287s.234.287.3.287S39.921,90.033,39.921,89.875ZM47,89.535c-.091-.229-.16-.161-.173.173-.014.3.055.472.151.376a.58.58,0,0,0,.024-.55Zm-16.413.074a.33.33,0,0,0-.126-.447c-.16-.1-.291.021-.291.267,0,.5.172.578.418.18Zm7.431-.239a1.5,1.5,0,0,1-.469-.784c-.11-.44-.151-.389-.177.215-.024.574.1.788.469.784C38.16,89.581,38.224,89.5,38.018,89.369Zm18.628-1.223c.187,0,.1-.147-.19-.317-.379-.221-.619-.218-.846.009s-.223.317.027.317c.189,0,.363.355.387.789l.043.789.12-.789c.066-.434.272-.793.459-.8Zm-28.428.908c.226.323.255.32.162-.021-.168-.623-.8-.715-.77-.114.015.354.074.4.178.135.131-.33.2-.33.429,0Zm34.187-.087a.551.551,0,0,0-.418-.239.257.257,0,0,0-.27.239c0,.131.188.239.418.239S62.487,89.1,62.406,88.967Zm-35.734-.677c-.2-.429-.409-.6-.522-.415a.552.552,0,0,1-.56.223.428.428,0,0,0-.492.25c-.068.185.174.393.538.463C27.008,89.072,27.024,89.064,26.672,88.289Zm10.381.152a.287.287,0,1,0-.287.287A.288.288,0,0,0,37.053,88.441Zm17.208-.574c0-.364-.184-.565-.5-.551-.3.014-.358.081-.143.167a.637.637,0,0,1,.359.551c0,.223.065.406.143.406s.143-.258.143-.574Zm-27.39-.86c.1-.158.048-.287-.11-.287a.628.628,0,0,0-.464.287c-.1.158-.048.287.11.287A.628.628,0,0,0,26.871,87.007Zm29.685-.143c0-.237-.125-.43-.278-.43s-.213-.168-.134-.374a2.941,2.941,0,0,0-.3-1.447,2.523,2.523,0,0,1-.291-1.327.328.328,0,0,0-.139-.437.332.332,0,0,1-.132-.448.92.92,0,0,0-.13-.769c-.244-.419-.3-.347-.3.428,0,.513.116.932.269.932s.207.185.12.412a.432.432,0,0,1-.549.262c-.321-.123-.331.008-.057.735.184.487.435.885.558.885s.224.2.224.449c0,.609.53,1.559.871,1.559.152,0,.277-.194.277-.43ZM33.07,85.777c-.234-.234-.319-.2-.319.121,0,.57.386.956.528.528a.723.723,0,0,0-.209-.649Zm28.249-.042a4.435,4.435,0,0,0-1.01-1.572c-.455-.466-.744-.941-.641-1.056s.024-.116-.172,0-.359.08-.359-.074a.467.467,0,0,1,.324-.388c.273-.091-1.284-1.948-1.634-1.948-.065,0-.092.313-.061.7s.159.633.284.557.226.068.226.321A2.182,2.182,0,0,0,59,83.4c.451.418.655.842.544,1.131a.461.461,0,0,0,.283.639.83.83,0,0,1,.46.736c0,.308.12.486.267.395a.343.343,0,0,1,.459.146c.314.508.5.068.308-.712ZM33.324,85a.3.3,0,0,0-.3-.287c-.167,0-.224.129-.126.287s.234.287.3.287S33.324,85.157,33.324,85Zm28.107-2.9c0-.211.173-.186.5.072.456.358.466.347.1-.115-.219-.28-.466-.442-.547-.361s-.311.013-.51-.153c-.277-.23-.326-.162-.208.289.162.619.661.822.661.268Zm-32.343-.9c.439-.429.465-.608.166-1.147a1.792,1.792,0,0,1-.286-.875c.037-.13-.042-.168-.177-.085s-.557-.355-.939-.975a4.314,4.314,0,0,0-.857-1.134,14.125,14.125,0,0,0,.994,3.968.444.444,0,0,1-.149.657c-.3.2-.261.247.166.183a2.385,2.385,0,0,0,1.082-.592Zm30.766-1.356c.1-.158.041-.287-.126-.287a.3.3,0,0,0-.3.287c0,.158.057.287.126.287S59.756,79.995,59.854,79.837Zm-.327-1c-.091-.237-.276-.43-.412-.43s-.173.194-.082.43.276.43.412.43S59.618,79.07,59.527,78.833Zm-.755-.89a.577.577,0,0,0-.55-.023c-.229.092-.161.16.173.173.3.013.472-.055.376-.151Zm.457-.759c.492-.522.48-1.311-.017-1.238a1.212,1.212,0,0,0-.716.582c-.225.4-.206.467.081.29.267-.165.32-.095.189.247-.217.566-.007.619.465.119Zm-28.2-.215c0-.158-.057-.287-.126-.287s-.206.129-.3.287-.041.287.126.287A.3.3,0,0,0,31.03,76.969ZM27.043,75.75c-.156-.919-.16-.921-.257-.139-.06.482-.22.718-.41.6s-.229-.059-.107.139C26.715,77.072,27.2,76.692,27.043,75.75Zm31.233.359a.3.3,0,0,0-.3-.287c-.167,0-.224.129-.126.287s.234.287.3.287S58.276,76.266,58.276,76.108Zm.611-1.495c.3-.218.284-.245-.095-.124-.341.109-.44.032-.329-.258.087-.228.262-.35.389-.272s.162-.119.078-.439c-.143-.547-.173-.551-.521-.075-.2.278-.309.6-.235.724s.01.218-.143.218-.235.226-.182.5.108.566.122.645.138-.033.275-.249a2.9,2.9,0,0,1,.641-.672Zm1.192.348c-.144-.55-.657-.819-.657-.344a1.9,1.9,0,0,0,.748.918,1.389,1.389,0,0,0-.091-.574ZM29.6,74.685a2.033,2.033,0,0,0-.628-.861c-.475-.443-.684-.5-.856-.226-.163.256-.229.216-.232-.143q0-.5-.65-.479c-.355.013-.484.088-.287.167a.623.623,0,0,1,.359.535c0,.235.227.346.574.279s.574.044.574.279c0,.356.383.644.932.7.118.013.215-.1.215-.253Zm-4.732-.3c.1-.158-.024-.287-.27-.287s-.447.129-.447.287a.28.28,0,0,0,.27.287A.615.615,0,0,0,24.863,74.387Zm1.773-.341c-.092-.229-.16-.161-.173.173-.013.3.055.472.151.376a.577.577,0,0,0,.023-.55Zm4.533.125a8.359,8.359,0,0,1-.118-.877c-.012-.206-.142-.3-.288-.211s-.323-.063-.392-.342-.078-.136-.021.318c.089.7.042.772-.326.467-.237-.2-.43-.265-.43-.153a3.7,3.7,0,0,0,1.48,1.29c.1.005.146-.216.094-.492Zm1.007-.215c0-.237-.108-.43-.239-.43s-.239.194-.239.43.108.43.239.43S32.177,74.194,32.177,73.957Zm30.08-1.315a1.647,1.647,0,0,0,.05-1.634c-.274-.6-.393-.668-.6-.334-.181.286-.264.3-.267.057-.007-.417-.275-.45-.826-.1-.3.188-.316.378-.08.784.3.52.312.52.32,0,.007-.366.15-.478.462-.359a2.621,2.621,0,0,0,.708.174c.14,0,.177.2.083.447a.454.454,0,0,1-.565.3c-.216-.083-.393-.026-.393.127s.22.278.488.278c.379,0,.411.076.143.344-.388.388-.454.8-.127.8.119,0,.393-.4.608-.885Zm-3.989-.191c-.007-.677-.05-.717-.3-.285a.92.92,0,0,0-.118.789c.3.48.429.321.42-.5ZM31.316,72.38a.3.3,0,0,0-.3-.287c-.167,0-.224.129-.126.287s.234.287.3.287S31.316,72.538,31.316,72.38Zm-2.385-1.775c-.092-.229-.16-.161-.173.173-.013.3.055.472.151.376a.577.577,0,0,0,.023-.55Zm24.9-.233c.1-.158-.024-.287-.27-.287s-.447.129-.447.287a.279.279,0,0,0,.27.287A.615.615,0,0,0,53.831,70.372Zm-20.507-.43c.206-.248.234-.43.066-.43s-.366.194-.456.43-.12.43-.066.43A1.591,1.591,0,0,0,33.324,69.942Zm-.687-.926c-.292-.292-.532.147-.293.534.181.292.248.293.345,0a.589.589,0,0,0-.053-.536Zm20.616-.895c-.217-.217-.713.3-.713.745,0,.391.066.377.407-.088C53.171,68.472,53.308,68.177,53.253,68.121Zm-21.072-.146c0-.18.13-.134.282.1.225.348.279.307.282-.215.006-.916-1.032-.877-1.208.046-.095.495-.023.649.253.543a.6.6,0,0,0,.39-.476Zm5.015.389c.1-.158.041-.287-.126-.287a.3.3,0,0,0-.3.287c0,.158.057.287.126.287S37.1,68.522,37.2,68.364Zm25.344-.89c-.522-.331-.822-.32-.822.03a.288.288,0,0,0,.287.287c.158,0,.291.226.3.5.007.458.036.455.32-.034.236-.406.217-.6-.08-.784Zm-9.9.46c.091-.237.044-.43-.1-.43s-.457-.355-.687-.789l-.418-.789.02,1c.027,1.274.825,1.949,1.188,1Zm-24.665-.859c-.09-.236-.28-.357-.421-.27-.4.25-.3.7.164.7.256,0,.357-.168.257-.429Zm22.955.189a2,2,0,0,0-.1-1.076c-.138-.46-.274-.707-.3-.549s-.166-.036-.3-.43c-.216-.621-.239-.575-.175.338.041.58-.027.992-.152.915s-.227,0-.227.164a.3.3,0,0,0,.3.3c.167,0,.224.129.126.287s.017.287.253.287a.747.747,0,0,0,.578-.24Zm-14.583-.4c.1-.1-.04-.5-.3-.9s-.382-.884-.265-1.073c.134-.217.091-.269-.119-.139-.32.2-.419-.243-.383-1.693.012-.473-.011-.486-.131-.072-.195.671-.677.642-.677-.041a.794.794,0,0,0-.43-.708c-.237-.091-.43-.04-.43.113s-.18.278-.4.278c-.613,0-.814.885-.324,1.426a2.139,2.139,0,0,1,.46,1.177c.013.382.09.526.173.32q.15-.375.809.518t.809.518c.1-.253.157-.221.173.1.021.45.66.559,1.041.178Zm7.82-.839c.293-.385.274-.556-.1-.935-.255-.255-.582-.39-.727-.3-.484.3-.272.7.382.725.355.013.484.088.287.167a.68.68,0,0,0-.358.6c0,.25.037.4.081.335s.243-.332.44-.591Zm-16.582-.1c0-.237-.129-.43-.287-.43s-.287.194-.287.43.129.43.287.43S27.588,66.163,27.588,65.927Zm3.155-.143a.3.3,0,0,0-.3-.287c-.167,0-.224.129-.126.287s.234.287.3.287S30.743,65.941,30.743,65.783Zm18.782-.215c-.053-.276-.106-.584-.118-.684-.043-.353-1.171-.477-1.358-.15-.1.182-.089.241.034.13s.423,0,.666.241c.377.377.383.48.038.7-.311.2-.261.257.215.261.437,0,.592-.144.524-.5Zm-24.38-.889c-.217-.217-.713.3-.713.745,0,.391.067.377.407-.088C25.064,65.031,25.2,64.735,25.146,64.679Zm7.508.172c-.08-.2-.145-.036-.145.359s.065.556.145.359A1.107,1.107,0,0,0,32.654,64.851Zm13.808-.366c-.088-.088-.249.071-.356.354-.156.409-.123.442.161.161.2-.195.284-.426.2-.514Zm15.281-.739c-.151-.378-.283-.536-.293-.352-.024.448.31,1.3.454,1.153.063-.063-.01-.423-.161-.8Zm-35.748-.507c-.222-.233-1.012.264-.847.532.112.182.318.156.563-.07.212-.2.34-.4.284-.463Zm17.278.2c-.091-.229-.16-.161-.173.173-.014.3.055.472.151.376a.58.58,0,0,0,.024-.55Zm4.511.454c.467-.179.355-.687-.152-.687-.158,0-.214.118-.125.262s0,.328-.2.408-.274.155-.169.168a1.957,1.957,0,0,0,.644-.151Zm3.491-.4c.224,0,.406-.137.406-.3s.1-.241.225-.164.225-.109.225-.413-.1-.553-.225-.553-.225-.258-.225-.574c0-.338-.191-.574-.465-.574-.4,0-.411.067-.072.485.224.276.248.4.055.282a.379.379,0,0,0-.519.088c-.165.267.224.42.808.318.131-.023.2.162.143.411s-.209.435-.349.413c-.294-.046-.749.592-.722,1.013.01.158.083.125.163-.072a.637.637,0,0,1,.551-.359Zm-9.345,0c0-.158-.057-.287-.126-.287s-.206.129-.3.287-.041.287.126.287a.3.3,0,0,0,.3-.287ZM27.993,62.237a.675.675,0,0,0-.6-.373c-.412,0-.411.033.008.339.255.186.369.444.253.572s-.055.143.135.034a.483.483,0,0,0,.2-.572Zm8.012-.048c-.224-.584-.359-.526-.31.133.023.3.138.494.256.421s.142-.322.053-.554Zm-3.941-.014a4.972,4.972,0,0,1-.178-1.362c0-.551-.093-.769-.23-.554-.3.475-.065,2.37.3,2.37C32.11,62.628,32.16,62.424,32.064,62.175Zm12.831.011c-.093-.243-.231-.381-.307-.306s-.051.274.053.443c.283.458.448.369.254-.137Zm10.226-.162c0-.141-.1-.241-.215-.222-.635.1-.848-.111-.82-.816.024-.574-.121-.806-.543-.871-.471-.073-.495-.039-.133.188a1.31,1.31,0,0,1,.4,1.086,1.361,1.361,0,0,0,.25,1c.354.23,1.059-.011,1.059-.363Zm-9.587-.765c-.5-.473-.5-.466-.175.175.189.368.422.591.518.5S45.82,61.532,45.535,61.259Zm-14.883-.692c-.092-.229-.16-.161-.173.173-.013.3.055.472.151.376a.577.577,0,0,0,.023-.55Zm9.639-.23c-.082-.314-.252-.507-.378-.429-.187.116-.192.516-.015,1.231.012.049.139.016.282-.072S40.373,60.651,40.291,60.337Zm17.034.23c-.091-.229-.16-.161-.173.173-.014.3.055.472.151.376a.58.58,0,0,0,.024-.55Zm-24.144.054c.1-.158-.032-.287-.287-.287s-.384.129-.287.287.227.287.287.287S33.083,60.779,33.181,60.621Zm12.333-.287c-.1-.158-.041-.287.126-.287s.3-.25.3-.556c0-.385-.182-.542-.592-.511-.553.042-.559.069-.089.412.277.2.349.368.161.368a.4.4,0,0,0-.342.43c0,.237.137.43.3.43s.224-.129.126-.287Zm-6.636-1c-.09-.236-.28-.357-.421-.27-.4.25-.3.7.164.7.256,0,.357-.168.257-.429Zm12.659.142c.1-.158-.024-.287-.27-.287s-.447.129-.447.287a.279.279,0,0,0,.27.287.615.615,0,0,0,.447-.287Zm-13.91-.287a.3.3,0,0,0-.3-.287c-.167,0-.224.129-.126.287s.234.287.3.287S37.626,59.344,37.626,59.187ZM25.58,95.181c0-.237.051-.43.113-.43s.187.194.278.43.04.43-.113.43S25.58,95.418,25.58,95.181Zm43.451-.143c-.1-.315-.316-.574-.48-.574s-.224.194-.133.43.056.43-.078.43a1.155,1.155,0,0,1-.6-.43c-.286-.345-.279-.526.037-.915.216-.267.265-.408.107-.314-.427.255-.188-15.852.244-16.392.234-.293.236-.357.007-.22-.208.124-.321-.086-.317-.59,0-.431.06-.629.126-.441a.429.429,0,0,0,.579.166c.3-.116.389-.063.253.156s-.053.274.223.168c.365-.14.425.315.4,3.086a12.473,12.473,0,0,1-.342,3.664c-.241.314-.231.362.041.2s.359,1.1.359,5.968c0,3.4-.056,6.183-.124,6.183s-.206-.258-.306-.574Zm.143-15.648c0-.416-.124-.657-.287-.557a.956.956,0,0,0-.287.734c0,.306.129.557.287.557s.287-.33.287-.734ZM19.28,92.475a1.13,1.13,0,0,1-.15-.885c.1-.154-.014-.281-.243-.281-.681,0-.765-.662-.765-6.023,0-3.718.094-5.146.343-5.23s.266-.309.01-.956c-.5-1.27-.342-9.928.188-10.1.24-.08.32-.005.2.188s-.037.259.241.152c.389-.149.448,1.185.517,11.691.043,6.522.056,11.9.029,11.955s-.194-.176-.372-.508ZM68.337,75.367c.014-.334.082-.4.173-.173a.573.573,0,0,1-.024.55c-.1.1-.163-.074-.151-.376Zm-.6-.853c0-.4.117-.662.26-.573s.192.419.11.734c-.206.789-.37.718-.37-.161Zm1.446-1.13a1.445,1.445,0,0,1-.046-.5c.017-.118-.1-.215-.253-.215a.325.325,0,0,0-.287.351c0,.193-.211.049-.469-.319-.38-.542-.434-1.086-.286-2.86a11.871,11.871,0,0,0-.1-3.183,2.917,2.917,0,0,1,.063-1.952c.288-.8.276-1-.067-1.216-.258-.159-.487-.139-.606.054s-.282.021-.405-.374a9.338,9.338,0,0,0-1-1.83c-.6-.885-.728-1.3-.539-1.806.145-.389.439-.624.719-.574a.469.469,0,0,0,.552-.417c.088-.559-.332-.694-.509-.164-.169.507-1.083.046-1.078-.545,0-.378.066-.414.241-.139.188.3.31.283.6-.072s.291-.444-.088-.444c-.273,0-.395-.161-.3-.4a.5.5,0,0,0-.149-.589c-.177-.109-.239-.021-.15.212a.717.717,0,0,1-.251.734c-.334.277-.383.2-.281-.456.112-.719.086-.746-.283-.294-.388.476-.779.41-.779-.132,0-.141.161-.159.358-.041.286.172.287.126,0-.225-.2-.242-.26-.536-.143-.654s-.132-.058-.553.134c-.461.21-.706.5-.615.743.137.356-.383.527-.981.323-.285-.1-.087-1.195.238-1.315.423-.156.3-.621-.171-.621-.237,0-.43.137-.43.3s-.125.227-.277.132-.2-.554-.108-1.021c.112-.559.054-.849-.17-.849-.187,0-.26-.129-.162-.287s-.01-.287-.239-.287c-.347,0-.765-.561-.765-1.027,0-.386.918,0,1.754.736a4.571,4.571,0,0,0,1.207.86c.4.008,1.073-.811.8-.979-.143-.088-.333.033-.423.269q-.359.935-1.16-.288l-.47-.717h2.318c1.7,0,2.262.09,2.111.336-.141.228-.048.275.291.144a1.478,1.478,0,0,1,1.063.111c.443.237.552.563.5,1.5-.067,1.309.461,2.619.937,2.325.173-.107.222-.591.116-1.155-.225-1.2.251-1.289.657-.122.4,1.138.444,11.012.051,10.77-.16-.1-.291-.043-.291.124a.294.294,0,0,0,.281.3c.165,0,.275,1.131.266,2.743-.014,2.344-.075,2.693-.425,2.4-.552-.458-.523-.137.039.424a1.659,1.659,0,0,1,.333,1.383c-.064.514-.152.805-.2.647Zm-.1-10.809c-.091-.229-.16-.161-.173.173-.014.3.055.472.151.376a.58.58,0,0,0,.024-.55Zm-1.434-.287c-.091-.229-.16-.161-.173.173-.014.3.055.472.151.376a.58.58,0,0,0,.024-.55Zm-1.056-1.22c0-.07-.129-.206-.287-.3s-.287-.041-.287.126a.3.3,0,0,0,.287.3C66.465,61.194,66.594,61.137,66.594,61.068ZM66.02,59.76a.3.3,0,0,0-.3-.287c-.167,0-.224.129-.126.287s.234.287.3.287S66.02,59.918,66.02,59.76Zm-4.3-5.736a.3.3,0,0,0-.3-.287c-.167,0-.224.129-.126.287s.234.287.3.287S61.718,54.182,61.718,54.024Zm2.516-.341a.812.812,0,0,0-.454-.454c-.21-.07-.274.061-.166.341.2.521.793.63.621.114ZM18.984,68.7c-.561-.254-.67-.663-.8-3-.084-1.509.006-2.125.4-2.725.447-.688.45-.731.024-.381-.443.363-.48.187-.48-2.272,0-2.1.1-2.779.486-3.2.457-.5.457-.526,0-.35-.787.3-.625-1.554.254-2.908,1.089-1.68,2.146-2.174,5.011-2.344l2.452-.145.018,1.4c.01.769.068,1.87.129,2.446.1.946.167,1.017.685.741.369-.2.446-.348.215-.425-.427-.142-.478-1.111-.071-1.362.158-.1.287.024.287.27s.121.447.269.447.25-.258.226-.574-.131-.574-.238-.574-.273-.311-.368-.69-.252-.9-.349-1.147c-.153-.4.177-.457,2.58-.457,2.711,0,2.944.083,2.773.981-.027.145.151.1.4-.107.385-.319.446-.266.446.382,0,.414.144.752.32.752s.254-.253.17-.574-.033-.574.11-.574a.259.259,0,0,1,.26.256c0,.141.226.335.5.431.305.107.193-.1-.287-.529a3.5,3.5,0,0,1-.789-.862,5.7,5.7,0,0,1,1.864-.157c1.466,0,1.864.092,1.864.43a.422.422,0,0,0,.41.43,1.527,1.527,0,0,1,.86.451c.248.248.451.323.451.167a2.892,2.892,0,0,1,.192-.785c.131-.341.085-.435-.143-.293-.185.114-.336.072-.336-.093,0-.195,1.348-.3,3.835-.288,3.66.011,3.849.04,4.139.642l.3.63.02-.645c.017-.605.143-.645,2.007-.645,1.843,0,1.994.047,2.079.645.111.782.675.709.642-.083-.027-.65.181-.708.725-.2.309.287.346.287.184,0-.118-.208-.045-.355.173-.349.472.012,1.379.687,1.38,1.026,0,.542,1.429,1.9,1.836,1.74.344-.132.358-.293.081-.885-.187-.4-.381-.6-.432-.455s-.265.111-.475-.081c-.317-.291-.306-.435.065-.852.5-.556.933-.657.933-.215,0,.158-.194.287-.43.287s-.43.125-.43.278.193.2.43.113c.272-.1.43,0,.43.3,0,.253.1.471.215.483s.441.065.717.118.5-.022.5-.165.283-.261.628-.261c.615,0,.616.009.072.431s-.54.425-.007.238c.379-.133.485-.089.342.143a.808.808,0,0,1-.621.336.423.423,0,0,0-.413.43c0,.524.328.552.845.072.309-.287.346-.287.184,0-.111.2-.066.359.1.359s.3.2.3.447.1.384.229.306a.741.741,0,0,1,.645.122c.327.207.281.264-.212.268a1.066,1.066,0,0,1-.783-.245A2.077,2.077,0,0,0,58,55.359c-.616-.123-.866-.338-.866-.745s-.135-.52-.438-.4c-.36.138-.373.247-.072.614.318.388.272.422-.351.257a8.636,8.636,0,0,0-1.761-.193c-.878,0-1.074-.12-1.227-.733-.1-.4-.3-.655-.449-.564a.5.5,0,0,0-.1.585c.089.232.034.421-.123.421s-.352-.258-.434-.574c-.217-.832-.777-.7-.777.178v.752l-2.653-.18c-1.459-.1-2.882-.187-3.161-.2-.314-.009-.43-.146-.3-.357s.047-.214-.254.03c-.533.432-2.848.384-3.165-.066-.148-.21-.287-.195-.445.05s-1.019.347-2.653.331a50.331,50.331,0,0,0-7.8.508c-.351.213-.245-.119.17-.534a.858.858,0,0,0,.164-.953c-.208-.532-.223-.527-.242.078s-.594.969-.594.385c0-.143-.258-.192-.574-.11s-.574.278-.574.434.194.21.43.119.43-.005.43.211-.907.732-2.016,1.167c-1.621.636-2.1.722-2.438.44-.27-.224-.422-.24-.422-.045a.658.658,0,0,0,.3.489c.166.1-.183.533-.789.973a10.509,10.509,0,0,0-1.477,1.264c-.215.261-.538.391-.717.289s-.235-.085-.123.039-.112.637-.5,1.141a21.51,21.51,0,0,0-2.4,4.96,1.721,1.721,0,0,1-.023.506,15.841,15.841,0,0,0-.058,1.649,9.36,9.36,0,0,1-.047,1.342l-.478-.215ZM20.7,61.481c.248-.463.218-.574-.154-.574-.437,0-1.28-.642-1.28-.974,0-.085.166-.091.369-.014.242.093.391-.149.433-.7.05-.66-.045-.826-.44-.769-.465.068-.651.6-.677,1.936a2.52,2.52,0,0,0,1.238,1.645c.113.013.343-.234.512-.55Zm2.043-3.518c-.283-.281-.316-.248-.161.161.108.283.268.442.356.354s0-.32-.2-.514Zm1.024-1.953c.2-.582.349-.758.359-.433.009.3.1.469.2.371a.675.675,0,0,0,.011-.616c-.124-.323-.339-.374-.824-.194s-.659.472-.666,1.145c-.012,1.148.481,1,.926-.273Zm2.1-.392c0-.07-.129-.206-.287-.3s-.287-.041-.287.126a.3.3,0,0,0,.287.3C25.738,55.745,25.867,55.688,25.867,55.618Zm.287-.734a.3.3,0,0,0-.3-.287c-.167,0-.224.129-.126.287s.234.287.3.287S26.154,55.042,26.154,54.885Zm9.465-1.369c0-.246-.037-.394-.081-.328s-.257.348-.471.628c-.339.443-.329.485.081.328a.75.75,0,0,0,.471-.628Zm-9.608-1.5c.1-.158.041-.287-.126-.287a.3.3,0,0,0-.3.287c0,.158.057.287.126.287S25.913,52.174,26.011,52.016ZM54.284,68.2c.014-.334.082-.4.173-.173a.573.573,0,0,1-.024.55c-.1.1-.163-.074-.151-.376Zm4.566-2.271c0-.237.051-.43.113-.43s.187.194.278.43.04.43-.113.43-.278-.194-.278-.43Zm5.163-6.883c-.4-.752-.2-1.316.3-.821.367.367.6,1.537.307,1.537-.122,0-.394-.322-.605-.717Zm-1.793-1.4c-.642-.487-.638-.748.01-.748.321,0,.512.214.512.574,0,.315,0,.57-.01.564Zm-1.928-2.171c-.232-.147-.347-.341-.256-.433s.329.031.529.271c.414.5.334.546-.273.162Z" transform="translate(-18.102 -51.37)"/>
  </g>
</svg>
