<svg xmlns="http://www.w3.org/2000/svg" width="52.34" height="55.033" viewBox="0 0 52.34 55.033">
  <defs>
    <style>
      .cls-1 {
        fill: #898989;
        stroke: #707070;
        stroke-linecap: round;
      }
    </style>
  </defs>
  <g id="icone_fb" transform="translate(0.5 0.53)">
    <path id="path152" class="cls-1" d="M27.507,109.394a.777.777,0,0,0-.336-.59c-.226-.14-.276-.051-.152.27.221.576-.308.617-1.018.078a1.794,1.794,0,0,1-.511-1.353c-.007-.8-.061-.883-.3-.47-.43.738-.716.621-1.253-.512-.395-.832-.469-1.782-.413-5.293.053-3.365.14-4.181.405-3.818a.866.866,0,0,0,.933.306c.417-.109.551-.042.449.225a1.241,1.241,0,0,0,.138.888c.246.44.28.414.254-.2a5.106,5.106,0,0,1,.189-1.423c.175-.573.153-.63-.111-.287s-.3.235-.166-.516c.093-.542.051-.877-.1-.784a.32.32,0,0,1-.435-.117.535.535,0,0,0-.622-.106.609.609,0,0,1-.7-.228c-.322-.509-.343-3.5-.023-3.3.131.081.239-.035.239-.257s-.108-.339-.239-.257a11.645,11.645,0,0,1-.239-3.43c0-2.524.1-3.612.343-3.693.262-.087.266-.314.017-.956-.5-1.282-.342-9.93.181-10.1.24-.08.32-.005.2.188-.13.21-.03.256.287.134.422-.162.43-.227.062-.5-.794-.585-1.12-1.618-1.058-3.345a7.606,7.606,0,0,1,.447-2.466c.34-.655.334-.7-.047-.383s-.432.036-.432-2.307c0-2.016.109-2.786.449-3.162s.365-.548.1-.712c-.223-.138-.276-.1-.145.115.113.182.068.331-.1.331s-.3-.3-.3-.674c0-.93.58-2.511.858-2.339.126.078.3-.148.394-.5.278-1.078,1.783-1.7,4.5-1.862l2.45-.145.011,1.4c.006.769.065,1.87.131,2.446.1.893.193,1.007.622.779.56-.3.649-.7.215-.965-.343-.212-.382-.717-.055-.717.127,0,.36.355.517.789.283.78.286.777.333-.287.026-.592-.063-1.076-.2-1.076s-.325-.311-.42-.69-.254-.9-.353-1.159c-.16-.416.131-.464,2.569-.423a10.361,10.361,0,0,1,2.726.227c-.074.6.1.859.476.715.3-.115.43.02.43.439,0,.673.29.773.791.272.452-.452,1.354.251.949.739-.19.229-.113.331.251.331.595,0,.467-.677-.224-1.2a.526.526,0,0,1-.218-.642c.131-.211.045-.267-.243-.156-.245.094-.445.294-.445.444s-.143.185-.317.077c-.221-.137-.2-.272.072-.447.325-.21.323-.294-.017-.512-.268-.173.244-.266,1.506-.276,1.493-.012,1.912.077,1.912.4a.416.416,0,0,0,.41.42,1.368,1.368,0,0,1,.8.391c.33.33.442.281.722-.312s.261-.676-.083-.543c-.228.088-.415.031-.415-.125,0-.176,1.464-.267,3.846-.239,3.607.043,3.864.083,4.139.652.293.605.294.605.313-.039.016-.518.185-.645.859-.645.558,0,.883.168.971.5.125.478.133.478.164,0,.024-.36.278-.5.9-.5.667,0,.932.17,1.147.734.314.827.985.657.762-.193-.163-.625.1-.7.65-.183.309.287.346.287.184,0-.487-.862.732-.266,1.466.717,1.071,1.434,1.424,1.793,1.766,1.793.158,0,.544.327.858.727.682.867.969.574.432-.44-.209-.394-.382-.592-.384-.438-.005.335-.695-.647-.951-1.354-.1-.276-.057-.5.1-.5a.306.306,0,0,1,.278.327c0,.334.83,1.082,1.219,1.1.118.005.215-.184.215-.421s.261-.43.628-.43c.616,0,.618.008.072.454-.5.405-.5.436-.04.29.321-.1.446-.049.33.14a.481.481,0,0,1-.565.158.44.44,0,0,0-.545.291c-.249.648-.214.716.335.66,1.092-.111,1.311-.011.942.434-.286.345-.251.4.2.312.566-.109,1.288.193,1.245.52-.077.575.02.757.406.757.237,0,.43.143.43.318s.194.239.43.143l.864-.349c.3-.122.384-.045.27.25a.929.929,0,0,0,.276.865c.395.395.394.457-.007.611-.69.265-.764.215-.6-.4.082-.315.048-.637-.077-.714s-.3.139-.39.48c-.186.71.633,1.52,1.087,1.075s.706-.307.591.29c-.073.38.018.509.287.406a1.11,1.11,0,0,0,.515-.772c.067-.342.139-.094.16.55A3.276,3.276,0,0,0,70.17,65.5a1.019,1.019,0,0,1,.254.406c.183.906.51,1.446.783,1.293.191-.107.177-.022-.033.2-.453.488-.468.947-.023.672.228-.141.275-.048.144.291-.252.656.281,1.624.787,1.43.466-.179.386-1.151-.086-1.045-.176.039-.294-.025-.261-.143.136-.493-.375-2.653-.627-2.653-.151,0-.19-.219-.087-.487.117-.3.23-.359.3-.143a.5.5,0,0,0,.413.344c.18,0,.157-.17-.059-.43-.474-.571-.86-.545-.86.057,0,.366-.082.406-.328.159-.533-.533.219-2.056.923-1.872.417.109.552,0,.552-.463,0-.633-.411-.816-.717-.32a.652.652,0,0,1-.492.287c-.173,0-.1-.236.16-.525.593-.655.6-.91.027-.91-.246,0-.368-.128-.271-.285a.9.9,0,0,0-.14-.789c-.278-.443-.3-.429-.147.117.093.342.034.7-.13.806s-.3-.088-.3-.463c0-.5-.076-.571-.344-.3-.426.426-.8.445-.8.04,0-.167.161-.207.359-.088.286.172.286.126,0-.225-.2-.242-.26-.536-.143-.654s-.132-.058-.553.134c-.461.21-.706.505-.615.743s-.036.395-.31.395c-.652,0-.9-.11-.819-.359.039-.118.1-.376.143-.574a.975.975,0,0,1,.276-.512c.278-.209-.061-1.424-.4-1.424-.149,0-.191.128-.094.285a.859.859,0,0,1-.082.745c-.2.349-.264.229-.285-.494-.015-.525-.165-1-.333-1.057a.239.239,0,0,1-.144-.364c.089-.144-.047-.262-.3-.262s-.384-.129-.287-.287.041-.287-.126-.287a.3.3,0,0,1-.3-.287c0-.579.747-.259,1.936.827.67.613,1.219.984,1.219.825,0-.179.147-.167.385.03.212.176.486.224.609.107s.127.1.007.491c-.2.662-.188.675.269.217.546-.546.356-1.121-.331-1a.537.537,0,0,1-.589-.319c-.085-.243-.012-.32.185-.2.178.11.324.071.324-.087,0-.526-.535-.626-.8-.15-.233.417-.333.394-.9-.209l-.634-.678,2.072-.085c1.362-.056,2.144.03,2.28.252a.384.384,0,0,0,.521.144,1.131,1.131,0,0,1,.919.131c.515.276.584.509.456,1.555a2.594,2.594,0,0,0,.279,1.845c.6.853,1.055.459.834-.719-.1-.548-.064-.971.09-.971.377,0,.9,1.61.9,2.768,0,.933-.407,1.319-.643.61-.064-.193-.194-.059-.287.3-.142.542-.079.621.38.475.524-.166.55.012.55,3.734,0,2.227-.11,3.84-.257,3.75s-.328.027-.416.255c-.1.272-.02.361.246.259.333-.128.4.346.37,2.668-.028,2.288-.091,2.673-.331,2.034-.163-.434-.383-.789-.488-.789-.352,0,.086,1.479.484,1.632.227.087.392.568.392,1.141,0,.6-.116.919-.292.81a.308.308,0,0,1-.162-.39c.071-.115-.134-.374-.456-.575s-.5-.227-.395-.057.124.308.043.308a2.975,2.975,0,0,1-.622-1c-.464-.979-.986-1.114-.986-.255,0,.247.138.345.324.23s.269-.045.182.2a1.344,1.344,0,0,0,.119.9c.188.365.137.553-.182.676-.711.273-.509.615.274.465.612-.117.717-.031.717.589,0,.4-.161.792-.359.872-.274.111-.263.212.049.43.347.242.333.4-.095,1.051-.276.422-.43.838-.343.926.272.272,1.068-.566.916-.963-.2-.522.349-.8.817-.408a2.55,2.55,0,0,1,.366,1.662c-.012.737-.071,1.192-.131,1.01-.189-.566-.879-.074-.725.516s.542.74.7.261c.054-.162.123.48.155,1.425a3.933,3.933,0,0,1-.217,1.888.653.653,0,0,0-.27.511c0,.205.115.17.282-.089.184-.285.273,1.707.263,5.88-.011,4.751-.092,6.15-.326,5.665-.343-.712-.957-.9-.693-.215.213.554.052.545-.523-.03-.38-.38-.4-.54-.092-.915s.3-.414-.039-.209c-.305.184-.361.126-.224-.232.1-.262.051-.477-.112-.477s-.216-.128-.12-.284-.02-.209-.294-.1c-.333.128-.371.241-.13.39.4.248.238,1.313-.189,1.232-.545-.1-.3.85.256,1,.362.095.437.214.218.349-.24.148-.207.331.119.657.712.712.527.894-.337.332-.772-.5-.78-.5-.359.039.535.686.927.975,1.142.842s.153.984-.11,1.789c-.116.355-.4.645-.638.645s-.354-.12-.263-.267a.333.333,0,0,0-.131-.45.324.324,0,0,1-.143-.43.307.307,0,0,0-.119-.415c-.458-.283-.619.328-.182.69s.284,1.271-.16,1c-.141-.087-.257.05-.257.305,0,.279.143.39.359.279.2-.1.039.074-.35.391-.814.662-1.151.567-1.164-.328-.009-.614-.019-.616-.43-.072-.274.362-.318.621-.125.74.468.29.007,1.13-.511.931-.3-.115-.383-.061-.246.162a.784.784,0,0,0,.6.336.568.568,0,0,1,.508.356c.083.25.282.193.667-.192s.441-.584.195-.666c-.27-.09-.259-.212.044-.515.517-.517.96-.634,1.032-.274a3.771,3.771,0,0,0,.322.782c.195.364.166.457-.108.352a1.194,1.194,0,0,0-.939.315c-.311.252-.414.382-.229.29s.4.059.469.337c.125.478.134.478.165,0,.041-.623.486-.656.718-.054.095.247.316.36.492.251.233-.144.23-.253-.012-.4s-.205-.309.113-.573c.371-.308.444-.288.444.121,0,.269.161.435.359.369s.317-.459.262-.917c-.063-.518.012-.729.215-.6a.813.813,0,0,1,.312.632c0,.556-1.01,1.863-1.253,1.62-.1-.1-.181-.024-.181.168,0,.767-1.966,1.2-5.284,1.161-3.161-.037-3.248-.055-3.139-.654.062-.339.035-.454-.059-.256s-.289.287-.433.2-.262.024-.262.25c0,.342-.922.419-5.455.451l-5.455.039-.277-.729a5.126,5.126,0,0,1-.3-1.366c-.318-10.136-.307-11.466.1-11.31.292.112.415-.047.415-.535,0-.732-.367-.945-.579-.336-.069.2-.149-.757-.178-2.121l-.053-2.48.728.042c.4.023.728.135.728.248s.207.127.46.029c.351-.135.25-.265-.43-.551-.49-.206-.892-.542-.895-.747,0-.267-.083-.25-.282.058-.229.355-.279.327-.282-.158A1.425,1.425,0,0,1,52.183,89c.205-.205.205-.54,0-1.08-.67-1.763-.585-1.822,2.642-1.832a32.131,32.131,0,0,0,3.232-.107c.161-.053.611.2,1,.561.456.425.748.537.821.317.063-.188-.179-.562-.537-.832s-.535-.562-.393-.65c.5-.312,1.164.526,1.353,1.718.162,1.019.123,1.184-.249,1.041s-.395-.062-.08.654a5.025,5.025,0,0,0,.515.966,4,4,0,0,1,.436.98c.31.917,1,1.345,1,.621,0-.25-.125-.454-.278-.454s-.213-.168-.134-.374a2.943,2.943,0,0,0-.3-1.447,2.526,2.526,0,0,1-.291-1.327.327.327,0,0,0-.139-.437.324.324,0,0,1-.144-.429c.3-.479-.516-1.689-1.37-2.043-.767-.318-.8-.384-.321-.573.5-.2.506-.215.026-.234-.285-.011-.438-.151-.339-.312a.33.33,0,0,1,.447-.126c.147.091.267.028.267-.139a.361.361,0,0,0-.4-.3c-.314,0-.366-.407-.249-1.936a11.337,11.337,0,0,1,.358-2.366c.491-1,.043-1.147-3.617-1.147h-3.57l.052-1.721c.053-1.775.318-2.087,1.033-1.219.387.47.4.465.227-.072-.1-.315-.259-.929-.346-1.362-.169-.838-.5-1.022-.782-.43-.093.2-.1-.029-.008-.5a2.3,2.3,0,0,1,.63-1.219c.986-.753,3.036-.212,2.725.72-.141.424.816.139,1.144-.34.12-.175.213-.037.215.318a.848.848,0,0,0,.578.808c.315.1.574.351.574.558a1.179,1.179,0,0,0,.43.733c.3.247.43.258.43.035a.3.3,0,0,0-.278-.322c-.153,0-.207-.184-.121-.408.132-.344.243-.334.7.059.406.347.455.524.193.691s-.276.225.006.228c.58.007.794-.12.713-.426-.042-.158.111-.048.339.243a1.285,1.285,0,0,1,.268,1c-.114.367-.045.348.307-.083a2,2,0,0,0,.454-.987c0-.327.1-.3.438.127.433.551.437.551.359,0-.128-.9-.862-1.538-1.442-1.248-.326.163-.5.141-.5-.062,0-.173-.114-.243-.254-.157s-.321-.1-.4-.413a.746.746,0,0,0-.637-.57c-.316,0-.43.152-.323.43.246.642-.1.521-.86-.3s-.835-1.035-.32-.968c1.394.181,1.649,0,1.649-1.188a4.653,4.653,0,0,1,.315-1.755c.229-.429.229-.536,0-.394-.179.111-.315,0-.315-.265s.161-.439.359-.413c.685.089,1.076-.023,1.076-.308,0-.158-.29-.289-.645-.291s-.516-.1-.359-.215a.86.86,0,0,0,0-1.282c-.162-.119-.068-.213.215-.215a.49.49,0,0,1,.5.552.956.956,0,0,0,.287.734c.158.1.287.033.287-.143s.134-.238.3-.136a.684.684,0,0,1,.123.738c-.221.7.391,2.617.761,2.388.151-.094.2-.407.109-.7a.65.65,0,0,1,.128-.708c.176-.109.226,0,.124.263-.094.245-.028.445.147.445a.321.321,0,0,0,.317-.322c0-.222.133-.212.43.035a1.146,1.146,0,0,1,.43.644c0,.16-.19.129-.43-.07-.359-.3-.43-.259-.43.235a1.011,1.011,0,0,0,.287.769c.158.1.287.025.287-.162,0-.254.107-.25.427.016.235.195.356.469.27.609s-.045.254.092.254.234.637.217,1.416.072,1.352.2,1.274.23,0,.23.178.129.241.287.143.287.246.287.875c0,1,.036,1.043.789.857,1.151-.284,1.328-.582.814-1.365-.252-.384-.364-.792-.25-.907s.018-.328-.214-.475c-.251-.159-.285-.269-.084-.271s.591.318.9.712c.487.619.589.652.748.238a.764.764,0,0,0-.768-.95c-.339-.007-.251-1.152.089-1.152.167,0,.219-.138.115-.306s-.258-.237-.341-.153-.426.007-.76-.171c-.536-.286-.564-.27-.235.128.267.324.282.507.053.649-.4.25-.433.219-1.247-1.39-.469-.926-.564-1.338-.31-1.338a.607.607,0,0,0,.513-.359c.109-.27.219-.252.444.072s.176.485-.193.65c-.306.137-.194.162.3.066.749-.146,1.144.265.47.49-.19.063-.111.275.2.526s.431.277.3.061a.718.718,0,0,1-.019-.676c.137-.222.267-.2.432.063.129.209.32.3.424.193s0-.464-.241-.8c-.268-.382-.472-.482-.544-.267-.079.236-.282.179-.643-.182-.334-.334-.408-.567-.2-.636.179-.06.321-.388.316-.73-.008-.61-.015-.611-.338-.048-.733,1.278-2.019,1.543-1.793.369.062-.324.036-.512-.059-.418-.315.315-1.244-.393-1.244-.948a.935.935,0,0,0-.268-.712c-.166-.1-.168.184,0,.753a2.509,2.509,0,0,1,.164,1.019c-.155.155-.773-1.465-.826-2.163-.026-.343-.145-.624-.264-.624s-.134-.216-.033-.48c.139-.361.067-.435-.287-.3-.259.1-.539.071-.621-.063s.171-.324.564-.423.715-.3.715-.454c0-.174-.262-.175-.717,0-.7.264-.812.137-.693-.757.014-.1-.148-.292-.359-.426-.308-.2-.3-.245.047-.254.237-.006.025-.211-.47-.455a1.788,1.788,0,0,1-1.072-1.3c-.1-.485-.3-.78-.467-.677a.332.332,0,0,0-.13.449c.091.147.028.267-.139.267a.292.292,0,0,1-.3-.277c0-.152-.226-.4-.5-.546-.456-.245-.492-.12-.391,1.352.061.892.168,1.46.239,1.263a.628.628,0,0,1,.566-.359c.323,0,.39.187.257.717-.1.413-.056.717.112.717s.292.194.292.43c0,.268-.271.43-.717.43-.394,0-.719-.161-.721-.359,0-.256-.077-.245-.258.042-.2.322-.281.293-.393-.143-.127-.495-.142-.5-.172-.027-.049.764-3.1.64-3.347-.135-.227-.716-.806-.669-.618.05.135.515.02.57-1.092.528-.932-.035-1.276-.176-1.378-.565s-.35-.491-1.022-.406l-.886.112.471-.911c.438-.847.438-.883,0-.517-.28.232-.475.268-.475.089a.644.644,0,0,1,.287-.482.8.8,0,0,0,.287-.626c0-.351-.087-.376-.4-.116s-.391.231-.359-.149a.6.6,0,0,0-.317-.608c-.209-.074-.359.112-.359.447a.938.938,0,0,1-.215.694c-.118.066-.05.079.153.029.377-.093,1.031,1.212.8,1.591a4.681,4.681,0,0,0-.276,1.051c-.137.79-.12.807.272.284.408-.544.417-.542.417.072,0,.392-.177.628-.472.628-.761,0-2.852,1.892-3.469,3.138-.312.632-.646,1.07-.742.975s-.146.2-.112.653c.04.533-.065.8-.3.755-.2-.039-.359.057-.359.215a.3.3,0,0,0,.31.287c.2,0,.235.324.1.932a6.71,6.71,0,0,0-.185,1.417.63.63,0,0,1-.455.612c-.427.113-.424.131.031.161.424.027.449.1.143.433-.2.22-.487.329-.629.242s-.163,0-.046.187c.163.264.308.266.617.01.343-.284.4.04.351,2.137L42.6,77.715H39.786c-2.721,0-2.815.021-2.834.645s-.026.63-.351-.072a3.537,3.537,0,0,0-.511-.86,1.871,1.871,0,0,1-.368-.574c-.1-.237-.141-.075-.083.359.106.8-.22,1.088-.486.43-.1-.244-.152-.22-.167.074a1.146,1.146,0,0,0,.579.809c.563.351.569.4.1.739a.747.747,0,0,0-.337.769c.124.313.165.3.183-.066a.879.879,0,0,1,1.2-.66,12.646,12.646,0,0,1,.261,3.443v3.281l.86.036c.473.02.987.052,1.142.072.429.055,1.16,1.22.928,1.478-.113.125-.053.14.134.033a.409.409,0,0,1,.546.141c.151.244-.12.291-1,.173-.849-.114-1.173-.063-1.093.171.062.183.424.347.8.364,1.6.072,1.753.12,1.6.51-.1.273.01.355.367.262.652-.171,1.068.43.459.664a.734.734,0,0,0-.448.626c0,.378.065.365.387-.074.213-.291.535-.437.717-.325.357.221.471,2.007.115,1.8a1.241,1.241,0,0,0-.789.106c-.524.211-.512.234.143.274.394.024.556.108.359.187a.9.9,0,0,0-.379.766c-.019.579-.035.584-.237.069-.194-.494-.236-.5-.4-.072-.1.265-.325.481-.5.481s-.221-.149-.108-.331c.126-.2.079-.253-.125-.127a2.525,2.525,0,0,0-.653.833c-.252.49-.247.557.023.3.346-.325,1.445-.208,1.445.154,0,.106.268.192.6.192.467,0,.568-.142.469-.662-.07-.364-.006-.737.142-.828s.229.249.177.8c-.076.8-.215.968-.809,1a1.177,1.177,0,0,1-.928-.287c-.148-.228-.212-.213-.215.051,0,.209-.15.285-.333.172-.234-.145-.269.035-.12.628.263,1.05.418,1.2.722.71.19-.308.272-.275.381.152.128.5.142.5.172-.041a.62.62,0,0,1,.6-.627c.555-.042.57.14.554,6.564-.009,3.634.047,6.67.124,6.748a42.193,42.193,0,0,0,4.752.1c2.789-.024,4.611.072,4.611.239s-2.6.271-6.718.264c-5.59-.01-6.692-.079-6.566-.408.189-.494-.247-.516-.73-.037-.29.288-.321.245-.157-.215.345-.967.465-1.08.721-.676.19.3.248.27.251-.132s-.139-.476-.569-.339c-.456.145-.581.046-.608-.483a5.605,5.605,0,0,1,.015-.925.522.522,0,0,0-.27-.458c-.388-.24-.48-1.86-.165-2.938.2-.684.149-.789-.375-.789-.686,0-.77.286-.246.833.293.306.189.339-.571.179-.922-.194-.928-.188-.744.731.15.748.107.882-.218.693-.222-.129-.308-.128-.191,0a.445.445,0,0,1-.039.548c-.441.55-.682,2.178-.323,2.178.18,0,.233-.151.119-.336-.14-.227-.05-.275.279-.149.543.208,1.145-.921.871-1.635a.531.531,0,0,1,.2-.62c.265-.164.3.08.154,1.009-.163,1.02-.124,1.2.234,1.06.631-.242.86.344.353.9a1.9,1.9,0,0,0-.462.771c-.076.916-.371,1.179-1.354,1.207-.576.017-.918-.055-.76-.158.414-.271.737-1.765.381-1.765a.241.241,0,0,0-.221.323.445.445,0,0,1-.317.464c-.3.11-.344-.076-.19-.825.2-.953.192-.958-.273-.32-.259.355-.391.776-.293.935.422.683-.161,1.374-1.159,1.374-1.018,0-1.141-.187-1-1.52.034-.315-.042-.472-.169-.348a1.864,1.864,0,0,0-.243,1c-.013.749-.074.78-1.662.819-1.2.031-1.649-.062-1.649-.342Zm4.589-.7a.921.921,0,0,0-.254-.7c-.294-.182-.571.668-.392,1.2C31.622,109.706,32.1,109.336,32.1,108.691Zm3.729.574a.3.3,0,0,0-.3-.287c-.167,0-.224.129-.126.287s.234.287.3.287S35.825,109.422,35.825,109.264Zm-2.581-.287c0-.158-.057-.287-.126-.287s-.206.129-.3.287-.041.287.126.287A.3.3,0,0,0,33.244,108.978Zm8.891,0a.287.287,0,1,0-.287.287A.288.288,0,0,0,42.135,108.978Zm-13.471-.557c.014.636.453-.234.7-1.379.176-.823.127-.932-.414-.932-.353,0-.535.127-.428.3a.619.619,0,0,1-.087.645,3.8,3.8,0,0,0-.459,1.206c-.177.811-.162.828.247.3.315-.4.437-.443.443-.143Zm40.145.27a.3.3,0,0,0-.3-.287c-.167,0-.224.129-.126.287s.234.287.3.287S68.808,108.849,68.808,108.691Zm-4.3-1.253a.83.83,0,0,0-.336-.641q-.336-.208-.156.261a.553.553,0,0,1-.095.638.774.774,0,0,0-.274.6c0,.386.048.386.43,0a1.491,1.491,0,0,0,.43-.864Zm-31.72.318a2.6,2.6,0,0,0,.338-1.5c-.019-.922.086-1.16.55-1.248.946-.179,1.11-.7,1.363-4.323.044-.635-.073-1.028-.335-1.115-.289-.1-.347.013-.2.384a.6.6,0,0,1-.151.734c-.261.161-.268.315-.027.6s.187.692-.233,1.628a2.827,2.827,0,0,0-.366,1.546c.121.2.008.237-.311.114a3.026,3.026,0,0,0-.874-.192c-.409,0-.444-1.328-.051-1.95a.987.987,0,0,0,.079-.78.5.5,0,0,1,.132-.585c.19-.117.181-.308-.026-.557s-.212-.442-.035-.552c.154-.1.361.08.459.39.235.74,1.01.445,1.01-.385a1.5,1.5,0,0,1,.281-.91c.184-.184.179-.65-.012-1.344a2.17,2.17,0,0,1,.006-1.622c.447-.834.344-1.107-.17-.453-.447.568-.449.568-.269-.038.118-.4.038-.666-.228-.769-.293-.112-.5.2-.726,1.1-.414,1.646-.415,1.644.3,1.417.535-.17.563-.14.217.232-.507.543-1.025.349-1.214-.454a4.355,4.355,0,0,1,.256-2.517c.137-.221.094-.273-.116-.143-.182.113-.331.072-.331-.09s-.215-.212-.477-.112c-.321.123-.409.073-.27-.152.114-.185.146-.336.07-.336a2.427,2.427,0,0,1-.541-.155c-.336-.129-.365.169-.171,1.782.163,1.351.135,2.027-.092,2.234s-.278.162-.154-.19.049-.441-.236-.331c-.224.086-.4.241-.382.344a5.126,5.126,0,0,1-.009.69c-.047.7-.608.633-.608-.072,0-.46-.191-.574-.969-.574-.942,0-1.8-.579-1.419-.959.1-.1.064-.189-.089-.189-.353,0-.422,1.955-.076,2.169.5.306.286,1.057-.243.873-.418-.146-.409-.1.055.256.5.385.421.563-.2.465-.294-.046-.263.309.072.826.235.364.279.35.282-.091,0-.409.143-.477.647-.317.57.181.6.151.255-.264a1.072,1.072,0,0,1-.193-.974c.145-.375.339-.1.753,1.071.306.867.437,1.616.291,1.665-.162.054-.164.445,0,1,.328,1.142.328,1.136-.053.9-.227-.141-.23-.036-.01.376.168.314.213.673.1.8s-.053.14.134.033a.387.387,0,0,1,.522.1c.293.474.717.03.717-.751,0-.394.114-.646.254-.56s.321-.1.4-.413.018-.57-.141-.57-.218-.189-.13-.419a5.214,5.214,0,0,0-.232-1.935c-.409-1.577-.176-2.415.591-2.12a.39.39,0,0,0,.5-.279c.082-.261.112-.228.079.088a.441.441,0,0,1-.527.427c-.432-.073-.436,0-.042.785a1.773,1.773,0,0,1,.264,1.136.332.332,0,0,0,.124.451c.16.1.291.022.291-.171s.082-.27.182-.169-.042.525-.317.944-.371.682-.215.586c.287-.178,1.023.483.794.712a6.422,6.422,0,0,0-.308,1.479c-.16,1.18-.123,1.332.286,1.175a.475.475,0,0,0,.314-.589c-.087-.226-.03-.33.127-.233.418.258.351.535-.3,1.235-.322.345-.467.628-.322.628a1.183,1.183,0,0,0,.63-.442c.505-.609,1.013-.077.6.63-.22.378-.31.41-.317.114s-.1-.323-.3-.12a.79.79,0,0,0-.113.774c.22.573.338.59.811.117Zm.6-7.669c.1-.158.234-.287.3-.287s.126.129.126.287a.3.3,0,0,1-.3.287C33.346,100.373,33.29,100.244,33.387,100.086Zm-.672-1.147c0-.394.065-.556.145-.359a1.107,1.107,0,0,1,0,.717C32.78,99.495,32.715,99.334,32.715,98.939Zm26.514,8.367c.31-.685.362-1.484.1-1.484-.125,0-.282-.161-.35-.359s-.092-.142-.053.122c.042.29-.076.424-.3.339-.537-.206-.783.363-.572,1.322.2.895.787.924,1.179.059Zm.688.524a.3.3,0,0,0-.3-.287c-.167,0-.224.129-.126.287s.234.287.3.287S59.917,107.988,59.917,107.83Zm6.506-.341c-.092-.229-.16-.161-.173.173-.013.3.055.472.151.376a.577.577,0,0,0,.023-.55Zm-24.931-.161a3.032,3.032,0,0,1-.585-1.076q-.14-.575-.173.335c-.03.826.226,1.158.943,1.22.143.013.059-.2-.185-.479Zm-14.439-.256c.151-.394.109-.411-.256-.108-.5.413-.549.579-.181.579.141,0,.337-.212.437-.471Zm40.895.166c0-.148-.258-.269-.574-.269s-.574.1-.574.226.258.245.574.269.574-.078.574-.226Zm-.7-.625c.138.117.062-.038-.17-.344-.261-.345-.285-.475-.063-.342s.48-.055.7-.539c.27-.592.267-.8-.014-.975-.417-.258-.339-.849.188-1.414.306-.328.293-.487-.072-.89a2.1,2.1,0,0,1-.444-1.221,1.564,1.564,0,0,0-.4-1.066,1.317,1.317,0,0,1-.265-1.213c.1-.652.046-.821-.219-.657-.248.153-.3.08-.18-.242a2.145,2.145,0,0,0-.258-1.336,2.368,2.368,0,0,1-.259-1.43c.129-.406-.06-.732-.7-1.2-.788-.583-1.282-1.4-.587-.968.331.2.356.084.113-.55-.1-.25-.3-.454-.447-.454s-.182.148-.07.329c.142.23-.017.273-.529.145-.628-.158-.711-.1-.584.385.082.313.259.5.395.417s.336.208.445.649a2.278,2.278,0,0,0,.6,1.1c.222.164.373.422.337.574a4.611,4.611,0,0,0,.673,2.068c.17.355.222.732.116.838s0,.493.245.861.377.668.3.668a3.19,3.19,0,0,0,.417,1.219c.531,1.169.771,2.523.377,2.13-.1-.1-.387-.028-.629.167-.36.291-.4.283-.2-.044s.088-.362-.486-.218c-.722.181-1.568-.375-1.173-.771.1-.1.024-.189-.177-.189-.25,0-.307-.234-.18-.741.121-.481.081-.676-.112-.557-.279.173-.4-.283-.341-1.284q.026-.433-.133-.072a.728.728,0,0,1-.637.354c-.377,0-.4-.057-.09-.25s.316-.38.062-.856c-.421-.787-.688-.787-.438,0,.13.41.09.545-.124.413-.451-.279-.393.2.1.858a2.138,2.138,0,0,1,.43.942,2.852,2.852,0,0,0,.6,1.138c.529.672.544.788.143,1.081-.5.367-.6.982-.162.982.158,0,.287.263.287.585,0,.484.068.521.394.217a.769.769,0,0,0,.256-.728c-.076-.2,0-.36.179-.36s.319.226.322.5c0,.406.053.425.261.1.383-.605,1.185.282.976,1.08-.236.9.1,1.62.581,1.224a.541.541,0,0,1,.632-.1ZM64.984,95.019a.79.79,0,0,1-.191-.488c0-.18.134-.163.339.043.187.187.273.406.191.488a.247.247,0,0,1-.339-.043Zm6.405,11.664a.3.3,0,0,0-.3-.287c-.167,0-.224.129-.126.287s.234.287.3.287S71.39,106.841,71.39,106.683Zm-11.161-.89c-.253-.632-.276-.639-.293-.089a1.342,1.342,0,0,0,.173.789c.343.343.4,0,.12-.7Zm-32.721-.257c0-.315-.049-.574-.11-.574s-.177.258-.26.574-.033.574.11.574S27.507,105.851,27.507,105.536Zm13.01.143c.091-.237.04-.43-.113-.43s-.278.194-.278.43.051.43.113.43.187-.194.278-.43Zm24.275-.16c0-.325-.123-.514-.274-.421a.505.505,0,0,0-.113.591c.228.593.387.523.387-.17Zm.86-.3c0-.158-.129-.207-.287-.11a.628.628,0,0,0-.287.464c0,.158.129.207.287.11A.628.628,0,0,0,65.653,105.215Zm-27.931-.773c-.4-.4-.464-.405-.464-.029,0,.589.671,1.26.818.818a1,1,0,0,0-.355-.789Zm16.458.52c0-.315-.117-.574-.26-.574s-.192.258-.11.574.2.574.26.574S54.181,105.278,54.181,104.962Zm-12.137-.627c-.092-.229-.16-.161-.173.173-.013.3.055.472.151.376a.577.577,0,0,0,.023-.55Zm11.186-.287c-.092-.229-.16-.161-.173.173-.013.3.055.472.151.376a.577.577,0,0,0,.023-.55Zm6.11-.52c.134,0,.294.152.355.338.17.509.8,0,.8-.651,0-.447-.106-.512-.5-.309a1.3,1.3,0,0,1-.86.13c-.245-.088-.346.174-.319.827.027.673.076.765.163.311.068-.355.234-.645.367-.645Zm-26.239.287c.1-.158.048-.287-.11-.287a.628.628,0,0,0-.464.287c-.1.158-.048.287.11.287A.628.628,0,0,0,33.1,103.815Zm20.476-.477c-.347-.427-.34-.469.055-.321.3.112.457.007.463-.3.011-.61-.477-1.232-.806-1.028-.14.086-.254.028-.254-.129s.341-.262.757-.232c.457.033.812-.117.9-.376.112-.347.066-.361-.241-.072-.412.388-.956.494-.74.143.073-.118-.242-.242-.7-.275-.816-.059-.823-.047-.378.633.25.381.371.826.27.99-.179.289.74,1.787.964,1.572.062-.06-.067-.329-.287-.6Zm3.382.136c-.092-.229-.16-.161-.173.173-.013.3.055.472.151.376a.577.577,0,0,0,.023-.55Zm-16.908-.431c-.288-.633-.37-.678-.452-.249a.79.79,0,0,0,.286.767c.551.349.555.336.166-.518Zm32.849-.407c-.208-.8-.327-.662-.3.336.014.488.117.729.232.542a1.32,1.32,0,0,0,.066-.878Zm-10.248.333a.359.359,0,0,0-.49-.127c-.193.119-.163.267.083.419.46.284.67.134.406-.293Zm-34.857-.421a5.644,5.644,0,0,1,.1-1.076c.053-.21.042-.285-.024-.167a1.048,1.048,0,0,1-.742.224c-.56.008-.572.038-.12.3a1.014,1.014,0,0,1,.5.743c0,.368-.079.386-.43.094-.26-.216-.43-.239-.43-.059,0,.277.428.557.932.61.118.013.215-.289.215-.671Zm6.253-.3c.33-.725.121-1.066-.732-1.2-.487-.074-.45.178.116.8.442.488.442.525,0,.525-.261,0-.475.129-.475.287,0,.569.776.271,1.09-.42Zm2.065.133c0-.315-.121-.574-.269-.574s-.25.258-.226.574.145.574.269.574.226-.258.226-.574Zm23.4-.359A1.818,1.818,0,0,0,59.126,101a.635.635,0,0,1-.175-.683c.106-.171.015-.243-.212-.167-.243.082-.544-.21-.771-.746-.3-.705-.426-.8-.641-.455-.258.408-.306.369-.385-.316a2.337,2.337,0,0,0-1.372-1.124c-.123,0-.149.194-.058.43s0,.438-.224.448-.067.154.328.32c.534.225.607.341.287.459a2.351,2.351,0,0,0-.81.613c-.334.4-.363.378-.242-.19.16-.747-.232-.876-.5-.166-.249.65.35.963,1.214.635a1.812,1.812,0,0,1,.77-.19c.034.044.218.338.41.653.333.547.342.542.207-.094-.108-.509-.039-.629.291-.5a2.572,2.572,0,0,0,.588.166c.085,0-.006.194-.2.43-.293.353-.271.43.125.43.265,0,.4.129.305.287s.015.287.251.287a.778.778,0,0,1,.61.574c.246.774.625.728.6-.072Zm.981.072a.287.287,0,1,0-.287.287A.288.288,0,0,0,60.491,102.094Zm10.389-.924c-.342-.342-.688-.555-.77-.473s.121.438.451.792.676.567.77.473S71.222,101.512,70.88,101.17Zm-31.143.207c-.091-.237-.044-.43.1-.43.379,0,.009-.906-.62-1.517-.453-.441-.528-.449-.528-.062,0,.248-.29.567-.645.71l-.645.259.628.018a1.033,1.033,0,0,0,.806-.269c.272-.44.717-.341.717.16,0,.246-.118.374-.262.285-.3-.187-.257.39.072.917.312.5.573.449.373-.072Zm-2.922-.815a2.38,2.38,0,0,0-.588-1.073c-.323-.268-.4-.215-.4.275,0,.335.143.609.317.609s.246.185.16.412a.4.4,0,0,0,.184.534c.491.176.536.072.328-.757Zm33.428-.315c0-.07-.129-.206-.287-.3s-.287-.041-.287.126a.3.3,0,0,0,.287.3C70.113,100.373,70.242,100.316,70.242,100.247Zm-17.209-.43a.615.615,0,0,0-.287-.447c-.158-.1-.287.024-.287.27s.129.447.287.447A.28.28,0,0,0,53.034,99.817ZM70.628,98.5c-.093-.243-.231-.381-.307-.306s-.052.274.052.443c.283.458.448.369.254-.137ZM41.614,97.443c-.206-.206-.339-.223-.339-.043,0,.383.339.722.531.531.082-.082,0-.3-.191-.488Zm19.451.349a.3.3,0,0,0-.3-.287c-.167,0-.224.129-.126.287s.234.287.3.287S61.064,97.95,61.064,97.792ZM35.762,96.7c.24-.688.2-.808-.259-.843-.587-.044-.616.037-.358,1,.222.827.278.813.616-.157Zm17.989-.122c.164-.122.071-.216-.215-.218a.483.483,0,0,0-.5.474c0,.263.1.361.215.218A3.512,3.512,0,0,1,53.751,96.581Zm18.463-.864a1.622,1.622,0,0,1-.1-1.091c.1-.319.046-.563-.128-.563s-.306-.366-.306-.813a2.066,2.066,0,0,0-.171-.984c-.252-.252-1,.093-.822.38.268.433-.194,1.713-.543,1.5-.18-.108-.146.028.077.3.312.384.457.415.63.135.288-.467.364-.357.8,1.173.255.887.436,1.149.605.876a1.021,1.021,0,0,0-.042-.918Zm-34.382.227c0-.07-.129-.206-.287-.3s-.287-.041-.287.126a.3.3,0,0,0,.287.3C37.7,96.071,37.833,96.014,37.833,95.945ZM28.45,94.565c.1-.8.038-1.076-.257-1.076a.445.445,0,0,1-.4-.478c0-.263-.084-.394-.187-.291s-.357-.037-.565-.311c-.337-.444-.379-.394-.387.454a3.357,3.357,0,0,0,.748,1.944,3.561,3.561,0,0,0,.83.913,6.4,6.4,0,0,0,.215-1.155ZM66.8,95.676a1.516,1.516,0,0,0-.43-.465c-.352-.292-.43-.273-.43.108a.45.45,0,0,0,.43.465C66.607,95.784,66.8,95.736,66.8,95.676Zm-27.726-.633c-.14-.366-.222-.38-.417-.072-.174.274-.244.2-.247-.263,0-.355-.133-.645-.291-.645s-.287.183-.287.406a.66.66,0,0,1-.215.527c-.118.066-.058.083.134.036a.506.506,0,0,1,.519.19c.292.473.994.315.8-.18ZM52.369,94.01c-.092-.229-.16-.161-.173.173-.013.3.055.472.151.376a.577.577,0,0,0,.023-.55Zm-17.118-.073a.759.759,0,0,0-.287-.591c-.158-.1-.287.088-.287.413s.129.591.287.591S35.251,94.164,35.251,93.937Zm1.147.257a2.207,2.207,0,0,0-.43-.418c-.349-.29-.43-.278-.43.061a.425.425,0,0,0,.43.418c.237,0,.43-.027.43-.06Zm25.619-1.621c.211-.131.145-.268-.192-.4a.855.855,0,0,0-.838.128c-.242.242-.237.325.019.325.189,0,.362.355.383.789.038.775.041.776.172.072a1.6,1.6,0,0,1,.455-.917Zm6.217,1.06c-.411-.495-1.147-.576-1.147-.126,0,.167.1.24.229.162a.741.741,0,0,1,.645.122c.6.379.68.333.273-.158Zm-34.51-.276a.541.541,0,0,0-.978.045c-.067.2.134.323.481.3C33.556,93.674,33.78,93.52,33.725,93.357Zm-1.465-.42c0-.3-.1-.49-.225-.413s-.227-.03-.23-.236c0-.308-.047-.308-.241,0a.623.623,0,0,1-.605.287.428.428,0,0,0-.492.25c-.107.291.33.475,1.5.628.163.021.3-.21.3-.514Zm27.32-1.012c-.063-.287-.225-.346-.492-.179-.34.212-.34.312,0,.681.419.455.65.219.492-.5Zm-5.739.307c-.05-.029-.337-.242-.639-.473-.518-.4-.527-.387-.158.206.215.345.5.558.639.473s.208-.177.158-.206Zm-21.6-.751c.1-.158.048-.287-.11-.287a.628.628,0,0,0-.464.287c-.1.158-.048.287.11.287A.628.628,0,0,0,32.24,91.482Zm6.4-1.073c-.425-.512-.611-.252-.368.516.153.481.258.54.44.246A.678.678,0,0,0,38.636,90.409Zm27.759.519c.323.268.406.238.406-.147a3.129,3.129,0,0,0-.957-1.93c-.2-.128-.171-.345.078-.645.218-.263.251-.452.077-.452a.454.454,0,0,0-.4.3c-.061.184-.309.143-.653-.108-.521-.381-.525-.434-.068-.891.589-.589.617-.764.09-.562-.218.084-.656-.179-.973-.583-.726-.922-.935-.927-.86-.017.033.394.16.717.284.717s.224.194.224.43.114.43.253.43.324.271.411.6.3.517.464.413.306-.06.306.1a.624.624,0,0,1-.284.462c-.179.11-.152.318.072.56.2.212.452.326.571.255s.23.3.248.819.094.716.167.432c.106-.411.218-.448.54-.18Zm-7.051-1.215c0-.131-.266-.239-.591-.239s-.524.108-.443.239a.765.765,0,0,0,.591.239c.244,0,.443-.108.443-.239Zm-20.65-.239c0-.158-.226-.285-.5-.282-.429,0-.439.045-.072.282.541.35.574.35.574,0Zm-1.637-.857c-.082-.314-.27-.5-.417-.4s-.13.332.068.57c.452.545.526.51.35-.166Zm20.853.444c0-.07-.129-.206-.287-.3s-.287-.041-.287.126a.3.3,0,0,0,.287.3C57.78,89.188,57.909,89.131,57.909,89.061Zm-29.255-.452c0-.121-.194-.295-.43-.385s-.43-.044-.43.1-.215.186-.477.086c-.295-.113-.406-.068-.292.117.212.343,1.63.412,1.63.079Zm27.247-.3c0-.136-.194-.173-.43-.082s-.43.276-.43.412.194.173.43.082S55.9,88.441,55.9,88.305Zm-30.636-.9c-.206-.206-.339-.223-.339-.043,0,.383.339.722.531.531.082-.082,0-.3-.191-.488Zm47.467-.565c-.092-.229-.16-.161-.173.173-.013.3.055.472.151.376a.577.577,0,0,0,.023-.55ZM67.468,86.5c-.288-.161-.537-.237-.552-.167s-.231-.043-.479-.249c-.387-.321-.432-.3-.31.167.1.38.4.542,1,.542.738,0,.786-.042.338-.293Zm-33.011-.837c.439-.429.465-.608.166-1.147a1.793,1.793,0,0,1-.286-.875c.037-.13-.042-.168-.177-.085s-.557-.355-.939-.975c-.763-1.237-1.309-1.511-.987-.5.112.355.358,1.188.545,1.85a5.546,5.546,0,0,0,.544,1.408c.111.111.049.387-.138.613-.51.615.605.358,1.272-.292Zm30.336-.017a.407.407,0,0,0-.426-.382c-.322,0-.349.093-.108.382a1.268,1.268,0,0,0,.426.382C64.744,86.033,64.793,85.861,64.793,85.65Zm3.3.1a.628.628,0,0,0-.464-.287c-.158,0-.207.129-.11.287a.628.628,0,0,0,.464.287C68.139,86.033,68.189,85.9,68.091,85.746Zm-1.868-.692a.357.357,0,0,0-.565,0c-.186.186-.089.283.283.283s.468-.1.283-.283Zm-1.2-1.592c-.423-.677-.86-.786-.617-.153.091.237.268.43.394.43s.168.29.093.645c-.118.56-.094.58.179.153a.864.864,0,0,0-.049-1.076Zm1.912,1.157a.33.33,0,0,0-.126-.447c-.16-.1-.292.021-.292.267,0,.5.172.578.418.18Zm-.8-.934c-.092-.229-.16-.161-.173.173-.013.3.055.472.151.376a.577.577,0,0,0,.023-.55Zm.463-.654c-.524-.719-.946-.931-.946-.474a3.5,3.5,0,0,0,1.376,1.167A2.456,2.456,0,0,0,66.6,83.03ZM26.62,82.017c-.01-.394-.084-.555-.164-.357s-.263.287-.408.2-.262.047-.262.3c0,.278-.133.382-.331.259s-.253-.079-.124.131a.362.362,0,0,0,.475.171c.147-.091.269.068.271.354,0,.44.047.453.282.089a2.4,2.4,0,0,0,.26-1.147Zm2.178.574c.1-.158.041-.287-.126-.287a.3.3,0,0,0-.3.287c0,.158.057.287.126.287S28.7,82.749,28.8,82.591Zm45.669.114a.577.577,0,0,0-.55-.023c-.229.092-.161.16.173.173.3.013.472-.055.376-.151Zm-10.044-.687c.082-.315.236-.574.342-.574s.192-.249.192-.553-.113-.53-.252-.5-.4-.191-.584-.488c-.257-.418-.249-.569.039-.673.3-.11.3-.218,0-.592-.2-.252-.241-.38-.084-.286s.287-.184.287-.662a2.762,2.762,0,0,0-.064-.833,3.425,3.425,0,0,0-.737,1.828c.1.1.041.18-.129.18-.474,0-.248.813.346,1.247.366.268.427.449.2.591-.182.112-.33.067-.33-.1a.314.314,0,0,0-.322-.3c-.227,0-.219.124.025.418a.75.75,0,0,1,.123.789c-.152.252-.06.238.288-.044.459-.373.5-.358.414.143a1.112,1.112,0,0,1-.527.753c-.343.155-.323.2.1.215a.721.721,0,0,0,.679-.553Zm-27.738-.574c0-.158-.194-.287-.43-.287s-.43.129-.43.287.194.287.43.287S36.685,81.6,36.685,81.444Zm-10.9-.287c0-.158-.057-.287-.126-.287s-.206.129-.3.287-.041.287.126.287A.3.3,0,0,0,25.786,81.157Zm41.588.16c0-.07-.129-.206-.287-.3s-.287-.041-.287.126a.3.3,0,0,0,.287.3C67.245,81.444,67.374,81.387,67.374,81.317Zm-34.5-.583a.92.92,0,0,1-.328-.8c.041-.276-.044-.5-.187-.5s-.261.33-.261.734c0,.482-.114.664-.331.529s-.253-.079-.129.122a1.107,1.107,0,0,0,.921.267c.567-.047.634-.122.317-.354Zm2.071-1.646a2,2,0,0,0-.608-.789c-.475-.443-.684-.5-.856-.226s-.229.232-.232-.11c0-.258-.295-.524-.65-.592-.566-.108-.65,0-.686.9-.023.562.022.764.1.448.184-.751.659-1.256.659-.7,0,.23.4.593.879.807.511.226.819.544.737.759a.581.581,0,0,0,.044.556c.166.166.561-.511.614-1.051Zm-6.29.634a.287.287,0,1,0-.287.287A.288.288,0,0,0,28.655,79.723Zm36.8-.287c-.082-.315-.264-.574-.4-.574-.3,0-.34.678-.062.956.376.376.613.181.466-.382ZM60.7,77.853c-.107-1.976-.581-2.923-1.073-2.144-.149.235-.274.3-.279.141s-.134-.093-.287.143c-.238.368-.279.357-.282-.072,0-.276-.117-.5-.255-.5s-.251.32-.251.712.1.649.226.572.283.022.352.22c.092.264.281.223.706-.154.564-.5.584-.494.719.215.077.4.047.729-.065.729s-.063.452.11,1a3.909,3.909,0,0,0,.4,1,10.618,10.618,0,0,0-.018-1.869ZM30.232,78.862c.1-.158-.024-.287-.27-.287s-.447.129-.447.287a.28.28,0,0,0,.27.287A.615.615,0,0,0,30.232,78.862Zm40.46-.319a.381.381,0,0,0-.055-.5c-.428-.311-.414-.889.018-.724.3.114.363-.008.246-.457-.1-.368-.317-.552-.553-.462-.467.179-.474.132-.118-.8.211-.555.189-.689-.1-.579a.758.758,0,0,1-.74-.3,1.254,1.254,0,0,0-.807-.443c-.382,0-.377.069.035.525a1.866,1.866,0,0,1,.475,1.021c0,.273.1.432.23.354s.243.3.258.844-.093.986-.242.986c-.393,0,.406.837.812.85a.688.688,0,0,0,.539-.308Zm-3.071-1.417a2.533,2.533,0,0,0,.164-1.645,3.506,3.506,0,0,1-.172-.994c.132-.6-.285-.087-.666.824-.544,1.3-.544,1.542,0,1.542.382,0,.377.091-.036.722-.36.55-.378.685-.075.569A2.218,2.218,0,0,0,67.622,77.127Zm-.755-.9a.812.812,0,0,1,.454-.454c.21-.07.274.061.166.341-.2.521-.793.63-.621.114Zm-3.229.7c-.007-.677-.05-.717-.3-.285a.919.919,0,0,0-.118.789c.3.48.429.321.42-.5ZM25.5,76.336c0-.418-.043-.426-.282-.055-.363.562-.363.941,0,.717A.842.842,0,0,0,25.5,76.336Zm11.19.519a.3.3,0,0,0-.3-.287c-.167,0-.224.129-.126.287s.234.287.3.287S36.685,77.012,36.685,76.855Zm2.577-1.243c0-.514-.124-.77-.346-.7-.32.107-.358.384-.251,1.867.06.835.592-.208.6-1.171Zm-11.272.042c-.092-.229-.16-.161-.173.173-.013.3.055.472.151.376a.577.577,0,0,0,.023-.55Zm8.82.371c.087-.141-.027-.328-.255-.416q-.414-.159-.254.257c.185.482.29.515.51.159Zm29.9-1.076c-.081-.081-.426,0-.765.182-.5.267-.551.41-.271.747.3.358.4.332.765-.182.231-.329.353-.665.271-.747ZM34.3,75.08c-.092-.229-.16-.161-.173.173-.013.3.055.472.151.376a.577.577,0,0,0,.023-.55Zm25.463.08c.507-.2.485-.24-.228-.419-.93-.233-1.6.049-1.011.424.452.287.493.286,1.239-.005Zm-17.719-.654c-.092-.229-.16-.161-.173.173-.013.3.055.472.151.376a.577.577,0,0,0,.023-.55Zm-2.652-1.468c-.253-.66-.765-.287-.547.4.1.3.05.549-.1.549s-.36.226-.464.5c-.13.347.041.275.555-.233.48-.475.677-.906.558-1.217Zm30.851.806a.356.356,0,0,0,.454-.183c.13-.21.083-.259-.124-.131-.182.113-.331.079-.331-.075a.528.528,0,0,1,.359-.413c.209-.078.06-.254-.359-.422a6.209,6.209,0,0,1-1.521-1.038c-.872-.813-1.061-.9-1.061-.471,0,.153.321.446.714.652l.714.374-.714.77c-.867.935-.868.948-.093,1.006a1.976,1.976,0,0,1,1.076.505c.416.42.463.409.547-.133.051-.326.2-.523.339-.44Zm-.861-.591c0-.246.131-.366.291-.267a.33.33,0,0,1,.126.447c-.246.4-.418.324-.418-.18Zm-12.2,1.041a.33.33,0,0,0-.126-.447c-.16-.1-.291.021-.291.267,0,.5.172.578.418.18ZM28.675,73.126c.147,0,.267-.2.267-.451,0-.4-.048-.4-.464.014-.255.255-.546.376-.645.268s-.02-.254.178-.324a.618.618,0,0,0,.359-.555c0-.367-.064-.363-.453.026s-.4.573-.072,1.326.394.79.473.284c.05-.324.212-.589.359-.589Zm9.445.516c0-.463-.085-.546-.319-.312a.551.551,0,0,0-.126.631q.445.72.446-.319Zm-3.155-.229a.3.3,0,0,0-.3-.287c-.167,0-.224.129-.126.287s.234.287.3.287S34.964,73.571,34.964,73.413Zm38.488-.645a1.875,1.875,0,0,0-.524-1.161.993.993,0,0,1-.392-.789c0-.6-.456-.77-.634-.236-.132.395,1.14,3.118,1.456,3.118C73.483,73.7,73.525,73.28,73.452,72.768Zm-35.514-.014c.1.1.181-.1.181-.44,0-.9-1.04-.833-1.215.083-.114.595-.058.663.359.44.272-.145.575-.183.675-.083Zm-10.831-.416c-.064-.907-.605-1.542-1.14-1.337a.484.484,0,0,0-.341.609,2.425,2.425,0,0,1,.16.671c0,.14.194.18.43.089s.43-.022.43.152a.29.29,0,0,0,.248.318c.136,0,.232-.226.212-.5Zm35.1-.072c-.227-.141-.478-.191-.557-.112s.043.258.27.4.478.191.557.112-.043-.258-.27-.4Zm-26.674-.353c0-.183-.143-.173-.385.028-.212.176-.491.224-.62.107s-.145-.057-.036.133c.224.39,1.041.179,1.041-.268Zm34.7-.508q0-.86-.43-.86a.44.44,0,0,0-.43.447c0,.254.137.362.318.251.214-.132.254,0,.124.413-.115.362-.069.61.113.61s.306-.387.306-.86Zm-36.712.12c0-.506-.617-.418-.795.114-.062.187.091.341.341.341a.455.455,0,0,0,.454-.454Zm8.268-.4c.081-.243,0-.294-.244-.146s-.3.114-.156-.116a.708.708,0,0,0-.124-.749.688.688,0,0,1-.151-.7c.1-.165.048-.3-.119-.3a.3.3,0,0,1-.3-.3c0-.167.129-.224.287-.126s.287.055.287-.1-.306-.349-.68-.443c-.48-.121-.737-.446-.874-1.107-.188-.911-.206-.921-.649-.362-.356.448-.418.466-.286.081a.6.6,0,0,0-.116-.669c-.157-.1-.207-.424-.112-.726.117-.369.038-.549-.242-.549-.229,0-.487.271-.574.6s-.081.526.012.433.339-.028.547.144c.31.257.3.466-.066,1.171-.405.784-.4.9.043,1.4a1.338,1.338,0,0,1,.335,1.121c-.084.321-.035.655.107.743s.26-.066.26-.342c0-.36.2-.238.688.429.455.617.738.806.838.558s.157-.221.173.1c.026.555.932.523,1.12-.04Zm21.05-.568c-.173-1.178-.35-1.1-.35.148,0,.561.108.954.239.873s.181-.541.111-1.021Zm-32.277.22c-.092-.229-.16-.161-.173.173-.013.3.055.472.151.376a.577.577,0,0,0,.023-.55Zm24.105.454a.577.577,0,0,0-.55-.023c-.229.092-.161.16.173.173.3.013.472-.055.376-.151ZM63.9,70.088a.47.47,0,0,1-.036-.564c.117-.138-.012-.079-.286.131s-.456.464-.4.564.194.441.314.756l.218.574.221-.574a1.036,1.036,0,0,0-.028-.887Zm7.313.872c.1-.255.05-.37-.113-.27a.61.61,0,0,0-.284.445c0,.413.206.322.4-.175ZM32.957,70.4c0-.237-.129-.43-.287-.43s-.287.194-.287.43.129.43.287.43S32.957,70.638,32.957,70.4Zm27.235-.816c-.279-.257-.32-.219-.182.171.1.276.044.5-.118.5s-.2.146-.095.324c.135.219.29.164.477-.171a.6.6,0,0,0-.082-.826Zm-24.08.69a.615.615,0,0,0-.287-.447c-.158-.1-.287.024-.287.27s.129.447.287.447A.28.28,0,0,0,36.112,70.275Zm26.014-.189c.051-.154-.167-.279-.484-.279-.591,0-.73.2-.38.552a.554.554,0,0,0,.864-.273Zm-36.781-.1a.33.33,0,0,0-.126-.447c-.16-.1-.291.021-.291.267,0,.5.172.578.418.18Zm5.318-.5c0-.565-.692-.315-.81.292-.065.333.044.425.359.3A.715.715,0,0,0,30.662,69.486Zm7.36-.161c-.08-.2-.145-.036-.145.359s.065.556.145.359a1.107,1.107,0,0,0,0-.717Zm31.172.49c-.093-.243-.231-.381-.307-.306s-.052.274.052.443c.283.458.448.369.254-.137Zm.475-.561c0-.237-.125-.43-.278-.43s-.2.194-.113.43.216.43.278.43.113-.194.113-.43ZM73.21,67.62c-.2-1.234-.2-1.234-.437-.374a4.26,4.26,0,0,0-.06,1.7c.287,1.352.736.157.5-1.324Zm-13.677.845c-.08-.2-.145-.036-.145.359s.065.556.145.359A1.107,1.107,0,0,0,59.533,68.465Zm8.988.359a.3.3,0,0,0-.3-.287c-.167,0-.224.129-.126.287s.234.287.3.287S68.521,68.982,68.521,68.824Zm-41.211-.395c.092-.24-.028-.38-.308-.359s-.533-.263-.636-.681c-.15-.61-.206-.641-.372-.209a1.032,1.032,0,0,0,.372,1.076c.674.674.747.687.944.173Zm3.782-.179c-.1-.158-.019-.287.174-.287s.271-.08.173-.179c-.281-.281-1.121.141-.922.464a.631.631,0,0,0,.465.289c.158,0,.207-.129.11-.287Zm38.57-.15c-.2-.24-.437-.362-.529-.271s.024.286.256.433C70,68.645,70.077,68.6,69.663,68.1Zm-36.25-1.139c-.1-.408-.312-.665-.465-.57s-.278.014-.278-.179-.069-.283-.152-.2.075.549.353,1.033c.584,1.018.81.982.542-.084Zm7.2.375c-.092-.229-.16-.161-.173.173-.013.3.055.472.151.376a.577.577,0,0,0,.023-.55Zm27.051.4a2.108,2.108,0,0,0-.434-.789c-.284-.364-.408-.412-.359-.138.116.639.793,1.43.793.926Zm6.31-.055c0-.158-.057-.287-.126-.287s-.206.129-.3.287-.041.287.126.287A.3.3,0,0,0,73.971,67.677Zm.483-.627c-.092-.229-.16-.161-.173.173-.013.3.055.472.151.376a.577.577,0,0,0,.023-.55ZM27.221,67.1c0-.158-.057-.287-.126-.287s-.206.129-.3.287-.041.287.126.287A.3.3,0,0,0,27.221,67.1Zm2.994-.315a3.1,3.1,0,0,1,.05-1.33c.112-.594.256-.926.319-.738a.378.378,0,0,0,.51.191c.311-.119.327-.3.074-.855-.375-.824-1.222-.8-1.222.039a1.449,1.449,0,0,1-.43.949c-.237.209-.269.3-.072.2.253-.128.35.1.33.767-.022.716-.074.807-.215.371-.167-.516-.386-.6-1.119-.453-.118.024.011.176.287.337a.978.978,0,0,1,.5.681c0,.247.208.335.57.24.314-.082.5-.261.416-.4Zm1.86-.141c-.5-.606-.9-.488-.5.15.191.305.456.487.59.4s.092-.332-.093-.555Zm9.466.527a4.038,4.038,0,0,0-.268-.789c-.214-.495-.242-.465-.2.215.024.434.145.789.268.789A.2.2,0,0,0,41.541,67.175Zm-4.122-1c-.067-.513-.13-1.119-.141-1.348-.013-.27-.117-.318-.3-.137-.324.324-.052,2.417.314,2.417.136,0,.192-.419.125-.932Zm30.935.758c.25-.1.454-.3.454-.447s-.128-.194-.284-.1-.211-.015-.113-.27c.2-.514-.13-.571-.751-.132-.325.23-.343.34-.07.45.2.08.287.264.2.408-.19.307-.058.327.565.088ZM25.912,65.423c-.493-.1-1.273-.709-1.273-1,0-.075.29-.083.645-.017s.5.049.328-.037-.258-.465-.186-.843c.1-.543.02-.668-.4-.6a.553.553,0,0,0-.488.572c.028.317-.1.432-.373.328s-.343-.043-.195.2a2.962,2.962,0,0,1,.31.922,1.24,1.24,0,0,0,.51.8.941.941,0,0,1,.432.724c.007.389.131.342.607-.229.557-.669.563-.724.082-.82Zm43.47.533a.3.3,0,0,0-.3-.287c-.167,0-.224.129-.126.287s.234.287.3.287S69.382,66.114,69.382,65.956Zm-5.633-.43c.091-.237.04-.43-.113-.43s-.278.194-.278.43.051.43.113.43S63.659,65.762,63.749,65.526Zm1.617.143c0-.158-.057-.287-.126-.287s-.206.129-.3.287-.041.287.126.287A.3.3,0,0,0,65.367,65.669ZM28.123,64.482l-.277-.964-.026.884a2.143,2.143,0,0,0,.165,1.076c.36.36.415-.033.138-1Zm7.9-.315c-.069-.357-.127-.132-.131.5s.053.923.125.649a3.133,3.133,0,0,0,.006-1.147ZM66.991,65.22a.783.783,0,0,0-.194-.789c-.284-.262-.322-.259-.167.016.129.229.058.3-.2.2s-.362-.449-.3-.929c.1-.736.093-.742-.178-.125a1.561,1.561,0,0,0,.04,1.362c.372.816.747.915,1,.264Zm-38.3-.891c-.338-.581-.42-.4-.143.326.1.256.239.406.313.332s0-.37-.17-.658Zm6.7.484c.1-.163-.015-.211-.27-.113-.5.191-.588.4-.175.4a.61.61,0,0,0,.445-.284Zm-.469-1.6a2.63,2.63,0,0,0-.372-1.48c-.167-.095-.212-.07-.1.054s.08.46-.072.744a1.519,1.519,0,0,0,0,1.253c.418,1.1.615.892.54-.572Zm4.63,1.181c0-.07-.129-.206-.287-.3s-.287-.041-.287.126a.3.3,0,0,0,.287.3C39.424,64.522,39.553,64.465,39.553,64.4Zm1.291-.16c.1-.158.041-.287-.126-.287a.3.3,0,0,0-.3.287c0,.158.057.287.126.287S40.747,64.393,40.844,64.235Zm3.405-.473c-.147-.585-.1-.706.187-.527s.325.1.168-.316c-.135-.355-.111-.447.067-.262a2.232,2.232,0,0,1,.414.86c.089.371.15.245.171-.359.023-.652-.1-.932-.4-.932-.237,0-.43-.129-.43-.287a.314.314,0,0,1,.335-.287c.184,0,.259-.075.167-.167s-.223-.124-.291-.072-.325-.072-.572-.277c-.346-.287-.5-.293-.662-.027-.129.209-.092.27.095.155.464-.287.736,1.4.344,2.129-.265.5-.254.679.053.873.553.351.563.336.352-.505Zm19.683.633c0-.07-.129-.206-.287-.3s-.287-.041-.287.126a.3.3,0,0,0,.287.3C63.8,64.522,63.933,64.465,63.933,64.4Zm7.457-.16a.3.3,0,0,0-.3-.287c-.167,0-.224.129-.126.287s.234.287.3.287S71.39,64.393,71.39,64.235ZM29.224,63.3c0-.5-.062-.554-.268-.229a.74.74,0,0,0-.122.645c.249.4.394.247.39-.417Zm6.223.018c-.092-.229-.16-.161-.173.173-.013.3.055.472.151.376a.577.577,0,0,0,.023-.55ZM43,63.661a.3.3,0,0,0-.3-.287c-.167,0-.224.129-.126.287s.234.287.3.287S43,63.819,43,63.661Zm22.371-.591c0-.325-.121-.516-.269-.424s-.213-.143-.141-.538c.127-.7-.272-1.262-.562-.793-.307.5-.476,2.1-.2,1.934a.334.334,0,0,1,.455.122c.306.495.72.322.72-.3Zm-38.72.017c0-.158-.057-.287-.126-.287s-.206.129-.3.287-.041.287.126.287A.3.3,0,0,0,26.647,63.088Zm1.487-.636c-.206-.206-.339-.223-.339-.043a.79.79,0,0,0,.191.488.247.247,0,0,0,.339.043C28.406,62.858,28.32,62.639,28.134,62.452Zm3.963-.394a.97.97,0,0,0-.429-.874c-.236-.09-.354-.286-.262-.434a.7.7,0,0,0-.18-.687c-.244-.294-.251-.418-.025-.418a.307.307,0,0,0,.322-.287c0-.473-.5-.324-.7.21-.1.273-.054.542.113.6a.447.447,0,0,1,.3.381c0,.154-.129.2-.287.1s-.287-.048-.287.11a.58.58,0,0,0,.25.441,2.134,2.134,0,0,1,.427,1.04c.2,1.016.757.883.757-.182Zm1.434.743a.3.3,0,0,0-.3-.287c-.167,0-.224.129-.126.287s.234.287.3.287S33.53,62.959,33.53,62.8Zm12.907-.321c0-.158-.129-.207-.286-.11s-.266-.056-.241-.342c.086-1-.049-1.427-.449-1.427s-.387.184.176,1.693c.271.725.8.848.8.185Zm17.23-.253c.146,0,.266-.267.266-.594,0-.528-.048-.546-.43-.164a1.648,1.648,0,0,0-.4,1.1c.024.486.069.53.164.164C63.342,62.453,63.521,62.227,63.667,62.227Zm-21.6-.3c.915-.858,1.182-1.418.676-1.418-.141,0-.33.194-.421.43a.707.707,0,0,1-.6.43.505.505,0,0,0-.439.55.779.779,0,0,1-.359.694c-.2.08-.229.154-.072.166a3.421,3.421,0,0,0,1.219-.852Zm-14.672-.315c.121-.2.079-.254-.1-.142a.306.306,0,0,1-.452-.171c-.088-.217-.154-.161-.168.142C26.644,62.006,27.082,62.11,27.391,61.609Zm1.749-1.124c.2-.582.349-.758.359-.433.009.3.1.469.2.371a.675.675,0,0,0,.011-.616c-.124-.323-.339-.374-.824-.194s-.659.472-.666,1.145c-.012,1.148.481,1,.926-.273Zm4.964.435c0-.246-.131-.366-.291-.267a.33.33,0,0,0-.126.447c.246.4.418.324.418-.18Zm27.247.017c0-.237-.051-.43-.113-.43s-.187.194-.278.43-.04.43.113.43.278-.194.278-.43Zm-12.164-.931c-.313-.313-.528.185-.3.7.213.491.229.491.348-.01a.926.926,0,0,0-.044-.693Zm3.748.632c.267-.7-.105-.821-.462-.156-.222.415-.226.6-.014.6.168,0,.382-.2.476-.443ZM36.282,60.17c.3-.343.385-.529.188-.413-.478.28-.459-.257.027-.742a.858.858,0,0,0,.164-.953c-.208-.532-.223-.527-.242.078-.011.355-.163.645-.338.645s-.25-.176-.167-.392c.122-.317.018-.33-.541-.072-.778.36-.915.751-.265.751.237,0,.43.137.43.3s-.161.222-.359.122-.133,0,.143.23c.635.52.647.816.025.577-.321-.123-.409-.073-.27.152.3.485.587.417,1.2-.287Zm3.462-.6a.492.492,0,0,0-.526-.5c-.57,0-.6.106-.348,1.065.134.5.244.561.522.283a1.385,1.385,0,0,0,.352-.85Zm11.959.219.5-.86-.591.677a2.444,2.444,0,0,0-.591.98c0,.353.014.336.677-.8Zm-4.693.591c0-.07-.129-.206-.287-.3s-.287-.041-.287.126a.3.3,0,0,0,.287.3C46.882,60.506,47.011,60.45,47.011,60.38Zm-3.7-1.149c.144.089.262.015.262-.166,0-.425-.66-.208-.749.247-.037.191,0,.215.078.052a.286.286,0,0,1,.409-.134Zm7.289-.445c.1-.158.048-.287-.11-.287a.628.628,0,0,0-.464.287c-.1.158-.048.287.11.287A.628.628,0,0,0,50.6,58.786Zm-8.265-.914c-.092-.229-.16-.161-.173.173-.013.3.055.472.151.376a.577.577,0,0,0,.023-.55Zm6.831.341c.1-.158.041-.287-.126-.287a.3.3,0,0,0-.3.287c0,.158.057.287.126.287S49.064,58.37,49.162,58.212Zm-3.108-.932c-.08-.2-.145-.036-.145.359s.065.556.145.359a1.107,1.107,0,0,0,0-.717Zm6.263.645c.1-.158.041-.287-.126-.287a.3.3,0,0,0-.3.287c0,.158.057.287.126.287S52.219,58.083,52.317,57.925Zm-14.2-.287c0-.158-.057-.287-.126-.287s-.206.129-.3.287-.041.287.126.287A.3.3,0,0,0,38.119,57.638Zm5.736,0a.3.3,0,0,0-.3-.287c-.167,0-.224.129-.126.287s.234.287.3.287S43.856,57.8,43.856,57.638Zm-16.348-.86c0-.158-.057-.287-.126-.287s-.206.129-.3.287-.041.287.126.287A.3.3,0,0,0,27.507,56.778Zm8.227-.341c-.092-.229-.16-.161-.173.173-.013.3.055.472.151.376a.577.577,0,0,0,.023-.55Zm11.025-.023c-.283-.281-.316-.248-.161.161.108.283.268.442.356.354s0-.32-.2-.514Zm-15.38.076c.1-.158.041-.287-.126-.287a.3.3,0,0,0-.3.287c0,.158.057.287.126.287S31.282,56.649,31.379,56.491Zm3.59,49.977a1.8,1.8,0,0,1,.274-.642c.212-.335.259-.289.221.215-.043.569-.507.968-.5.427Zm39.289-.611a.628.628,0,0,1,.287-.464c.158-.1.287-.048.287.11a.628.628,0,0,1-.287.464C74.387,106.064,74.258,106.014,74.258,105.857ZM24.636,96.925c-.232-.434-.245-.721-.039-.926s.357-.059.491.474c.25,1-.018,1.263-.452.452ZM41.274,87.18l-.909-1.147h2.343V87.18c0,.631-.118,1.147-.263,1.147a4.03,4.03,0,0,1-1.171-1.147ZM51.886,73.7a.287.287,0,1,1,.287.287A.288.288,0,0,1,51.886,73.7Zm7.17-9.778c0-.143.258-.26.574-.26s.574.049.574.11-.258.177-.574.26S59.057,64.064,59.057,63.921ZM58.879,62.7c-.24-.274-.213-.508.108-.921.415-.536.424-.533.276.091-.084.355-.035.645.108.645a.275.275,0,0,1,.26.287c0,.392-.363.342-.751-.1Z" transform="translate(-23.492 -55.845)"/>
  </g>
</svg>
