<svg xmlns="http://www.w3.org/2000/svg" xmlns:xlink="http://www.w3.org/1999/xlink" width="536.284" height="98.415" viewBox="0 0 536.284 98.415"><defs><style>.a{fill:url(#a);}</style><radialGradient id="a" cx="0.5" cy="0.5" r="0.552" gradientTransform="translate(0 -0.313) scale(1 1.627)" gradientUnits="objectBoundingBox"><stop offset="0" stop-color="#fff"/><stop offset="0.547" stop-color="#fff"/><stop offset="1" stop-color="#fff" stop-opacity="0.443"/></radialGradient></defs><g transform="translate(-5.529 -71.357)"><path class="a" d="M19.648,169.412c-3.6-.768-9.4-3.657-10.706-5.332-.561-.718-1.311-1.651-1.667-2.075-1.681-2-2.3-8.8-1.173-12.8,2.324-8.21,10.131-14.331,22.374-17.543,1.943-.51,3.579-.982,3.635-1.051.244-.294-.426-32.341-.685-32.759a.929.929,0,0,0-.593-.463,26.976,26.976,0,0,0-4.471,3.679,9.071,9.071,0,0,1-1.616,1.243c-1.064.569-.934.956.56,1.665,1.6.761,1.921,1.225,1.326,1.941-.626.754-1.605.691-3.2-.206a6.536,6.536,0,0,0-1.741-.757c-1.177,0-2.086-2.981-1.1-3.593a1.034,1.034,0,0,0,.378-.806A1.939,1.939,0,0,1,22.648,98.9c.327,0,.594-.133.594-.3,0-.411,2.273-1.718,2.533-1.457a10.639,10.639,0,0,0,2.811-2.1c2.41-2.142,2.6-2.423,2.607-3.863a48.438,48.438,0,0,1,1.457-8.88A8.658,8.658,0,0,1,35.129,78.4c1.089-.911,3.11-.883,3.609.05.687,1.284.431,4.5-.6,7.523l-.99,2.9.283,13.239c.156,7.282.389,16.388.517,20.237l.234,7,3.593-.122c1.976-.067,5.04-.279,6.809-.47s5.385-.349,8.038-.351a30.593,30.593,0,0,0,4.823-.2,30.184,30.184,0,0,0-2.2-2.932c-2.551-3.18-5.369-7.58-5.369-8.381a.979.979,0,0,0-.336-.762c-.853-.527-1.37-6.7-.778-9.284,1.39-6.07,4.448-9.509,10.252-11.53,4.854-1.691,10.569.817,13.968,6.131,1.034,1.615,1.647,1.551,2.813-.3a16.682,16.682,0,0,1,5.855-5.385c3.432-1.7,9.161-.8,12.681,2,3.806,3.024,5.476,6.917,5.476,12.762,0,2.145-.166,3.933-.378,4.063a1.226,1.226,0,0,0-.378.945c0,1.345-4.549,8.81-6.207,10.186-1.05.871-.664,1.805,1.763,4.267,2.367,2.4,5.179,4.083,6.828,4.083,1.822,0,6.126-2.669,8.518-5.282,2.371-2.59,3.734-5.115,3.99-7.389.658-5.861,2.91-8.576,8.588-10.357,2.559-.8,5.305-.5,8.541.938a7.18,7.18,0,0,0,1.479.53,83.618,83.618,0,0,0,.043-9.77c-.192-7.674-.14-9.913.242-10.435.577-.789,3.7-.974,4.552-.269.444.368.573,2.694.711,12.826.138,10.089.293,12.9.839,15.213a22.984,22.984,0,0,0,4.374,8.968c2.386,2.543,6.524,5.028,8.372,5.028,2.791,0,8.46-4.362,11.06-8.511,2.618-4.177,3.637-7.326,3.637-11.237v-2.862l1.242-.589a3.64,3.64,0,0,1,2.6-.282c2.053.463,2.207.663,2.207,2.859a32.2,32.2,0,0,0,3.117,12.455c1.982,3.969,6.8,8.166,9.372,8.166,2.152,0,7.134-4.467,9.493-8.511,2.43-4.166,4.875-10.057,4.875-11.743a1.943,1.943,0,0,1,.34-1.136c.428-.453.829-3.09.917-6.033l.068-2.27-5.3.019c-8.9.029-15.968.577-17.495,1.355-1.6.817-1.986.655-1.986-.839,0-.738.227-1.2.662-1.336.364-.116,1-.353,1.418-.526,1.543-.642,7.775-1.369,15.837-1.846a31.35,31.35,0,0,0,6.4-.758c.241-.241.372-1.887.327-4.1a16.664,16.664,0,0,1,.215-4.076,5.018,5.018,0,0,1,1.67-.861,2.753,2.753,0,0,1,2.459-.005,4.278,4.278,0,0,1,1.332.832,24.128,24.128,0,0,1,.519,4.278l.267,3.922,10.829-.255c6.148-.145,11.033-.417,11.3-.629a3.172,3.172,0,0,0,.47-1.935,53.8,53.8,0,0,1,2.169-13.1C238.4,77.025,244.1,77.5,247,85.477a38.425,38.425,0,0,1,1.344,7.925,26.916,26.916,0,0,0,.549,3.945c.314.314,4.174-1.057,5.508-1.957,1.809-1.219,1.816-1.936.025-2.472a11.685,11.685,0,0,0-2.761-.443c-1.574,0-2.467-1.106-1.839-2.278.479-.894,1.487-.941,4.329-.2,2.762.719,4.234,1.624,4.778,2.938.392.946.316,1.277-.647,2.834-1.256,2.031-4.268,4.265-7.316,5.426-3.125,1.19-3.173,1.231-3.74,3.233a29.37,29.37,0,0,1-1.91,5.16,11.416,11.416,0,0,0-.794,2.175c0,.5,1.4.5,1.7.005.381-.617,3.03-.432,4.792.335a8.251,8.251,0,0,1,4.39,4.583,37.023,37.023,0,0,1,2.018,6.525,24.634,24.634,0,0,0,2.747,6.639c1,1.577,4.149,4.209,5.065,4.227a3.274,3.274,0,0,1,1.135.347,25.465,25.465,0,0,0,6.591,1.176c1.484,0,2.339.707,1.981,1.64-.352.916-1.413,1.094-5,.837-9.884-.706-16.32-5.488-18.608-13.825-.257-.936-.617-2.2-.8-2.8a8.821,8.821,0,0,1-.34-2.08,9.3,9.3,0,0,0-1.471-4.344c-.839-1.011-1.783-.7-3.367,1.1s-3.232,4.925-4.982,9.45c-.161.416-.481,1.225-.711,1.8a6.515,6.515,0,0,0-.183,2.756c.193,1.412.109,1.81-.48,2.256-1.634,1.237-5.356.206-4.944-1.37.4-1.52-.662-1.064-3.309,1.424-1.516,1.425-3.554,3.248-4.528,4.05l-1.771,1.458-3.006-.136c-3.352-.152-2.648.309-8.47-5.547-3.334-3.354-5.126-7.695-6.239-15.112a37.266,37.266,0,0,1-.412-4.044,2.342,2.342,0,0,0-.378-1.528c-.22-.136-.378.242-.378.9a30.764,30.764,0,0,1-1.87,7.556,31.383,31.383,0,0,1-7.366,12.532,19.243,19.243,0,0,0-2.555,2.971c-.285.963-3.029,1.731-6.177,1.73-3.023,0-3.029,0-5.653-1.878-3.674-2.626-6.673-5.705-7.722-7.93-.491-1.04-1.044-2.187-1.229-2.548a4.279,4.279,0,0,1-.337-1.626,5.734,5.734,0,0,0-.643-2.18c-.55-1.035-.662-1.1-.778-.454-.609,3.418-3.019,7.611-6.428,11.182a21.5,21.5,0,0,0-3.121,3.724c0,.25-.941.871-2.091,1.38-2.439,1.079-6.21,1.256-7.744.364a19.522,19.522,0,0,0-1.986-.977c-.572-.235-1.04-.557-1.04-.715a8.53,8.53,0,0,0-2.092-1.677,37.575,37.575,0,0,1-3.633-2.781c-1.6-1.443-4.11-5.046-4.11-5.893,0-.539-.742-1.392-1.21-1.392-.166,0-.3.25-.3.556a12.624,12.624,0,0,1-1.919,3.887c-1,1.6-4.463,3.108-7.159,3.115a14.568,14.568,0,0,1-7.532-2.736,5.317,5.317,0,0,0-1.442-1.04,19.331,19.331,0,0,0-2.746,2.564,52.09,52.09,0,0,1-3.857,3.665,5.343,5.343,0,0,0-1.554,1.717c-.34,1.3-2.473,1.825-6.5,1.6-3.887-.213-6.248-.867-6.248-1.732,0-.271-.681-.875-1.512-1.343a20.846,20.846,0,0,1-2.655-1.811c-1.428-1.2-2.482-.979-3.777.8-.52.714-1.983,2.628-3.251,4.253-4.476,5.736-6.532,9.84-7.4,14.775-.48,2.725-.49,2.742-1.68,2.742-1.329,0-1.65-.6-1.659-3.1a2.59,2.59,0,0,0-.383-1.63,1.244,1.244,0,0,1-.378-.957c0-1.475-4.249-9.5-5.968-11.272-.359-.37-1.718-1.982-3.021-3.583a13.231,13.231,0,0,0-2.837-2.911,10.822,10.822,0,0,0-2.651,1.714,28.6,28.6,0,0,1-8.219,4.293,28.02,28.02,0,0,1-4.172.643c-3.131.272-4.075-.18-3.588-1.715.187-.59.568-.775,1.595-.775a24.144,24.144,0,0,0,9.4-2.775c1.069-.726,1.217-.961.727-1.149-1.831-.7-18.221.495-18.778,1.372A54.885,54.885,0,0,0,38,140.674a94.686,94.686,0,0,1-.393,9.646c-1.4,9.006-2.931,12.783-6.565,16.22-3.017,2.853-6.906,3.835-11.393,2.877Zm6-3.323c4.91-2.052,6.992-9.211,7.028-24.171.02-8.563.162-8.243-3.293-7.47a35.313,35.313,0,0,0-12.824,5.366C11.191,143.4,8.49,148.3,8.49,154.444c0,4.354,1.287,6.833,5.016,9.66,2.87,2.176,9.209,3.212,12.146,1.985ZM78.846,148.4c0-3.154,3.3-9.182,8.84-16.155a25.147,25.147,0,0,0,2.508-3.487,8.088,8.088,0,0,0-.756-1.782l-.756-1.45-2.176,2.11c-2.568,2.491-4.487,3.488-7.148,3.714a11.272,11.272,0,0,1-9.779-4.837c-.962-1.523-1.7-1.958-1.7-1A3.483,3.483,0,0,1,67.12,127c-1.085,1.379-.956,2.01.851,4.188.884,1.066,1.82,2.2,2.079,2.511,3.368,4.1,6.813,10.206,7.734,13.718C78.272,149.278,78.846,149.813,78.846,148.4Zm147.572-16.059c2.728-1.813,6.812-6.023,7.137-7.356.1-.426.1-5.407,0-11.067l-.189-10.292-3.783.074c-2.08.041-7.144.187-11.253.325l-7.471.251v2.469c0,9.6,3.063,20.618,6.664,23.969,1.768,1.645,4.606,3.354,5.578,3.359a11.96,11.96,0,0,0,3.316-1.732ZM81.04,127.874c3.521-1.839,5.75-7.038,5.75-13.41V110.7l1.191-.415a4.356,4.356,0,0,1,4.02.174c.675.473.841.955.841,2.452,0,4.192,1.338,10.009,2.3,10.009.592,0,4.432-5.647,4.76-7a4.614,4.614,0,0,1,.65-1.477,13.185,13.185,0,0,0,.4-4.38c-.018-3.58-.106-4.025-1.273-6.372a10.172,10.172,0,0,0-10.189-5.86c-2.551.185-4.376,1.286-6.2,3.743-1.364,1.839-2.932,4.711-2.945,5.4a3.457,3.457,0,0,1-.7,1.342c-1.1,1.426-2.417.871-3.267-1.372-1.4-3.694-4.114-7.124-6.691-8.455-3.437-1.774-9.3-.133-11.9,3.333-2.437,3.245-3.132,9.061-1.581,13.234,1.186,3.191,6.194,10.322,7.249,10.322.545,0,2.172-3.055,3.113-5.844.516-1.528.584-2.642.37-6.066-.258-4.137-.25-4.2.621-4.632a11.382,11.382,0,0,1,2.814-.677c2.872-.354,3.037-.063,3.358,5.948.42,7.86,1.48,11.953,3.51,13.549a3.256,3.256,0,0,0,3.8.213Zm50.328-.055c1.683-.673,3.466-2.953,4.125-5.274a34.214,34.214,0,0,0,1.227-5.769c0-1.059-4.359-3.12-6.6-3.12-1.549,0-1.923.18-3.343,1.608a6.231,6.231,0,0,0-2.05,3.78c-.462,2.226-.126,6.038.663,7.512.981,1.833,3.318,2.327,5.975,1.264Zm109.865-15.709a17.505,17.505,0,0,0,1.022-2.653,2.86,2.86,0,0,1,.366-1.007,20.783,20.783,0,0,0,1.525-4.831c0-.4-.456-.554-1.671-.554-2.963,0-2.868-.2-2.868,5.9a24.965,24.965,0,0,0,.3,5.444A7.146,7.146,0,0,0,241.233,112.109Zm3.644-13.758c.573-.354.508-6.653-.1-9.853-1.2-6.3-3.554-8.171-4.356-3.471-.509,2.983-.949,12.968-.6,13.538.276.447,4.259.278,5.055-.215Zm285.9,45.817a4.972,4.972,0,0,1-.3-1.513c-.011-.739-.05-.755-.4-.158a1.336,1.336,0,0,1-.977.662c-.491,0-.546-.3-.323-1.792a11.233,11.233,0,0,1,.8-2.818c.615-1.19.706-3.559.15-3.9-.21-.13-.483.031-.608.356-.393,1.025-1.281.681-1.281-.5a2.287,2.287,0,0,0-.553-1.547,10.81,10.81,0,0,1-1.914-7.577c.136-1.56.316-4.282.4-6.048.105-2.214.321-3.335.7-3.609.408-.3.445-.574.148-1.1a1.249,1.249,0,0,1,.062-1.44c.252-.4.374-.816.271-.918-.4-.4-3.649-.211-4.2.245a2.233,2.233,0,0,1-1.624.283,4.949,4.949,0,0,0-2.366.362,7.992,7.992,0,0,1-4.066.312c-2.268-.206-2.78-.15-2.964.328-.173.452-.432.5-1.185.212a3.046,3.046,0,0,0-1.67-.142c-.657.208-.707.724-.709,7.291-.005,8.213-.332,13.308-.86,13.308a5.192,5.192,0,0,0-1.621,1.324c-2.218,2.351-4.7,1.593-4.7-1.435,0-1.4-.145-1.776-.757-1.97-.53-.168-.757-.572-.757-1.349,0-1.23-.52-1.473-.958-.447-.751,1.76-1.514-6.685-1.358-15.033.068-3.658.212-4.794.635-5.031a1.114,1.114,0,0,0,.547-.854c0-.3.178-.549.4-.549a3.535,3.535,0,0,0,1.367-.972l.972-.972-.8-.745a2.916,2.916,0,0,1-.8-2.4c0-2.084-.292-2.862-.977-2.6-.4.154-.536-.134-.536-1.136a2.6,2.6,0,0,0-.32-1.54,15.177,15.177,0,0,1-.555-4.045c-.176-2.883-.4-4.029-.892-4.574-.535-.591-.574-.862-.207-1.449a4.3,4.3,0,0,0,.256-2.343,14.677,14.677,0,0,1,.134-3.513l.329-1.891.486,1.135a18.981,18.981,0,0,1,.778,2.27c.272,1.058.3,1.071.344.189a5.153,5.153,0,0,1,.593-1.891,5.857,5.857,0,0,0,.554-2.385,2.9,2.9,0,0,1,1.161-2.488c.685-.626,1.061-1.275.932-1.61-.135-.352.142-.753.743-1.074,1.156-.618,1.545-.345.989.694-.655,1.225.228,1.372,1.232.206,1.056-1.228,2.109-.959,1.219.311a1.254,1.254,0,0,0-.144,1.555c.395.738.429.728.957-.281.3-.575.63-.964.731-.863a16.848,16.848,0,0,1-.264,3.532c-.245,1.842-.562,5.222-.7,7.51a26.037,26.037,0,0,1-.7,5.193,6.745,6.745,0,0,0-.172,3.207c.253,2.022.344,2.181,1.3,2.255.567.044,1.121-.065,1.229-.24s.549-.228.978-.115a2.651,2.651,0,0,0,1.64-.255c.841-.45,3.185-.4,9.262.194a6.2,6.2,0,0,0,3.344-.26c.8-.429.976-.411,1.282.137.366.653.73.615,2.8-.3,1.067-.47,1.146-.649,1.255-2.839a14.812,14.812,0,0,1,.458-3.236,19.081,19.081,0,0,0,.6-3.373c.324-3.161.9-3.563.9-.627a8.972,8.972,0,0,0,.565,3.332,8.884,8.884,0,0,1,.567,3.258c0,1.573.144,2.175.513,2.175.583,0,1-4.443,1-10.627a12.56,12.56,0,0,1,.347-3.916,3.366,3.366,0,0,0,.4-1.819c.1-2.842.212-3.474.873-4.707a5.46,5.46,0,0,0,.649-1.756c0-.442.738-1,1.318-1a3.841,3.841,0,0,1,.526,1.16c.315.9.6,1.134,1.266,1.04.651-.091.891.088.983.731.068.478-.079.851-.335.851s-.022.34.506.757a3.461,3.461,0,0,0,1.564.757c.766,0,.772,1.184.016,3.35a6.124,6.124,0,0,0-.185,3.75,11.475,11.475,0,0,0,.566,2.28c.1.1-.072.533-.377.968A3.235,3.235,0,0,0,540.7,89.6c0,1-1.591,3.291-2.144,3.084-.624-.234-.882.662-.882,3.058a8.194,8.194,0,0,1-.429,2.875c-.359.67-.294.91.4,1.472.67.543.752.814.429,1.419-.51.953-.529,8.617-.022,8.93a1.486,1.486,0,0,1,.378,1.106,3.633,3.633,0,0,0,.757,1.834,3.467,3.467,0,0,1,.756,1.6,4.274,4.274,0,0,0,.806,1.771,2.2,2.2,0,0,1,.387,2.532,4.739,4.739,0,0,0-.034,2.8,2.213,2.213,0,0,1-.424,2.493c-.608.822-.719,1.273-.446,1.8.856,1.661,1.452,9.433.785,10.236-.484.583-2.063.66-2.4.117a1.888,1.888,0,0,0-1.32-.378c-.838,0-1.114-.194-1.207-.851-.088-.622-.374-.851-1.062-.851-.837,0-.97.2-1.2,1.834a8.12,8.12,0,0,1-.453,2.025c-.539.539-.7-3.55-.439-11.21.324-9.532.281-15.587-.113-15.99-.144-.147-.5-.121-.79.059-.424.262-.541,2.032-.592,8.968-.092,12.3-.1,12.41-.707,11.9-.423-.351-.485.234-.363,3.453a31.323,31.323,0,0,0,.541,5.2c.455,1.533.331,4.425-.14,3.275Zm-30.382-26.92c.115-.624.312-1.582.437-2.13.191-.836.044-1.086-.92-1.567a2.728,2.728,0,0,0-1.292-.428,40.706,40.706,0,0,0,.669,6.016c.068.416.159,1.267.2,1.891.059.856.154.671.386-.757.169-1.04.4-2.4.517-3.026Zm24.486-8.8a1.869,1.869,0,0,1,1.149-.468c.375,0,.681-.174.681-.388,0-.673-1.626-1.03-3.828-.843-1.341.114-2.222.025-2.387-.24s.125-.421.829-.421c2.452,0,5.676-1.727,4.821-2.582-.33-.33-16.221-.04-16.641.3a3.352,3.352,0,0,1-1.329.445c-.766.106-.969.374-1.068,1.412-.2,2.086.19,3,1.353,3.172.572.085,4.395.137,8.5.115,5.377-.028,7.587-.17,7.924-.507Zm7.815-2.485c.069-.358-.118-.631-.432-.631-.6,0-1.111.912-.728,1.295s1.029.014,1.16-.664Zm.067-2.522c0-.42-.252-.757-.567-.757s-.567.336-.567.757.252.757.567.757S532.76,103.863,532.76,103.442Zm-7.376-1.513c.129-.208-.031-.378-.356-.378s-.59.17-.59.378a.369.369,0,0,0,.356.378A.811.811,0,0,0,525.384,101.929Zm10.167-14.721c-.2-5.086-.869-7.256-.942-3.039-.022,1.342-.014,2.807.022,3.255a1.265,1.265,0,0,1-.336,1.063c-.239.147-.388,1.653-.371,3.724l.03,3.477.891-1.86c.828-1.73.878-2.192.706-6.62ZM499.027,89.7c.085-.439-.058-.56-.473-.4-.7.268-.818,1.419-.122,1.188a1.1,1.1,0,0,0,.595-.787Zm39.279-8.67c-.1-.26-.191-.047-.191.473s.086.733.191.473A1.461,1.461,0,0,0,538.306,81.03Zm-162.077,62.1a1.151,1.151,0,0,1,.863-1.862,6.1,6.1,0,0,0,1.961-1.418c.825-.78,1.892-1.731,2.373-2.113.652-.519.764-.8.442-1.125s-.618-.313-1.172.033c-.879.549-4.157.625-4.157.1,0-.2-.558-.346-1.24-.32a4.479,4.479,0,0,1-3.549-1.545c-.4-.538-.508-.532-1.165.062a3.02,3.02,0,0,1-1.753.657c-.76,0-1,.168-.916.647.09.524-.175.641-1.4.617-2.908-.058-4.062-.567-6.371-2.812-1.748-1.7-2.176-2.332-1.944-2.869a5.356,5.356,0,0,0-.161-4.677,8.833,8.833,0,0,1-.792-3.194,3.725,3.725,0,0,0-.42-1.976c-.54-.54-.47-7.784.092-9.511a2.406,2.406,0,0,0-.092-2.213c-.445-.832-.421-1,.2-1.46,1.033-.756,1.186-3.625.383-7.189a42.371,42.371,0,0,1-.829-5.556c-.122-2.035-.3-2.636-.879-2.945-.862-.461-.962-1.807-.158-2.116a.721.721,0,0,0,0-1.408c-.918-.352-.653-1.727.567-2.947a4.094,4.094,0,0,0,1.188-2.146c.029-.556.072-1.375.094-1.821a4.084,4.084,0,0,1,1.008-1.9,8,8,0,0,0,1.217-1.744c.385-1,1.409-.808,1.409.27a1.577,1.577,0,0,0,.378,1.157c.208.129.378-.083.378-.469,0-.728.671-1.611,1.224-1.611.174,0,.209,1.319.077,2.932s-.362,5.4-.512,8.416a44.492,44.492,0,0,1-.675,6.649,3.406,3.406,0,0,0,.146,2.648c.395,1.069.579,3.6.656,9.049.114,8.009.6,13.207,1.305,13.91a2.124,2.124,0,0,1,.426,1.3,2.327,2.327,0,0,0,.756,1.521,2.4,2.4,0,0,1,.757,1.585c0,.583.133.8.352.578s.13-1.155-.226-2.44a60.731,60.731,0,0,1-.883-9.646c-.168-4.161-.321-7.626-.341-7.7s-.277-.043-.572.071a.473.473,0,0,1-.662-.243c-.217-.773.3-15.9.586-17.053a6.717,6.717,0,0,1,.819-1.881c.8-1.137.811-.81.217,5.149a22.235,22.235,0,0,0-.087,4.495c.421,2.061,1.249.37,1.365-2.788.126-3.429.035-3.12,1.057-3.586.869-.4.869-.395.959,3.06.049,1.9.138,3.966.2,4.591s.137,4.02.176,7.546c.055,4.987.171,6.311.524,5.958a1.526,1.526,0,0,1,.714-.454c.343,0,.736,2.716,1.071,7.415.221,3.1.472,4.209,1.327,5.864a21.2,21.2,0,0,0,1.338,2.345c.156.168.819-.145,1.473-.7s1.189-.815,1.189-.589a.408.408,0,0,1-.4.412c-.942,0,.1.643,1.084.672.916.025,1.209-.219,1.851-1.55.42-.869,1.449-2.942,2.289-4.607,1.946-3.86,3.121-6.861,3.121-7.972a1.487,1.487,0,0,1,.378-1.107,1.7,1.7,0,0,0,.378-1.225,8.912,8.912,0,0,1,.357-2.153,55.524,55.524,0,0,0,2.442-10.526c.458-3.486.458-4.307,0-5.823a15.116,15.116,0,0,1-.531-3.619c0-2.046-.734-2.213-.789-.179l-.033,1.207-.361-1.135a5.966,5.966,0,0,1,.078-3.06c.326-1.428.33-2.13.016-2.717-.545-1.018-.553-5.257-.011-5.592.228-.141.336-.665.24-1.166s-.027-1,.153-1.113a1.183,1.183,0,0,0,.327-.9,1,1,0,0,1,.52-.893c.578-.222,1.28.929,1.451,2.38.089.755.346.956,1.321,1.034.666.053,1.314-.071,1.441-.275.609-.986,3.81.3,4.361,1.748.189.5.624.906.965.906.492,0,.564.216.345,1.04a25.39,25.39,0,0,0-.437,3.5,12.317,12.317,0,0,1-.568,3.271c-.454.907-.27,2.955.472,5.239.825,2.544.4,15.97-.558,17.517-.435.7.191.529.753-.211a4.521,4.521,0,0,0,.52-2.175,5.149,5.149,0,0,1,.384-2.08c.263-.406.368-.005.373,1.413a20.122,20.122,0,0,1-1.559,7.357,10.121,10.121,0,0,0-.7,2.937,4.523,4.523,0,0,1-.37,1.821,35.776,35.776,0,0,0-1.344,3.656c-1.059,3.26-3.309,7.094-4.48,7.632a4.2,4.2,0,0,0-1.408,1.613A6.91,6.91,0,0,1,385,134.529a1.96,1.96,0,0,0-1.479,1.518,3.94,3.94,0,0,1-.679,1.537,5.382,5.382,0,0,0-.823,1.587,6.893,6.893,0,0,1-2.078,2.408,6.6,6.6,0,0,0-1.821,1.814c-.184.789-1.332.629-1.889-.262ZM369.114,133.1c.489-.188.424-.46-.408-1.717-.633-.956-1.12-1.363-1.353-1.131s-.705,0-1.312-.647l-.948-1.01.282.946c.385,1.289,1.363,2.337,1.966,2.106.3-.114.5.083.5.491C367.838,133.192,368.189,133.457,369.114,133.1Zm-1.9-5.363c-.121-.465-.456-.845-.744-.845-.636,0-.641.084-.08,1.316.516,1.133,1.149.771.824-.472Zm22.166-18.81a9.093,9.093,0,0,0,.771-1.893,15.177,15.177,0,0,1,1.215-2.742c.64-1.061.659-1.229.143-1.229a.625.625,0,0,1-.152-1.22c.278-.093.339-.426.161-.883-.273-.7-.315-.7-1.014.159a3.968,3.968,0,0,0-.728,2.288,3.531,3.531,0,0,1-.34,1.755,11.41,11.41,0,0,0-.515,3.385c-.1,1.664-.1,2.516-.005,1.893a4.285,4.285,0,0,1,.466-1.513Zm-29.864-1.681a2.821,2.821,0,0,0-.378-1.725c-.231-.143-.378.437-.378,1.491,0,.948.17,1.724.378,1.724s.378-.671.378-1.491Zm6.106-7.306c-.519-.519-.9.342-.592,1.324l.267.841.336-.909a1.318,1.318,0,0,0-.011-1.256Zm26.613-2.172c.128-.208-.042-.378-.378-.378s-.507.17-.378.378.3.378.378.378S392.107,97.976,392.236,97.768Zm3.972-2.27c0-1.261-.168-2.27-.378-2.27s-.378,1.009-.378,2.27.168,2.27.378,2.27S396.207,96.76,396.207,95.5Zm-1.513-16.991a3.459,3.459,0,0,1,.23-.946c.151-.393.019-.6-.378-.6s-.608.329-.608.946c0,.52.17.946.378.946A.365.365,0,0,0,394.694,78.508Zm88.513,62.786c0-.194.52-.723,1.156-1.176,1.113-.792,1.131-.851.493-1.556a2.073,2.073,0,0,0-1.44-.674,8.222,8.222,0,0,1-1.156.016c-.239-.027-.358-2.274-.321-6.06.053-5.564.005-6.032-.642-6.2-.571-.149-.721-.622-.813-2.578-.1-2.11-.226-2.455-1.059-2.9-1.3-.694-10.13-.367-12.436.46a10.61,10.61,0,0,1-2.837.6,7.285,7.285,0,0,0-2.832.948,5.41,5.41,0,0,1-3.215.847l-1.565-.1-.114,2.42a6.265,6.265,0,0,0,.284,2.818c.278.278.4.2.4-.245,0-.354.17-.643.378-.643s.381.638.384,1.419c.006,1.8.4,2.406,1.451,2.277.778-.1.844.073.966,2.447.13,2.511.115,2.557-1.015,3.121a5.393,5.393,0,0,1-1.708.572,1.463,1.463,0,0,0-.993.59c-.672.919-2.489.1-2.489-1.125a1.589,1.589,0,0,0-.4-1.178c-.274-.17-.269-.4.016-.745s.293-.576.016-.745a1.937,1.937,0,0,1-.4-1.363,4.127,4.127,0,0,0-.452-1.841,1.522,1.522,0,0,1,0-1.715c.547-1.2.6-6.491.074-6.819-.241-.149-.378.942-.378,3,0,1.906-.155,3.238-.378,3.238s-.378-1.632-.378-4.139c0-2.293-.165-4.241-.37-4.367-.662-.409-1.9.556-1.9,1.481a1.23,1.23,0,0,1-.567,1.11c-.689.265-.742,1.428-.094,2.076a5.662,5.662,0,0,1,.537,2.629c.085,2.821.066,2.723.5,2.723.208,0,.378-.369.378-.82,0-1.8.363-.3.536,2.214a30.553,30.553,0,0,0,.432,3.67c.19.759.107.988-.36.988a.581.581,0,0,1-.608-.545c0-.731-.487-.99-1.123-.6-.432.267-.413.483.113,1.286a3.935,3.935,0,0,1,.632,1.728c0,.666-.168.6-1.32-.519-1.275-1.238-1.3-1.318-.759-2.357.708-1.358.723-2.163.035-1.9-.827.317-1.01-.144-.4-1.013a4.8,4.8,0,0,0,.554-2.288,9.677,9.677,0,0,1,.449-2.739,2.3,2.3,0,0,0,.011-2.107,34.535,34.535,0,0,1-2.252-10.256c-.132-2.825-.033-3.6.646-5.045.76-1.616,1.141-3.007,1.9-6.934.549-2.834.829-3.784,1.178-4a1.553,1.553,0,0,0,.333-1.107,1.536,1.536,0,0,1,.378-1.135,2.822,2.822,0,0,0,.378-1.725c0-.82.17-1.491.378-1.491s.378-.46.378-1.021c0-.785.1-.918.446-.575s.33.664-.057,1.387c-.407.76-.411,1.051-.025,1.517.56.675,1.145.433,1.157-.478a3.508,3.508,0,0,1,.748-1.585,3.617,3.617,0,0,0,.748-1.774,1.434,1.434,0,0,1,.387-1.063,1.537,1.537,0,0,0,.378-1.135,1.537,1.537,0,0,1,.378-1.135c.459-.283.519,2.146.066,2.667a8.664,8.664,0,0,0-.8,2.062,34.028,34.028,0,0,1-1.489,4.273,7.034,7.034,0,0,0-.425,2.19,16.434,16.434,0,0,1-.715,3.481,54.458,54.458,0,0,0-1.964,9.709,22.329,22.329,0,0,1-.7,3.783,9.118,9.118,0,0,0-.543,1.612c-.209.877-.077,1.115.9,1.621,1.041.539,1.167.538,1.375-.005a7.916,7.916,0,0,0,.054-2.419,3.991,3.991,0,0,1,.332-2.515,2.978,2.978,0,0,0,.507-1.491,1.944,1.944,0,0,1,.35-1.157,13.476,13.476,0,0,0,.561-3.764,32.929,32.929,0,0,1,1.471-8.7c.32-1.04.784-2.657,1.029-3.593A45.332,45.332,0,0,1,460.917,84.7a11.163,11.163,0,0,1,5.453-4.358,9.016,9.016,0,0,0,1.872-.813c.6-.5,1.845-.338,3.047.395.783.477,2.235.764,4.664.922,3.391.22,3.6.287,5.483,1.744,2.04,1.581,3.069,3.531,4.615,8.743,1.151,3.882,2.154,18.845,1.33,19.837-.294.355-.455,1.715-.434,3.676a17.275,17.275,0,0,1-.415,4.353c-.471,1.3-.135,2.2.468,1.248.271-.429.353-.338.358.4a3.753,3.753,0,0,0,.591,1.791c.488.7.557,1.856.417,6.987-.093,3.384-.249,6.663-.347,7.287s-.2,1.611-.227,2.193c-.04.86-.351,1.2-1.656,1.788-1.745.792-2.931.952-2.931.394Zm2.207-16.72c-.07-.492-.3-.861-.5-.82-.485.1-.7,1.118-.4,1.9C484.854,126.547,485.572,125.686,485.414,124.574Zm-32.09-3.543c0-.312-.17-.567-.378-.567s-.378.255-.378.567.17.567.378.567S453.325,121.344,453.325,121.031Zm24.965-3.215a.369.369,0,0,0-.356-.378.811.811,0,0,0-.59.378c-.129.208.031.378.356.378S478.29,118.024,478.29,117.816Zm-24-1.8a1.532,1.532,0,0,0,.449-1.034c.025-.416.239-1.668.474-2.781a6.045,6.045,0,0,0,.222-2.229c-.4-.4-1.362.778-1.79,2.206-.352,1.176-.334,1.58.093,2.1.41.5.423.677.056.8a.772.772,0,0,0-.473.695c0,.588.348.676.969.246Zm23.886-1.081c.293-.881-3.564-1.221-5.445-.479-.985.389-1.008.442-.308.717,1.13.444,5.588.259,5.753-.238Zm-13-.714c3-.475,4.338-.543,4.974-.253.729.332.9.278,1.061-.335s.533-.731,2.261-.731c2.009,0,4.81-.84,4.81-1.442,0-1.393-3.8-1.348-13.05.157-6.64,1.079-7,1.174-7,1.848,0,1.313.485,1.778,1.662,1.593l5.28-.835Zm12.207-5.528a21.855,21.855,0,0,1-.266-3.121c-.017-1.066-.116-1.726-.221-1.466a.718.718,0,0,1-.538.473c-.47,0-.439-1.391.052-2.307.3-.564.21-1.275-.378-2.932a13.634,13.634,0,0,1-.779-3.108,4.63,4.63,0,0,0-.754-2.055,4.73,4.73,0,0,1-.76-2.08c-.016-1.672-.513-2.083-1.855-1.527-2.055.851-4.412,4.694-7.662,12.5-2.31,5.546-2.327,5.629-1.191,5.914a10.54,10.54,0,0,0,3.472-.362c6.645-1.6,9.887-1.581,9.887.049,0,.774.311,1.207.867,1.207.2,0,.259-.516.126-1.182Zm-25.2-12.814c0-.208-.075-.378-.167-.378s-.272.17-.4.378-.054.378.167.378A.391.391,0,0,0,452.19,95.877Zm-82.839,44.842c0-.5,5.249-2.271,5.625-1.895.419.419-1.38,1.287-2.694,1.3-.78.005-1.419.182-1.419.39s-.34.378-.756.378-.757-.077-.757-.171Zm-42.933-.963a.811.811,0,0,1,.59-.378.369.369,0,0,1,.356.378c0,.208-.266.378-.59.378S326.29,139.963,326.418,139.755Zm183.327-1.891c0-.52.086-.733.191-.473a1.46,1.46,0,0,1,0,.946C509.831,138.6,509.745,138.384,509.745,137.864Zm-102.479-2.6c0-2.532-.122-3.1-.8-3.783s-.807-1.28-.846-4.111c-.025-1.82-.014-3.536.025-3.813a2.814,2.814,0,0,0-.523-1.405c-.8-1.225-.8-4.826.008-5.495.439-.364.537-.859.364-1.843-.13-.74-.372-2.58-.539-4.089a12.474,12.474,0,0,0-.553-2.995,42.06,42.06,0,0,0-.25,6.684c0,3.814-.128,6.808-.284,6.653a37.384,37.384,0,0,1-.563-6.021c-.154-3.156-.381-6.887-.505-8.292-.152-1.722-.092-2.553.185-2.553.532,0,.545-3.655.014-3.983-.274-.169-.267-.4.022-.75a4.1,4.1,0,0,0,.322-2.141c-.151-2.552.027-6.139.291-5.875.219.219.317,2.357.539,11.8l.08,3.4.422-3.783a15.157,15.157,0,0,1,1.05-4.728c.417-.628.7-2.091.828-4.35.11-1.872.377-4.415.593-5.649.373-2.128.343-2.311-.576-3.516a5.757,5.757,0,0,1-1.094-2.862c-.094-1.207-.269-1.564-.724-1.479s-.6-.2-.6-1.081c0-.909.135-1.137.567-.962l1.04.423c.26.106.949-.248,1.531-.788.839-.778,1.169-.889,1.593-.537s.674.216,1.246-.726c.707-1.162.716-1.165,1.4-.412a2.227,2.227,0,0,0,1.185.758c.353,0,.433.332.272,1.135-.308,1.543.72,1.54,1.632,0,.751-1.271,1.249-1.284,1.871-.047.756,1.5,2.139,2.717,2.841,2.495a1.981,1.981,0,0,1,1.349.169,20.135,20.135,0,0,0,5.1,1.927c1.565,0,8.838,4.165,11.343,6.5,2.674,2.489,3.121,3.64,3.058,7.877-.061,4.13-1.079,8.021-2.556,9.778a5.251,5.251,0,0,0-.936,1.368,2.9,2.9,0,0,1-1.26,1.337c-.1,0-1.685,1.49-3.526,3.312-4.34,4.3-8.522,7.279-10.2,7.279a2.738,2.738,0,0,0-2.018.828c-1,1.074-1.02,1.95-.037,1.638.585-.186.73-.056.713.636-.029,1.169-.7,2.95-1.115,2.95-.183,0-.332.355-.332.788,0,1.064.343.881,2.906-1.556,1.21-1.15,3.3-3.023,4.647-4.161a40.424,40.424,0,0,0,3.088-2.826c.353-.416.734-.664.848-.551s-.209.688-.716,1.279-.831,1.221-.719,1.4c.369.6.743.344,1.171-.789a2.067,2.067,0,0,1,1.5-1.382,2.751,2.751,0,0,0,1.343-.668c.145-.222.386-.281.536-.13.409.409-.426,1.742-2.481,3.961-1.011,1.092-1.707,2.068-1.545,2.168.281.174,1.246-.575,3.51-2.725,1.654-1.571,1.661-.69.008,1.3a18.321,18.321,0,0,0-1.656,2.2,25.239,25.239,0,0,1-2.8,2.822,37.145,37.145,0,0,0-3.2,3.2c-.8,1.126-6.521,6.635-6.891,6.635a2.406,2.406,0,0,1-1-.686c-.563-.563-.6-.769-.189-1.15,1.321-1.234-.229-2.014-1.757-.884-.845.625-1.176.693-1.607.335a7.986,7.986,0,0,1-2.042-3.289c-.022-.312-.066-1.078-.1-1.7-.048-.881-.144-1.008-.428-.567a3.02,3.02,0,0,0-.372,1.372,1.866,1.866,0,0,1-.794,1.328c-.646.429-.8.953-.851,2.914-.05,1.883-.219,2.5-.8,2.928a2.97,2.97,0,0,1-.995.537,8.809,8.809,0,0,1-.261-2.982Zm7.851-9.477a4.6,4.6,0,0,0-.527-1.6c-.39-.747-.415-1.115-.1-1.432.279-.279.529-3.8.719-10.154.431-14.365.577-16.421,1.206-17.05.479-.479.571-.433.73.362.1.5.375,5.331.611,10.735s.5,9.892.58,9.975c.363.362,9.393-9.233,11.045-11.737,3.487-5.283,3.478-7.108-.046-9.535-3.879-2.672-13.786-7.623-14.275-7.134a32.533,32.533,0,0,0-.343,5.87,26.236,26.236,0,0,1-.347,5.573c-.539,0-.691-1.411-.747-6.894a28.269,28.269,0,0,0-.385-5.727c-.189-.189-.84-.109-1.519.187-1,.437-1.152.666-.955,1.464.128.52.378,1.83.555,2.91a10.84,10.84,0,0,0,.609,2.431,77,77,0,0,1,.6,8.627c.171,4.488.451,11.218.621,14.954.246,5.381.2,7.1-.2,8.285-.775,2.249-.345,2.887,1.047,1.554a3.6,3.6,0,0,0,1.121-1.668ZM414.074,101.4c-.283-.62-.308-.989-.068-.989.46,0,.864.94.663,1.544C414.589,102.2,414.322,101.949,414.074,101.4Zm6.342,15.655c0-.208-.075-.378-.167-.378s-.272.17-.4.378-.053.378.167.378A.391.391,0,0,0,420.416,117.06ZM411.6,105.807c-.1-.364-.173-.066-.173.662s.078,1.026.173.662A3.1,3.1,0,0,0,411.6,105.807Zm-2.272-16.052c-.121-.3-.21-.212-.228.228-.016.4.073.622.2.5a.762.762,0,0,0,.03-.725Zm1.045,47.7a.727.727,0,0,1,.167-.832c.309-.309.421-.2.421.411q0,1.37-.588.421Zm-96.814-.808a18.01,18.01,0,0,1-1.694-.658c-.784-.386-3.809-5.4-3.6-5.972a.335.335,0,0,0-.341-.473c-.543,0-.762-2.216-1.186-12.031-.262-6.072.105-7.745,1.66-7.565.89.1,1.009.288,1.052,1.629.027.832.069,2.066.094,2.742.042,1.128.8,1.841.8.753a1.529,1.529,0,0,1,.757-.949,1.656,1.656,0,0,0,.757-1.211c0-.7,1.34-2.281,1.937-2.281.155,0,.389.34.522.757.243.766,1.324,1.075,1.324.378,0-.9.685-.268.915.851.238,1.152.282,1.182.709.473.385-.639.494-.2.7,2.837.311,4.562.719,7.649,1.075,8.133a5.247,5.247,0,0,1,.527,1.418c.728,3.047,5.062-1.48,6.609-6.9.267-.936.644-2.225.838-2.864a10.508,10.508,0,0,0,.353-2.531,2.654,2.654,0,0,1,.326-1.571,5.791,5.791,0,0,0,.814-2.008,15.034,15.034,0,0,1,1.041-2.782,1.666,1.666,0,0,0,0-2.08c-.558-1.114-.673-4.063-.178-4.558a3.349,3.349,0,0,0,.215-1.622c-.034-.882-.109-1.058-.216-.5-.09.468-.394.851-.675.851-.527,0-.956-3.618-.929-7.831.011-1.833-.069-2.01-1.188-2.589a3.607,3.607,0,0,0-2.57-.349,81.193,81.193,0,0,1-10.352.177c-1.623-.124-5.729.638-5.88,1.09-.109.328-.288.341-.64.049-.333-.276-1-.29-2.09-.046-2.6.584-3.56-.338-1.435-1.375a5.109,5.109,0,0,0,1.409-1.006c.363-.437.234-.582-.7-.787-1.36-.3-2.674.047-2.674.7a2.643,2.643,0,0,1-.517,1.177c-.485.663-.559.62-1.183-.7-.637-1.342-.636-1.436.008-2.148a2.426,2.426,0,0,1,1.539-.745,1.479,1.479,0,0,0,1.128-.426c.174-.281.984-.346,2.386-.191,1.168.13,5.7.294,10.067.365s8.495.261,9.168.422a5.515,5.515,0,0,0,2.175.054c1.089-.273,1.273-1.283.289-1.588a9.144,9.144,0,0,1-1.324-.559,1.38,1.38,0,0,0-1.442.122c-.656.4-.856.373-1.264-.176s-.947-.624-3.287-.484c-2.786.166-2.795.164-1.479-.414.963-.423,2.291-.548,4.874-.461,2.943.1,3.617.016,3.937-.491,1.2-1.9-1.305-2.381-11.318-2.171-5.325.111-6.538.243-7.318.8-1.2.849-5.684.958-5.684.138,0-.749,2.686-3.258,3.488-3.258a2.64,2.64,0,0,0,1.459-.786c.7-.7,1.08-.761,3.5-.555,5.443.464,10.562.629,11.169.36a15.989,15.989,0,0,1,3.35-.388,11.4,11.4,0,0,0,4.327-.884c1.756-.848,3.351-1,3.98-.366a2.631,2.631,0,0,0,1.682.284c1.084-.1,1.3-.292,1.469-1.252.254-1.48,1.354-1.711,1.947-.41.378.83.687.973,2.107.973,1.041,0,1.574.145,1.424.388a1.207,1.207,0,0,1-1.063.284c-.452-.057-.823.063-.823.268s.312.319.694.255a1.307,1.307,0,0,1,1.135.459c.483.631,5.276.873,10.276.52,3.22-.228,3.029-.162,2.459-.849-.4-.484-.3-.567.71-.567.922,0,1.181.163,1.181.743a1.533,1.533,0,0,0,.8,1.17c.769.412.74.479-.836,1.9L355.2,79.234h-5.985c-5.138,0-6.017.086-6.217.606a.745.745,0,0,0,.143.851,2.689,2.689,0,0,1,.632,1.294c.215.879.37.988.956.674a6.052,6.052,0,0,1,2.607-.149c1.43.169,1.954.4,2.093.933.158.6.564.708,2.774.71,2.528,0,2.563.016,1.505.567a5.454,5.454,0,0,1-2.091.565c-1.216,0-2.5,1.279-1.812,1.807a5.771,5.771,0,0,0,1.2.633l.757.288-.757.311a13.321,13.321,0,0,1-3.237.338c-3.6.038-3.87.341-4.192,4.621a21.213,21.213,0,0,1-.916,5.051l-.65,1.513-.467-1.324-.467-1.324-.3,1.513a44.938,44.938,0,0,0-.358,5.485c-.034,2.185-.2,5.519-.371,7.411-.212,2.36-.178,3.665.11,4.161.4.693.42.69.431-.078.011-.824,1.341-2.793,1.886-2.793.632,0,.7,1.651.151,3.535-.314,1.072-.759,2.63-.988,3.462a10.031,10.031,0,0,1-.675,1.891,6.259,6.259,0,0,0-.467,1.742,5.413,5.413,0,0,1-1.187,2.419,3.509,3.509,0,0,0-.987,2.23,4.087,4.087,0,0,1-.748,2.12,3.676,3.676,0,0,0-.748,1.353,4.08,4.08,0,0,1-2.2,2.052c-.24,0-.339-.255-.219-.567.261-.681-.288-.747-.924-.112a4.88,4.88,0,0,1-2.322.539c-1.481.066-1.824-.028-1.66-.455.322-.84-.666-.627-2.363.509-5.717,3.828-4.867,3.5-8.839,3.452a23.545,23.545,0,0,1-4.749-.422Zm18.679-7.859a5.8,5.8,0,0,0,.8-2.429,2.968,2.968,0,0,1,.537-1.7,19.973,19.973,0,0,0,1.563-4.38c1.7-6.262,2.422-10.605,2.433-14.676a9.214,9.214,0,0,1,.654-4.161c.484-.906.65-2.177.662-5.056.014-3.567-.209-4.757-.784-4.181a3.019,3.019,0,0,0-.288,1.334,3.321,3.321,0,0,1-.491,1.627c-.267.322-.51,2.8-.626,6.389-.189,5.808-1.021,11.68-1.316,9.286a22.2,22.2,0,0,1,.258-3.972c.217-1.571.444-6.515.5-10.988l.107-8.133h-.936c-.672,0-.947.214-.973.757-.146,2.993-.278,4.07-.427,3.5-.91-3.483-.939,9.423-.032,14.658.7,4.024.753,5.788.272,8.6-.259,1.514-.5,3.178-.545,3.7a37.472,37.472,0,0,1-2.511,9.59,15.429,15.429,0,0,0-1.084,2.568c0,.546,1.334-.847,2.225-2.323ZM317.023,114.7c-.1-.26-.191-.047-.191.473s.086.733.191.473A1.461,1.461,0,0,0,317.023,114.7Zm15.519-.567c-.1-.364-.173-.066-.173.662s.078,1.026.173.662A3.1,3.1,0,0,0,332.542,114.128Zm-1.05-11.684c.027-1.608.147-1.935.7-1.891s.685-.307.779-1.8c.132-2.07-.489-3.223-.885-1.645a1.664,1.664,0,0,1-.967,1.154c-.649.17-.724.56-.724,3.771a34.4,34.4,0,0,0,.273,4.858c.271,1.267.275,1.262.534-.615.144-1.04.276-2.766.294-3.835ZM318.286,86.8c0-.446,1.392-.516,1.576-.079.069.165.424-.006.788-.378.636-.651.462-.675-4.35-.6-2.757.04-3.907.134-2.557.21,1.634.091,2.557.32,2.761.684.345.616,1.782.752,1.782.169Zm-12.672-1.513c.139-.225-.274-.367-1.018-.352-1.043.022-1.126.081-.5.352C305.127,85.727,305.341,85.727,305.614,85.286Zm29.694-2.648a.378.378,0,1,0-.378.378A.38.38,0,0,0,335.307,82.638Zm.114-2.02a1.338,1.338,0,0,0-.133-1.037c-.441-.714-1.308.12-.988.951.279.726.859.771,1.121.086Zm155.49,56.03c-.372-.6-.157-5.341.261-5.762a2.69,2.69,0,0,0-.074-2.757c-.321-.321-.274-1.054.189-2.9a21.4,21.4,0,0,0,.619-3.27c0-1.447.942-.552,1.041.99a14.91,14.91,0,0,0,.513,2.84c.307,1,.3,2.444-.025,5.464-.382,3.543-.568,4.223-1.357,4.955-.593.55-1,.7-1.169.437Zm-79.687-1.938a1.263,1.263,0,0,1,.1-.986c.189-.306.3-.123.3.507,0,1.1-.108,1.231-.4.479Zm66.94-2.015c-.318-.318-.329-3.81-.016-5.374.453-2.263.9-1.16.9,2.222,0,3.122-.2,3.835-.883,3.152Zm32.256-6.4c-.014-3.1-.1-6.451-.2-7.439-.108-1.094-.025-1.8.212-1.8.407,0,.525.476.405,1.63a1.882,1.882,0,0,0,.368,1.214,2.2,2.2,0,0,1,.164,1.774,42.613,42.613,0,0,0-.317,5.469,20.572,20.572,0,0,1-.325,4.508c-.156.156-.294-2.255-.307-5.359Zm-51.391,3.026c.016-.441.108-.53.228-.228a.761.761,0,0,1-.03.725c-.126.126-.215-.1-.2-.5Zm30.231-9.69c0-5.424.135-8.638.352-8.416a38.855,38.855,0,0,1,.409,6.979c.08,9.269.044,10.213-.383,10.213C489.4,128.408,489.26,125.23,489.26,119.632Zm-134.283.81c0-.428.17-.674.378-.545a1,1,0,0,1,.378.779c0,.3-.17.545-.378.545S354.977,120.87,354.977,120.442Zm82.839-7.065c0-.568,1.109-1.854,1.123-1.3a1.852,1.852,0,0,1-.555,1.067c-.312.312-.567.418-.567.234Zm1.525-2.463c.014-.517.889-1.8,1.23-1.8.117,0-.042.511-.353,1.135Q439.314,112.065,439.341,110.913ZM172.9,109.08c-.085-.292-.372-1.3-.638-2.233a28.467,28.467,0,0,0-4.107-8.064c-3.261-4.379-2.828-7.377,1.267-8.785a2.277,2.277,0,0,1,2.519.287c1.151.7,1.281.705,2.6.11a4.211,4.211,0,0,1,5.153,1.064c1.393,1.656,1.141,4.04-.693,6.558-2.487,3.415-4.791,7.977-4.841,9.588a2.838,2.838,0,0,1-.563,1.287c-.422.557-.58.6-.7.189Zm267.943-1.5c0-.22.17-.3.378-.167s.378.309.378.4-.17.167-.378.167A.391.391,0,0,1,440.842,107.581Zm2.153-.384c-.147-.563-.453-.75-1.084-.662-.986.138-1-.025-.5-4.605.15-1.352.265-2.629.256-2.837s-.04-1.953-.069-3.877-.21-3.5-.4-3.5-.323-.687-.29-1.526a3.425,3.425,0,0,0-.381-1.967,1.7,1.7,0,0,1-.444-1.027,3.154,3.154,0,0,0-1.2-1.532c-2.531-1.992-2.756-2.211-2.519-2.45.343-.345,3.277,1.745,3.545,2.525a1.676,1.676,0,0,0,.987.886c1.929.612,4.32,3.973,4.566,6.415.085.839.287,1.106.776,1.024.555-.093.662.186.662,1.721a4.746,4.746,0,0,1-.365,2.2,6.422,6.422,0,0,0-.547,2.44c-.281,3.206-.647,4.6-1.612,6.141a7.091,7.091,0,0,1-1.029,1.418c-.077,0-.233-.353-.346-.785Zm47.506.312c-.444-.577-1.252-5.117-1.43-8.042a8.427,8.427,0,0,0-.349-2.362,2.084,2.084,0,0,1-.219-1.079,1.466,1.466,0,0,0-.378-1.094c-.6-.372-.438-2.009.24-2.389.561-.314.549-.415-.123-1.087a1.5,1.5,0,0,1-.517-1.38c.2-.567.3-.546.937.194a3.56,3.56,0,0,1,.648,2.652c-.036,1.025.1,1.82.321,1.82s.385-.265.385-.59.178-.48.394-.346c.425.263.318,2.737-.152,3.5-.193.312-.016.464.535.464.719,0,.795.154.607,1.229-.457,2.62-.6,6.687-.241,6.909.459.284.492,2.075.037,2.075a1.168,1.168,0,0,1-.7-.473Zm-106.776-2.342a1.577,1.577,0,0,1,.378-1.157,1.536,1.536,0,0,0,.378-1.135,1.537,1.537,0,0,1,.378-1.135c.214-.132.378.178.378.712a1.617,1.617,0,0,1-.378,1.179,1.943,1.943,0,0,0-.378,1.346c0,.612-.17,1.112-.378,1.112S383.725,105.675,383.725,105.167ZM508.3,93.608c0-1.56.067-2.2.149-1.418a16.481,16.481,0,0,1,0,2.837C508.367,95.806,508.3,95.168,508.3,93.608ZM527.015,96a.761.761,0,0,1,.725.03c.126.126-.1.215-.5.2-.441-.016-.53-.108-.228-.228ZM486.99,88.312c0-.208.255-.378.567-.378s.567.17.567.378-.255.378-.567.378S486.99,88.52,486.99,88.312ZM366.22,86a4.87,4.87,0,0,1-.43-2.369,1.385,1.385,0,0,0-.259-1.231c-.43-.518-.316-.76.809-1.724.839-.72,1.139-1.192.836-1.316-.693-.284-.577-.963.14-.82.417.083.641.585.7,1.57.076,1.26-.006,1.423-.637,1.258-.692-.181-.7-.146-.094.774.489.747.539,1.144.224,1.768A7.576,7.576,0,0,0,367,86.231l-.1,1.513Zm90.539.2c.016-.441.108-.53.228-.228a.761.761,0,0,1-.03.725c-.126.126-.215-.1-.2-.5Zm.77-1.765a14.537,14.537,0,0,1,1.148-1.753c.532-.686.7-.754.7-.284,0,.34-.17.618-.378.618s-.378.267-.378.594c0,.582-.855,1.675-1.31,1.675-.126,0-.028-.383.219-.851Zm-25.457-.92a.761.761,0,0,1,.725.03c.126.126-.1.215-.5.2-.441-.016-.53-.108-.228-.228Zm96.015-1.228a2.71,2.71,0,0,0-1.385-1.651c-1.356-.355-.8-1.729,1.141-2.8a17.423,17.423,0,0,0,2.032-1.255.89.89,0,0,1,.851-.113c.38.146.521.98.521,3.069,0,2.53-.062,2.785-.521,2.156-.49-.67-.537-.642-.78.464-.387,1.762-1.185,1.818-1.86.131Zm-92.989.472a.761.761,0,0,1,.725.03c.126.126-.1.215-.5.2C434.885,82.967,434.8,82.879,435.1,82.758Zm-6.881-3.071c-.244-.395-9.883-3.479-10.873-3.479-.751,0-3.736-1.545-3.736-1.933,0-.781,1.884-1.247,3.166-.784a8.546,8.546,0,0,0,2.345.456,3.969,3.969,0,0,1,2.054.748,4.036,4.036,0,0,0,1.253.748,22.677,22.677,0,0,1,2.837,1.2c2.287,1.08,3.822,2.3,3.845,3.061.011.378-.654.364-.891-.02Zm35.321-2.142a.564.564,0,0,1,.542-.581c.3,0,.648-.335.778-.743.154-.486.72-.833,1.633-1a7.354,7.354,0,0,0,2.181-.769,16.623,16.623,0,0,1,4.824-.757c3.594-.22,4.124-.171,4.8.444,1.016.92.4,1.3-2.126,1.309a16.087,16.087,0,0,0-4.161.753,14.831,14.831,0,0,1-3.287.757,4.142,4.142,0,0,0-1.895.561,1.308,1.308,0,0,1-1.385.216,1.285,1.285,0,0,0-1.226.029c-.52.278-.682.227-.682-.216ZM346.834,74.3c-.338-.547.155-1.118.966-1.118.469,0,.65.189.516.538C348.052,74.408,347.125,74.771,346.834,74.3Z" transform="translate(0 0)"/></g></svg>